<?xml version="1.0" standalone="no"?>
<!DOCTYPE svg PUBLIC "-//W3C//DTD SVG 20010904//EN"
 "http://www.w3.org/TR/2001/REC-SVG-20010904/DTD/svg10.dtd">
<svg version="1.0" xmlns="http://www.w3.org/2000/svg"
 width="32.000000pt" height="32.000000pt" viewBox="0 0 32.000000 32.000000"
 preserveAspectRatio="xMidYMid meet">

<g transform="translate(0.000000,32.000000) scale(0.100000,-0.100000)"
fill="#000000" stroke="none">
<path d="M40 183 c-12 -65 -24 -128 -27 -140 -4 -19 -1 -23 20 -23 22 0 27 6
33 35 6 32 9 35 39 35 31 0 34 -3 37 -32 2 -25 8 -34 26 -36 28 -4 28 0 2 148
-11 63 -20 118 -20 123 0 4 -20 7 -44 7 l-44 0 -22 -117z m67 -41 c-10 -2 -20
-2 -22 0 -2 2 2 30 8 63 l11 60 11 -60 c10 -55 9 -60 -8 -63z"/>
<path d="M243 290 c-50 -20 -56 -75 -12 -124 35 -41 36 -76 2 -91 -14 -6 -23
-18 -23 -32 0 -28 15 -29 57 -3 54 32 56 91 7 149 -25 30 -27 61 -4 61 5 0 10
11 10 25 0 27 -3 28 -37 15z"/>
<path d="M203 129 c-16 -16 -5 -39 17 -39 25 0 35 18 20 35 -15 18 -22 19 -37
4z"/>
</g>
</svg>
