<svg xmlns="http://www.w3.org/2000/svg" viewBox="0 0 317.92 383.57"><defs><style>.cls-1{fill:#fff;}</style></defs><title>Recurso 2</title><g id="Capa_2" data-name="Capa 2"><g id="Layer_1" data-name="Layer 1"><path class="cls-1" d="M147.68,0A147.69,147.69,0,1,0,295.37,147.69,147.68,147.68,0,0,0,147.68,0Zm0,286A138.3,138.3,0,1,1,286,147.69,138.3,138.3,0,0,1,147.68,286Zm-18-269.27a.63.63,0,0,1,.44.67c-.61,7.57-1.41,29.86,8.75,40.43C151.25,70.67,231.07,153.43,239,161.34c8.71,8.7,12.45,21.23,7,33.13-3.66,7.93-10.75,13.15-17.65,13.59-4.87.33-25.56.14-25.56.14l0-14.85s7.18,0,13.59.2c13.91.56,18.31-18.66,2.19-25.62-15.23-6.59-104.85-34.07-115.23-37s-33.59-6.48-51.37,11.36c-1,1-1.46,1.12-1.94.83s-.29-.66,0-1.33L129,17A.62.62,0,0,1,129.71,16.72Zm66.65,198.42H96.08V179.41H196.36Zm9.83,8.52,23.92,27.2H62.31l24.26-27.2m0,0H206.19M62.35,335a19.8,19.8,0,0,1-14.64,5.81,20.26,20.26,0,0,1-15.44-6.85,19.4,19.4,0,0,1-4-6.4,22.06,22.06,0,0,1-1.33-7.7,19.65,19.65,0,0,1,1.62-7.94,20.82,20.82,0,0,1,4.77-6.75A19.88,19.88,0,0,1,40,300.81a22.12,22.12,0,0,1,8.16-1.44A20.6,20.6,0,0,1,59,302.18a17.69,17.69,0,0,1,3.81,3.11l-4.45,4.44A13,13,0,0,0,54,306.45a15,15,0,0,0-6.26-1.26,14.15,14.15,0,0,0-5.52,1.08,13.69,13.69,0,0,0-4.62,3.07,15.35,15.35,0,0,0-3.3,4.89,14.78,14.78,0,0,0-1.18,5.68,16,16,0,0,0,1.08,5.88,13.68,13.68,0,0,0,3,4.8,14.73,14.73,0,0,0,4.86,3.31,14,14,0,0,0,5.61,1.17,14.27,14.27,0,0,0,8.22-2.44,16.29,16.29,0,0,0,2.86-2.55l-.16-6.82-10.79-.11,4.24-5.67H64.72l.14,14.43A20.33,20.33,0,0,1,62.35,335Zm35.86-10.89,12.45,16h-8.1L87,319.61h5.14c8.39,0,9-4.72,9-7.41s-.87-7-9.35-7H86.12V340.1H80V299.83H93.45c4.76-.16,13.07,2.14,13.47,12C107.25,320,102.89,323.09,98.21,324.08ZM139.62,300l-4.77.05-16.38,40.3h6.2l3.88-9.71h16.93l3.61,9.48h6.3Zm-9.09,25.57,6.56-16.93,6.44,16.93Zm42.31,14.65h-6V299.79l5.93.18,15.36,28.66,15.58-28.84h6.2v40.38h-6.37l.06-27.13L188,341.58,172.91,313Zm57.95,0h-6V299.79l5.93.18,15.36,28.66,15.58-28.84h6.19v40.38h-6.35l.05-27.13L246,341.58,230.85,313Zm46.83-40.47h6.86l9.91,17.63,9.81-17.63h7l-13.75,24.35v16.23h-6.11V323.91Zm-121.9,72.5-4.12,10.64H146l14.24-36.47h5.15l14.27,36.47h-5.8l-4-10.64ZM168,367.08l-5.15-13.84-5.23,13.84Zm27.86-2.9-5.68,18.66h-2.79l-9.51-27.56h5.26l5.65,18.22,5.64-18.22h3L203,373.5l5.68-18.22h5.21l-9.55,27.56h-2.8Zm43.49,18.66v-3.41a13.18,13.18,0,0,1-4.25,3,12.47,12.47,0,0,1-5,1,14,14,0,0,1-10.31-4.13A14.17,14.17,0,0,1,215.67,369a15.24,15.24,0,0,1,1-5.52,14.13,14.13,0,0,1,2.93-4.58,13.78,13.78,0,0,1,4.55-3.21,14.37,14.37,0,0,1,5.62-1,13.29,13.29,0,0,1,5.21,1,12.71,12.71,0,0,1,4.33,3v-3.36h5v27.56Zm-18.52-13.95a9.56,9.56,0,0,0,2.77,7,9.13,9.13,0,0,0,6.77,2.82,8.8,8.8,0,0,0,6.44-2.83,9.15,9.15,0,0,0,2.79-6.63,9.7,9.7,0,0,0-2.76-6.94,8.79,8.79,0,0,0-6.58-2.88,9.44,9.44,0,0,0-9.43,9.48Zm34.34,13.95h-5V355.28h4.68v3.19a8.36,8.36,0,0,1,2.81-2.73,8,8,0,0,1,3.69-.93V360c-2.21.16-3.81.82-4.76,2s-1.44,3-1.44,5.53Zm32.06,0v-3.41a12.83,12.83,0,0,1-4.24,3,12.51,12.51,0,0,1-5,1,14.05,14.05,0,0,1-10.33-4.13,14.24,14.24,0,0,1-4.1-10.38,15,15,0,0,1,1-5.52,14.13,14.13,0,0,1,2.93-4.58,13.58,13.58,0,0,1,4.55-3.21,14.37,14.37,0,0,1,5.62-1,13.26,13.26,0,0,1,5.19,1,13.41,13.41,0,0,1,4.39,3V346.37h5v36.47ZM268.7,368.89a9.55,9.55,0,0,0,2.76,7,9.13,9.13,0,0,0,6.78,2.82,8.81,8.81,0,0,0,6.44-2.83,9.14,9.14,0,0,0,2.78-6.63,9.66,9.66,0,0,0-2.76-6.94,8.79,8.79,0,0,0-6.57-2.88,9.42,9.42,0,0,0-9.43,9.48Zm27.4,5h4.64a5.28,5.28,0,0,0,1.23,3.6,3.8,3.8,0,0,0,3.06,1.42,3.92,3.92,0,0,0,2.87-1.07,3.58,3.58,0,0,0,1.12-2.71,3.93,3.93,0,0,0-.79-2.47,6,6,0,0,0-2.55-1.7c-.41-.17-1-.39-1.72-.66a15.79,15.79,0,0,1-3.73-1.75,7.36,7.36,0,0,1-2.2-2.67,8.13,8.13,0,0,1-.71-3.44,7.69,7.69,0,0,1,2.36-5.71,7.77,7.77,0,0,1,5.73-2.36,7.61,7.61,0,0,1,5.63,2.08,8.45,8.45,0,0,1,2.28,5.79h-4.74a3.66,3.66,0,0,0-1-2.37,3.19,3.19,0,0,0-2.36-.86,3,3,0,0,0-2.23.92,3.11,3.11,0,0,0-.88,2.27c0,1.53,1.32,2.79,4,3.78l1.78.67a9.88,9.88,0,0,1,4.49,3.2,8.69,8.69,0,0,1,1.34,5.08,8.34,8.34,0,0,1-2.51,6.18,8.77,8.77,0,0,1-6.33,2.45,8,8,0,0,1-6.19-2.59A11,11,0,0,1,296.1,373.9Zm19-74.26a2.85,2.85,0,1,0,2.84,2.85A2.84,2.84,0,0,0,315.08,299.64Zm0,5.16a2.32,2.32,0,1,1,2.3-2.31A2.32,2.32,0,0,1,315.08,304.8Zm1.08-2.33a.91.91,0,0,0,.13-.48.87.87,0,0,0-.22-.6.83.83,0,0,0-.59-.24h-1.37v2.68h.6v-.95h.44l.47.95h.67l-.48-1A.79.79,0,0,0,316.16,302.47Zm-.57-.22a.37.37,0,0,1-.28.09h-.6v-.66h.6a.37.37,0,0,1,.28.09.31.31,0,0,1,.09.24A.36.36,0,0,1,315.59,302.25Z"/></g></g></svg>