<?xml version="1.0" standalone="no"?>
<!DOCTYPE svg PUBLIC "-//W3C//DTD SVG 20010904//EN"
 "http://www.w3.org/TR/2001/REC-SVG-20010904/DTD/svg10.dtd">
<svg version="1.0" xmlns="http://www.w3.org/2000/svg"
 width="228.000000pt" height="221.000000pt" viewBox="0 0 228.000000 221.000000"
 preserveAspectRatio="xMidYMid meet">

<g transform="translate(0.000000,221.000000) scale(0.100000,-0.100000)"
fill="#000000" stroke="none">
<path d="M1030 1845 c-142 -29 -249 -86 -356 -188 -88 -83 -152 -182 -190
-292 -37 -105 -45 -285 -19 -401 24 -110 92 -237 170 -322 358 -386 979 -285
1196 194 41 91 59 179 59 300 0 188 -64 352 -191 488 -176 188 -425 271 -669
221z m332 -194 c184 -58 313 -242 334 -475 7 -81 -1 -106 -37 -106 -33 0 -46
26 -52 107 -10 141 -73 270 -165 338 -49 36 -153 75 -202 75 l-27 0 -6 -112
c-4 -62 -7 -207 -7 -321 l0 -209 32 -71 c27 -61 32 -84 32 -152 1 -65 -4 -89
-23 -128 -25 -52 -59 -81 -84 -71 -28 10 -28 36 -1 76 29 41 43 122 30 174 -9
36 -24 20 -40 -42 -13 -51 -34 -66 -61 -44 -31 26 -10 114 38 158 24 22 24 25
12 67 -11 34 -12 114 -8 359 l6 316 -29 0 c-128 -1 -269 -89 -331 -207 -40
-75 -54 -120 -67 -217 -13 -86 -30 -111 -63 -90 -41 26 -20 194 41 320 49 103
121 176 220 224 44 21 104 43 131 49 79 16 249 6 327 -18z m-283 -348 c0 -319
-6 -362 -63 -479 -55 -114 -57 -141 -15 -178 59 -53 14 -102 -51 -56 -37 27
-60 69 -60 112 0 18 22 79 53 143 l52 110 5 230 c3 127 4 232 3 234 -4 6 -62
-39 -86 -69 -30 -35 -67 -129 -67 -169 0 -36 -22 -55 -55 -47 -22 6 -25 11
-25 56 0 93 58 206 140 272 33 26 128 67 158 68 9 0 12 -52 11 -227z m276 197
c84 -36 149 -113 185 -220 24 -72 23 -128 -2 -144 -30 -18 -51 5 -68 75 -21
85 -51 140 -97 178 -20 17 -38 29 -39 28 -1 -1 -5 -98 -9 -214 l-7 -213 55
-57 c69 -73 77 -90 77 -155 -1 -74 -30 -138 -65 -138 -35 0 -41 23 -21 79 25
71 21 87 -38 149 -29 31 -58 67 -65 79 -12 23 -16 564 -5 576 9 8 48 -1 99
-23z"/>
</g>
</svg>
