<svg xmlns="http://www.w3.org/2000/svg" viewBox="0 0 123.47 58.8"><defs><style>.cls-1,.cls-2{fill:#fff;stroke:#fff;stroke-miterlimit:10;}.cls-2{stroke-width:1.2px;}</style></defs><title>Recurso 1</title><g id="Capa_2" data-name="Capa 2"><g id="Capa_1-2" data-name="Capa 1"><g id="OBJECTS"><path class="cls-1" d="M123,27.26c.8-6.28-22.63-6.93-46,9.26-1.77,1.21-6,1-8,.16C65,35.15,58,40.22,50.63,45c-4.43,2.81-3.38,5.47-3.38,5.47s13.61-8.37,14.25-6.76-9.1,6.6-13,8.69a1.86,1.86,0,0,0-.88,2.18h0a1.85,1.85,0,0,0,2.74,1c4.18-2.66,13.2-7.74,13.85-6.61S50.14,58,50.71,58.1c2.82.57,7,.16,14.9-4.35,3.94-2.25,7.57-4.35,8.61-7.65a8.25,8.25,0,0,1,4.19-4.91,126.2,126.2,0,0,1,42.28-11.44,2.37,2.37,0,0,0,2.1-1.53A1.73,1.73,0,0,0,123,27.26Z"/><path class="cls-1" d="M73.5,19.61c-.89-5.16-8.54-8.22-17-6.77C49.82,14,44.67,17.51,43.06,21.46a7.77,7.77,0,0,1-4.51,4.75c-25,8-42.12,21.58-37.21,28.11a2,2,0,0,0,.89.56,2.39,2.39,0,0,0,2.57-.56,128,128,0,0,1,36.57-24,8.1,8.1,0,0,1,6.44.16,21,21,0,0,0,11.84,1.05C68.18,30.16,74.39,24.76,73.5,19.61ZM65.77,24a13.23,13.23,0,0,1-5.48,3.06,18,18,0,0,1-6.2.56,11.39,11.39,0,0,1-5.8-2,20.6,20.6,0,0,0,5.8.48,26.22,26.22,0,0,0,5.64-1,16.9,16.9,0,0,0,5.07-2.33,20.28,20.28,0,0,0,4.35-3.95A12.2,12.2,0,0,1,65.77,24Z"/><circle class="cls-2" cx="41.13" cy="39.66" r="2.82"/><path class="cls-2" d="M87.35,18.64a3.87,3.87,0,1,1-7.73,0,3.87,3.87,0,1,1,7.73,0Z"/><circle class="cls-2" cx="28.64" cy="12.84" r="2.58"/><circle class="cls-2" cx="71.89" cy="2.53" r="1.93"/><path class="cls-2" d="M31.22,51.58a1.29,1.29,0,1,1-1.29-1.29A1.27,1.27,0,0,1,31.22,51.58Z"/></g></g></g></svg>