<?xml version="1.0" encoding="utf-8"?>
<!-- Generator: Adobe Illustrator 24.0.1, SVG Export Plug-In . SVG Version: 6.00 Build 0)  -->
<svg version="1.1" id="Capa_1" xmlns="http://www.w3.org/2000/svg" xmlns:xlink="http://www.w3.org/1999/xlink" x="0px" y="0px"
	 viewBox="0 0 166.1 80" style="enable-background:new 0 0 166.1 80;" xml:space="preserve">
<style type="text/css">
	.st0{font-family:'Arial-BoldMT';}
	.st1{font-size:15.37px;}
</style>
<g id="Capa_2_1_">
	<g id="NAV">
		<path d="M0,76.2v-9.5c0.1-0.3,0.2-0.6,0.3-0.9c0.7-1.2,1.6-2.3,2.5-3.3C12.4,52.1,25,45.1,37.7,39.2c7.8-3.7,15.5-6.9,22.8-10.4
			c2.4-1.2,4.8-2.4,7.1-3.7c7-3.9,14-8.9,17.8-16.2c0,0,0-0.1,0-0.1c-0.1-0.9-0.8-1.6-1.7-1.7c0,0-0.1,0-0.1,0
			c-0.8,1-0.1,2.3,0.8,2.9l0,0l-1,1.4c0,0,0,0-0.1,0c-0.3-0.8-1-1.8-2-1.8c0,0-0.1,0-0.1,0c-0.4,1-0.3,2.1,0.3,3
			c0.1,0.2,0.3,0.3,0.5,0.5c0,0,0,0.1,0,0.1L81,14.3c0,0-0.1,0-0.1,0l0,0c-0.2-1.1-1-2-2.1-2.3l0,0c-0.9,0.9-1,2.3-0.2,3.3
			c0.2,0.3,0.6,0.6,1,0.7c0,0,0,0,0,0.1c-0.6,0.6-1.2,1.1-1.8,1.6l0,0l0,0c-0.2-1.4-0.8-2.7-2.3-3 M75.4,14.6
			c-0.3,0.4-0.5,0.9-0.6,1.5c-0.2,1.1-0.1,2.7,1.2,3c0,0,0,0,0,0.1l-2.5,1.8l0,0c0.1-1.3-0.2-3.9-1.8-4.3c0,0-0.1,0-0.1,0
			c-1.2,0.9-1.8,2.4-1.6,3.9c0.1,0.7,0.3,1.4,0.8,1.9c0,0,0,0.1,0,0.1l-2,1.1l0,0c0.1-1.7,0-4.1-1.6-5.3c0,0-0.1,0-0.1,0
			c-1.4,1.1-1.6,3.7-1.4,5.4c0,0.5,0.1,0.9,0.3,1.4 M66,25.1l-1.8,1l0,0c0.7-1.9-0.2-5.4-2-6.5c0,0-0.1,0-0.1,0c0,0,0,0,0,0
			c-1.1,1.7-1.7,3.6-1.8,5.7c-0.1,0.8,0.1,1.6,0.5,2.3c0,0,0,0,0,0l0,0l-2.3,1l0,0l0,0c0.6-2.5,1-6.4-1.4-8.2c0,0-0.1,0-0.1,0
			c0,0,0,0,0,0c-1.9,2-2.8,4.7-2.4,7.4c0,0.8,0.2,1.6,0.4,2.3c0,0,0,0,0,0.1l-2,0.8l0,0l0,0c0.4-1.6,0.5-3.3,0.4-5
			c-0.1-1.8-0.6-4-2.3-4.9c0,0-0.1,0-0.1,0c-1.6,1.6-2.4,3.8-2.5,6c-0.2,1.8,0,3.6,0.6,5.4c0,0,0,0.1,0,0.1l-2.3,1l0,0l0,0
			c0.5-2.5,0.6-5.1,0.3-7.7c-0.2-1.5-0.7-3.5-2.1-4.4 M44.9,21.6c-1.4,1.4-2.3,3.2-2.6,5.1c-0.5,2.8-0.1,5.7,1.2,8.3l0,0l0,0
			l-3.3,1.4l0,0l0,0c1.5-4.6,1.5-10.6-2.2-14.2c0,0,0,0-0.1,0c-1.2,1.2-2.1,2.8-2.5,4.5c-0.7,2.5-0.9,5.1-0.7,7.7
			c0.1,0.9,0.4,3.3,1.3,3.8h0.1c0,0,0,0,0,0.1l-4,1.9l0,0c0.5-1.4,0.8-2.8,0.9-4.3c0.2-2,0.1-4.1-0.1-6.1c-0.3-2-0.9-5.3-3-6.3
			c0,0-0.1,0-0.1,0c-2.8,2.3-4.3,5.8-4.1,9.4c0.1,3.3,0.8,6.5,2.3,9.4c0,0,0,0,0,0.1c-1.5,0.7-2.9,1.4-4.3,2.2l0,0l0,0
			c0.8-3.8,0.9-7.7,0.3-11.6c-0.5-2.6-1.7-5.6-4.2-6.9c0,0-0.1,0-0.1,0c-3.6,3-4.5,7.9-4.3,12.4c0.1,2.5,0.6,5,1.4,7.3
			c0.2,0.8,0.6,1.5,1.1,2.1c0,0,0,0,0,0.1l-3.8,2.5c-0.1,0-0.1,0,0,0c0.2-0.8,0.4-1.7,0.3-2.5c0.1-2.8-0.2-5.6-0.7-8.4
			c-0.5-2.6-1.9-8-5.3-8.2c-0.1,0-0.1,0-0.1,0.1c-2.8,3.4-3.4,8-2.9,12.3c0.3,3.2,1.1,6.4,2.4,9.4c0.2,0.5,0.5,0.9,0.7,1.4
			c0,0,0,0,0,0.1l-1.4,1.1c0,0-0.1,0-0.1,0c-0.7-1.5-1.5-3.1-2-4.6c-0.7-1.8-1.2-3.6-1.5-5.5c0-0.1-0.1-0.5-0.2-1.4
			C2.6,39,3.1,34.2,4.8,29.6c0,0,0-0.1,0.1-0.1c6.1-3.6,12.6-6.2,19.5-7.7c5.5-1.1,11-1.8,16.6-2.1c2.6-0.1,5.2-0.3,7.8-0.4
			c4.8-0.1,9.6-0.7,14.4-1.5c6.1-1.2,11.7-3.9,16.4-7.8c3.3-2.9,6.2-6.3,8.6-10.1c0,0,0,0,0.1,0C89,2.1,91.1,8.1,88,9.4
			c-0.7,0.2-1.4,0.3-2.1,0.2l0,0l-0.4,0.9l0,0c1.1-0.3,2.2-0.2,3.2,0.1c0.2,0.1,0.4,0.2,0.6,0.3c0,0,0,0.1,0,0.1
			c-0.4,0.7-1.1,1.2-1.8,1.3c-0.9,0.2-1.9,0.1-2.7-0.4 M84.7,11.7l-0.9,1.4c0,0,0,0.1,0,0c1.5-0.5,3.2-0.3,4.5,0.6 M88.3,13.8
			c-1.4,1.5-3.7,1.7-5.4,0.5 M82.9,14.3l-0.9,1c0,0,0,0.1,0,0.1c1.8-0.2,3.5,0.4,4.8,1.7c0,0,0,0.1,0,0.1c-1.1,0.9-2.6,1.3-4,1.1
			c-0.7-0.1-2.1-0.4-2.4-1.1l0,0l0,0l-1.5,1.4c0,0,0,0,0,0c2.2-0.3,4.3,0.8,5.3,2.7l0,0l0,0c-2.3,1.6-5.4,1.2-7.2-1c0,0,0,0-0.1,0
			c0,0,0,0,0,0L74.8,22l0,0l0,0c2.4-0.1,5.1,0.7,6.3,3c0,0,0,0.1,0,0.1c-1.7,0.5-3.4,0.6-5.2,0.3c-1.3-0.2-2.4-0.9-3.2-2
			c0,0,0,0-0.1,0L70.5,25l0,0c2.6,0.1,5.6,1.4,6.7,4c0,0.1,0,0.1-0.1,0.1c-3,0.7-6.1-0.1-8.4-2c-0.2-0.2-0.4-0.4-0.5-0.6
			c0,0,0,0-0.1,0l-1.8,1c-0.1,0-0.1,0.1,0,0.1c3,0.5,5.5,2.5,6.7,5.3l0,0l0,0c-3.6,0.7-7.7,0.5-10.1-2.7c-0.1-0.2-0.3-0.4-0.4-0.6
			c0,0,0,0-0.1,0l-2.6,1.3c-0.1,0.1-0.1,0.1,0,0.1c1.1,0.1,2.1,0.4,3.1,0.9c2.2,1,4,2.7,5.1,4.9c0,0,0,0.1,0,0.1c0,0,0,0,0,0l0,0
			c-3.9,0.7-8.5-0.3-11-3.6c-0.2-0.2-0.3-0.5-0.5-0.8l0,0L54,33.8l0,0l0.7,0.1c3.8,0.7,6.2,4,7.5,7.3l0,0l0,0
			c-1.7,0-3.3-0.2-4.9-0.8c-2.2-0.8-4.2-2-6-3.6c-0.4-0.3-0.8-0.8-1-1.3l0,0l0,0l-2.5,1.2l0,0c4.2,0.5,8,4.3,9.1,8.3 M56.8,45.2
			c-1.1,0.2-2.2,0.2-3.2,0c-2.8-0.6-5.5-1.9-7.6-3.8c-0.9-0.7-1.6-1.7-1.9-2.8l0,0l-2.4,1.2l0,0c3,0.6,5.5,3,7.3,5.4
			c0.9,1.3,1.8,2.7,2.4,4.2c0,0,0,0,0,0c-1.4,0.2-2.8,0.1-4.1-0.4C44,48,41,46.1,38.6,43.6c-0.6-0.5-1.1-1-1.5-1.6c0,0,0,0-0.1,0
			l-2.2,1.2l0,0c0.9,0.2,1.8,0.6,2.5,1.1c2.2,1.5,4.2,3.4,5.9,5.5c1,1.1,1.7,2.5,2,3.9c0,0.1,0,0.3,0,0.4l0,0
			c-4.9,0.3-9.7-2-13.3-5.2c-0.7-0.6-1.4-1.3-2-2.1c-0.2-0.2-0.3-0.5-0.3-0.8c0-0.1,0-0.1-0.1-0.1L27,47.7l0,0
			c1.3,0.3,2.6,0.9,3.7,1.7c3.2,1.9,5.9,4.5,8,7.5c0.7,1,1.2,2.1,1.5,3.2 M40.3,60.1c-5.2,1.7-11.3-1.6-15-5c-1-0.8-1.8-1.8-2.5-2.9
			c-0.3-0.4-0.5-1-0.5-1.5l0,0l-4,3c0,0,0,0,0,0.1c1.4,0.3,2.7,0.8,3.9,1.5c2.9,1.5,5.7,3.4,8.1,5.7c2.2,2.1,4,4.6,5.3,7.3l0,0l0,0
			c-3.7,0.6-7.6,0.3-11.2-0.8c-4.9-1.5-8.7-5.2-10.5-10c0,0-0.1-0.1-0.1,0l0,0c-6,5-10.5,11.4-13.3,18.6c0,0,0,0-0.1,0L40.3,60.1z"
			/>
		<text transform="matrix(1 0 0 1 44.5 76.22)" class="st0 st1">NEW ZEALAND</text>
	</g>
</g>
</svg>
