<svg xmlns="http://www.w3.org/2000/svg" viewBox="0 0 210.47 81.79"><defs><style>.cls-1,.cls-3{fill:#f28911;}.cls-1,.cls-2{fill-rule:evenodd;}.cls-2{fill:#fff;}.cls-3{font-size:38.54px;font-family:NouvelR-Regular, NouvelR;letter-spacing:-0.05em;}</style></defs><title>Recurso 1</title><g id="Capa_2" data-name="Capa 2"><g id="Capa_1-2" data-name="Capa 1"><path class="cls-1" d="M34.84,52.72a6.8,6.8,0,1,1-6.78-6.66A6.7,6.7,0,0,1,34.84,52.72Z"/><path class="cls-2" d="M2.08,81.67C-.6,82.91,0,74.53.14,73.82,2,58.19,20.62,9.31,34.05,1.34,40.17-2.32,45.19,2,46.64,8.4c.88,3.86,1.34,11,2,15.55,2,12.65,5.72,32.06,20.85,34.59,12.14,2,38.26-7.14,50.86-10.32,27.76-7.06,58.46-9.49,84.41,5.09,3.05,1.7,3.24,1.73,5.66,4.21-3.37-.35-3.64-.62-6.79-1.59-26.84-8.27-47.25-7.28-73.93.43-15.93,4.58-38.6,14.31-54.15,15.42-32.72,2.4-37.72-31.54-39-56.47-.07-1.1-.16-2.05-.26-3a107.46,107.46,0,0,0-8.57,11.79C22.25,32.8.1,73.45,2.08,81.67ZM38.69,10.32a1.41,1.41,0,0,0,.32-.09,1,1,0,0,0-.32.09Z"/><text class="cls-3" transform="translate(62.14 43.08)">360</text></g></g></svg>