<?xml version="1.0" encoding="utf-8"?>
<!-- Generator: Adobe Illustrator 27.5.0, SVG Export Plug-In . SVG Version: 6.00 Build 0)  -->
<svg version="1.1" id="Capa_1" xmlns="http://www.w3.org/2000/svg" xmlns:xlink="http://www.w3.org/1999/xlink" x="0px" y="0px"
	 viewBox="0 0 799.999 800" style="enable-background:new 0 0 799.999 800;" xml:space="preserve">
<linearGradient id="SVGID_1_" gradientUnits="userSpaceOnUse" x1="400" y1="800" x2="400" y2="-9.094947e-13">
	<stop  offset="0.3736" style="stop-color:#FDFDFD"/>
	<stop  offset="0.9066" style="stop-color:#EDEDED"/>
	<stop  offset="1" style="stop-color:#DEDEDE"/>
</linearGradient>
<rect x="0" style="fill-rule:evenodd;clip-rule:evenodd;fill:url(#SVGID_1_);" width="799.999" height="800"/>
<g id="Layer_3">
</g>
<g id="Layer_9">
</g>
<g>
	<path style="fill-rule:evenodd;clip-rule:evenodd;fill:#E5AC3C;" d="M276.335,742.968c0.438,0,0.84-0.117,1.201-0.346
		c0.368-0.232,0.661-0.582,0.88-1.059c0.215-0.48,0.323-1.072,0.323-1.781c0-0.674-0.108-1.248-0.323-1.73
		c-0.219-0.483-0.515-0.856-0.887-1.106c-0.364-0.254-0.76-0.375-1.194-0.381v-1.813c0.41,0.059,0.771,0.166,1.087,0.324
		c0.5,0.248,0.985,0.635,1.456,1.144v-3.709c0-0.519,0.103-0.906,0.311-1.174c0.206-0.268,0.498-0.395,0.876-0.395
		c0.382,0,0.679,0.121,0.879,0.367c0.212,0.24,0.31,0.6,0.31,1.068v11.092c0,0.481-0.109,0.84-0.327,1.08
		c-0.224,0.24-0.512,0.359-0.862,0.359c-0.343,0-0.627-0.121-0.851-0.373c-0.225-0.244-0.337-0.604-0.337-1.066v-0.248
		c-0.338,0.393-0.672,0.699-0.999,0.943c-0.329,0.244-0.682,0.428-1.07,0.559c-0.15,0.045-0.31,0.086-0.474,0.117V742.968z
		 M273.934,739.782c0,0.68,0.104,1.258,0.317,1.736c0.211,0.48,0.502,0.84,0.869,1.08c0.366,0.248,0.77,0.369,1.208,0.369h0.007
		v1.875c-0.247,0.043-0.508,0.068-0.78,0.068c-0.602,0-1.161-0.127-1.672-0.381c-0.514-0.256-0.96-0.619-1.333-1.094
		c-0.375-0.469-0.658-1.027-0.854-1.666c-0.193-0.641-0.288-1.332-0.288-2.076c0-1.57,0.383-2.795,1.151-3.676
		c0.768-0.877,1.778-1.315,3.028-1.315c0.267,0,0.516,0.018,0.747,0.049v1.813h-0.024c-0.461,0-0.874,0.127-1.235,0.389
		c-0.362,0.262-0.643,0.641-0.842,1.129C274.033,738.567,273.934,739.136,273.934,739.782z"/>
	<path style="fill-rule:evenodd;clip-rule:evenodd;fill:#E5AC3C;" d="M288.163,738.985h2.278c-0.058-0.857-0.291-1.502-0.696-1.926
		c-0.399-0.426-0.931-0.641-1.582-0.643v-1.748h0.077c0.984,0,1.825,0.201,2.527,0.621c0.707,0.416,1.23,0.951,1.583,1.606
		c0.35,0.656,0.521,1.328,0.521,2.012c0,0.627-0.181,1.043-0.542,1.228c-0.364,0.186-0.871,0.281-1.527,0.281h-2.64V738.985
		L288.163,738.985z M288.163,744.907v-1.674c0.061,0.006,0.125,0.01,0.188,0.01c0.302,0,0.576-0.035,0.823-0.108
		c0.249-0.064,0.487-0.182,0.726-0.334c0.232-0.147,0.447-0.309,0.645-0.479c0.196-0.174,0.446-0.406,0.764-0.701
		c0.13-0.109,0.314-0.168,0.551-0.168c0.257,0,0.469,0.07,0.629,0.213c0.16,0.141,0.238,0.342,0.238,0.598
		c0,0.229-0.087,0.49-0.266,0.801c-0.18,0.301-0.447,0.596-0.81,0.873c-0.354,0.279-0.805,0.51-1.353,0.697
		c-0.544,0.182-1.166,0.275-1.875,0.275C288.333,744.911,288.247,744.909,288.163,744.907z M285.886,738.985h2.276v1.432h-2.276
		c0.003,0.568,0.115,1.072,0.341,1.508c0.223,0.44,0.52,0.766,0.897,0.982c0.318,0.195,0.662,0.301,1.039,0.326v1.674
		c-1.493-0.049-2.658-0.512-3.506-1.379c-0.901-0.922-1.346-2.172-1.346-3.746c0-0.746,0.108-1.436,0.332-2.072
		c0.22-0.635,0.542-1.182,0.967-1.637c0.422-0.451,0.947-0.799,1.567-1.045c0.597-0.232,1.26-0.352,1.985-0.359v1.748h-0.005
		c-0.627,0-1.142,0.215-1.544,0.645C286.211,737.499,285.966,738.14,285.886,738.985z"/>
	<path style="fill-rule:evenodd;clip-rule:evenodd;fill:#E5AC3C;" d="M303.092,741.622c0,0.691-0.173,1.285-0.508,1.779
		c-0.342,0.496-0.841,0.873-1.495,1.129c-0.661,0.254-1.468,0.381-2.411,0.381c-0.903,0-1.678-0.141-2.323-0.414
		c-0.649-0.277-1.118-0.627-1.427-1.037c-0.307-0.412-0.46-0.83-0.46-1.248c0-0.279,0.094-0.512,0.293-0.709
		c0.198-0.197,0.443-0.297,0.748-0.297c0.263,0,0.466,0.066,0.608,0.199c0.142,0.119,0.275,0.307,0.407,0.537
		c0.256,0.447,0.564,0.783,0.922,1.004c0.361,0.223,0.849,0.334,1.473,0.334c0.501,0,0.915-0.113,1.238-0.334
		c0.322-0.229,0.484-0.48,0.484-0.771c0-0.445-0.169-0.766-0.504-0.969c-0.335-0.199-0.885-0.398-1.653-0.58
		c-0.864-0.215-1.571-0.436-2.113-0.676c-0.542-0.238-0.976-0.549-1.303-0.935c-0.327-0.387-0.488-0.863-0.488-1.43
		c0-0.498,0.149-0.979,0.451-1.43c0.3-0.443,0.745-0.801,1.331-1.07c0.586-0.27,1.294-0.398,2.122-0.398
		c0.652,0,1.235,0.064,1.752,0.201c0.524,0.133,0.956,0.316,1.302,0.545c0.35,0.227,0.611,0.478,0.791,0.754
		c0.182,0.277,0.272,0.545,0.272,0.811c0,0.289-0.097,0.525-0.288,0.709c-0.194,0.18-0.471,0.275-0.826,0.275
		c-0.258,0-0.476-0.07-0.662-0.219c-0.177-0.146-0.387-0.367-0.62-0.662c-0.189-0.246-0.412-0.449-0.67-0.592
		c-0.261-0.148-0.608-0.225-1.051-0.225c-0.457,0-0.834,0.102-1.134,0.297c-0.3,0.188-0.45,0.432-0.45,0.717
		c0,0.268,0.111,0.484,0.333,0.65c0.22,0.172,0.515,0.315,0.893,0.424c0.372,0.107,0.893,0.242,1.548,0.404
		c0.778,0.189,1.418,0.412,1.91,0.68c0.498,0.266,0.869,0.576,1.123,0.935C302.965,740.753,303.092,741.163,303.092,741.622z"/>
	<path style="fill-rule:evenodd;clip-rule:evenodd;fill:#E5AC3C;" d="M307.733,736.108v7.273c0,0.504-0.12,0.883-0.358,1.143
		c-0.238,0.26-0.545,0.387-0.913,0.387c-0.367,0-0.668-0.129-0.897-0.398c-0.232-0.262-0.346-0.643-0.346-1.131v-7.195
		c0-0.498,0.113-0.877,0.346-1.123c0.229-0.252,0.529-0.377,0.897-0.377c0.368,0,0.673,0.125,0.913,0.377
		C307.613,735.31,307.733,735.663,307.733,736.108L307.733,736.108z M306.49,733.517c-0.351,0-0.647-0.113-0.896-0.324
		c-0.25-0.215-0.374-0.518-0.374-0.912c0-0.353,0.129-0.65,0.383-0.881c0.252-0.232,0.551-0.344,0.888-0.344
		c0.324,0,0.612,0.103,0.866,0.309c0.252,0.215,0.377,0.517,0.377,0.916c0,0.387-0.123,0.688-0.367,0.908
		C307.119,733.399,306.826,733.517,306.49,733.517z"/>
	<path style="fill-rule:evenodd;clip-rule:evenodd;fill:#E5AC3C;" d="M314.713,742.81c0.408-0.006,0.799-0.117,1.157-0.334
		c0.373-0.227,0.68-0.561,0.908-1.016c0.238-0.453,0.355-0.998,0.355-1.643c0-1.029-0.227-1.824-0.681-2.396
		c-0.44-0.563-1.023-0.844-1.739-0.855v-1.799c0.387,0.066,0.739,0.184,1.055,0.344c0.52,0.273,1.006,0.705,1.457,1.287v-0.342
		c0-0.434,0.103-0.772,0.322-1.008c0.213-0.246,0.49-0.361,0.824-0.361c0.486,0,0.81,0.16,0.971,0.477
		c0.156,0.309,0.236,0.764,0.236,1.365v7.305c0,0.832-0.087,1.555-0.266,2.156c-0.178,0.603-0.46,1.096-0.857,1.492
		c-0.391,0.391-0.903,0.685-1.542,0.875c-0.597,0.178-1.331,0.273-2.2,0.283v-1.75c0.549-0.02,0.983-0.106,1.307-0.268
		c0.361-0.184,0.61-0.436,0.757-0.762c0.145-0.33,0.222-0.68,0.252-1.045c0.022-0.371,0.043-0.971,0.06-1.793
		c-0.392,0.537-0.84,0.953-1.348,1.234c-0.307,0.17-0.647,0.291-1.027,0.358V742.81z M312.292,739.718
		c0,1.014,0.223,1.789,0.671,2.311c0.445,0.518,1.021,0.781,1.727,0.781h0.024v1.805c-0.246,0.045-0.505,0.066-0.777,0.066
		c-0.842,0-1.58-0.217-2.209-0.647c-0.631-0.428-1.114-1.031-1.45-1.809c-0.339-0.771-0.505-1.664-0.505-2.68
		c0-0.75,0.103-1.435,0.304-2.041c0.21-0.609,0.499-1.125,0.881-1.541c0.384-0.42,0.822-0.732,1.321-0.945
		c0.494-0.207,1.039-0.315,1.638-0.315c0.281,0,0.547,0.019,0.798,0.063v1.799h-0.043c-0.719,0-1.297,0.271-1.729,0.818
		C312.511,737.933,312.292,738.706,312.292,739.718L312.292,739.718z M314.713,746.89v1.75l-0.173,0.002
		c-0.862,0-1.638-0.121-2.32-0.365c-0.683-0.24-1.205-0.557-1.575-0.938c-0.368-0.387-0.549-0.779-0.549-1.186
		c0-0.311,0.103-0.555,0.309-0.746c0.208-0.197,0.458-0.293,0.755-0.293c0.368,0,0.692,0.16,0.97,0.484
		c0.135,0.166,0.271,0.336,0.418,0.504c0.146,0.164,0.305,0.313,0.48,0.434c0.172,0.119,0.385,0.209,0.63,0.266
		c0.244,0.057,0.527,0.09,0.848,0.09C314.575,746.892,314.645,746.892,314.713,746.89z"/>
	<path style="fill-rule:evenodd;clip-rule:evenodd;fill:#E5AC3C;" d="M324.407,736.073v0.307c0.445-0.586,0.931-1.016,1.454-1.283
		c0.524-0.273,1.126-0.41,1.812-0.41c0.661,0,1.254,0.143,1.777,0.426c0.518,0.293,0.908,0.703,1.166,1.229
		c0.167,0.309,0.274,0.641,0.321,0.994c0.052,0.361,0.077,0.81,0.077,1.363v4.684c0,0.504-0.117,0.883-0.346,1.143
		c-0.23,0.26-0.53,0.387-0.898,0.387c-0.375,0-0.677-0.129-0.91-0.398c-0.235-0.262-0.351-0.643-0.351-1.131v-4.193
		c0-0.822-0.116-1.463-0.347-1.902c-0.229-0.438-0.69-0.656-1.38-0.656c-0.445,0-0.853,0.135-1.221,0.397
		c-0.371,0.266-0.641,0.635-0.811,1.102c-0.125,0.379-0.189,1.082-0.189,2.102v3.152c0,0.506-0.118,0.893-0.35,1.148
		c-0.24,0.254-0.544,0.381-0.919,0.381c-0.361,0-0.657-0.129-0.895-0.398c-0.232-0.262-0.346-0.643-0.346-1.131v-7.273
		c0-0.477,0.103-0.834,0.311-1.07c0.208-0.236,0.493-0.352,0.855-0.352c0.217,0,0.42,0.049,0.597,0.156
		c0.178,0.104,0.322,0.256,0.428,0.467C324.356,735.519,324.407,735.773,324.407,736.073z"/>
	<path style="fill-rule:evenodd;clip-rule:evenodd;fill:#E5AC3C;" d="M337.903,738.985h2.28c-0.064-0.857-0.297-1.502-0.7-1.926
		c-0.397-0.426-0.928-0.641-1.58-0.643v-1.748h0.076c0.983,0,1.824,0.201,2.529,0.621c0.7,0.416,1.228,0.951,1.578,1.606
		c0.352,0.656,0.526,1.328,0.526,2.012c0,0.627-0.181,1.043-0.545,1.228c-0.361,0.186-0.867,0.281-1.527,0.281h-2.638V738.985
		L337.903,738.985z M337.903,744.907v-1.674c0.06,0.006,0.121,0.01,0.185,0.01c0.304,0,0.572-0.035,0.825-0.108
		c0.25-0.064,0.487-0.182,0.724-0.334c0.233-0.147,0.448-0.309,0.645-0.479c0.197-0.174,0.45-0.406,0.766-0.701
		c0.131-0.109,0.314-0.168,0.55-0.168c0.26,0,0.466,0.07,0.629,0.213c0.159,0.141,0.24,0.342,0.24,0.598
		c0,0.229-0.088,0.49-0.269,0.801c-0.178,0.301-0.447,0.596-0.807,0.873c-0.357,0.279-0.808,0.51-1.357,0.697
		c-0.542,0.182-1.167,0.275-1.869,0.275C338.073,744.911,337.988,744.909,337.903,744.907z M335.622,738.985h2.28v1.432h-2.28
		c0.003,0.568,0.117,1.072,0.344,1.508c0.22,0.44,0.522,0.766,0.892,0.982c0.32,0.195,0.668,0.301,1.045,0.326v1.674
		c-1.495-0.049-2.659-0.512-3.509-1.379c-0.893-0.922-1.345-2.172-1.345-3.746c0-0.746,0.114-1.436,0.332-2.072
		c0.22-0.635,0.544-1.182,0.97-1.637c0.423-0.451,0.942-0.799,1.565-1.045c0.599-0.232,1.26-0.352,1.987-0.359v1.748h-0.009
		c-0.625,0-1.139,0.215-1.544,0.645C335.95,737.499,335.707,738.14,335.622,738.985z"/>
	<path style="fill-rule:evenodd;clip-rule:evenodd;fill:#E5AC3C;" d="M349.081,742.968c0.438-0.002,0.839-0.119,1.203-0.346
		c0.361-0.232,0.654-0.582,0.873-1.059c0.22-0.48,0.329-1.072,0.329-1.781c0-0.674-0.109-1.248-0.329-1.73
		c-0.219-0.483-0.512-0.856-0.885-1.106c-0.359-0.252-0.759-0.375-1.191-0.381v-1.813c0.407,0.059,0.77,0.166,1.084,0.324
		c0.499,0.248,0.983,0.635,1.459,1.144v-3.709c0-0.519,0.102-0.906,0.307-1.174c0.206-0.268,0.499-0.395,0.883-0.395
		c0.38,0,0.668,0.121,0.876,0.367c0.208,0.24,0.312,0.6,0.312,1.068v11.092c0,0.481-0.11,0.84-0.33,1.08
		c-0.225,0.24-0.512,0.359-0.857,0.359s-0.631-0.121-0.854-0.373c-0.227-0.244-0.336-0.604-0.336-1.066v-0.248
		c-0.343,0.393-0.672,0.699-1.004,0.943c-0.329,0.244-0.684,0.428-1.065,0.559c-0.149,0.045-0.307,0.086-0.474,0.117V742.968z
		 M346.676,739.782c0,0.68,0.105,1.258,0.316,1.736c0.216,0.48,0.504,0.84,0.87,1.08c0.37,0.248,0.775,0.369,1.209,0.369h0.01v1.875
		c-0.249,0.043-0.51,0.068-0.784,0.068c-0.602,0-1.16-0.127-1.672-0.381c-0.513-0.256-0.954-0.619-1.329-1.094
		c-0.376-0.469-0.661-1.027-0.854-1.666c-0.192-0.641-0.291-1.332-0.291-2.076c0-1.57,0.381-2.795,1.151-3.676
		c0.767-0.877,1.779-1.315,3.034-1.315c0.262,0,0.509,0.018,0.744,0.049v1.813h-0.03c-0.457,0-0.869,0.127-1.234,0.389
		c-0.362,0.262-0.643,0.641-0.842,1.129C346.775,738.567,346.676,739.136,346.676,739.782z"/>
	<path style="fill-rule:evenodd;clip-rule:evenodd;fill:#E5AC3C;" d="M366.085,742.968h0.084c0.634,0,1.179-0.277,1.634-0.824
		c0.461-0.551,0.688-1.338,0.688-2.361c0-0.668-0.094-1.236-0.281-1.719c-0.193-0.478-0.464-0.848-0.814-1.109
		c-0.349-0.262-0.761-0.389-1.226-0.389c-0.029,0-0.055,0-0.084,0.002v-1.813c0.235-0.033,0.482-0.051,0.748-0.051
		c0.837,0,1.566,0.199,2.199,0.594c0.628,0.391,1.114,0.965,1.46,1.725c0.352,0.746,0.522,1.641,0.522,2.672
		c0,0.768-0.094,1.465-0.289,2.098c-0.193,0.635-0.475,1.188-0.844,1.65c-0.367,0.469-0.816,0.832-1.34,1.088
		c-0.525,0.254-1.103,0.381-1.735,0.381c-0.25,0-0.485-0.021-0.721-0.059V742.968z M363.683,739.851
		c0,1.004,0.229,1.771,0.683,2.309c0.445,0.52,1.015,0.789,1.72,0.809v1.885c-0.126-0.019-0.249-0.047-0.373-0.082
		c-0.339-0.09-0.629-0.215-0.871-0.363c-0.236-0.15-0.442-0.305-0.613-0.467c-0.167-0.156-0.391-0.396-0.665-0.717v0.248
		c0,0.477-0.108,0.832-0.346,1.08c-0.22,0.24-0.51,0.359-0.862,0.359c-0.354,0-0.641-0.119-0.85-0.359
		c-0.213-0.248-0.32-0.604-0.32-1.08v-10.982c0-0.506,0.104-0.891,0.309-1.15c0.21-0.268,0.492-0.395,0.862-0.395
		c0.389,0,0.686,0.123,0.897,0.375c0.206,0.25,0.312,0.604,0.312,1.061v3.842c0.471-0.494,0.953-0.867,1.443-1.125
		c0.315-0.17,0.676-0.281,1.079-0.342v1.813c-0.444,0.014-0.842,0.143-1.196,0.387c-0.373,0.262-0.673,0.641-0.886,1.137
		C363.789,738.587,363.683,739.171,363.683,739.851z"/>
	<path style="fill-rule:evenodd;clip-rule:evenodd;fill:#E5AC3C;" d="M375.104,745.224l0.234-0.563l-3.1-7.793
		c-0.186-0.451-0.284-0.775-0.284-0.975c0-0.213,0.06-0.422,0.17-0.604c0.105-0.183,0.258-0.328,0.452-0.439
		c0.192-0.109,0.396-0.164,0.604-0.164c0.365,0,0.633,0.113,0.82,0.342c0.182,0.23,0.348,0.563,0.492,0.99l2.125,6.193l2.015-5.758
		c0.162-0.469,0.309-0.832,0.436-1.1c0.128-0.262,0.264-0.44,0.41-0.529c0.143-0.096,0.345-0.139,0.61-0.139
		c0.19,0,0.371,0.049,0.546,0.156c0.179,0.096,0.314,0.234,0.405,0.406c0.099,0.168,0.146,0.35,0.146,0.541
		c-0.024,0.109-0.068,0.279-0.119,0.494c-0.057,0.221-0.128,0.443-0.205,0.658l-3.278,8.582c-0.281,0.764-0.56,1.35-0.832,1.779
		c-0.264,0.432-0.622,0.76-1.07,0.992c-0.444,0.229-1.05,0.346-1.801,0.346c-0.736,0-1.291-0.084-1.659-0.238
		c-0.369-0.16-0.55-0.451-0.55-0.877c0-0.287,0.083-0.51,0.259-0.67c0.176-0.158,0.433-0.232,0.782-0.232
		c0.13,0,0.265,0.018,0.394,0.055c0.16,0.035,0.3,0.053,0.414,0.053c0.288,0,0.518-0.039,0.681-0.131
		c0.167-0.078,0.316-0.23,0.448-0.441C374.781,745.946,374.934,745.634,375.104,745.224z"/>
	<path style="fill-rule:evenodd;clip-rule:evenodd;fill:#E5AC3C;" d="M421.647,734.903h0.599v-0.754
		c0-0.789,0.104-1.408,0.305-1.875c0.192-0.461,0.535-0.803,1.009-1.01c0.479-0.215,1.129-0.32,1.962-0.32
		c1.464,0,2.2,0.358,2.2,1.076c0,0.23-0.078,0.432-0.233,0.602c-0.151,0.164-0.332,0.25-0.542,0.25c-0.101,0-0.272-0.02-0.506-0.061
		c-0.24-0.033-0.441-0.053-0.612-0.053c-0.455,0-0.743,0.133-0.871,0.4c-0.129,0.268-0.197,0.652-0.197,1.145v0.6h0.62
		c0.96,0,1.44,0.295,1.44,0.867c0,0.408-0.128,0.672-0.386,0.783c-0.254,0.109-0.606,0.174-1.055,0.174h-0.62v6.654
		c0,0.496-0.119,0.875-0.353,1.141c-0.233,0.262-0.542,0.389-0.919,0.389c-0.351,0-0.65-0.127-0.885-0.389
		c-0.24-0.266-0.357-0.645-0.357-1.141v-6.654h-0.69c-0.375,0-0.659-0.092-0.865-0.264c-0.203-0.166-0.306-0.385-0.306-0.654
		C420.384,735.204,420.805,734.903,421.647,734.903z"/>
	<path style="fill-rule:evenodd;clip-rule:evenodd;fill:#E5AC3C;" d="M430.63,741.278v2.103c0,0.506-0.118,0.893-0.354,1.148
		c-0.242,0.254-0.542,0.381-0.919,0.381c-0.357,0-0.659-0.127-0.89-0.387c-0.232-0.26-0.349-0.639-0.349-1.143v-7.002
		c0-1.131,0.405-1.693,1.22-1.693c0.418,0,0.725,0.129,0.905,0.395c0.184,0.26,0.284,0.652,0.305,1.17
		c0.299-0.518,0.61-0.91,0.927-1.17c0.315-0.266,0.735-0.395,1.267-0.395c0.526,0,1.04,0.129,1.537,0.395
		c0.501,0.26,0.747,0.613,0.747,1.045c0,0.311-0.103,0.563-0.315,0.766c-0.215,0.197-0.441,0.297-0.689,0.297
		c-0.094,0-0.315-0.057-0.668-0.166c-0.352-0.117-0.665-0.174-0.938-0.174c-0.37,0-0.668,0.098-0.897,0.295
		c-0.235,0.189-0.418,0.477-0.551,0.855c-0.126,0.383-0.216,0.838-0.263,1.363C430.656,739.884,430.63,740.524,430.63,741.278z"/>
	<path style="fill-rule:evenodd;clip-rule:evenodd;fill:#E5AC3C;" d="M440.309,738.985h2.278c-0.064-0.857-0.293-1.502-0.692-1.926
		c-0.4-0.426-0.932-0.641-1.586-0.643v-1.748h0.083c0.977,0,1.815,0.201,2.521,0.621c0.704,0.416,1.232,0.951,1.585,1.606
		c0.348,0.656,0.525,1.328,0.525,2.012c0,0.627-0.181,1.043-0.546,1.228c-0.359,0.186-0.867,0.281-1.528,0.281h-2.64V738.985
		L440.309,738.985z M440.309,744.907v-1.674c0.061,0.006,0.126,0.01,0.189,0.01c0.302,0,0.574-0.035,0.823-0.108
		c0.249-0.064,0.493-0.182,0.725-0.334c0.235-0.147,0.448-0.309,0.645-0.479c0.196-0.174,0.457-0.406,0.761-0.701
		c0.135-0.109,0.32-0.168,0.561-0.168c0.25,0,0.462,0.07,0.622,0.213c0.158,0.141,0.238,0.342,0.238,0.598
		c0,0.229-0.087,0.49-0.264,0.801c-0.183,0.301-0.45,0.596-0.803,0.873c-0.363,0.279-0.814,0.51-1.36,0.697
		c-0.545,0.182-1.167,0.275-1.873,0.275C440.481,744.911,440.396,744.909,440.309,744.907z M438.032,738.985h2.277v1.432h-2.277
		c0.007,0.568,0.117,1.072,0.339,1.508c0.229,0.44,0.523,0.766,0.9,0.982c0.315,0.195,0.664,0.301,1.038,0.326v1.674
		c-1.49-0.049-2.661-0.512-3.504-1.379c-0.896-0.922-1.349-2.172-1.349-3.746c0-0.746,0.111-1.436,0.334-2.072
		c0.224-0.635,0.542-1.182,0.965-1.637c0.425-0.451,0.947-0.799,1.567-1.045c0.599-0.232,1.26-0.352,1.986-0.359v1.748h-0.004
		c-0.625,0-1.142,0.215-1.551,0.645C438.359,737.499,438.116,738.14,438.032,738.985z"/>
	<path style="fill-rule:evenodd;clip-rule:evenodd;fill:#E5AC3C;" d="M451.521,738.985h2.278c-0.066-0.857-0.297-1.502-0.69-1.926
		c-0.405-0.426-0.931-0.641-1.588-0.643v-1.748h0.075c0.984,0,1.83,0.201,2.53,0.621c0.7,0.416,1.232,0.951,1.583,1.606
		c0.348,0.656,0.523,1.328,0.523,2.012c0,0.627-0.183,1.043-0.542,1.228c-0.361,0.186-0.867,0.281-1.53,0.281h-2.64V738.985
		L451.521,738.985z M451.521,744.907v-1.674c0.059,0.008,0.122,0.01,0.185,0.01c0.307,0,0.574-0.035,0.823-0.108
		c0.254-0.064,0.494-0.182,0.725-0.334c0.234-0.147,0.451-0.309,0.65-0.479c0.193-0.174,0.452-0.406,0.764-0.701
		c0.13-0.109,0.309-0.168,0.551-0.168c0.263,0,0.472,0.07,0.631,0.213c0.151,0.141,0.234,0.342,0.234,0.598
		c0,0.229-0.087,0.49-0.264,0.801c-0.178,0.301-0.452,0.596-0.812,0.873c-0.357,0.279-0.81,0.51-1.352,0.697
		c-0.545,0.182-1.167,0.275-1.876,0.275C451.695,744.911,451.608,744.909,451.521,744.907z M449.239,738.985h2.282v1.432h-2.282
		c0.009,0.568,0.125,1.072,0.346,1.508c0.227,0.44,0.521,0.766,0.895,0.982c0.32,0.195,0.666,0.301,1.041,0.326v1.674
		c-1.489-0.049-2.657-0.512-3.504-1.379c-0.9-0.922-1.347-2.172-1.347-3.746c0-0.746,0.114-1.436,0.329-2.072
		c0.225-0.635,0.545-1.182,0.972-1.637c0.419-0.451,0.938-0.799,1.566-1.045c0.598-0.232,1.263-0.352,1.983-0.359v1.748h-0.005
		c-0.628,0-1.141,0.215-1.543,0.645C449.571,737.499,449.324,738.14,449.239,738.985z"/>
	<path style="fill-rule:evenodd;clip-rule:evenodd;fill:#E5AC3C;" d="M465.351,739.753c0-0.666-0.1-1.232-0.304-1.711
		c-0.203-0.477-0.48-0.846-0.842-1.096c-0.354-0.258-0.757-0.381-1.191-0.381l-0.066,0.002v-1.807
		c0.217-0.039,0.443-0.057,0.679-0.057c0.778,0,1.487,0.199,2.144,0.598c0.651,0.404,1.166,0.982,1.546,1.75
		c0.371,0.766,0.561,1.674,0.561,2.73c0,0.77-0.11,1.48-0.324,2.133c-0.223,0.643-0.52,1.192-0.899,1.627
		c-0.384,0.435-0.832,0.781-1.345,1.014c-0.523,0.236-1.08,0.355-1.682,0.355c-0.235,0-0.466-0.017-0.679-0.051v-1.893h0.066
		c0.421,0,0.805-0.121,1.162-0.369c0.355-0.24,0.64-0.6,0.853-1.086C465.239,741.024,465.351,740.438,465.351,739.753z
		 M462.948,736.567c-0.665,0.016-1.227,0.287-1.686,0.816c-0.48,0.549-0.718,1.35-0.718,2.416c0,0.998,0.237,1.773,0.715,2.332
		c0.448,0.541,1.014,0.818,1.689,0.836v1.893c-0.428-0.065-0.805-0.193-1.125-0.385c-0.49-0.285-0.959-0.707-1.4-1.271v3.777
		c0,1.107-0.404,1.66-1.2,1.66c-0.477,0-0.789-0.145-0.947-0.43c-0.15-0.283-0.226-0.703-0.226-1.25v-10.854
		c0-0.477,0.106-0.834,0.309-1.07c0.215-0.236,0.496-0.352,0.864-0.352c0.353,0,0.641,0.115,0.866,0.361
		c0.227,0.242,0.334,0.594,0.334,1.045v0.305c0.478-0.582,0.97-1.014,1.48-1.287c0.319-0.17,0.668-0.287,1.045-0.35V736.567z"/>
	<path style="fill-rule:evenodd;clip-rule:evenodd;fill:#E5AC3C;" d="M472.41,736.108v7.273c0,0.504-0.123,0.883-0.359,1.143
		c-0.237,0.26-0.542,0.387-0.912,0.387c-0.366,0-0.664-0.129-0.897-0.398c-0.234-0.262-0.345-0.643-0.345-1.131v-7.195
		c0-0.498,0.11-0.877,0.345-1.123c0.233-0.252,0.531-0.377,0.897-0.377c0.37,0,0.675,0.125,0.912,0.377
		C472.287,735.31,472.41,735.663,472.41,736.108L472.41,736.108z M471.172,733.517c-0.357,0-0.658-0.113-0.905-0.324
		c-0.243-0.215-0.371-0.518-0.371-0.912c0-0.353,0.128-0.65,0.38-0.881c0.254-0.232,0.554-0.344,0.897-0.344
		c0.318,0,0.608,0.103,0.86,0.309c0.251,0.215,0.377,0.517,0.377,0.916c0,0.387-0.123,0.688-0.368,0.908
		C471.798,733.399,471.504,733.517,471.172,733.517z"/>
	<path style="fill-rule:evenodd;clip-rule:evenodd;fill:#E5AC3C;" d="M481.275,743.759l-2.224-3.648l-1.367,1.295v1.996
		c0,0.484-0.122,0.855-0.371,1.121c-0.261,0.262-0.556,0.389-0.885,0.389c-0.389,0-0.693-0.127-0.913-0.387
		c-0.222-0.26-0.329-0.639-0.329-1.143v-10.723c0-0.563,0.099-0.986,0.315-1.277c0.223-0.293,0.528-0.438,0.927-0.438
		c0.389,0,0.695,0.127,0.924,0.395c0.22,0.268,0.332,0.654,0.332,1.174v6.096l2.836-2.967c0.346-0.367,0.613-0.621,0.796-0.754
		c0.186-0.137,0.411-0.201,0.672-0.201c0.316,0,0.576,0.096,0.789,0.297c0.204,0.201,0.311,0.449,0.311,0.75
		c0,0.367-0.341,0.861-1.025,1.477l-1.33,1.221l2.574,4.059c0.197,0.301,0.334,0.529,0.412,0.685
		c0.087,0.154,0.121,0.305,0.121,0.443c0,0.402-0.107,0.715-0.327,0.947c-0.215,0.227-0.507,0.346-0.857,0.346
		c-0.307,0-0.546-0.082-0.713-0.25C481.782,744.497,481.556,744.192,481.275,743.759z"/>
	<path style="fill-rule:evenodd;clip-rule:evenodd;fill:#E5AC3C;" d="M487.491,744.911c-0.379,0-0.707-0.121-0.98-0.373
		c-0.277-0.24-0.424-0.586-0.424-1.031c0-0.373,0.138-0.695,0.398-0.965c0.266-0.269,0.595-0.404,0.978-0.404
		c0.391,0,0.718,0.135,0.99,0.398c0.274,0.266,0.41,0.59,0.41,0.971c0,0.441-0.136,0.787-0.41,1.031
		C488.181,744.79,487.86,744.911,487.491,744.911z"/>
	<path style="fill-rule:evenodd;clip-rule:evenodd;fill:#E5AC3C;" d="M500.751,741.796c0,0.313-0.099,0.645-0.285,1.004
		c-0.188,0.361-0.472,0.697-0.852,1.021c-0.384,0.322-0.871,0.58-1.454,0.773c-0.583,0.197-1.242,0.297-1.97,0.297
		c-1.557,0-2.767-0.457-3.641-1.357c-0.871-0.904-1.311-2.121-1.311-3.641c0-1.039,0.203-1.951,0.604-2.744
		c0.395-0.789,0.973-1.4,1.733-1.832c0.753-0.436,1.654-0.648,2.703-0.648c0.65,0,1.243,0.092,1.792,0.281
		c0.546,0.191,1.006,0.434,1.381,0.738c0.38,0.301,0.672,0.621,0.872,0.961c0.196,0.346,0.297,0.66,0.297,0.955
		c0,0.307-0.114,0.559-0.343,0.768c-0.222,0.207-0.492,0.309-0.811,0.309c-0.208,0-0.388-0.053-0.522-0.158
		c-0.135-0.106-0.295-0.277-0.464-0.523c-0.311-0.463-0.629-0.814-0.963-1.047c-0.332-0.236-0.76-0.348-1.274-0.348
		c-0.743,0-1.342,0.287-1.797,0.869c-0.453,0.578-0.685,1.369-0.685,2.377c0,0.475,0.055,0.91,0.177,1.309
		c0.114,0.393,0.285,0.731,0.508,1.012c0.212,0.273,0.491,0.492,0.8,0.631c0.312,0.148,0.663,0.221,1.031,0.221
		c0.501,0,0.936-0.121,1.295-0.35c0.361-0.236,0.68-0.588,0.956-1.07c0.155-0.285,0.32-0.502,0.497-0.662
		c0.176-0.16,0.393-0.238,0.649-0.238c0.314,0,0.563,0.115,0.771,0.35C500.644,741.288,500.751,741.536,500.751,741.796z"/>
	<path style="fill-rule:evenodd;clip-rule:evenodd;fill:#E5AC3C;" d="M509.834,739.8c0-1.027-0.23-1.828-0.682-2.398
		c-0.442-0.565-1.046-0.852-1.801-0.859v-1.855c0.76,0.002,1.441,0.127,2.057,0.365c0.62,0.246,1.15,0.594,1.596,1.049
		c0.441,0.457,0.776,1,1.003,1.625c0.233,0.627,0.35,1.316,0.35,2.074c0,0.744-0.116,1.438-0.35,2.068
		c-0.236,0.637-0.577,1.18-1.017,1.631c-0.44,0.453-0.967,0.805-1.582,1.053c-0.611,0.238-1.297,0.357-2.057,0.359v-1.875
		c0.755-0.004,1.358-0.289,1.801-0.861C509.605,741.602,509.834,740.808,509.834,739.8z M507.352,736.542h-0.02
		c-0.487,0-0.923,0.129-1.298,0.383c-0.368,0.26-0.661,0.633-0.868,1.127c-0.199,0.5-0.303,1.084-0.303,1.748
		c0,0.66,0.101,1.23,0.303,1.719c0.2,0.492,0.482,0.867,0.855,1.129c0.372,0.26,0.812,0.389,1.311,0.389h0.02v1.875h-0.02
		c-0.756,0-1.441-0.121-2.055-0.373c-0.602-0.24-1.13-0.59-1.578-1.049c-0.439-0.463-0.782-1-1.009-1.621
		c-0.232-0.625-0.347-1.316-0.347-2.068c0-0.764,0.114-1.461,0.357-2.094c0.224-0.631,0.563-1.174,0.994-1.621
		c0.439-0.449,0.963-0.795,1.583-1.037c0.624-0.246,1.307-0.361,2.055-0.361h0.02V736.542z"/>
	<path style="fill-rule:evenodd;clip-rule:evenodd;fill:#E5AC3C;" d="M522.704,739.982v3.344c0,0.525-0.119,0.926-0.363,1.188
		c-0.236,0.27-0.552,0.398-0.949,0.398c-0.38,0-0.689-0.129-0.922-0.398c-0.238-0.262-0.357-0.662-0.357-1.188v-4.01
		c0-0.635-0.023-1.117-0.062-1.471c-0.045-0.35-0.164-0.637-0.352-0.863c-0.188-0.225-0.492-0.332-0.903-0.332
		c-0.819,0-1.363,0.279-1.62,0.846c-0.261,0.564-0.391,1.373-0.391,2.432v3.398c0,0.521-0.124,0.918-0.361,1.185
		c-0.233,0.268-0.547,0.4-0.934,0.4c-0.382,0-0.69-0.133-0.935-0.4c-0.246-0.267-0.365-0.664-0.365-1.185v-7.199
		c0-0.467,0.112-0.828,0.325-1.074c0.222-0.24,0.51-0.365,0.864-0.365c0.343,0,0.633,0.113,0.861,0.342
		c0.232,0.23,0.346,0.553,0.346,0.957v0.236c0.438-0.516,0.901-0.904,1.402-1.15c0.498-0.242,1.048-0.367,1.655-0.367
		c0.636,0,1.178,0.125,1.631,0.377c0.453,0.252,0.83,0.633,1.125,1.141c0.422-0.51,0.879-0.896,1.364-1.144
		c0.484-0.248,1.022-0.373,1.612-0.373c0.688,0,1.276,0.139,1.777,0.402c0.498,0.277,0.868,0.658,1.108,1.158
		c0.222,0.463,0.329,1.176,0.329,2.152v4.908c0,0.525-0.127,0.926-0.365,1.188c-0.232,0.27-0.547,0.398-0.945,0.398
		c-0.375,0-0.692-0.133-0.931-0.4c-0.246-0.267-0.368-0.664-0.368-1.185v-4.23c0-0.535-0.021-0.971-0.066-1.301
		c-0.048-0.32-0.171-0.598-0.372-0.817c-0.202-0.221-0.513-0.328-0.922-0.328c-0.334,0-0.648,0.098-0.944,0.293
		c-0.296,0.195-0.531,0.459-0.702,0.791C522.793,738.157,522.704,738.907,522.704,739.982z"/>
	<path style="fill-rule:evenodd;clip-rule:evenodd;fill:#E5AC3C;" d="M401.83,728.202c-0.052-0.166-0.102-0.324-0.16-0.484
		c0.845-0.076,1.416-1.09,1-1.84c-0.199-0.451-0.661-0.691-1.125-0.699h-0.056c-0.393,0.008-0.775,0.176-1.001,0.527
		c-0.538,0.682-0.119,1.764,0.709,1.988c0.048,0.168,0.094,0.342,0.148,0.52c-1.266,0.086-2.562,0.369-3.621,1.09
		c0.11,0.301,0.223,0.613,0.329,0.924c2.142-0.941,4.545-0.738,6.805-0.512c0.076-0.299,0.149-0.598,0.229-0.897
		C404.065,728.358,402.943,728.19,401.83,728.202z"/>
	<path style="fill-rule:evenodd;clip-rule:evenodd;fill:#E5AC3C;" d="M414.575,731.659c-0.336,0.174-0.402,0.584-0.379,0.924
		c-0.38,0.369-0.199,0.92-0.241,1.377c-0.084,0.258-0.393,0.291-0.612,0.387c-0.291-0.451-0.608-0.883-1.004-1.256l0.004-0.016
		c-0.435-0.408-0.898-0.775-1.393-1.096c-0.397,0.422-0.813,0.84-1.193,1.285c0.752,0.828,1.451,1.717,2.067,2.656
		c0.428,0.713,0.768,1.475,1.06,2.25c0.639-0.326,1.268-0.666,1.908-1.004c-0.339-0.777-0.719-1.535-1.131-2.279
		c0.286-0.152,0.661-0.299,0.703-0.67c0.034-0.406-0.06-0.846,0.188-1.205c0.491,0.324,1.239-0.039,1.246-0.639
		C415.867,731.755,415.087,731.312,414.575,731.659z"/>
	<path style="fill-rule:evenodd;clip-rule:evenodd;fill:#E5AC3C;" d="M409.58,736.815c-0.151,1.035-1.135,1.914-2.195,1.848v4.152
		c1.941-0.518,3.823-1.289,5.558-2.303c0,0-0.37-2.021-1.807-4.229c-0.833-1.379-1.729-2.746-2.955-3.809
		c-0.254-0.225-0.517-0.432-0.796-0.627v2.402c0.268,0.006,0.535,0.057,0.789,0.117C409.145,734.71,409.781,735.808,409.58,736.815z
		 M407.384,738.663h-0.007c-0.613,0.051-1.203-0.236-1.62-0.67c-0.295-0.373-0.546-0.799-0.587-1.285
		c-0.145-1.051,0.601-2.141,1.628-2.387c0.196-0.057,0.387-0.076,0.586-0.07v-2.402c-1.272-0.887-2.79-1.447-4.349-1.443
		c-1.926-0.023-3.865,0.223-5.699,0.813v2.283c0.336,0,0.677,0.047,1.006,0.139c0.369,0.092,0.708,0.266,1.025,0.48
		c0.654,0.463,1.147,1.145,1.367,1.92c0.305,0.994,0.108,2.106-0.475,2.965c-0.414,0.604-1.01,1.074-1.695,1.338
		c-0.392,0.147-0.812,0.219-1.228,0.219v3.078l0.094,0.004c2.251,0.07,4.52,0.127,6.752-0.188c1.077-0.147,2.15-0.356,3.202-0.641
		V738.663z M397.336,731.218v2.283c-0.581-0.002-1.155,0.129-1.672,0.404c-1.059,0.568-1.807,1.699-1.859,2.91
		c-0.07,0.971,0.316,1.936,0.961,2.652c0.651,0.715,1.607,1.094,2.57,1.094v3.078c-2.248-0.115-4.462-0.6-6.644-1.146
		c-0.4-2.02-0.407-4.203,0.474-6.104c0.919-2.109,2.734-3.744,4.82-4.664C396.429,731.536,396.877,731.366,397.336,731.218z"/>
	<path style="fill-rule:evenodd;clip-rule:evenodd;fill:#E5AC3C;" d="M391.196,733.21c-0.899,0.541-1.638,1.305-2.253,2.144
		c-0.179-0.334-0.233-0.73-0.469-1.027c-0.133-0.18-0.377-0.109-0.561-0.111c-0.237,0.025-0.472-0.039-0.693-0.109
		c0.261-0.367,0.19-0.936-0.21-1.176c-0.432-0.309-1.096-0.041-1.212,0.469c-0.177,0.561,0.421,1.123,0.967,0.979
		c0.291,0.434,0.819,0.363,1.272,0.377c0.202,0.352,0.355,0.736,0.615,1.055c-0.484,0.947-0.755,2.01-0.779,3.078
		c0.624,0.256,1.237,0.523,1.859,0.781c0.029-0.678,0.109-1.344,0.21-2.002c0.208-1.445,1.044-2.699,2.033-3.734
		C391.724,733.675,391.455,733.452,391.196,733.21z"/>
	<path style="fill-rule:evenodd;clip-rule:evenodd;fill:#E5AC3C;" d="M405.651,744.087c-2.28,0.496-4.632,0.643-6.96,0.543
		c-1.576-0.082-3.147-0.228-4.688-0.57c-1.089-0.221-2.157-0.537-3.231-0.842c0.17,1.369,0.724,2.678,1.517,3.811
		c0.934,1.311,2.181,2.518,3.733,3.006c1.141,0.303,2.482,0.689,4.695,0.699h0.227l0.229-0.002c2.059-0.039,4.087-0.299,5.894-1.067
		c1.164-0.5,2.26-1.185,3.197-2.039c0.808-0.768,1.445-1.719,1.885-2.74c0.424-0.969,0.808-2.711,0.764-3.598
		C410.682,742.556,408.191,743.661,405.651,744.087z"/>
</g>
<g>
	<g>
		<g>
			<g>
				<path d="M554.306,289.468l21.286,4.48c1.23,0.259,2.489,0.59,3.741,0.986l7.493,2.366l2.805-1.469l16.995,10
					c1.009,0.594,1.944,1.116,2.849,1.622c0.703,0.393,1.407,0.785,2.11,1.199l6.288,3.698l0.698-0.146l17.131,14.843
					c0.791,0.685,1.644,1.522,2.607,2.561l5.144,5.539l3.627,0.222l10.13,17.216c0.438,1.577,1.098,3.227,2.042,4.926l3.676,6.607
					l2.501,0.779l4.367,15.772c0.456,1.645,0.933,3.458,1.396,5.212l1.857,7.052l1.819,1.182l1.261,25.111
					c0.066,1.31,0.066,2.429,0,3.74l-0.403,8.039l1.089,1.157l-4.48,21.279c-0.26,1.231-0.591,2.489-0.985,3.737l-2.371,7.504
					l1.196,2.28l-9.955,17.919c-0.231,0.416-0.457,0.828-0.68,1.232c-0.628,1.141-1.17,2.127-1.645,2.887l-4.026,6.443l0.412,1.969
					l-14.619,15.76c-0.932,1.006-1.965,2.039-2.988,2.99l-5.643,5.242l-0.127,2.658l-17.58,10.355
					c-0.583,0.344-1.156,0.688-1.729,1.031c-0.982,0.59-1.91,1.146-2.813,1.648l-6.573,3.65l-0.843,2.668l-19.195,5.039
					c-1.852,0.484-3.704,0.973-5.556,1.461l-7.152,1.885l-0.691,1.086l-21.713,1.092c-1.469,0.074-2.889,0.074-4.686,0.074h-7.209
					l-0.743,0.662l-21.584-4.533c-1.356-0.285-2.903-0.691-4.54-1.123l-0.074-0.019l-6.886-1.813l-0.793,0.396l-19.861-9.935
					c-0.986-0.494-2.065-1.111-3.396-1.943l-6.314-3.945l-2.028,0.395l-15.832-14.684c-1.004-0.932-2.037-1.965-2.988-2.988
					l-5.183-5.578l-2.029-0.113l-11.302-18.084c-0.813-1.301-1.679-2.768-2.645-4.412l-3.64-6.195l-2.419-0.783l-5.074-19.337
					l-1.089-4.14l-0.372-1.412l-1.866-7.09l-1.045-0.674l-1.155-21.846c-0.071-1.346-0.071-3.019-0.071-4.637v-7.209l-0.744-0.833
					l4.655-20.939c0.027-0.113,0.06-0.246,0.099-0.399c0.306-1.229,0.876-3.515,1.368-6.474l1.01-6.06l-0.24-0.478l10.017-18.908
					c0.686-1.296,1.56-2.783,2.406-4.22l3.655-6.214l-0.143-0.72l14.888-17.185c0.447-0.517,1.129-1.186,1.918-1.962
					c0.381-0.374,0.764-0.75,1.146-1.132l5.16-5.162l0.076-1.595l18.036-11.272c1.359-0.85,2.918-1.767,4.424-2.653l6.035-3.551
					l0.403-1.181l20.759-6.554c1.426-0.45,2.993-0.862,4.652-1.298l7.198-1.892l0.651-1.031l21.762-1.146
					c0.59-0.031,1.203-0.047,1.824-0.047s1.234,0.016,1.823,0.047l8.062,0.424L554.306,289.468 M544.314,268.079
					c-11.852,0.097-23.607,1.457-34.975,4.177l-2.331,3.692c-1.847,0.485-3.691,0.971-5.538,1.554l2.817-3.983
					c-11.271,3.109-22.247,7.48-32.546,13.018l-1.36,3.983c-1.652,0.972-3.302,1.943-4.856,2.915l1.65-4.372
					c-10.103,5.829-19.526,12.921-28.076,20.985l-0.195,4.081c-1.359,1.36-2.719,2.623-3.981,4.08l0.388-4.469
					c-8.161,8.161-15.351,17.391-21.568,27.494l0.777,3.886c-0.972,1.652-1.942,3.304-2.817,4.956l-0.68-4.275
					c-3.108,5.344-5.83,10.978-8.257,16.807c-2.138,5.052-3.985,10.201-5.442,15.35l1.652,3.304
					c-0.485,2.915-1.068,4.955-1.263,5.829c-0.875-1.068-1.359-1.943-1.943-2.526c-3.011,11.464-4.565,21.47-4.858,32.935l2.43,2.72
					c0,1.845,0,3.79,0.098,5.635l-2.623-3.108c0.096,11.755,1.554,23.316,4.274,34.586l3.011,1.942
					c0.486,1.848,0.973,3.692,1.457,5.538l-3.204-2.331c3.107,11.27,7.479,22.053,13.018,32.352l3.304,1.068
					c0.971,1.652,1.942,3.301,2.914,4.855l-3.595-1.359c5.829,10.008,12.824,19.334,20.791,27.785l3.497,0.195
					c1.263,1.359,2.622,2.721,3.982,3.982l-3.788-0.289c8.16,8.063,17.292,15.252,27.299,21.373l3.497-0.682
					c1.555,0.973,3.207,1.943,4.956,2.818l-3.886,0.582c5.439,3.109,11.171,5.928,17.001,8.354
					c4.954,2.043,9.909,3.889,14.961,5.346l3.109-1.555c1.845,0.484,3.691,0.973,5.537,1.359l-3.595,1.652
					c11.367,3.012,22.929,4.662,34.295,5.053l2.72-2.43c1.943,0,3.692,0,5.635-0.098l-3.107,2.623
					c11.656-0.096,23.218-1.455,34.488-4.08l2.04-3.205c1.846-0.486,3.692-0.973,5.538-1.457l-2.43,3.301
					c11.173-3.01,22.053-7.285,32.255-12.727l1.166-3.691c1.749-0.971,3.304-1.941,4.955-2.914l-1.554,4.08
					c10.006-5.828,19.43-12.727,27.979-20.693l0.195-4.08c1.359-1.264,2.72-2.623,3.982-3.982l-0.387,4.469
					c8.063-8.162,15.349-17.293,21.663-27.299l-0.874-4.178c0.972-1.555,1.847-3.207,2.818-4.957l0.776,4.664
					c3.206-5.635,6.219-11.658,8.743-17.777c1.943-4.664,3.692-9.426,5.149-14.185l-2.04-3.887c0.583-1.845,1.069-3.691,1.458-5.537
					l2.039,4.372c3.11-11.366,4.762-22.928,5.248-34.489l-3.11-3.303c0.098-1.943,0.098-3.692,0-5.635l3.206,3.787
					c0-11.754-2.233-27.104-4.857-38.471l-3.886-2.526c-0.486-1.846-0.973-3.692-1.457-5.441l4.079,2.915
					c-3.012-11.27-6.412-18.459-11.948-28.854l-4.372-1.361c-0.973-1.749,0.291-0.971-0.681-2.623l2.526-0.583
					c-5.732-10.006-12.727-19.527-20.693-28.077l-4.761-0.292c-1.263-1.36-2.622-2.72-4.08-3.983l5.148,0.486
					c-8.16-8.161-17.293-15.544-27.396-21.859l-4.663,0.972c-1.652-0.972-3.304-1.846-4.955-2.818l5.15-0.194
					c-5.636-3.207-12.242-7.092-17.683-9.327c-5.538-2.331-9.716-3.789-14.572-5.247l-4.081,2.138
					c-1.847-0.583-3.691-1.069-5.538-1.457l4.566-2.137c-11.464-3.108-23.123-4.76-34.683-5.149l-3.304,3.109
					c-0.923-0.048-1.87-0.073-2.817-0.073c-0.947,0-1.895,0.024-2.817,0.073L544.314,268.079L544.314,268.079z"/>
			</g>
		</g>
		<path d="M642.362,323.919c-26.135-26.139-60.89-40.534-97.853-40.534c-36.962,0-71.718,14.395-97.854,40.534
			c-26.135,26.138-40.534,60.891-40.534,97.854c0,36.964,14.397,71.714,40.534,97.853c26.136,26.137,60.892,40.533,97.854,40.533
			c36.964,0,71.719-14.397,97.853-40.533c26.139-26.139,40.533-60.889,40.533-97.853C682.895,384.81,668.5,350.055,642.362,323.919z
			 M555.871,434.034l-2.563,1.887l-2.829,1.471l-3.247,0.837l-3.354,0.254l-3.156-0.479l-3.032-0.966l-2.893-1.702l-2.555-2.194
			l-1.883-2.563l-1.471-2.833l-0.836-3.236l-0.256-3.371l0.477-3.142l0.966-3.043l1.699-2.885l2.203-2.561l2.552-1.881l2.837-1.471
			l3.251-0.838l3.354-0.255l3.162,0.482l3.021,0.956l2.896,1.709l2.548,2.194l1.893,2.565l1.466,2.826l0.838,3.253l0.254,3.348
			l-0.481,3.168l-0.957,3.023l-1.708,2.893L555.871,434.034z M566.635,418.119l0.69-2.178l2.725,1.608l-2.065,2.399L566.635,418.119
			z M557.569,403.539l-1.049-2.022l3.06-0.789l0.24,3.158L557.569,403.539z M549.628,399.814l-1.539-1.32l2.219-1.636l1.271,2.449
			L549.628,399.814z M540.853,399.645l-2.176-0.689l1.608-2.727l2.398,2.065L540.853,399.645z M532.596,402.628l-2.019,0.152
			l0.413-2.725l2.626,0.834L532.596,402.628z M522.547,416.655l-1.318,1.534l-1.636-2.221l2.446-1.265L522.547,416.655z
			 M518.976,420.812l-2.965,3.441l-5.803-3.418l6.356-3.292L518.976,420.812z M521.029,423.597l1.352,1.829l-0.69,2.18l-2.726-1.61
			L521.029,423.597z M531.447,440.006l1.051,2.021l-3.064,0.789l-0.237-3.157L531.447,440.006z M539.39,443.737l1.533,1.316
			l-2.219,1.637l-1.268-2.45L539.39,443.737z M548.164,443.901l2.173,0.69l-1.607,2.725l-2.399-2.066L548.164,443.901z
			 M556.417,440.918l2.016-0.154l-0.411,2.725l-2.627-0.833L556.417,440.918z M566.466,426.891l1.323-1.533l1.628,2.222
			l-2.445,1.265L566.466,426.891z M570.039,422.733l2.963-3.442l5.806,3.421l-6.357,3.295L570.039,422.733z M575.24,416.691
			l5.373-6.251l16.926,2.563l-15.198,7.875L575.24,416.691z M572.283,414.951l-3.911-2.306l1.231-3.873l7.074,1.074L572.283,414.951
			z M565.391,410.887l-1.738-1.027l-0.154-2.013l2.726,0.411L565.391,410.887z M563.241,404.4l-0.342-4.534l6.524-1.68l-2.161,6.822
			L563.241,404.4z M562.642,396.454l-0.619-8.226l13.786-10.158l-5.179,16.322L562.642,396.454z M559.326,397.309l-4.395,1.134
			l-1.874-3.611l5.764-4.243L559.326,397.309z M551.487,391.806l-4.022-7.763l9.631-16.339l1.424,18.917L551.487,391.806z
			 M548.735,393.829l-3.268,2.409l-3.447-2.961l3.421-5.807L548.735,393.829z M539.424,391.043l-6.25-5.378l2.563-16.928
			l7.877,15.204L539.424,391.043z M537.687,393.996l-2.309,3.914l-3.872-1.232l1.073-7.077L537.687,393.996z M528.25,395.648
			l-8.331-2.646l-4.741-18.365l14.379,12.37L528.25,395.648z M527.739,399.022l-0.608,4.015l-4.533,0.341l-1.682-6.523
			L527.739,399.022z M526.614,406.461l-0.342,2.254l-2.022,1.049l-0.789-3.063L526.614,406.461z M521.176,411.352l-3.606,1.871
			l-4.249-5.762l6.722-0.507L521.176,411.352z M514.542,414.793l-7.763,4.021l-16.337-9.631l18.914-1.424L514.542,414.793z
			 M503.246,420.646l-17.445,9.042l-62.799-9.516c0.023-1.991,0.095-3.969,0.219-5.934l61.332-4.616L503.246,420.646z
			 M506.676,422.667l7.101,4.186l-5.377,6.254l-16.925-2.562L506.676,422.667z M516.731,428.591l3.913,2.309l-1.227,3.874
			l-7.078-1.075L516.731,428.591z M523.623,432.661l1.741,1.026l0.152,2.015l-2.725-0.414L523.623,432.661z M525.773,439.146
			l0.341,4.533l-6.523,1.684l2.166-6.827L525.773,439.146z M526.371,447.093l0.62,8.226l-13.781,10.158l5.179-16.319
			L526.371,447.093z M529.69,446.237l4.4-1.132l1.868,3.605l-5.761,4.248L529.69,446.237z M537.53,451.74l4.021,7.76l-9.633,16.34
			l-1.423-18.916L537.53,451.74z M540.278,449.711l3.271-2.407l3.447,2.966l-3.422,5.804L540.278,449.711z M549.586,452.505
			l6.258,5.376l-2.568,16.925l-7.877-15.202L549.586,452.505z M551.329,449.55l2.309-3.913l3.866,1.223l-1.07,7.083L551.329,449.55z
			 M560.76,447.898l8.333,2.643l4.747,18.367l-14.384-12.371L560.76,447.898z M561.277,444.522l0.607-4.014l4.533-0.34l1.684,6.522
			L561.277,444.522z M562.4,437.086l0.343-2.252l2.021-1.052l0.796,3.063L562.4,437.086z M567.839,432.195l3.607-1.872l4.25,5.761
			l-6.724,0.506L567.839,432.195z M574.472,428.752l7.763-4.022l16.339,9.633l-18.917,1.422L574.472,428.752z M585.768,422.9
			l17.443-9.04l62.801,9.514c-0.021,1.992-0.094,3.973-0.216,5.935l-61.335,4.617L585.768,422.9z M608.307,411.222l51.852-26.867
			c3.632,11.24,5.675,23.196,5.854,35.604L608.307,411.222z M602.634,410.364l-19.426-2.942l14.152-16.453l59.579-15.386
			c0.748,1.827,1.456,3.673,2.121,5.541L602.634,410.364z M579.273,406.828l-8.638-1.31l2.644-8.331l18.363-4.742L579.273,406.828z
			 M574.481,393.396l5.943-18.73l51.137-37.682c1.381,1.416,2.727,2.869,4.04,4.355L595.49,387.97L574.481,393.396z M582.16,369.199
			l17.666-55.664c10.818,5.538,20.685,12.654,29.321,21.038L582.16,369.199z M577.542,372.601l-15.817,11.658l-1.626-21.641
			l31.253-53.011c1.829,0.764,3.635,1.572,5.416,2.422L577.542,372.601z M559.657,356.731l-4.212-55.992
			c11.443,1.022,22.428,3.626,32.742,7.601L559.657,356.731z M556.655,361.817l-11.017,18.693l-9.039-17.444l9.51-62.8
			c1.988,0.023,3.973,0.098,5.941,0.217L556.655,361.817z M533.958,357.972l-26.868-51.85c11.243-3.633,23.197-5.673,35.603-5.855
			L533.958,357.972z M533.096,363.645l-2.94,19.427l-16.454-14.155l-15.382-59.578c1.825-0.75,3.674-1.458,5.542-2.123
			L533.096,363.645z M509.225,365.068l-42.565-36.612c8.583-7.169,18.17-13.176,28.522-17.778L509.225,365.068z M510.704,370.788
			l5.425,21.012l-18.73-5.945l-37.68-51.134c1.419-1.381,2.867-2.728,4.354-4.04L510.704,370.788z M517.121,395.651l2.063,7.991
			l-8.224,0.616l-10.161-13.784L517.121,395.651z M506.994,404.551l-21.638,1.631l-53.014-31.253c0.764-1.83,1.57-3.634,2.422-5.419
			l60.577,19.224L506.994,404.551z M479.468,406.625l-55.994,4.216c1.022-11.447,3.629-22.433,7.601-32.746L479.468,406.625z
			 M480.709,432.326l-51.852,26.865c-3.634-11.242-5.674-23.195-5.853-35.604L480.709,432.326z M486.381,433.182l19.426,2.944
			l-14.152,16.451l-59.581,15.381c-0.749-1.827-1.455-3.675-2.122-5.54L486.381,433.182z M509.74,436.719l8.641,1.31l-2.643,8.329
			l-18.366,4.746L509.74,436.719z M514.533,450.15l-5.941,18.729l-51.134,37.684c-1.381-1.42-2.729-2.869-4.041-4.352l40.106-46.633
			L514.533,450.15z M506.856,474.346l-17.665,55.662c-10.816-5.537-20.688-12.652-29.323-21.039L506.856,474.346z M511.473,470.943
			l15.815-11.655l1.627,21.637l-31.253,53.012c-1.828-0.762-3.635-1.572-5.418-2.422L511.473,470.943z M529.357,486.813l4.21,55.994
			c-11.444-1.019-22.429-3.629-32.739-7.6L529.357,486.813z M532.359,481.725l11.018-18.69l9.04,17.446l-9.511,62.797
			c-1.992-0.021-3.972-0.094-5.938-0.215L532.359,481.725z M555.06,485.572l26.868,51.852c-11.245,3.633-23.202,5.674-35.608,5.854
			L555.06,485.572z M555.917,479.898l2.944-19.426l16.452,14.153l15.389,59.58c-1.828,0.748-3.677,1.457-5.548,2.121
			L555.917,479.898z M579.789,478.475l42.567,36.615c-8.585,7.17-18.169,13.176-28.525,17.777L579.789,478.475z M578.314,472.758
			l-5.428-21.012l18.729,5.943l37.683,51.135c-1.418,1.383-2.87,2.727-4.352,4.041L578.314,472.758z M571.895,447.893l-2.066-7.986
			l8.228-0.615l10.154,13.78L571.895,447.893z M582.019,438.996l21.643-1.632l53.011,31.253c-0.762,1.83-1.57,3.637-2.422,5.416
			l-60.576-19.225L582.019,438.996z M609.547,436.924l55.996-4.214c-1.022,11.448-3.631,22.433-7.601,32.744L609.547,436.924z
			 M655.608,372.449l-54.399,14.043l36.617-42.567C644.995,352.51,651.001,362.095,655.608,372.449z M457.307,337.132l34.627,46.985
			l-55.661-17.665C441.811,355.637,448.927,345.771,457.307,337.132z M433.411,471.096l54.394-14.042l-36.616,42.567
			C444.02,491.037,438.013,481.453,433.411,471.096z M631.706,506.41l-34.629-46.987l55.666,17.668
			C647.206,487.912,640.09,497.779,631.706,506.41z"/>
		<path d="M544.508,417.207c2.521,0,4.566,2.045,4.566,4.567c0,2.522-2.045,4.565-4.566,4.565c-2.523,0-4.567-2.043-4.567-4.565
			C539.941,419.251,541.986,417.207,544.508,417.207z"/>
	</g>
	
		<linearGradient id="SVGID_00000153675119294122603800000008337452136997657245_" gradientUnits="userSpaceOnUse" x1="449.9019" y1="363.6252" x2="-367.0857" y2="98.1699">
		<stop  offset="0" style="stop-color:#000000"/>
		<stop  offset="0.0042" style="stop-color:#030201"/>
		<stop  offset="0.091" style="stop-color:#42321E"/>
		<stop  offset="0.1701" style="stop-color:#745834"/>
		<stop  offset="0.239" style="stop-color:#977344"/>
		<stop  offset="0.2951" style="stop-color:#AD844D"/>
		<stop  offset="0.3313" style="stop-color:#B58A51"/>
		<stop  offset="0.3607" style="stop-color:#C68C3B"/>
		<stop  offset="0.4002" style="stop-color:#D68E25"/>
		<stop  offset="0.4468" style="stop-color:#E38F14"/>
		<stop  offset="0.5044" style="stop-color:#EB9009"/>
		<stop  offset="0.5853" style="stop-color:#F19102"/>
		<stop  offset="0.8098" style="stop-color:#F29100"/>
		<stop  offset="1" style="stop-color:#F2D900"/>
	</linearGradient>
	<path style="fill:url(#SVGID_00000153675119294122603800000008337452136997657245_);" d="M477.691,240.351
		c-9.894-16.804-26.126-28.691-42.831-38.111c-4.86-2.742-9.826-5.294-14.83-7.759c-3.985-1.963-12.112-3.966-15.062-7.18
		c8.065,8.787,23.144,24.037,19.752,36.697c-31.957-29.371-78.973-34.075-118.805-24.063c-4.211,1.058-9.304,2.408-14.945,3.797
		c-1.179-1.02-2.358-2.084-3.542-3.208c-17.71-16.848-31.182-37.272-61.115-43.656c-65.923-14.047-121.852,67.164-187.776,43.612
		c-0.655-0.258-1.127,1.098-0.472,1.355c64.758,30.718,119.788-48.849,184.361-29.249c37.262,11.248,34.137,34.588,12.483,38.011
		c-19.476-1.872-34.479-11.131-33.773-36.333c-1.96,10.565-0.055,21.971,4.713,32.236c-5.764-1.302-11.701-2.378-17.761-3.163
		c-10.866-11.516-25.416-20.116-37.964-18.122c10.195,1.611,16.942,8.671,22.042,16.777c-30.786-1.216-63.225,5.799-90.085,27.977
		c-0.631,0.533-0.269,1.699,0.408,1.275c26.449-15.043,57.116-23.855,96.091-17.317c1.647,3.392,3.153,6.597,4.652,9.29
		c5.413,9.715,10.585,16.446,18.409,21.206c-9.167-2.09-18.196-5.125-26.874-9.302c-0.655-0.257-1.172,0.989-0.629,1.415
		c45.267,33.546,96.844,21.753,139.754,14.484c5.173,1.997,9.858,4.525,14.097,7.525c-11.565,1.481-23.971,6.025-36.917,14.713
		c-0.676,0.423-0.403,1.665,0.319,1.351c16.742-8.686,32.223-10.807,45.65-8.33c7.586,7.692,13.478,17.108,18.272,27.46
		c-6.073-1.937-13.135-2.108-21.385,0.608c-0.609,0.146-0.63,1.414,0.023,1.378c11.388-0.411,20.589,5.036,27.166,12.305
		c1.803,5.032,3.439,10.177,4.96,15.369c-7.772-10.851-14.32-20.651-29.364-21.558c13.612,7.138,17.072,21.172,20.391,34.598
		c-2.95-2.423-6.339-5.77-10.189-10.219c-0.236-0.275-0.48-0.546-0.717-0.82c-0.098-0.179-0.185-0.362-0.283-0.541
		c-4.49-8.122-10.758-15.486-18.939-19.197c-0.589-0.267-1.185-0.505-1.785-0.718c-21.767-17.437-48.221-27.127-77.75-14.146
		c-0.632,0.239-0.539,1.633,0.16,1.411c25.672-7.406,45.901,0.384,63.081,13.787c-3.252,1.536-7.829,4.414-10.128,11.017
		c-0.342,0.986-0.573,1.966-0.707,2.936c-9.146-3.785-18.52-6.969-28.169-9.347c-60.433-14.867-91.525-36.533-117.439-72.429
		c-0.43-0.595-1.217,0.292-0.901,1.055c25.52,47.564,75.053,70.666,116.345,83.73c37.746,12.006,26.14,48.887-14.497,35.494
		c-66.239-21.962-82.318-126.439-160.993-112.506c-0.677,0.13-0.722,1.492-0.066,1.454c60.258-0.663,82.786,56.27,116.047,100.615
		c32.226,43.015,83.798,66.317,126.263,79.86c40.095,12.676,27.634,52.193-15.375,37.634
		c-64.456-21.921-85.203-114.591-159.409-128.491c-0.7-0.073-1.037,1.316-0.36,1.481c65.771,19.107,87.15,111.832,147.596,140.228
		c9.194,4.326,19.31,7.301,29.581,8.539c-0.766,0.43-1.192,0.647-1.192,0.647c46.57,5.879,97.528,18.244,97.528,18.244
		c-12.508-20.793-19.169-41.259-21.736-60.816c4.89-11.959,7.787-26.75,7.948-44.767c0.013-1.698,0.008-3.42-0.002-5.144
		c7.199-1.748-2.667-5.643,3.469-11.637c-7.027-1.095,2.75-2.276-3.862-5.067c-0.064-1.592-0.127-3.182-0.206-4.783
		c0.043-0.129,0.09-0.253,0.132-0.382c12.39,1.554,7.652-10.641,12.484-18.669c-7.237-4.654,5.165-3.912,1.038-13.034
		c2.032-3.873,4.104-7.579,6.189-11.081c4.579,3.897,8.605,1.466,10.145,5.391c-0.023-6.708-1.656-7.388-4.234-14.814
		c3.489-5.296,6.884-10.02,9.968-14.057l8.321,1.558l18.799-23.523c1.846,2.789,3.689,5.611,5.563,8.46
		C491.275,276.849,486.271,254.921,477.691,240.351z M295.64,239.373c-13.656,4.072-29.545,7.295-46.267,8.413
		c1.152-0.473,2.253-0.974,3.271-1.504c-14.472,4.293-31.148-6.354-40.429-13.374c-5.952-4.501-9.215-9.122-12.485-14.107
		c6.311,1.828,12.814,4.018,19.547,6.642c0.108,0.043,0.216,0.08,0.325,0.123c4.47,4.167,9.57,7.606,15.16,9.991
		c14.068,5.999,27.894,4.281,41.59,2.261c6.246,0.312,12.645,0.338,19.286,0.085C296.36,237.881,296.339,239.15,295.64,239.373z
		 M363.861,228.556c-0.063-0.037-0.124-0.077-0.185-0.113c0.072,0.043,0.154,0.081,0.23,0.122
		C363.89,228.561,363.875,228.559,363.861,228.556z M315.446,319.457c3.184-1.296,6.96-0.76,10.66,0.604
		c7.124,7.352,13.766,15.246,20.15,22.761c0.45,0.502-0.18,1.624-0.676,1.307c-8.061-5.062-16.27-9.866-24.66-14.264
		c0.215-1.875-0.507-3.842-2.62-5.471c0.268,1.256,0.166,2.777-0.309,3.952c-2.085-1.063-4.183-2.096-6.291-3.103
		C311.78,322.856,313.237,320.357,315.446,319.457z M386.863,412.768c-39.792,19.16-111.122-15.507-148.482-45.946
		c-0.543-0.426,0.043-1.655,0.676-1.306c35.974,21.084,76.243,7.923,115.645,3.372c4.35-0.488,8.299-0.551,11.862-0.284
		c3.514,8.603,8.574,16.293,17.552,21.632c0.934,0.556,1.934,1.087,2.978,1.593c-6.61,7.315-24.34,11.121-54.033,0.917
		c-0.656-0.256-1.083,0.914-0.609,1.324c11.316,9.217,28.342,16.78,54.388,17.32C387.424,411.336,387.494,412.53,386.863,412.768z
		 M394.086,245.308c-2.095-1.512-3.272-2.389-3.272-2.389c0.349,0.303,0.702,0.72,1.061,1.229
		c-5.782-6.823-12.302-10.752-19.41-13.243c2.787,0.449,5.579,0.845,7.737,1.582c6.31,2.156,12.366,5.023,18.173,8.283
		c10.09,5.662,19.41,12.657,28.317,20.05C411.654,254.28,399.011,247.864,394.086,245.308z"/>
</g>
</svg>
