<?xml version="1.0" encoding="utf-8"?>
<!-- Generator: Adobe Illustrator 27.5.0, SVG Export Plug-In . SVG Version: 6.00 Build 0)  -->
<svg version="1.1" id="Capa_2" xmlns="http://www.w3.org/2000/svg" xmlns:xlink="http://www.w3.org/1999/xlink" x="0px" y="0px"
	 viewBox="0 0 2372 1898" style="enable-background:new 0 0 2372 1898;" xml:space="preserve">
<g>
	<g>
		<path style="fill:#2E57A4;" d="M1147.785,1451.938c16.797,11.066,32.492,26.145,50.488,33.258
			c33.051,13.059,72.227,16.875,107.371,12.324c38.516-4.98,69.805-23.523,100.883-45.512
			c28.887-20.445,60.305-27.633,94.273-35.902c32.379-7.883,71.504-14.965,92.391-43.629c17.238-23.66,27.137-48.254,51.246-66.648
			c20.164-15.383,36.539-29.141,53.441-48.102c18.656-20.934,40.238-24.305,65.91-31.652c23.234-6.645,35.859-23.438,54.723-36.914
			c16.898-12.074,37.141-17.301,51.254-33.289c1.465-1.656,2.961-3.438,4.465-5.301h-726.445V1451.938z"/>
		<path style="fill:#2E57A4;" d="M892.918,800.555c-4.121-11.281-8.645-1.328-16.758-6.281c-5.297-3.23-3.535-13.769-3.004-20.156
			c0.863-10.336,4.387-13.449-5.391-18.188c-7.019-3.402-14.535-2.371-21.977-2.883c-20.559-1.406-24.074-16.91-38.301-28.395
			c10.086-6.57,27.238,2.426,34.063-5.898c4.094-4.996-0.402-11.461,1.672-16.684c2.063-5.199,7.984-7.219,12.082-10.684
			c5.523-4.672,7.25-6.492,7.785-13.848c0.52-7.125-3.699-9.203-4.77-14.941c-1.996-10.758,6.055-21.602-11.539-21.992
			c-4.605-18.051,26.164-10.305,15.746-29.57c-7.723-14.289-10.574-24.434-11.254-40.934c-5.164-0.52-10.863-0.527-16.008,0.039
			c-22.828,5.523-20.75-18.137-29.684-31.117c-10.918-15.867-35.957-5.566-42.984-27.379c-2.496-7.75-1.094-13.262-7.422-19.234
			c-6.426-6.066-14.961-7.004-18.938-15.98c-3.977-8.969,0.848-18.434-1.316-27.488c-2.719-11.387-13.707-16.055-23.863-19.715
			c-20.781-7.492-41.543-1.809-61.602-7.734c-19.117-5.648-35.914-19.379-55.086-4.816c-22.707,17.246,3.266,22.836,18.07,25.586
			c18.008,3.34,20.98,25.703,40.742,24.414c10.535-0.688,21.137-8.633,31.23-1.707c7.031,4.82,11.195,17.496,3.797,23.66
			c-6.336,5.277-18.898,1.223-26.238,0.945c-8.855-0.328-17.707,0.719-26.535,1.273c-0.695,12.766-1.926,14.73,9.813,17.941
			c10.23,2.797,22.707,6.602,32.477,10.902c10.484,4.621,13.461,13.461,17.492,23.894c4.91,12.707,8.523,13.023,20.512,19.117
			c14.574,7.41,15.703,30.547,25.652,43.52c8.527,11.117,22.66,31.719,24.031,45.902c-29.52,11.051-21.512-57.176-54.023-50.648
			c-0.719,6.269-1.313,14.633,6.066,16.547c1.035,9.262,1.688,19.582-6.277,25.641c-8.34-4.633-12.715-10.379-18.449-17.648
			c-5.875-7.434-12.203-10.613-19.676-16.035c-16.426-11.914-22.039-45.801-41.902-50.109c-7.465-1.621-15.215,1.043-22.922-1.551
			c-8.215-2.77-12.367-8.902-18.984-13.922c-8.602-6.519-44.867-12.281-34.578,6.789c4.289,7.957,15.902,10.156,21.789,16.602
			c6.086,6.672,6.789,14.703,5.645,23.398c-13.195-8.644-50.457-44.828-50.949-7.609c-0.152,11.137-2.703,22.039,8.902,27.488
			c10.059,4.723,17.969,5.078,22.269,17.941c-11.473,1.133-23.32-1.363-34.211-1.106c-0.91,15.395,3.477,15.238,16.707,20.184
			c13.957,5.227,12.258,9.773,18.375,21.465c3.363,6.414,7.805,8.285,14.426,10.57c3.641,1.258,15.637,1.516,17.969,4.289
			c8.824,10.508-11.254,10.32-16.254,12.871c-1.012,8.492,13.785,15.594,10.523,21.531c-2.781,5.074-21.156,3.672-25.859,3.262
			c-11.543-1.016-19.223-8.395-26.625-16.856c-6.481-7.402-9.426-19.598-16.723-25.824c-6.984-5.965-15.625-3.539-23.828-5.715
			c-8.723-2.313-18.246-8.105-24.301-14.691c-7.355-7.992-11.055-22.207-20.102-28.441c-7.48-5.16-19.703-3.184-28.332-2.652
			c-1.613,10.625,1.613,15.02,9.293,21.723c3.113,2.715,15.723,9.965,14.652,15.242c-2.371,11.699-22.754-4.422-26.262-6.211
			c-8.141-4.164-14.973-5.012-24.102-4.336c-2.746,11.09,14.742,19.793,19.199,29.516c2.992,6.531,10.379,22.309,19.453,23.117
			c-12.484,0.289-28.676,2.777-40.355-0.367c-10.211-2.754-16.605-24.082-26.367-20.895c-0.691,9.012,0.246,19.488-2.887,28.078
			c-3.867,10.617-13.629,15.328-20.453,23.578c-11.953,14.441,8.027,32.82,20.141,42.391c25.875,20.457,49.262-7.258,71.988-16.664
			c18.465-7.641,37.652,4.785,54.484,11.457c9.305,3.691,18.938,6.914,28.777,3.234c10.074-3.773,16.309-13.883,26.195-18.07
			c10.18-4.316,19.609-0.965,30.082-0.352c13.117,0.766,25.063-3.883,37.934-5.043c11.938-1.082,17.094,3.195,27.133,8.195
			c14.117,7.035,30.172,5.344,45.473,5.684c13.172,0.289,24.348,0.309,31.734,12.063c5.672,9.027,10.676,16.313,17.391,24.703
			c8.09,10.106,4.961,13.598-6.633,18.309c-11.363,4.609-20.269,7.324-29.691,15.508c-17.141,14.891-39.563,17.102-55.961,31.938
			c8.949,14.551,24.164,27.176,41.074,32.285c8.625,2.609,17.68,3.297,26.586,1.219c1.453-0.34,2.746-0.781,4.051-1.219
			c12.902-4.324,19.102-13.223,28.332-23.348c9.004-9.883,19.48-13.68,26.559,0.219c4.387,8.609,5.844,16.379,5.113,23.129h123.164
			v-70.527c-1.602,4.109-3.016,8.246-2.844,13.016C887.871,833.969,897.59,813.34,892.918,800.555z"/>
		<path style="fill:#2E57A4;" d="M736.34,1158.117c-2.586,3.277-6.148,3.633-8.34,7.68c-1.652,3.051-1.035,9.809-1.785,13.082
			c10.27,1.184,15.192-4.535,24.582-6.434c6.797-1.371,14.656,0,21.457-1.16c17.168-2.93,31.941-6.414,49.266-3.512
			c0.836,13.922-2.066,15.895-15.855,13.703c-13.129-2.078-26.832-5.559-34.883,7.703c-4.59,7.563-2.617,17.672-8.422,24.621
			c-2.211,2.652-12.07,6.027-12.855,8.82c-1.285,4.582,4.629,5.066,4.375,8.152c-0.785,9.492-12.852,5.824-16.34,14.125
			c-4.594,10.934,9.527,10.961,3.512,18.102c-2.461,2.922-7.582,2.457-10.594,5.016c-2.883,2.465-3.742,7.59-5.891,10.066
			c-3.953,4.566-0.961,4.797-8.418,5.203c-5.523,0.301-10.641-3.594-16.352-3.688c-3.105-26.262-14.77-48.742-43.012-29.688
			c-20.238,13.656-24.332,37.738-31.129,59.508c-6.113,19.574-19.711,51.734,9.574,57.609c23.656,4.75,51.164-2.555,75.039-4.191
			c25.059-1.719,49.996-2.199,75.109-1.797c27.394,0.441,54.164-3.395,81.453-4.227c11.231-0.344,22.398,0.461,33.356,2.289V1150.57
			H740.813C739.539,1153.266,738.117,1155.859,736.34,1158.117z"/>
		<path style="fill:#2E57A4;" d="M1181.5,630.375c5.371,16.586,3.242,29.996,12.824,45.496c8.555,13.836,2.176,22.223-11.008,31.32
			c-14.895,10.281-22.016,3.656-31.777-9.391c-1.348-1.801-2.59-3.617-3.754-5.449v210.625h877.332
			c-5.801-10.816-16.578-21.215-23.371-28.016c-6.902-6.91-22.777-12.785-26.637-21.867c-3.809-8.945,4.469-16.23,9.992-22.543
			c12.629-14.438,39.168-29.559,24.988-51.398c-15.055-23.199-45.582-10.277-58.758-33.891
			c-6.211-11.125-7.656-27.856-21.027-32.676c-12.375-4.465-25.672,1.77-36.375-8.519c-10.145-9.742-10.379-18.848-26.574-21.152
			c-15.141-2.152-31.484,1.148-46.363,3.926c-6.223-14.203,9.805-27.875,21.82-33.25c11.816-5.285,31.777-1.961,24.699-21.32
			c-2.824-7.719-11.594-11.266-14.512-18.18c-2.801-6.652,1.398-9.918,2.141-16.414c2.328-20.461-22.398-13.637-35.832-14.859
			c-3.254-13.344,2.07-29.789,10.441-40.473c7.695-9.824,21.32-13.668,26.184-26.094c5.066-12.945-3.367-23.871-9.793-34.484
			c-3.145-5.184-6.293-9.82-7.461-15.879c-1.152-5.949,1.18-12.68-2.863-17.879c-10.074-12.953-39.852-4.273-35.145,13.563
			c1.711,6.48,8.699,10.973,6.414,18.332c-2.27,7.301-13.809,11.207-19.574,14.988c-9.203,6.035-19.762,14.152-27.359,22.121
			c-7.523,7.887-8.906,22.055-21.895,22.156c-9.66,0.078-27.527-15.063-32.762-22.828c-7.938-11.766,6.133-27.101,7.637-40.312
			c-14.676-4.473-18.887-7.371-27.641-18.773c-3.59-4.676-7.266-6.051-8.398-11.977c-1.105-5.805,1.754-9.914,1.367-15.488
			c-12.953-5.406-24.699-7.813-34.344-17.969c-10.297-10.836-22.57-14.199-38.359-13.773c-10.859,0.289-16.734,7.324-26.988,9.438
			c-11.137,2.293-23.828,0.254-25.109,16.445c-0.996,12.602,13.133,20.078,16.531,31.445c4.063,13.586,11.727,21.008,18.016,33.441
			c5.191,10.266,6.191,23.762-0.297,33.66c-7.238,11.039-12.652,10.215-12.75,24.199c-0.18,26.5-28.844,47.992-54.68,44.434
			c-2.676-11.309-11.629-24.121-24.691-16.316c-10.773,6.445-6.477,17.863-5.371,27.805c3.121,28.207-24.348,22.672-37.301,40.769
			c-6.531,9.129-11.18,17.883-22.57,8.043c-9.445-8.152-12.117-23.211-11.426-34.953c0.996-16.898,15.578-36.98,12.984-53.281
			c-2.207-13.809-21.516-14.168-32.828-16.605c-34.902-7.539-18.828,32.441-14.148,51.023c3.297,13.102-5.195,22.781-7.828,35.27
			c-3.426,16.238,4.43,24.441,9.469,38.559c5.016,14.051-3.75,27.844-7.086,41.43c-1.93,7.855,0,29.82-8.746,33.418
			c-12.543,5.16-21.758-14.418-23.078-23.07c-2.199-14.449,3.93-32.004-4.988-44.902c-7.098-10.285-18.793-14.586-25.105-26.258
			c-7.793-14.398-11.813-30.93-18.805-45.789c-6.313-13.41-8.074-26.992-13.176-40.586c-7.203-19.184-28.23-25.953-46.445-30.809
			c-14.078-3.754-25.773-7.52-36.578,3.211c-9.492,9.438-14.035,14.164-28.242,13.832c-10.664-0.25-18.77-2.055-26.613,6.746
			l-0.121,0.164c-8.242,9.387-8.859,22.328-2.102,32.609c0.656,1,1.363,1.953,2.102,2.875
			C1158.223,607.352,1175.977,613.305,1181.5,630.375z"/>
	</g>
	<g>
		<path style="fill:#E83A4A;" d="M1925.902,964.543h-839.688V563.93c-2.477-3.258-5.852-6.105-10.5-8.367
			c-29.523-14.356-39.359,25.051-32.371,46.914c4.332,13.559,14.457,23.293,15.516,38.18c1.023,14.438-5.16,22.887-11.316,34.859
			c-7.598,14.773-0.703,27.457,5.68,41.555c7.141,15.762,8.063,25.637-1.895,40.371c-8.297,12.277-19.773,23.586-32.543,9.934
			c-11.93-12.754-9.211-29.684-16.188-44.019c-4.84-9.934-13.707-10.242-23.977-9.852l-16.863,6.855v244.184H452.789
			c-1.145,0.586-2.277,1.141-3.469,1.75c-15.621,7.98-29.836,8.164-46.672,11.059c-35.476,6.078-36.535,39.719-9.273,58.523
			c24.715,17.043,53.773-4.223,81.281,0.719c36.246,6.504,68.098-14.773,103.699-8.273c23.484,4.281,55.66-7.184,67.266,19.855
			c3.93,9.141,2.277,25.426,1.867,40.824h314.269v294.137c24.816,16.977,42.988,45.223,70.934,56.723
			c18.113,7.457,35.773,3.578,53.523,0.746V1089h811.004c-0.535-2.301-1.172-4.598-1.961-6.879
			c9.652-8.121,24.898-1.867,34.578-9.906c4.469-3.707,3.59-6.992,9.871-9.797c5.672-2.531,14.449-1.352,19.262-5.813
			c5.363-4.965,1.988-8.066,3.719-14.297c2.039-7.344,4.207-7.07,11.434-11.059c10.082-5.563,19.223-15.176,24.73-25.121
			c-22.652-1.223-48.91-3.703-67.383-18.277C1918.73,977.801,1919.027,969.445,1925.902,964.543z"/>
		<g>
			<path style="fill:#DEE2F0;" d="M907.598,790.348c-2.488,9.82-2.461,17.758-3.277,27.977c-0.418,5.195-2.387,9.644-4.133,14.125
				v70.527H777.023c-2.07,19.293-22.313,30.063-45.637,26.805c-13.277-1.855-26.852-6.313-39.055,1.652
				c-10.379,6.777-14.496,15.633-28.961,14.082c-20.313-2.18-13.582-19.664-25.879-29.672
				c-18.363-14.953-31.168,7.238-28.969,23.578c-13.629-1.875-21.582,5.574-33.992,8.496c-16.949,3.988-17.688-10.418-27.801-19.367
				c-12.18-10.793-16.512,8.348-22.141,18.09c-9.094,15.742-15.352,16.188-31.559,11.438c-15.883-4.652-26.641-0.363-40.242,6.465
				h508.969V720.359l-35.969,14.609C904.277,735.672,910.785,777.781,907.598,790.348z"/>
			<path style="fill:#DEE2F0;" d="M657.121,1124.668c7.43,4.402,14.031-4.777,20.508-1.133c8.227,4.633,6.648,19.676,14.215,27.035
				c1.25,1.223,2.727,2.25,4.566,2.965c5.879,2.281,11.004,0.598,15.332-2.965c7.035-5.785,11.953-16.559,14.5-23.543
				c4.309-11.813,4.269-19.102,17.004-23.555c7.027-2.453,14.789-3.539,22.051-5.098c0.367,4.199,6.301,6.691,5.027,9.41
				c-1.426,3.047-9.156,3.461-11.758,4.793c-10.992,5.621-10.617,11.797-12.816,22.785c-1.004,5.004-2.629,10.328-4.938,15.207
				h159.375v208.531c20.5,3.414,40.246,10.582,58.141,21.742c1.164,0.73,2.293,1.516,3.43,2.293V1089H647.488
				C647.074,1104.57,647.934,1119.227,657.121,1124.668z"/>
			<path style="fill:#DEE2F0;" d="M2025.117,902.977h-877.332V692.352c-7.813-12.258-12.043-25.117-19.063-37.832
				c-6.348-11.496-17.352-8.719-26.984-15.664c-22.008-15.871,0.352-54.055-15.523-74.926v400.613h839.688
				c4.586-3.266,12.07-5.012,20.668-4.641c4.773,0.215,9.336,2.152,13.793,4.641c12.375,6.938,23.895,18.281,36.609,9.688
				c4.086-2.77,6.105-6.082,7.391-9.688c1.68-4.715,2.051-9.969,3.781-15.32c3.324-10.27,12.195-14.281,17.973-22.801
				C2030.984,919.231,2029.41,910.988,2025.117,902.977z"/>
			<path style="fill:#DEE2F0;" d="M1086.215,1089v351.605c11.125-1.773,22.289-3.148,33.629-1.063
				c9.957,1.836,19.102,6.566,27.941,12.395V1150.57h726.445c10.84-13.426,22.031-31.652,23.98-47.902
				c0.559-4.668,0.047-9.199-0.992-13.668H1086.215z"/>
		</g>
	</g>
</g>
</svg>
