<?xml version="1.0" encoding="utf-8"?>
<!-- Generator: Adobe Illustrator 27.5.0, SVG Export Plug-In . SVG Version: 6.00 Build 0)  -->
<svg version="1.1" xmlns="http://www.w3.org/2000/svg" xmlns:xlink="http://www.w3.org/1999/xlink" x="0px" y="0px"
	 viewBox="0 0 1200 2376.001" style="enable-background:new 0 0 1200 2376.001;" xml:space="preserve">
<g id="BG">
	<rect x="19" y="21" width="376.592" height="376.592"/>
	<rect x="411.478" y="21" width="376.592" height="376.592"/>
	<rect x="804.408" y="21" width="376.592" height="376.592"/>
	<rect x="19" y="413" width="376.592" height="376.592"/>
	<rect x="411.478" y="413" width="376.592" height="376.592"/>
	<rect x="804.408" y="413" width="376.592" height="376.592"/>
	<rect x="19" y="805" width="376.592" height="376.592"/>
	<rect x="411.478" y="805" width="376.592" height="376.592"/>
	<rect x="804.408" y="805" width="376.592" height="376.592"/>
	<rect x="19" y="1197" width="376.592" height="376.592"/>
	<rect x="411.478" y="1197" width="376.592" height="376.592"/>
	<rect x="804.408" y="1197" width="376.592" height="376.592"/>
	<rect x="19" y="1589" width="376.592" height="376.592"/>
	<rect x="411.478" y="1589" width="376.592" height="376.592"/>
	<rect x="804.408" y="1589" width="376.592" height="376.592"/>
	<rect x="19" y="1981" width="376.592" height="376.592"/>
	<rect x="411.478" y="1981" width="376.592" height="376.592"/>
	<rect x="804.408" y="1981" width="376.592" height="376.592"/>
</g>
<g id="Object">
	<g>
		<g>
			<path style="fill:#FFFFFF;" d="M666.894,1859.377l3.933-0.001h0.001c1.547-0.001,3.027-0.518,4.235-1.432
				c0.482-0.365,0.925-0.786,1.305-1.273c0.998-1.279,1.514-2.851,1.488-4.442c-0.009-0.53-0.078-1.063-0.209-1.588
				c-4.551-18.212-12.833-34.956-23.982-49.387c-3.468,3.143-7.269,5.921-11.329,8.302c0.055,0.072,0.114,0.142,0.17,0.214
				c2.73,3.53,5.268,7.216,7.598,11.042c4.66,7.651,8.489,15.862,11.362,24.505h-39.978c-1.38,0-2.657,0.412-3.742,1.099
				c-1.97,1.246-3.287,3.428-3.287,5.932c0,3.883,3.147,7.03,7.029,7.03H666.894z"/>
			<path style="fill:#FFFFFF;" d="M589.023,1780.479v-10.015c2.136,0.789,4.243,1.637,6.32,2.542
				c4.959,2.161,9.738,4.652,14.319,7.433c6.119-0.316,11.747-2.51,16.329-6.009c-12.551-9.083-26.734-16.067-42.059-20.399
				c-0.001-0.001-0.003-0.001-0.005-0.001c-0.29-0.082-0.583-0.14-0.877-0.183c-0.093-0.014-0.187-0.019-0.28-0.029
				c-0.206-0.022-0.411-0.038-0.617-0.042c-0.096-0.002-0.191,0.001-0.287,0.003c-0.269,0.006-0.537,0.027-0.804,0.064
				c-0.07,0.009-0.142,0.015-0.212,0.026c-0.325,0.055-0.647,0.133-0.961,0.233c-0.069,0.022-0.136,0.051-0.204,0.075
				c-0.253,0.09-0.5,0.193-0.743,0.312c-0.083,0.04-0.166,0.08-0.247,0.124c-0.297,0.159-0.588,0.333-0.862,0.537
				c-1.749,1.297-2.8,3.333-2.841,5.512l-0.026,1.37c-0.001,0.03-0.001,0.061-0.001,0.091c0,0.014-0.001,0.029-0.001,0.044v19.657
				c2.179-0.862,4.548-1.345,7.03-1.345H589.023z"/>
			<path style="fill:#FFFFFF;" d="M634.234,1800.176c4.206-2.241,8.092-5.003,11.571-8.203c3-2.759,5.691-5.846,8.029-9.197
				c6.299-9.026,10.008-19.988,10.008-31.805c0-30.726-24.997-55.723-55.719-55.723l-63.384-0.033c-0.001,0-0.003,0-0.003,0
				c-1.864,0-3.651,0.741-4.969,2.057c-0.239,0.239-0.437,0.509-0.638,0.777c-0.628,0.839-1.081,1.792-1.286,2.817
				c-0.09,0.451-0.136,0.913-0.136,1.379l-0.001,50.035l-0.001,100.068c0,1.047,0.256,2.058,0.694,2.987
				c0.343,0.725,0.787,1.405,1.366,1.983c0.285,0.286,0.601,0.531,0.926,0.76c1.178,0.832,2.583,1.3,4.044,1.3h37.259
				c1.559,0,2.986-0.524,4.151-1.383c1.012-0.745,1.831-1.738,2.326-2.911c0.356-0.842,0.553-1.766,0.553-2.737v-30.473
				c0-1.459-0.444-2.813-1.205-3.936c-0.088-0.131-0.204-0.241-0.301-0.365c-0.397-0.508-0.853-0.964-1.372-1.346
				c-0.383-0.282-0.791-0.527-1.227-0.728c-0.065-0.03-0.122-0.074-0.188-0.102c-0.841-0.356-1.766-0.553-2.737-0.553
				c-0.971,0-1.895,0.197-2.737,0.553c-0.066,0.028-0.123,0.072-0.188,0.102c-0.762,0.35-1.461,0.818-2.046,1.404
				c-0.068,0.068-0.117,0.15-0.183,0.221c-0.239,0.258-0.474,0.521-0.671,0.814c-0.761,1.123-1.205,2.477-1.205,3.936v23.443
				h-23.199l0.001-45.345l0.001-90.693l56.354,0.03c22.973,0,41.662,18.69,41.662,41.663c0,8.032-2.291,15.537-6.245,21.906
				c-2.152,3.467-4.799,6.592-7.84,9.284c-3.697,3.272-7.975,5.896-12.661,7.7c-4.634,1.784-9.661,2.772-14.917,2.772h-1.938h-5.004
				h-12.154h-7.03c-0.971,0-1.895,0.197-2.737,0.553c-1.55,0.655-2.792,1.866-3.538,3.366c-0.468,0.942-0.756,1.988-0.756,3.11
				v0.001c0,1.345,0.398,2.589,1.052,3.658c0.291,0.473,0.616,0.922,1.007,1.313c0.055,0.055,0.124,0.096,0.182,0.15
				c0.599,0.561,1.285,1.031,2.052,1.356c0.841,0.356,1.766,0.553,2.737,0.553h17.832h8.294c4.733,0,9.329-0.597,13.72-1.714
				C626.199,1803.872,630.351,1802.245,634.234,1800.176z"/>
		</g>
		<g>
			<path style="fill:#FFFFFF;" d="M162.104,170.38c0.004,0.036,0.007,0.071,0.01,0.107c0.012,0.145,0.024,0.29,0.046,0.435
				c0.008,0.059,0.023,0.118,0.034,0.177c0.02,0.115,0.045,0.23,0.069,0.344c0.011,0.05,0.017,0.1,0.03,0.15
				c0.006,0.022,0.012,0.044,0.02,0.065c0.009,0.028,0.017,0.057,0.025,0.085c0.046,0.167,0.092,0.334,0.151,0.498
				c0.027,0.076,0.06,0.15,0.091,0.225c0.008,0.018,0.015,0.037,0.023,0.055c0.012,0.028,0.024,0.056,0.034,0.084
				c0.035,0.088,0.069,0.177,0.109,0.264c0.099,0.213,0.21,0.421,0.331,0.624c0,0.001,0.001,0.001,0.001,0.001l16.446,27.539
				l0.708,1.186c5.019-0.96,10.129-1.566,15.312-1.786l-18.241-30.543l15.021-25.136l35.415,59.265
				c6.469,1.763,12.745,4.152,18.768,7.144c0.032-0.214,0.086-0.425,0.098-0.642c0.075-1.352-0.239-2.74-0.985-3.99l-47.261-79.088
				c-0.222-0.372-0.483-0.706-0.759-1.021c-0.066-0.076-0.133-0.15-0.202-0.222c-0.284-0.298-0.584-0.577-0.91-0.816
				c-0.014-0.011-0.03-0.019-0.044-0.028c-0.316-0.228-0.652-0.419-0.997-0.591c-0.09-0.044-0.18-0.088-0.271-0.128
				c-0.362-0.161-0.733-0.3-1.116-0.398c-0.032-0.008-0.065-0.01-0.096-0.019c-0.359-0.086-0.726-0.138-1.095-0.167
				c-0.099-0.008-0.198-0.015-0.297-0.019c-0.4-0.015-0.802-0.005-1.203,0.05c-0.031,0.004-0.062,0.014-0.094,0.019
				c-0.373,0.056-0.742,0.15-1.106,0.268c-0.1,0.032-0.2,0.067-0.299,0.104c-0.392,0.146-0.779,0.316-1.151,0.539
				c-1.079,0.646-1.917,1.537-2.497,2.557c-0.004,0.007-0.009,0.013-0.013,0.019c-0.022,0.037-0.049,0.069-0.071,0.106
				l-14.972,25.055l-8.084,13.527c-0.113,0.189-0.214,0.384-0.309,0.581c-0.008,0.017-0.018,0.032-0.026,0.049
				c-0.046,0.098-0.081,0.197-0.121,0.295c-0.046,0.11-0.095,0.219-0.135,0.332c-0.019,0.054-0.033,0.109-0.05,0.164
				c-0.033,0.106-0.067,0.212-0.097,0.319c-0.015,0.055-0.034,0.109-0.048,0.165c-0.041,0.161-0.07,0.322-0.098,0.485
				c-0.003,0.014-0.005,0.028-0.008,0.041c-0.009,0.048-0.02,0.096-0.027,0.145c-0.009,0.06-0.013,0.12-0.019,0.18
				c-0.008,0.083-0.018,0.167-0.026,0.251c-0.007,0.085-0.019,0.17-0.023,0.257c-0.005,0.115-0.003,0.231-0.002,0.346
				c-0.001,0.116-0.003,0.231,0.002,0.348C162.093,170.282,162.099,170.331,162.104,170.38z"/>
			<path style="fill:#FFFFFF;" d="M228.932,283.749c0.121,0.195,0.251,0.382,0.39,0.563c0.039,0.051,0.075,0.105,0.115,0.155
				c0.076,0.094,0.163,0.177,0.243,0.267c0.098,0.108,0.191,0.221,0.295,0.323c0.034,0.034,0.07,0.065,0.105,0.096
				c0.03,0.026,0.059,0.054,0.089,0.081c0.138,0.127,0.282,0.248,0.43,0.363c0.004,0.003,0.007,0.005,0.011,0.008
				c0.073,0.056,0.146,0.112,0.222,0.165c0.175,0.125,0.356,0.241,0.543,0.35c0.022,0.012,0.044,0.026,0.066,0.04
				c0.022,0.014,0.044,0.028,0.066,0.039c0.113,0.063,0.235,0.112,0.352,0.168c0.131,0.062,0.257,0.131,0.39,0.186
				c0.048,0.019,0.096,0.034,0.145,0.053c0.208,0.079,0.421,0.149,0.639,0.209c0.041,0.011,0.081,0.021,0.122,0.032
				c0.03,0.007,0.061,0.016,0.091,0.023c0.058,0.014,0.117,0.022,0.176,0.034c0.144,0.03,0.288,0.062,0.436,0.084
				c0.061,0.009,0.12,0.019,0.18,0.027c0.014,0.002,0.028,0.005,0.042,0.007c0.033,0.004,0.068,0.003,0.101,0.007
				c0.22,0.022,0.44,0.041,0.665,0.042c0.02,0,0.038,0.004,0.058,0.004c0.005,0,0.011-0.001,0.017-0.001h29.124
				c-0.214-0.526-0.41-1.061-0.579-1.612c-1.349-4.388-3.115-8.549-5.244-12.448h-19.334h-0.001l-18.646-31.223
				c-5.786-1.823-11.896-2.874-18.201-3.053l26.821,44.911C228.883,283.683,228.91,283.714,228.932,283.749z"/>
			<path style="fill:#FFFFFF;" d="M111.857,283.439c0.82,1.751,2.33,3.168,4.328,3.765c0.672,0.201,1.35,0.297,2.017,0.297
				c0.257,0,0.509-0.031,0.761-0.062c0.051-0.006,0.105-0.006,0.156-0.013l18.017,0.085l35.781,0.169c0.007,0,0.015,0,0.022,0
				c0.003,0,0.005,0,0.008,0c0.003,0.001,0.007,0.001,0.01,0.001c0.015,0,0.03-0.001,0.046-0.003
				c0.014-0.001,0.028-0.003,0.042-0.003c0.249-0.003,0.494-0.02,0.736-0.049c0.09-0.01,0.179-0.026,0.268-0.041
				c0.202-0.032,0.4-0.071,0.595-0.12c0.007-0.002,0.015-0.004,0.021-0.005c0.073-0.018,0.146-0.035,0.218-0.056
				c0.073-0.021,0.142-0.053,0.214-0.076c0.479-0.155,0.941-0.35,1.371-0.599c0.005-0.003,0.009-0.005,0.014-0.007
				c0.024-0.013,0.05-0.023,0.074-0.037c0.036-0.022,0.069-0.046,0.103-0.069c0.011-0.007,0.021-0.015,0.032-0.022
				c0.11-0.069,0.218-0.141,0.324-0.216c0.092-0.065,0.183-0.133,0.271-0.202c0.063-0.049,0.123-0.1,0.183-0.152
				c0.022-0.018,0.044-0.036,0.066-0.054c0.098-0.084,0.194-0.17,0.286-0.258c0.067-0.064,0.13-0.13,0.194-0.197
				c0.065-0.068,0.127-0.138,0.189-0.207c0.029-0.032,0.06-0.064,0.088-0.097c0.057-0.068,0.113-0.137,0.168-0.207
				c0.084-0.105,0.166-0.212,0.243-0.322c0.034-0.048,0.065-0.098,0.098-0.148c0.022-0.033,0.044-0.065,0.065-0.098
				c0.066-0.104,0.131-0.206,0.191-0.313c0.055-0.099,0.108-0.2,0.16-0.302c0.011-0.022,0.021-0.043,0.032-0.065
				c0.037-0.074,0.074-0.147,0.107-0.222c0.053-0.115,0.099-0.234,0.145-0.353c0.024-0.062,0.047-0.125,0.07-0.188
				c0.01-0.028,0.021-0.055,0.03-0.082c0.013-0.04,0.024-0.08,0.036-0.119c0.026-0.085,0.054-0.17,0.078-0.257
				c0.014-0.05,0.026-0.101,0.039-0.152c0.012-0.044,0.024-0.088,0.035-0.133c0.011-0.049,0.02-0.1,0.03-0.15
				c0.014-0.071,0.03-0.142,0.043-0.213c0.021-0.111,0.039-0.222,0.053-0.334c0.014-0.107,0.025-0.214,0.034-0.322
				c0.011-0.133,0.018-0.265,0.022-0.398c0.001-0.049,0.008-0.097,0.008-0.146c0-0.001,0-0.003,0-0.004c0-0.003,0-0.007-0.001-0.011
				c-0.001-0.042-0.005-0.082-0.005-0.125c-0.002-0.141-0.009-0.282-0.019-0.423c-0.007-0.096-0.015-0.191-0.026-0.285
				c-0.012-0.103-0.028-0.208-0.046-0.312c-0.005-0.026-0.007-0.052-0.012-0.078c-0.018-0.104-0.036-0.208-0.059-0.311
				c-0.025-0.115-0.055-0.228-0.086-0.341c-0.032-0.116-0.064-0.231-0.102-0.344c-0.032-0.098-0.068-0.194-0.105-0.291
				c-0.048-0.125-0.097-0.249-0.151-0.371c-0.005-0.012-0.012-0.024-0.017-0.036c-0.034-0.073-0.069-0.146-0.104-0.218
				c-0.039-0.079-0.081-0.155-0.123-0.232c-0.026-0.048-0.049-0.096-0.076-0.144c-0.01-0.017-0.019-0.034-0.027-0.051
				c-0.012-0.023-0.023-0.046-0.036-0.068l-6.801-11.38l-8.365-13.997c-0.001-0.002-0.003-0.003-0.004-0.006
				c-0.221-0.368-0.479-0.699-0.752-1.012c-0.068-0.078-0.137-0.154-0.208-0.228c-0.284-0.297-0.582-0.574-0.906-0.812
				c-0.015-0.011-0.032-0.02-0.048-0.031c-0.315-0.227-0.65-0.418-0.994-0.589c-0.089-0.044-0.178-0.087-0.268-0.127
				c-0.363-0.161-0.735-0.301-1.119-0.398c-0.029-0.007-0.058-0.01-0.087-0.017c-0.363-0.087-0.733-0.139-1.106-0.168
				c-0.096-0.008-0.193-0.015-0.29-0.018c-0.401-0.014-0.805-0.005-1.207,0.05c-0.03,0.004-0.059,0.013-0.088,0.017
				c-0.373,0.056-0.743,0.15-1.109,0.268c-0.102,0.033-0.204,0.068-0.305,0.105c-0.389,0.146-0.773,0.315-1.143,0.534
				c-0.002,0.001-0.004,0.002-0.006,0.003c-3.333,1.991-4.42,6.308-2.429,9.641l4.257,7.124l4.517,7.559l-18.409-0.087
				l-13.833-0.066c9.91-22.423,30.016-38.968,53.624-44.681c4.222-1.022,8.555-1.7,12.963-1.999c1.734-0.117,3.476-0.186,5.23-0.186
				c3.914,0,7.767,0.298,11.544,0.849c5.803,0.846,11.418,2.317,16.764,4.365c7.703,2.952,14.844,7.09,21.187,12.238
				c5.906,4.793,11.112,10.465,15.435,16.864c2.57,3.805,4.836,7.861,6.737,12.154c1.267,2.861,2.379,5.821,3.318,8.875
				c0.001,0.003,0.003,0.007,0.004,0.01c0.131,0.423,0.305,0.819,0.504,1.197c0.065,0.123,0.142,0.235,0.214,0.353
				c0.151,0.251,0.311,0.492,0.491,0.718c0.094,0.121,0.194,0.236,0.296,0.349c0.187,0.207,0.386,0.4,0.594,0.582
				c0.108,0.094,0.213,0.191,0.326,0.279c0.258,0.199,0.532,0.375,0.815,0.537c0.076,0.044,0.147,0.098,0.225,0.139
				c0.366,0.191,0.748,0.348,1.143,0.472c0.103,0.032,0.212,0.049,0.316,0.077c0.298,0.079,0.599,0.143,0.907,0.183
				c0.144,0.018,0.291,0.026,0.436,0.035c0.148,0.01,0.293,0.036,0.442,0.036c0.149,0,0.299-0.024,0.448-0.034
				c0.121-0.007,0.241-0.013,0.363-0.027c0.276-0.032,0.551-0.088,0.827-0.154c0.036-0.013,0.073-0.021,0.109-0.034h0.001
				c0.108-0.028,0.215-0.032,0.323-0.065c3.618-1.113,5.665-4.879,4.709-8.505c-0.024-0.094-0.028-0.187-0.056-0.28
				c-0.453-1.473-0.957-2.927-1.485-4.375c-1.569-4.3-3.454-8.485-5.648-12.508c-6.346-11.635-15.184-21.938-25.83-29.926
				c-2.029-1.522-4.107-2.952-6.229-4.292c-4.945-3.122-10.137-5.732-15.515-7.84c-4.512-1.769-9.157-3.172-13.906-4.204
				c-0.661-0.144-1.323-0.285-1.988-0.414c-4.955-0.962-10.016-1.517-15.149-1.662c-0.89-0.025-1.778-0.053-2.672-0.053
				c-4.45,0-8.846,0.328-13.175,0.942c-4.263,0.603-8.46,1.485-12.563,2.669c-9.558,2.757-18.627,7.067-26.941,12.846
				c-1.034,0.718-2.056,1.46-3.066,2.224c-1.871,1.415-3.682,2.905-5.436,4.458c-0.992,0.879-1.97,1.775-2.924,2.694
				c-0.003,0.003-0.006,0.007-0.009,0.009c-9.516,9.184-17.033,20.383-21.903,32.631c-0.979,2.461-1.86,4.961-2.619,7.5
				c-0.353,1.184-0.349,2.38-0.101,3.508C111.474,282.475,111.637,282.969,111.857,283.439z"/>
		</g>
		<g>
			<path style="fill:#FFFFFF;" d="M201.877,650.189c15.794,0,28.222-5.638,36.074-15.677c1.308-1.673,2.49-3.469,3.539-5.38
				c3.845-7.01,5.906-15.587,5.906-25.447V590.86c-3.617-4.173-8.34-7.23-14.06-9.085v21.91c0,6.087-0.974,11.352-2.814,15.795
				c-0.137,0.33-0.25,0.681-0.396,1.001c-1.209,2.644-2.766,4.952-4.63,6.945c-0.098,0.105-0.182,0.224-0.282,0.327
				c-5.329,5.496-13.194,8.377-23.337,8.377h-25.134c-2.454,0-4.608,1.26-5.865,3.165c-0.733,1.11-1.165,2.435-1.165,3.864
				c0,1.942,0.787,3.699,2.059,4.971c1.272,1.272,3.029,2.059,4.971,2.059H201.877z"/>
			<path style="fill:#FFFFFF;" d="M183.773,541.308v-8.43h12.197c9.31,0,17.719,3.16,24.194,8.456
				c7.203,0.091,14.065,0.99,20.517,2.665c-1.433-2.476-3.061-4.822-4.888-7.002c-1.56-1.862-3.255-3.607-5.073-5.224
				c-1.818-1.617-3.758-3.106-5.806-4.452c-8.195-5.386-18.131-8.502-28.944-8.502h-19.227c-0.431,0-0.849,0.053-1.258,0.127
				c-0.513,0.093-1.01,0.228-1.478,0.426c-0.494,0.209-0.948,0.487-1.376,0.798c-1.761,1.278-2.917,3.337-2.917,5.68v16.805
				c2.179-0.862,4.548-1.345,7.03-1.345H183.773z"/>
			<path style="fill:#FFFFFF;" d="M134.214,681.351c0.104,0.119,0.189,0.253,0.3,0.364c1.272,1.272,3.03,2.059,4.971,2.059h68.314
				c18.082,0,36.419-6.43,50.311-17.642c15.494-12.505,24.027-29.728,24.027-48.498c0-8.396-1.215-16.189-3.509-23.242
				c-0.788-2.423-1.719-4.748-2.756-6.99c-0.431-0.932-0.883-1.847-1.355-2.746c-0.661-1.255-1.356-2.483-2.095-3.674
				c-0.106-0.171-0.204-0.349-0.312-0.519c-3.426-5.389-7.677-10.07-12.626-13.966c-3.952-3.112-8.358-5.711-13.165-7.751
				c-4.987-2.116-10.402-3.629-16.193-4.475c-3.589-0.524-7.312-0.808-11.174-0.808h-3.742h-19.282h-12.154h-7.03
				c-0.539,0-1.059,0.073-1.563,0.188c-2.989,0.681-5.229,3.263-5.424,6.409c-0.008,0.146-0.044,0.284-0.044,0.431v0.001
				c0,3.883,3.147,7.03,7.03,7.03h17.832h24.377c0.723,0,1.434,0.021,2.144,0.043c3.008,0.092,5.904,0.369,8.666,0.843
				c1.219,0.209,2.404,0.467,3.572,0.748c2.106,0.506,4.139,1.116,6.077,1.85c1.108,0.42,2.177,0.888,3.228,1.38
				c0.709,0.332,1.406,0.681,2.089,1.046c0.787,0.421,1.557,0.862,2.309,1.325c0.119,0.074,0.242,0.144,0.361,0.22
				c1.543,0.972,3.01,2.033,4.394,3.182c1.055,0.875,2.067,1.796,3.026,2.771c0.02,0.02,0.041,0.038,0.06,0.058
				c1.718,1.753,3.273,3.672,4.674,5.733c0.193,0.284,0.38,0.571,0.567,0.86c0.204,0.316,0.408,0.632,0.604,0.955
				c4.775,7.848,7.354,17.67,7.354,29.097c0,11.73-4.407,22.734-12.561,31.695c-1.881,2.068-3.962,4.027-6.235,5.862
				c-11.437,9.23-26.556,14.524-41.482,14.524h-61.284v-0.001V526.687c0-0.971-0.197-1.895-0.553-2.737
				c-1.067-2.523-3.565-4.293-6.477-4.293c-1.941,0-3.699,0.787-4.971,2.059c-1.272,1.272-2.059,3.029-2.059,4.971v150.057
				c0,1.429,0.432,2.754,1.165,3.864C133.795,680.874,134.005,681.112,134.214,681.351z"/>
		</g>
		<g>
			<path style="fill:#FFFFFF;" d="M569.452,676.744c0,3.883,3.147,7.03,7.029,7.03h58.804c3.883,0,7.03-3.147,7.03-7.03
				c0-1.941-0.787-3.699-2.059-4.971c-0.067-0.068-0.15-0.117-0.22-0.183c-1.253-1.155-2.912-1.877-4.75-1.877h-51.774v-37.093
				c0-2.649,0.259-5.237,0.733-7.75c-4.257-3.231-8.126-6.947-11.517-11.072c-2.116,5.883-3.276,12.219-3.276,18.822V676.744z"/>
			<path style="fill:#FFFFFF;" d="M625.223,576.85c-9.627,0-18.691,2.453-26.603,6.764c2.144,4.414,5.359,8.212,9.3,11.069
				c5.275-2.416,11.132-3.773,17.303-3.773h8.104v9.389h7.029c2.483,0,4.85,0.489,7.03,1.352V583.88c0-3.883-3.147-7.03-7.03-7.03
				H625.223z"/>
			<path style="fill:#FFFFFF;" d="M583.476,545.872h-13.988c-0.007,0.119-0.036,0.232-0.036,0.353v24.517
				c0,6.603,1.16,12.939,3.276,18.822c1.55,4.308,3.613,8.372,6.119,12.117c2.744,4.099,6.021,7.807,9.724,11.043
				c0.926,0.81,1.875,1.592,2.854,2.34c0.357,0.273,0.717,0.539,1.081,0.803c1.239,0.901,2.508,1.762,3.82,2.56
				c0.754,0.459,1.521,0.9,2.299,1.323c0.802,0.437,1.615,0.856,2.441,1.254c2.437,1.176,4.973,2.181,7.591,2.996
				c4.406,1.374,9.047,2.211,13.843,2.442c0.903,0.044,1.811,0.069,2.724,0.069h15.132h0.001c3.883,0,7.03-3.147,7.03-7.03
				c0-2.468-1.277-4.63-3.201-5.885c-1.103-0.719-2.413-1.145-3.828-1.145h-7.029h-8.104c-1.367,0-2.717-0.071-4.051-0.2
				c-4.679-0.453-9.13-1.689-13.23-3.564c-3.335-1.525-6.44-3.465-9.236-5.773c-0.485-0.401-0.959-0.814-1.426-1.235
				c-0.029-0.026-0.06-0.051-0.088-0.077c-0.989-0.898-1.933-1.843-2.831-2.831c-2.238-2.462-4.186-5.192-5.79-8.135
				c-2.039-3.74-3.511-7.828-4.326-12.146c-0.474-2.513-0.733-5.101-0.733-7.75v-24.517
				C583.511,546.104,583.482,545.991,583.476,545.872z"/>
			<path style="fill:#FFFFFF;" d="M541.125,683.747c0.088,0.003,0.171,0.026,0.26,0.026c3.883,0,7.03-3.147,7.03-7.03V533.718
				h13.552h29.03h46.257c3.883,0,7.03-3.147,7.03-7.03c0-1.941-0.787-3.699-2.059-4.971c-0.417-0.417-0.903-0.759-1.415-1.062
				c-1.047-0.619-2.253-0.997-3.556-0.997h-95.869c-1.213,0-2.338,0.336-3.334,0.876c-2.191,1.19-3.696,3.484-3.696,6.154v150.056
				c0,0.441,0.052,0.869,0.13,1.287C535.075,681.213,537.802,683.624,541.125,683.747z"/>
		</g>
		<g>
			<path style="fill:#FFFFFF;" d="M1019.149,609.979c-0.666-0.171-1.325-0.359-1.978-0.563c-1.305-0.407-2.583-0.876-3.831-1.405
				c-0.148-0.063-0.29-0.134-0.437-0.198c-4.055,2.778-7.378,6.538-9.638,10.936c7.009,3.764,14.908,6.075,23.296,6.522
				c-0.67-1.951-1.051-4.034-1.051-6.208v-7.968C1023.338,610.885,1021.212,610.511,1019.149,609.979z"/>
			<path style="fill:#FFFFFF;" d="M973.789,545.452v24.132c0,6.798,1.227,13.314,3.464,19.344c3.378-4.075,7.219-7.75,11.446-10.944
				c-0.557-2.714-0.85-5.524-0.85-8.4v-24.132H973.789z"/>
			<path style="fill:#FFFFFF;" d="M1037.664,599.141v12.154v7.769c0,2.124,0.941,4.027,2.429,5.316
				c0.212,0.184,0.437,0.356,0.67,0.514c0.266,0.179,0.561,0.319,0.851,0.462h0.001c0.934,0.458,1.97,0.739,3.079,0.739
				c0.044,0,0.086-0.013,0.13-0.013c3.777-0.07,6.817-3.11,6.887-6.887c0-0.044,0.013-0.086,0.013-0.13v-0.738v-17.832V583.46
				c0-0.178-0.04-0.345-0.052-0.519c-0.058-0.778-0.21-1.531-0.5-2.218c-1.067-2.523-3.565-4.293-6.478-4.293h-15.133
				c-9.507,0-18.463,2.396-26.304,6.609c-3.614,1.941-6.982,4.275-10.065,6.934h-0.001c-3.706,3.197-6.997,6.863-9.759,10.92
				c-0.906,1.331-1.749,2.708-2.54,4.117c-0.26,0.464-0.512,0.932-0.759,1.403c-1.089,2.079-2.059,4.229-2.883,6.451
				c-2.236,6.027-3.461,12.541-3.461,19.337v37.093h-21.038V533.298h12.951h30.234h45.655c1.213,0,2.338-0.336,3.334-0.876
				c2.191-1.19,3.696-3.484,3.696-6.154c0-0.971-0.196-1.896-0.552-2.737c-0.318-0.752-0.779-1.422-1.324-2.014
				c-0.065-0.07-0.115-0.153-0.182-0.221c-1.214-1.214-2.876-1.964-4.712-2.032c-0.088-0.003-0.171-0.026-0.26-0.026h-95.87
				c-0.133,0-0.258,0.032-0.389,0.04c-1.784,0.099-3.397,0.835-4.582,2.019c-0.609,0.609-1.097,1.335-1.451,2.133
				c-0.016,0.036-0.04,0.066-0.055,0.102c-0.356,0.841-0.553,1.766-0.553,2.737v150.056c0,2.801,1.65,5.199,4.021,6.329
				c0.915,0.436,1.927,0.701,3.01,0.701h35.098c0.971,0,1.896-0.197,2.737-0.552c1.682-0.712,3.029-2.059,3.741-3.741
				c0.356-0.841,0.553-1.766,0.553-2.737v-44.123c0-2.876,0.293-5.684,0.849-8.398c0.417-2.034,0.983-4.014,1.685-5.929
				c0.773-2.107,1.72-4.129,2.808-6.062c0.001,0,0.001-0.001,0.001-0.001c0.231-0.41,0.46-0.822,0.704-1.223
				c0.552-0.908,1.148-1.787,1.766-2.648c1.856-2.586,3.997-4.95,6.382-7.048c3.217-2.831,6.871-5.176,10.847-6.917
				c5.109-2.237,10.745-3.486,16.669-3.486h8.103v0.001V599.141z"/>
		</g>
		<g>
			<path style="fill:#FFFFFF;" d="M637.524,926.036h25.229v68.962c3.298,3.285,6.328,6.833,9.081,10.598
				c0.431-0.133,0.84-0.301,1.231-0.509c2.22-1.182,3.747-3.491,3.747-6.181v-79.9c0-1.941-0.787-3.699-2.059-4.971
				c-0.055-0.055-0.125-0.096-0.182-0.15c-0.45-0.42-0.959-0.768-1.507-1.06c-0.874-0.466-1.848-0.751-2.893-0.81
				c-0.131-0.007-0.256-0.039-0.389-0.039h-39.289c-1.456,0-2.808,0.443-3.931,1.201c-1.869,1.263-3.099,3.403-3.099,5.829v53.189
				c4.865,1.332,9.564,3.064,14.06,5.165V926.036z"/>
			<path style="fill:#FFFFFF;" d="M623.464,1013.191v55.872c0,3.883,3.147,7.03,7.03,7.03h21.456
				c-0.863-2.18-1.352-4.547-1.352-7.03v-7.03h-13.074v-37.94C633.533,1019.682,628.773,1015.982,623.464,1013.191z"/>
			<path style="fill:#FFFFFF;" d="M576.307,972.26v-53.254c0-0.485-0.049-0.96-0.142-1.417c-0.145-0.706-0.423-1.356-0.762-1.968
				c-0.139-0.251-0.279-0.497-0.446-0.728c-0.483-0.666-1.066-1.255-1.749-1.716c-1.053-0.712-2.316-1.124-3.671-1.174
				c-0.088-0.003-0.171-0.026-0.26-0.026h-39.059c-1.456,0-2.808,0.443-3.931,1.201c-1.869,1.263-3.099,3.403-3.099,5.829v78.524
				c0,3.471,2.521,6.337,5.829,6.909c2.524-3.337,5.272-6.493,8.231-9.441v-68.962h24.999v51.428
				C566.741,975.349,571.442,973.607,576.307,972.26z"/>
			<path style="fill:#FFFFFF;" d="M576.196,1070.163c0.057-0.361,0.111-0.723,0.111-1.099v-55.754
				c-5.321,2.833-10.079,6.586-14.06,11.05v37.674h-12.845v7.03c0,2.483-0.489,4.85-1.352,7.03h21.227
				C572.784,1076.094,575.665,1073.52,576.196,1070.163z"/>
			<path style="fill:#FFFFFF;" d="M576.307,984.942L576.307,984.942c-4.923,1.601-9.626,3.688-14.06,6.202
				c-3.57,2.024-6.962,4.323-10.148,6.872c-0.679,0.543-1.347,1.099-2.007,1.664c-0.317,0.271-0.632,0.542-0.944,0.818
				c-5.092,4.508-9.581,9.678-13.334,15.378c-6.78,10.296-11.147,22.307-12.302,35.235c-0.202,2.27-0.324,4.564-0.324,6.886v11.063
				v0.002c0,3.883,3.147,7.03,7.03,7.03h0.003c0.257,0,0.501-0.049,0.751-0.076c0.221-0.024,0.45-0.024,0.664-0.067
				c0.199-0.041,0.382-0.121,0.575-0.179c0.25-0.074,0.507-0.131,0.745-0.232c0.145-0.061,0.272-0.153,0.412-0.224
				c0.265-0.134,0.537-0.259,0.781-0.424c0.158-0.106,0.29-0.243,0.438-0.361c0.204-0.163,0.419-0.313,0.603-0.497
				c0.124-0.124,0.22-0.272,0.334-0.405c0.179-0.208,0.369-0.407,0.524-0.635c0.125-0.186,0.214-0.395,0.321-0.592
				c0.109-0.201,0.237-0.39,0.327-0.602c0.09-0.214,0.139-0.448,0.208-0.673c0.067-0.216,0.155-0.423,0.201-0.647
				c0.094-0.458,0.143-0.931,0.143-1.417v-7.03v-4.035c0-2.753,0.197-5.459,0.543-8.119c0.74-5.699,2.229-11.167,4.396-16.283
				c0.398-0.938,0.817-1.865,1.259-2.779c1.04-2.156,2.214-4.234,3.486-6.245c0.729-1.154,1.494-2.283,2.295-3.385
				c0.285-0.393,0.572-0.784,0.866-1.17c1.132-1.484,2.321-2.92,3.578-4.295c2.611-2.859,5.483-5.473,8.576-7.81
				c4.292-3.243,9.013-5.94,14.06-8.006c3.874-1.586,7.941-2.791,12.154-3.577c3.743-0.699,7.596-1.081,11.539-1.081
				c3.862,0,7.638,0.369,11.309,1.041c4.212,0.77,8.278,1.958,12.154,3.527v0.001c5.041,2.04,9.766,4.702,14.06,7.916
				c4.578,3.426,8.661,7.47,12.154,11.993c6.622,8.575,11.07,18.9,12.531,30.155c0.346,2.66,0.543,5.366,0.543,8.119v4.035v7.03
				c0,0.485,0.049,0.959,0.143,1.417c0.046,0.224,0.134,0.431,0.201,0.647c0.069,0.225,0.118,0.458,0.209,0.673
				c0.09,0.212,0.217,0.401,0.326,0.602c0.107,0.198,0.196,0.407,0.321,0.592c0.154,0.228,0.345,0.427,0.524,0.635
				c0.114,0.133,0.21,0.281,0.334,0.405c0.185,0.185,0.399,0.334,0.603,0.497c0.148,0.119,0.28,0.255,0.438,0.361
				c0.245,0.166,0.516,0.29,0.781,0.425c0.14,0.071,0.266,0.162,0.412,0.224c0.247,0.104,0.514,0.164,0.774,0.241
				c0.183,0.053,0.357,0.131,0.545,0.17c0.218,0.044,0.45,0.044,0.674,0.068c0.247,0.026,0.487,0.075,0.741,0.075h0.003
				c2.257,0,4.243-1.083,5.529-2.735c0.927-1.191,1.501-2.669,1.501-4.295v-0.002v-11.063c0-2.322-0.121-4.616-0.324-6.886
				c-1.093-12.243-5.066-23.665-11.244-33.587c-3.998-6.422-8.919-12.208-14.574-17.184c-0.328-0.289-0.659-0.576-0.992-0.86
				c-3.759-3.196-7.827-6.036-12.154-8.47c-4.435-2.495-9.138-4.565-14.06-6.148c-3.925-1.262-7.984-2.221-12.154-2.84
				c-3.692-0.547-7.467-0.839-11.309-0.839c-3.922,0-7.774,0.299-11.539,0.868C584.289,982.686,580.232,983.666,576.307,984.942z"/>
		</g>
		<g>
			<path style="fill:#FFFFFF;" d="M259.084,1359.392c-0.055,0.353-0.108,0.708-0.108,1.076v48.382
				c0,16.93-5.478,28.104-13.132,34.897c-1.5,1.331-3.081,2.493-4.721,3.498c-4.503,7.484-10.329,13.995-17.184,19.2
				c6.837-0.202,13.186-1.645,18.888-4.193c1.117-0.499,2.2-1.054,3.267-1.636c16.573-9.038,26.942-27.854,26.942-51.766v-48.382
				c0-2.171-1.004-4.088-2.551-5.377C266.797,1356.775,262.992,1358.215,259.084,1359.392z"/>
			<path style="fill:#FFFFFF;" d="M187.812,1432.52c-0.249-0.429-0.491-0.862-0.727-1.302c-0.81-1.513-1.539-3.088-2.177-4.722
				c-0.154-0.393-0.298-0.792-0.441-1.192c-2.766,1.658-5.978,2.654-9.426,2.725l-4.514,0.094c1.461,4.63,3.441,8.963,5.883,12.926
				c2.118,0.45,4.299,0.7,6.525,0.7c3.636,0,7.101-0.658,10.301-1.867c-0.884-0.953-1.726-1.95-2.522-2.993
				c-0.549-0.719-1.066-1.466-1.571-2.225C188.68,1433.967,188.237,1433.252,187.812,1432.52z"/>
			<path style="fill:#FFFFFF;" d="M231.099,1302.857c-3.122,0.704-5.465,3.476-5.48,6.811l-0.072,14.743
				c2.337,0.314,4.712,0.483,7.119,0.483c2.346,0,4.662-0.156,6.941-0.454l0.038-7.707h21.169
				c5.68-3.622,10.678-8.359,14.684-14.059h-22.458l-20.391-0.001C232.115,1302.673,231.6,1302.744,231.099,1302.857z"/>
			<path style="fill:#FFFFFF;" d="M185.855,1467.89c6.653-0.336,12.964-1.825,18.766-4.267c0.983-0.414,1.956-0.847,2.908-1.316
				c2.983-1.466,5.804-3.207,8.454-5.17c1.962-1.453,3.825-3.031,5.579-4.731c0,0,0,0,0.001,0c0.446-0.431,0.894-0.86,1.325-1.306
				c1.898-1.963,3.656-4.07,5.262-6.304c0.864-1.203,1.67-2.451,2.443-3.725c0.533-0.879,1.045-1.772,1.533-2.682
				c4.502-8.406,7.059-18.142,7.059-28.612l0.23-46.768c-2.234,0.162-4.484,0.254-6.751,0.254c-2.456,0-4.892-0.108-7.309-0.298
				l-0.23,46.778c0,11.438-3.96,21.726-10.547,29.492c-2.991,3.527-6.527,6.528-10.481,8.883
				c-5.052,3.008-10.784,4.961-16.948,5.575c0.001,0,0.001,0,0.001,0c-1.385,0.138-2.791,0.212-4.217,0.212
				c-4.918,0-9.649-0.814-14.071-2.304c-6.71-2.262-12.707-6.091-17.545-11.056c-6.243-6.407-10.561-14.698-12.01-23.928
				l16.504-0.344l6.677-0.138l5.521-0.115l6.779-0.141c0.288-0.006,0.57-0.03,0.847-0.069c1.939-0.278,3.604-1.356,4.696-2.871
				c0.845-1.174,1.35-2.605,1.334-4.16c0-0.026,0.007-0.049,0.006-0.074c-0.005-0.233-0.055-0.452-0.082-0.678
				c0-0.001-0.001-0.002-0.001-0.003c-0.026-0.217-0.033-0.44-0.079-0.65v-0.001c-0.052-0.243-0.142-0.471-0.218-0.705
				c-0.001-0.001-0.001-0.001-0.001-0.002c-0.024-0.076-0.047-0.151-0.074-0.226c-0.046-0.123-0.072-0.254-0.123-0.373
				c-0.098-0.227-0.229-0.431-0.35-0.645c-0.001-0.001-0.001-0.002-0.002-0.003c-0.001-0.001-0.001-0.002-0.001-0.003
				c-0.03-0.054-0.063-0.107-0.091-0.162c-0.066-0.125-0.128-0.253-0.208-0.369c0,0,0,0,0-0.001
				c-0.125-0.181-0.277-0.338-0.417-0.507c-0.015-0.018-0.031-0.036-0.046-0.055c-0.003-0.003-0.005-0.005-0.007-0.007
				c-0.13-0.153-0.246-0.318-0.388-0.46c-0.096-0.094-0.204-0.173-0.31-0.255c-0.084-0.067-0.164-0.138-0.248-0.205
				c-0.004-0.003-0.008-0.007-0.013-0.01c-0.156-0.125-0.3-0.266-0.467-0.378c-0.001,0-0.001,0-0.001-0.001
				c-0.145-0.097-0.305-0.171-0.462-0.25c-0.075-0.038-0.146-0.08-0.22-0.119c-0.169-0.089-0.328-0.195-0.505-0.27
				c-0.282-0.117-0.582-0.192-0.88-0.273c-0.145-0.04-0.281-0.101-0.429-0.131c-0.454-0.092-0.923-0.142-1.404-0.142
				c-0.001,0-0.001,0-0.001,0c-0.001,0-0.001,0-0.002,0c-0.001,0-0.001,0-0.002,0c-0.018,0-0.036,0-0.054,0
				c-0.03,0-0.06,0-0.09,0.001l-17.822,0.371l-3.922,0.082l-21.153,0.441c-3.825,0.08-6.884,3.203-6.884,7.029
				c0,32.103,26.117,58.221,58.221,58.221C183.915,1467.964,184.888,1467.939,185.855,1467.89z"/>
			<path style="fill:#FFFFFF;" d="M299.819,1313.362c0.079-0.13,0.123-0.27,0.193-0.404c0.001-0.001,0.001-0.002,0.002-0.003
				c0-0.001,0-0.001,0.001-0.001c0.122-0.233,0.245-0.466,0.338-0.706c0-0.001,0.001-0.001,0.001-0.002
				c0.082-0.21,0.141-0.431,0.202-0.65c0.001-0.001,0.001-0.003,0.001-0.005c0.061-0.218,0.125-0.435,0.165-0.655
				c0.011-0.065,0.012-0.133,0.02-0.198c0.024-0.194,0.046-0.389,0.059-0.587c0-0.002,0-0.004,0-0.006
				c0-0.001,0.001-0.001,0.001-0.002c0.012-0.196,0.034-0.392,0.029-0.588c0-0.001,0-0.001,0-0.001c0-0.001,0.001-0.001,0.001-0.003
				c-0.006-0.266-0.045-0.524-0.079-0.782c-0.001-0.003-0.001-0.005-0.001-0.007c0-0.001,0-0.002,0-0.003
				c-0.022-0.16-0.042-0.318-0.069-0.476c-0.007-0.04-0.009-0.081-0.017-0.12c0-0.001,0-0.001,0-0.002
				c-0.051-0.226-0.132-0.439-0.204-0.656c-0.001-0.003-0.002-0.005-0.003-0.008c0-0.002-0.001-0.003-0.001-0.005
				c-0.069-0.21-0.127-0.422-0.216-0.625c0-0.001,0-0.001-0.001-0.001c0,0,0-0.001-0.001-0.001c-0.09-0.205-0.21-0.394-0.319-0.588
				c-0.002-0.003-0.003-0.005-0.005-0.008c-0.001-0.001-0.002-0.003-0.003-0.005c-0.086-0.154-0.173-0.307-0.265-0.456
				c-0.024-0.038-0.042-0.078-0.067-0.115c-0.029-0.042-0.065-0.077-0.096-0.116c-0.107-0.136-0.218-0.268-0.33-0.401
				c-0.001-0.001-0.003-0.003-0.005-0.005c-0.001-0.001-0.003-0.003-0.004-0.005c-0.026-0.031-0.055-0.061-0.082-0.092
				c-0.119-0.143-0.234-0.288-0.369-0.419c-0.001,0-0.001-0.001-0.001-0.001c-0.145-0.14-0.31-0.258-0.467-0.385
				c-0.001-0.001-0.002-0.001-0.003-0.003c-0.204-0.165-0.405-0.333-0.631-0.477c-0.001,0-0.001-0.001-0.001-0.001
				c-0.042-0.027-0.075-0.063-0.118-0.09c-0.127-0.078-0.265-0.121-0.395-0.189c-0.002-0.001-0.004-0.002-0.006-0.003
				c-0.167-0.088-0.322-0.194-0.496-0.269c-0.044-0.019-0.09-0.03-0.134-0.047c-0.028-0.011-0.058-0.016-0.086-0.027
				c-0.01-0.004-0.019-0.01-0.028-0.014c-0.103-0.039-0.206-0.074-0.31-0.109c-0.1-0.033-0.202-0.048-0.303-0.077h-0.001
				c-0.111-0.031-0.215-0.076-0.327-0.101c-0.103-0.024-0.206-0.045-0.31-0.063c-0.011-0.002-0.022-0.002-0.032-0.003
				c-0.001,0-0.001,0-0.001,0c-0.023-0.005-0.046-0.015-0.07-0.019c-0.054-0.008-0.107-0.025-0.16-0.032
				c-0.179-0.026-0.358-0.015-0.537-0.027c-0.001,0-0.001,0-0.002,0c-0.154-0.011-0.301-0.046-0.458-0.046h-0.003
				c-0.069,0-0.136,0.011-0.204,0.013c-0.093,0.003-0.185,0.011-0.278,0.017c-0.358,0.025-0.713,0.074-1.062,0.152
				c-0.048,0.011-0.096,0.016-0.144,0.028c-0.383,0.095-0.755,0.229-1.118,0.388c-0.088,0.038-0.173,0.08-0.259,0.122
				c-0.338,0.164-0.666,0.349-0.977,0.566c-0.024,0.018-0.052,0.031-0.076,0.049c-0.326,0.235-0.627,0.51-0.913,0.804
				c-0.069,0.072-0.137,0.146-0.203,0.221c-0.278,0.311-0.54,0.642-0.765,1.01c0,0.001-0.001,0.001-0.001,0.002
				c-0.711,1.167-1.457,2.301-2.23,3.411c-0.031,0.044-0.058,0.092-0.089,0.136c-1.337,1.908-2.783,3.708-4.293,5.44
				c-0.501,0.575-1.005,1.146-1.524,1.701c-0.001,0-0.001,0-0.001,0.001c-0.746,0.797-1.496,1.59-2.278,2.345
				c-0.097,0.094-0.202,0.179-0.3,0.272c-3.907,3.726-8.236,6.927-12.897,9.536c-3.945,2.207-8.133,3.968-12.488,5.301
				c-3.929,1.202-7.997,2.032-12.166,2.47c-2.27,0.238-4.561,0.39-6.882,0.39c-2.421,0-4.813-0.16-7.178-0.418
				c-4.162-0.456-8.222-1.304-12.143-2.522c-9.536-2.964-18.236-8.085-25.443-15.057c-2.964-2.867-5.677-6.043-8.095-9.501
				c-0.807-1.153-1.579-2.338-2.318-3.553c-0.001-0.001-0.001-0.001-0.001-0.003c-0.225-0.369-0.487-0.7-0.764-1.012
				c-0.067-0.074-0.133-0.148-0.202-0.219c-0.286-0.295-0.587-0.571-0.915-0.808c-0.021-0.015-0.045-0.027-0.066-0.042
				c-0.313-0.221-0.645-0.408-0.986-0.574c-0.084-0.042-0.169-0.083-0.256-0.121c-0.364-0.159-0.737-0.294-1.122-0.39
				c-0.044-0.011-0.09-0.016-0.134-0.026c-0.352-0.08-0.71-0.129-1.07-0.154c-0.093-0.007-0.185-0.015-0.279-0.018
				c-0.4-0.013-0.803,0.002-1.204,0.059c-0.052,0.007-0.103,0.023-0.155,0.032c-0.353,0.058-0.702,0.148-1.048,0.262
				c-0.104,0.034-0.208,0.07-0.312,0.11c-0.39,0.149-0.775,0.322-1.144,0.547c0,0,0,0.001-0.001,0.001
				c-0.179,0.109-0.324,0.248-0.489,0.369c-2.907,2.134-3.774,6.15-1.865,9.289c3.149,5.178,6.811,9.9,10.901,14.118
				c4.09,4.218,8.607,7.93,13.467,11.091c4.859,3.161,10.061,5.768,15.519,7.774c2.582,0.949,5.223,1.755,7.91,2.431
				c3.953,0.994,8.011,1.688,12.145,2.061c2.393,0.216,4.81,0.332,7.249,0.332c1.598,0,3.186-0.052,4.764-0.146
				c0.334-0.02,0.667-0.044,1-0.067c0.35-0.025,0.699-0.054,1.047-0.084c3.335-0.284,6.62-0.774,9.842-1.461
				c0.431-0.092,0.864-0.182,1.293-0.281c0.344-0.08,0.686-0.167,1.029-0.252c6.456-1.585,12.635-3.972,18.416-7.094
				c6.346-3.427,12.21-7.733,17.426-12.834C292.151,1324.323,296.306,1319.128,299.819,1313.362z"/>
		</g>
		<g>
			<path style="fill:#FFFFFF;" d="M1003.916,1038.565v29.782c0,0.934,0.186,1.849,0.537,2.696c0.351,0.846,0.867,1.623,1.529,2.282
				c1.318,1.315,3.103,2.052,4.964,2.052c0.007,0,0.014,0,0.021,0l24.909-0.076c-0.442-1.081-0.795-2.21-1.035-3.386
				c-0.77-3.764-2.021-7.335-3.676-10.659l-13.188,0.04v-15.762C1013.777,1042.416,1009.02,1040.041,1003.916,1038.565z"/>
			<path style="fill:#FFFFFF;" d="M1003.916,971.285v28.106c4.821,0.723,9.521,1.87,14.06,3.405v-31.512
				c0-1.089-0.269-2.108-0.711-3.028c-4.334,1.254-8.784,2.191-13.326,2.792C1003.937,971.129,1003.916,971.204,1003.916,971.285z"
				/>
			<path style="fill:#FFFFFF;" d="M1044.436,939.529c0.619-0.56,1.229-1.13,1.829-1.711c0.117-0.112,0.229-0.23,0.344-0.343
				l-23.282-0.001c-0.367,0.206-0.749,0.386-1.121,0.584c-8.311,4.436-17.609,7.031-27.364,7.48v14.093
				c0.312-0.012,0.622-0.029,0.933-0.045c8.49-0.419,16.696-2.172,24.379-5.125C1029.083,951.03,1037.308,945.987,1044.436,939.529z
				"/>
			<path style="fill:#FFFFFF;" d="M940.99,941.147c2.537,2.158,5.203,4.145,7.98,5.95c2.418,1.573,4.926,3,7.503,4.293v-16.209
				c-0.443-0.289-0.867-0.607-1.302-0.907c-7.353-5.08-13.705-11.711-18.557-19.69c-0.225-0.371-0.489-0.702-0.767-1.015
				c-0.065-0.074-0.132-0.146-0.2-0.217c-0.287-0.296-0.589-0.572-0.917-0.81c-0.019-0.014-0.041-0.024-0.061-0.038
				c-0.315-0.224-0.649-0.411-0.994-0.578c-0.083-0.04-0.165-0.081-0.25-0.118c-0.365-0.16-0.74-0.295-1.126-0.391
				c-0.042-0.011-0.084-0.015-0.127-0.024c-0.355-0.081-0.715-0.131-1.079-0.156c-0.091-0.007-0.181-0.014-0.272-0.017
				c-0.402-0.013-0.806,0.003-1.209,0.059c-0.05,0.007-0.099,0.022-0.149,0.03c-0.355,0.059-0.707,0.15-1.054,0.264
				c-0.103,0.034-0.206,0.069-0.309,0.109c-0.39,0.15-0.777,0.323-1.146,0.548c-3.318,2.017-4.372,6.342-2.354,9.659
				C929.1,929.286,934.646,935.752,940.99,941.147z"/>
			<path style="fill:#FFFFFF;" d="M975.657,1075.365c0.93,0,1.842-0.185,2.686-0.533c0.844-0.349,1.62-0.863,2.279-1.52
				c0.661-0.659,1.177-1.436,1.528-2.282c0.351-0.846,0.537-1.761,0.537-2.694v-30.538c-5.032,1.07-9.781,3.004-14.059,5.661v17.829
				l-16.236-0.042c-1.659,3.328-2.912,6.906-3.683,10.677c-0.239,1.17-0.59,2.295-1.029,3.371l27.961,0.072
				C975.645,1075.365,975.652,1075.365,975.657,1075.365z"/>
			<path style="fill:#FFFFFF;" d="M971.372,912.757c-0.233,0.18-0.473,0.35-0.685,0.561c-0.388,0.388-0.709,0.827-0.994,1.287
				c-0.68,1.102-1.066,2.37-1.066,3.685v9.835v13.241c-0.001,0-0.001,0-0.001,0v14.889c0,0.001,0,0.001,0.001,0.001v12.643v32.932
				c4.551-1.344,9.251-2.3,14.059-2.837v-27.591V959.17v-0.001v-14.183v-12.309v-7.358l37.252,0.001l18.864,0.001h14.14
				c0.5,0,0.98-0.068,1.449-0.169c0.164-0.036,0.333-0.06,0.493-0.107c0.246-0.072,0.482-0.166,0.716-0.264
				c0.059-0.024,0.121-0.039,0.179-0.066c0.19-0.085,0.367-0.191,0.548-0.292c0.094-0.053,0.194-0.096,0.285-0.152
				c0.099-0.061,0.187-0.137,0.282-0.203c0.161-0.113,0.327-0.22,0.479-0.346c0.032-0.026,0.059-0.058,0.09-0.085
				c0.206-0.177,0.406-0.359,0.59-0.558c0.022-0.024,0.04-0.052,0.062-0.077c0.397-0.44,0.744-0.926,1.023-1.455
				c0-0.001,0.001-0.001,0.001-0.002c0.001-0.001,0.002-0.003,0.003-0.004c0.122-0.234,0.245-0.467,0.339-0.707
				c0-0.001,0-0.001,0-0.002c0.001,0,0.001,0,0.001-0.001c0.074-0.19,0.127-0.39,0.183-0.589c0.006-0.02,0.013-0.039,0.019-0.059
				c0-0.001,0.001-0.003,0.001-0.003c0.061-0.219,0.126-0.437,0.165-0.659c0,0,0-0.001,0-0.001c0.045-0.254,0.061-0.516,0.078-0.777
				c0-0.001,0-0.001,0-0.001c0-0.002,0-0.005,0-0.007c0.011-0.15,0.046-0.292,0.046-0.444c0-0.051-0.014-0.099-0.015-0.15
				c0-0.001,0-0.001,0-0.001c0,0,0,0,0-0.001c-0.001-0.066-0.015-0.129-0.02-0.194c-0.015-0.196-0.033-0.39-0.059-0.584
				c-0.028-0.204-0.043-0.411-0.088-0.611c0-0.001,0-0.001,0-0.001c-0.051-0.224-0.131-0.436-0.203-0.652
				c0-0.001-0.001-0.001-0.001-0.002c0-0.001-0.001-0.002-0.001-0.003c-0.038-0.113-0.08-0.224-0.117-0.336
				c-0.034-0.102-0.061-0.204-0.105-0.303c-0.091-0.205-0.21-0.393-0.318-0.587c-0.001-0.002-0.002-0.003-0.003-0.005
				c-0.094-0.166-0.166-0.345-0.273-0.502c-0.019-0.028-0.046-0.051-0.065-0.079c-0.001,0-0.001,0-0.001,0
				c-0.128-0.183-0.281-0.346-0.425-0.516c-0.15-0.177-0.292-0.359-0.46-0.522c-0.145-0.14-0.31-0.257-0.466-0.384
				c-0.001-0.001-0.001-0.001-0.002-0.002c-0.161-0.131-0.307-0.279-0.479-0.396c-0.048-0.033-0.104-0.052-0.154-0.083
				c-0.001-0.001-0.001-0.001-0.001-0.001c-0.165-0.105-0.343-0.189-0.517-0.28c-0.167-0.088-0.322-0.195-0.496-0.27
				c-0.047-0.02-0.096-0.031-0.143-0.05c-0.026-0.011-0.054-0.015-0.08-0.025c-0.207-0.08-0.424-0.138-0.639-0.198
				c-0.001,0-0.001,0-0.001,0c-0.111-0.032-0.215-0.076-0.328-0.102c-0.104-0.024-0.208-0.046-0.312-0.064
				c-0.011-0.002-0.021-0.001-0.032-0.003c-0.084-0.015-0.171-0.016-0.257-0.026c-0.17-0.02-0.34-0.041-0.512-0.052
				c-0.001,0-0.001,0-0.001,0c-0.154-0.01-0.301-0.046-0.457-0.046h-0.006h-18.313l-58.967-0.001
				C974.092,911.26,972.597,911.808,971.372,912.757z"/>
			<path style="fill:#FFFFFF;" d="M1053.154,1046.783c-5.581-10.02-13.54-18.462-23.023-24.671
				c-3.823-2.503-7.889-4.646-12.154-6.374c-4.493-1.82-9.2-3.192-14.06-4.051c-2.973-0.526-6.002-0.862-9.074-0.997
				c-1.018-0.045-2.04-0.068-3.066-0.068c-0.005,0-0.01,0.001-0.014,0.001c-3.066,0-6.095,0.204-9.074,0.596
				c-4.842,0.636-9.546,1.781-14.059,3.369c-0.001,0-0.001,0-0.001,0c-3.9,1.372-7.656,3.075-11.225,5.089
				c-0.313,0.176-0.619,0.362-0.929,0.543c-11.581,6.769-21.144,16.77-27.308,28.892c-2.775,5.46-4.868,11.345-6.139,17.559
				c-0.097,0.476-0.144,0.95-0.144,1.417c0,1.182,0.328,2.304,0.869,3.307c0.314,0.582,0.68,1.134,1.144,1.608
				c0.948,0.967,2.184,1.672,3.61,1.963c0.122,0.025,0.243,0.037,0.365,0.056c0.026,0.004,0.053,0.009,0.079,0.012h0.001v0
				c0.326,0.045,0.65,0.076,0.971,0.076c1.532,0,2.977-0.518,4.164-1.396c1.346-0.996,2.354-2.458,2.716-4.228
				c0.195-0.953,0.421-1.894,0.663-2.828c0.483-1.858,1.062-3.674,1.723-5.447c1.618-4.337,3.75-8.406,6.323-12.138
				c3.078-4.465,6.776-8.452,10.963-11.841c3.705-2.999,7.789-5.529,12.154-7.517c0,0,0,0,0.001,0
				c4.43-2.017,9.151-3.468,14.059-4.278c2.965-0.489,5.995-0.754,9.074-0.755c0.005,0,0.01,0,0.014,0
				c1.028,0,2.049,0.038,3.066,0.094c3.087,0.17,6.121,0.584,9.074,1.242c4.944,1.103,9.664,2.874,14.06,5.205
				c4.423,2.346,8.51,5.268,12.154,8.677c2.95,2.759,5.609,5.834,7.916,9.181c0.553,0.802,1.093,1.615,1.605,2.448
				c1.664,2.708,3.107,5.573,4.299,8.572c0.146,0.367,0.277,0.743,0.415,1.115c0.992,2.66,1.801,5.415,2.383,8.263
				c0.092,0.448,0.231,0.875,0.4,1.283c0.054,0.132,0.127,0.252,0.189,0.378c0.13,0.267,0.265,0.53,0.425,0.774
				c0.09,0.137,0.193,0.264,0.292,0.394c0.161,0.213,0.33,0.419,0.513,0.611c0.117,0.122,0.24,0.237,0.365,0.349
				c0.194,0.175,0.394,0.338,0.606,0.489c0.136,0.098,0.272,0.194,0.415,0.282c0.227,0.14,0.462,0.26,0.704,0.373
				c0.144,0.069,0.286,0.141,0.436,0.2c0.273,0.106,0.556,0.184,0.842,0.256c0.13,0.033,0.257,0.078,0.389,0.104
				c0.423,0.08,0.856,0.129,1.297,0.129c0.001,0,0.003-0.001,0.004-0.001c0.371,0,0.749-0.054,1.126-0.115
				c0.099-0.016,0.195-0.01,0.294-0.03c0.452-0.092,0.882-0.232,1.292-0.403c0.021-0.009,0.046-0.012,0.067-0.021
				c0.777-0.332,1.46-0.81,2.053-1.374c0.063-0.059,0.137-0.104,0.197-0.166c0.061-0.062,0.105-0.138,0.164-0.202
				c1.458-1.604,2.172-3.844,1.705-6.13c-1.271-6.212-3.363-12.094-6.139-17.552
				C1053.987,1048.325,1053.58,1047.548,1053.154,1046.783z"/>
		</g>
		<g>
			<path style="fill:#FFFFFF;" d="M588.239,1438.733c1.128-8.5,2.969-16.843,5.508-24.936c-2.191-6.555-4.875-12.935-8.032-19.092
				c-6.077,14.384-10.054,29.497-11.798,45c1.889-0.623,3.903-0.971,5.997-0.971H588.239z"/>
			<path style="fill:#FFFFFF;" d="M654.322,1349.381c-0.636-0.636-1.393-1.151-2.234-1.506c-0.468-0.198-0.965-0.333-1.478-0.426
				c-0.409-0.074-0.827-0.127-1.258-0.127c-0.728,0-1.417,0.142-2.077,0.348c-0.66,0.205-1.292,0.474-1.854,0.853
				c-0.748,0.506-1.393,1.151-1.898,1.899c-0.379,0.561-0.648,1.194-0.853,1.854c-0.205,0.661-0.348,1.349-0.348,2.077v103.603
				c0,3.883,3.147,7.03,7.03,7.03h37.26c3.883,0,7.03-3.147,7.03-7.03V1309.4c0-1.786-0.688-3.48-1.879-4.768
				c-0.312-0.338-0.651-0.654-1.031-0.929c-0.004-0.003-0.008-0.005-0.012-0.007c-0.27-0.194-0.554-0.361-0.844-0.514
				c-0.09-0.047-0.181-0.088-0.272-0.131c-0.22-0.103-0.443-0.195-0.671-0.275c-0.094-0.033-0.187-0.067-0.282-0.096
				c-0.302-0.092-0.608-0.168-0.918-0.218c-0.013-0.003-0.026-0.007-0.038-0.009c-0.324-0.05-0.651-0.071-0.979-0.076
				c-0.096-0.001-0.192,0.004-0.288,0.007c-0.247,0.006-0.495,0.026-0.741,0.059c-0.098,0.013-0.197,0.024-0.295,0.042
				c-0.326,0.057-0.65,0.131-0.969,0.236c-0.004,0.001-0.009,0.001-0.013,0.003l-0.659,0.22l-0.264,0.088
				c-21.933,7.362-41.756,19.32-58.538,35.148c-0.164,0.154-0.333,0.302-0.496,0.457c-2.307,2.194-4.536,4.485-6.724,6.824
				c-3.467,3.708-6.795,7.58-9.948,11.641c2.874,4.133,5.571,8.389,8.083,12.763c16.06-22.13,37.994-39.905,63.717-50.393v131.455
				h-23.2v-96.573C656.381,1352.411,655.595,1350.653,654.322,1349.381z"/>
			<path style="fill:#FFFFFF;" d="M621.344,1464.821c0.512-0.093,1.011-0.228,1.478-0.426c2.523-1.067,4.293-3.566,4.293-6.478
				c0-22.177-4.388-43.519-12.46-63.051c-1.905-4.611-4.04-9.107-6.346-13.503c0-0.001,0-0.001,0-0.001
				c-2.474-4.715-5.157-9.308-8.071-13.744c-2.37-3.609-4.876-7.124-7.523-10.531c-19.299-24.835-45.799-44.06-77.13-54.366
				c-0.001,0-0.001-0.001-0.002-0.001c-0.323-0.106-0.65-0.179-0.979-0.237c-0.099-0.017-0.198-0.028-0.297-0.042
				c-0.245-0.032-0.49-0.052-0.735-0.058c-0.098-0.003-0.196-0.007-0.294-0.006c-0.327,0.005-0.654,0.026-0.977,0.076
				c-0.013,0.003-0.026,0.007-0.039,0.009c-0.311,0.051-0.617,0.127-0.919,0.219c-0.094,0.029-0.187,0.063-0.28,0.096
				c-0.229,0.081-0.455,0.173-0.676,0.278c-0.088,0.042-0.177,0.082-0.264,0.127c-0.295,0.155-0.584,0.325-0.857,0.524
				c-0.228,0.165-0.445,0.343-0.65,0.531c-1.431,1.321-2.259,3.19-2.259,5.163v148.555c0,1.435,0.434,2.767,1.173,3.88
				c1.259,1.896,3.41,3.15,5.857,3.15h37.258c3.883,0,7.03-3.147,7.03-7.03v-103.817c0-2.913-1.77-5.411-4.293-6.477
				c-0.687-0.291-1.44-0.443-2.218-0.5c-0.174-0.012-0.341-0.052-0.519-0.052c-1.941,0-3.699,0.787-4.971,2.059
				c-1.272,1.272-2.059,3.03-2.059,4.971v96.788h-23.198v-131.472c26.21,10.586,48.218,28.225,64.207,50.313
				c2.678,3.7,5.19,7.522,7.522,11.46c0,0,0,0,0,0.001c0.746,1.261,1.474,2.534,2.183,3.817c2.127,3.852,4.086,7.804,5.873,11.846
				v-0.001c0,0,0,0.001,0.001,0.001c2.425,5.484,4.547,11.124,6.309,16.912c2.437,7.999,4.204,16.27,5.289,24.729
				c0.108,0.848,0.214,1.697,0.308,2.549c0.334,3.014,0.584,6.049,0.739,9.107c0.012,0.233,0.034,0.464,0.045,0.698h-13.591h-12.17
				h-7.221c-0.971,0-1.895,0.197-2.736,0.553c-0.127,0.053-0.237,0.134-0.359,0.194c-0.285,0.141-0.574,0.277-0.835,0.454
				c-0.104,0.069-0.188,0.161-0.287,0.236c-0.26,0.197-0.523,0.392-0.754,0.622c-0.152,0.152-0.272,0.331-0.409,0.496
				c-0.151,0.181-0.317,0.349-0.45,0.544c-0.154,0.229-0.27,0.484-0.397,0.731c-0.08,0.156-0.182,0.3-0.251,0.463
				c-0.123,0.291-0.2,0.604-0.284,0.913c-0.037,0.138-0.097,0.265-0.126,0.406c-0.051,0.253-0.055,0.52-0.079,0.781
				c-0.019,0.212-0.064,0.417-0.064,0.634c0,0.001,0,0.001,0,0.002c0,2.912,1.771,5.411,4.294,6.478
				c0.468,0.198,0.965,0.333,1.478,0.426c0.409,0.074,0.827,0.127,1.258,0.127h0.001h17.831h22.34
				C620.516,1464.947,620.935,1464.894,621.344,1464.821z"/>
		</g>
		<g>
			<path style="fill:#FFFFFF;" d="M1010.719,1308.624v29.133c4.868,4.259,9.557,8.733,14.059,13.407v-35.51v-0.001h26.506v68.737
				c2.644,4.033,5.159,8.147,7.542,12.337c0.89-0.066,1.73-0.284,2.496-0.649c2.371-1.13,4.021-3.529,4.021-6.33v-81.125
				c0-3.883-3.147-7.03-7.03-7.03h-40.565C1013.866,1301.594,1010.719,1304.741,1010.719,1308.624z"/>
			<path style="fill:#FFFFFF;" d="M1010.719,1393.482v65.214c0,2.801,1.65,5.199,4.02,6.329c0.915,0.437,1.927,0.701,3.01,0.701
				h27.706c-0.303-0.768-0.574-1.554-0.779-2.373c-0.99-3.934-2.109-7.832-3.349-11.688h-16.548v-37.22
				C1020.562,1407.163,1015.868,1400.155,1010.719,1393.482z"/>
			<path style="fill:#FFFFFF;" d="M922.29,1464.413c0.429,0.31,0.882,0.589,1.376,0.798c0.468,0.198,0.965,0.333,1.479,0.426
				c0.409,0.074,0.827,0.127,1.258,0.127h37.259c0.485,0,0.96-0.049,1.417-0.143c0.706-0.144,1.356-0.422,1.968-0.761
				c0.251-0.139,0.497-0.279,0.728-0.446c0.666-0.483,1.255-1.066,1.717-1.749c0.712-1.053,1.124-2.317,1.174-3.671
				c0.003-0.088,0.026-0.171,0.026-0.26v-103.817c0-0.089-0.023-0.172-0.026-0.26c-0.05-1.355-0.462-2.618-1.174-3.671
				c-0.462-0.682-1.051-1.265-1.717-1.749c-0.231-0.168-0.477-0.308-0.728-0.446c-0.612-0.339-1.262-0.617-1.968-0.761
				c-0.458-0.094-0.932-0.143-1.417-0.143s-0.959,0.05-1.417,0.143c-1.373,0.281-2.599,0.961-3.554,1.916
				c-0.318,0.318-0.605,0.667-0.858,1.041c-0.758,1.122-1.201,2.475-1.201,3.931v96.787h-23.199v-130.506
				c8.843,3.405,17.436,7.442,25.707,12.067c14.216,7.948,27.469,17.647,39.425,28.844c3.348,3.135,6.606,6.375,9.741,9.743
				c0.819,0.88,1.611,1.783,2.414,2.677v0.001c0.619,0.688,1.251,1.366,1.859,2.062c4.322,4.95,8.388,10.109,12.201,15.444v0.001
				c4.413,6.175,8.463,12.599,12.154,19.222c1.374,2.466,2.716,4.948,3.986,7.468c1.38,2.738,2.676,5.517,3.931,8.315
				c0.992,2.212,1.945,4.441,2.859,6.688c0.778,1.916,1.526,3.844,2.246,5.783c0.697,1.879,1.366,3.767,2.007,5.666
				c0.726,2.15,1.416,4.313,2.069,6.488c0.868,2.889,1.694,5.792,2.431,8.721c0.009,0.038,0.028,0.071,0.038,0.109
				c0.096,0.358,0.21,0.706,0.356,1.035c1.114,2.51,3.6,4.12,6.309,4.163c0.001,0,0.001,0,0.001,0
				c0.036,0.001,0.072,0.009,0.108,0.009c0.137,0,0.276-0.017,0.413-0.026c0.434-0.026,0.871-0.08,1.308-0.19
				c0.471-0.118,0.918-0.282,1.339-0.484c1.684-0.81,2.942-2.247,3.557-3.944c0.461-1.273,0.56-2.693,0.204-4.104
				c-1.473-5.854-3.215-11.629-5.171-17.325c-3.81-11.1-8.51-21.874-14.054-32.199c-3.573-6.657-7.492-13.126-11.741-19.38
				c-0.156-0.229-0.318-0.454-0.474-0.682c-0.568-0.829-1.143-1.655-1.722-2.477c-1.669-2.365-3.368-4.709-5.132-7.006
				c-1.634-2.129-3.321-4.22-5.036-6.288c-0.654-0.789-1.321-1.569-1.987-2.35c-2.015-2.363-4.063-4.699-6.181-6.975
				c-2.553-2.744-5.192-5.399-7.879-8c-3.922-3.795-7.968-7.448-12.154-10.927c-11.217-9.322-23.353-17.463-36.167-24.315
				c-10.824-5.789-22.127-10.669-33.798-14.508c-0.005-0.001-0.01-0.003-0.015-0.004c-0.007-0.002-0.014-0.004-0.022-0.007
				c-0.151-0.048-0.305-0.087-0.46-0.125c-0.04-0.01-0.081-0.02-0.121-0.031c-0.038-0.01-0.076-0.021-0.113-0.029
				c-0.1-0.022-0.203-0.036-0.305-0.051c-0.013-0.002-0.026-0.005-0.038-0.007c-0.124-0.021-0.247-0.043-0.371-0.057
				c-0.025-0.003-0.05-0.003-0.075-0.005c-0.047-0.003-0.094-0.006-0.142-0.009c-0.099-0.008-0.197-0.01-0.296-0.015
				c-0.067-0.003-0.136-0.01-0.203-0.011c-0.005,0-0.01,0-0.015-0.001c-0.007,0-0.014-0.001-0.021-0.001
				c-0.024,0-0.047,0.002-0.072,0.003c-0.032,0.002-0.065,0.004-0.098,0.005c-0.164,0.004-0.328,0.009-0.491,0.024
				c-0.036,0.003-0.07,0.009-0.106,0.014c-0.063,0.009-0.125,0.016-0.187,0.025c-0.049,0.007-0.097,0.015-0.146,0.022
				c-0.077,0.011-0.154,0.021-0.229,0.035c-0.105,0.02-0.206,0.046-0.309,0.072c-0.022,0.006-0.045,0.01-0.067,0.016
				c-0.02,0.005-0.04,0.01-0.06,0.015c-0.071,0.018-0.143,0.034-0.214,0.055c-0.102,0.03-0.202,0.067-0.301,0.102
				c-0.038,0.013-0.076,0.024-0.113,0.038c-0.074,0.026-0.148,0.051-0.22,0.08c-0.024,0.009-0.045,0.021-0.069,0.031
				c-0.114,0.048-0.227,0.098-0.339,0.152c-0.07,0.033-0.141,0.065-0.21,0.101c-0.045,0.024-0.089,0.051-0.134,0.076
				c-0.078,0.043-0.156,0.086-0.232,0.132c-0.045,0.026-0.089,0.054-0.133,0.08c-0.032,0.02-0.065,0.038-0.097,0.059
				c-0.105,0.067-0.205,0.14-0.305,0.214c-0.025,0.018-0.05,0.037-0.075,0.055c-0.061,0.045-0.123,0.089-0.181,0.136
				c-0.067,0.053-0.131,0.11-0.195,0.166c-0.016,0.014-0.033,0.028-0.049,0.042c-0.093,0.082-0.186,0.164-0.275,0.25
				c-0.015,0.014-0.028,0.029-0.042,0.044c-0.052,0.052-0.103,0.105-0.153,0.159c-0.092,0.098-0.184,0.195-0.271,0.298
				c-0.059,0.07-0.113,0.142-0.169,0.215c-0.082,0.105-0.164,0.211-0.241,0.322c-0.036,0.053-0.069,0.108-0.104,0.162
				c-0.021,0.033-0.042,0.065-0.063,0.098c-0.065,0.103-0.13,0.204-0.189,0.311c-0.042,0.075-0.079,0.154-0.117,0.231
				c-0.018,0.039-0.04,0.077-0.058,0.115c-0.042,0.087-0.087,0.172-0.126,0.261c-0.064,0.146-0.119,0.296-0.172,0.447
				c-0.02,0.057-0.046,0.111-0.066,0.17c-0.004,0.012-0.006,0.024-0.01,0.036c-0.048,0.15-0.086,0.303-0.125,0.456
				c-0.02,0.08-0.044,0.16-0.062,0.24c-0.016,0.077-0.027,0.154-0.039,0.232c-0.005,0.032-0.01,0.065-0.016,0.097
				c-0.022,0.129-0.045,0.259-0.059,0.388c-0.007,0.063-0.008,0.129-0.013,0.192c-0.014,0.176-0.026,0.352-0.026,0.527
				c0,0.003,0,0.006-0.001,0.009c-0.001,0.007-0.001,0.013-0.001,0.02v147.532C919.373,1461.076,920.53,1463.135,922.29,1464.413z"
				/>
		</g>
		<g>
			<path style="fill:#FFFFFF;" d="M184.578,1742.292c0.174-0.748,0.373-1.49,0.622-2.217c0.499-1.461,1.145-2.862,1.92-4.184
				c0.388-0.661,0.808-1.302,1.257-1.922c2.251-3.095,5.256-5.635,8.743-7.314c0.329-0.158,0.621-0.359,0.913-0.559
				c-0.948-2.992-1.154-6.108-0.614-9.128c-5.67,0.527-10.894,1.666-15.633,3.347c-4.462,4.162-7.903,9.393-9.892,15.215
				c-0.233,0.681-0.42,1.374-0.612,2.067c-0.128,0.46-0.255,0.92-0.365,1.385c-0.664,2.805-1.017,5.683-1.017,8.599v58.974
				c0,11.256,2.978,21.655,8.164,30.439c2.326,0.596,4.752,0.938,7.249,0.977c3.349-0.053,6.462-0.675,9.414-1.887
				c-6.715-7.71-10.767-18.031-10.767-29.529v-58.974C183.962,1745.784,184.177,1744.015,184.578,1742.292z"/>
			<path style="fill:#FFFFFF;" d="M282.219,1806.555v-48.977c0-12.109-2.797-23.078-8.171-32.55
				c-1.382-2.436-2.924-4.777-4.647-7.006c-0.176-0.228-0.351-0.457-0.531-0.683c-1.331-1.672-2.756-3.284-4.279-4.83
				c-0.053-0.055-0.102-0.113-0.156-0.167c-1.666-1.679-3.445-3.283-5.336-4.806c-9.583-7.72-21.822-13.007-35.504-15.497
				c0.503,1.713,0.785,3.521,0.785,5.395c0,1.79-0.247,3.525-0.708,5.17c0.325,0.135,0.646,0.278,0.962,0.431
				c3.758,1.808,7.202,4.092,10.319,6.722c5.728,2.245,10.902,5.166,15.323,8.729c11.698,9.424,17.881,22.943,17.881,39.094v48.977
				c0,8.203-2.278,15.883-6.235,22.441c-0.877,1.453-1.846,2.845-2.881,4.181c-1.088,1.405-2.251,2.75-3.499,4.011
				c-0.487,0.492-0.986,0.973-1.495,1.441c-1.02,0.938-2.085,1.827-3.19,2.665c-1.106,0.839-2.253,1.625-3.437,2.357
				c-2.369,1.464-4.887,2.707-7.527,3.701c-0.191,0.071-0.386,0.132-0.578,0.201c-1.463,2.013-3.026,3.964-4.713,5.827
				c-3.743,4.134-7.713,7.695-11.887,10.72c0.444,0.022,0.884,0.057,1.33,0.069c0.177,0.013,0.355,0.02,0.535,0.02h0.984
				c0.178,0,0.353-0.007,0.528-0.02C257.179,1863.365,282.219,1837.828,282.219,1806.555z"/>
			<path style="fill:#FFFFFF;" d="M225.595,1845.224c2.285-2.524,4.318-5.23,6.102-8.073c5.714-9.11,8.795-19.68,8.795-30.596
				v-58.974c0-10.416-4.453-20.257-11.864-27.215c-2.716-2.55-5.819-4.724-9.262-6.38c-0.002-0.001-0.004-0.001-0.005-0.002
				c-0.402-0.193-0.815-0.335-1.23-0.447c-0.055-0.014-0.109-0.033-0.163-0.046c-0.397-0.097-0.797-0.152-1.195-0.178
				c-0.072-0.005-0.144-0.009-0.215-0.012c-0.415-0.015-0.829,0.002-1.236,0.061c-0.037,0.005-0.072,0.017-0.109,0.022
				c-0.362,0.059-0.717,0.15-1.066,0.263c-0.11,0.036-0.218,0.077-0.326,0.117c-0.301,0.115-0.595,0.251-0.878,0.406
				c-0.076,0.042-0.154,0.076-0.228,0.12c-0.343,0.205-0.669,0.441-0.976,0.704c-0.072,0.063-0.137,0.133-0.208,0.199
				c-0.236,0.221-0.457,0.459-0.663,0.714c-0.073,0.091-0.147,0.181-0.216,0.276c-0.247,0.34-0.477,0.697-0.665,1.089
				c-1.526,3.17-0.443,6.896,2.372,8.824c0.292,0.201,0.585,0.401,0.915,0.559c1.999,0.961,3.821,2.196,5.429,3.646
				c4.826,4.348,7.732,10.631,7.732,17.28v58.974c0,10.83-3.999,21.212-11.262,29.234c-0.053,0.058-0.107,0.111-0.16,0.17
				c-0.77,0.843-1.551,1.639-2.339,2.406c-2.501,2.432-5.095,4.491-7.801,6.162v0.001c-1.165,0.719-2.35,1.371-3.556,1.951
				c-0.619,0.297-1.244,0.576-1.875,0.838c-3.44,1.423-7.056,2.289-10.858,2.634h-0.001c-1.075,0.098-2.16,0.166-3.266,0.178
				c-5.206-0.059-10.197-1.035-14.816-2.773c-0.111-0.042-0.218-0.09-0.328-0.133c-0.547-0.211-1.093-0.426-1.629-0.659
				c-1.288-0.558-2.545-1.177-3.766-1.852c-13.43-7.433-22.543-21.75-22.543-38.154v-48.918
				c0.243-14.134,5.109-26.079,13.664-35.044c1.833-1.922,3.835-3.706,5.998-5.346c3.984-3.021,8.523-5.538,13.537-7.53
				c8.593-3.412,18.602-5.255,29.761-5.255c0.001,0,0.002-0.001,0.003-0.001c0.001,0,0.002,0.001,0.003,0.001
				c1.919-0.001,3.654-0.775,4.923-2.022c0.015-0.014,0.032-0.024,0.046-0.038c0.25-0.25,0.464-0.532,0.674-0.817
				c0.057-0.078,0.13-0.143,0.184-0.224c0.176-0.26,0.311-0.548,0.452-0.831c0.061-0.124,0.143-0.235,0.196-0.363
				c0.122-0.289,0.199-0.599,0.282-0.905c0.038-0.141,0.099-0.27,0.128-0.414c0.094-0.458,0.143-0.931,0.143-1.416
				c0-0.133-0.032-0.258-0.039-0.389c-0.078-1.407-0.559-2.696-1.344-3.763c-1.279-1.737-3.323-2.878-5.647-2.878
				c-0.001,0-0.002,0-0.003,0c-6.439,0-12.575,0.561-18.388,1.605c-15.964,2.869-29.406,9.51-39.367,19.146
				c-5.334,5.159-9.657,11.183-12.858,17.924c-0.809,1.704-1.544,3.455-2.206,5.251c-0.843,2.287-1.561,4.647-2.156,7.075
				c-1.242,5.072-1.951,10.431-2.043,16.059c0,0.001,0,0.001,0,0.001c-0.001,0.038-0.001,0.076-0.001,0.114v48.977
				c0,31.273,25.039,56.81,56.123,57.615c0.174,0.013,0.35,0.02,0.528,0.02h0.984c0.181,0,0.361-0.007,0.537-0.02
				c0.17-0.005,0.336-0.021,0.506-0.026c6.373-0.229,12.418-1.526,18.102-3.9c0.095-0.04,0.189-0.084,0.283-0.125
				c5.599-2.379,10.847-5.8,15.721-10.245C222.542,1848.428,224.091,1846.885,225.595,1845.224z"/>
		</g>
		<g>
			<path style="fill:#FFFFFF;" d="M1043.174,1809.21c-2.505,21.686-20.969,38.58-43.316,38.58c-0.034,0-0.067,0-0.102,0.001
				c-0.008,0-0.016,0-0.024,0l-4.289,0.077l-13.356,0.241c-23.552-0.032-41.305-18.772-41.305-43.616v-7.353
				c-3.067-2.204-5.933-4.667-8.565-7.364c-3.143,0.702-5.495,3.496-5.495,6.851v7.867c0,32.341,24.346,57.675,55.426,57.675
				c0.025,0,0.05,0,0.076-0.001c0.016,0,0.034,0,0.05,0l7.007-0.126l10.64-0.192c7.55-0.009,14.758-1.49,21.371-4.147
				c0.739-0.297,1.469-0.609,2.193-0.936c0.88-0.396,1.746-0.814,2.601-1.253c17.983-9.225,30.515-27.61,31.386-48.962
				c-2.849,1.678-6.155,2.657-9.693,2.657H1043.174z"/>
			<path style="fill:#FFFFFF;" d="M999.858,1746.499h-47.49c0.321,5.266,2.211,10.102,5.221,14.06h42.269
				c5.522,0,10.802,1.042,15.668,2.922c0.981,0.378,1.946,0.788,2.891,1.234c0.11,0.052,0.224,0.098,0.334,0.151
				c1.001,0.483,1.974,1.014,2.932,1.57c0.476,0.276,0.945,0.56,1.409,0.853c1.699,1.075,3.321,2.26,4.852,3.552h18.937
				C1036.42,1756.126,1019.247,1746.499,999.858,1746.499z"/>
			<path style="fill:#FFFFFF;" d="M937.866,1777.897c3.856,4.709,8.52,8.727,13.776,11.854c7.788,4.633,16.873,7.304,26.574,7.304
				h52.281h12.386h4.896c0.431,0,0.849-0.053,1.258-0.127c0.513-0.093,1.011-0.228,1.479-0.426c2.523-1.067,4.293-3.565,4.293-6.477
				c0-3.883-3.147-7.03-7.03-7.03h-9.812h-14.866h-44.886c-6.563,0-12.743-1.668-18.138-4.603c-1.394-0.759-2.73-1.61-4.013-2.531
				c-1.347-0.967-2.63-2.019-3.839-3.149c-3.653-3.417-6.63-7.541-8.718-12.154c-1.956-4.321-3.13-9.066-3.336-14.06
				c-0.022-0.527-0.04-1.054-0.04-1.586c0-3.667,0.531-7.21,1.503-10.568c1.811-6.257,5.174-11.86,9.658-16.348
				c6.89-6.896,16.399-11.167,26.875-11.167l48.373,0.322v27.24c0,2.913,1.77,5.411,4.293,6.477
				c0.841,0.356,1.766,0.553,2.737,0.553c2.721,0,5.054-1.562,6.223-3.823c0.499-0.965,0.807-2.045,0.807-3.207v-34.224
				c0-1.188-0.323-2.291-0.843-3.273c-0.442-0.832-1.039-1.559-1.763-2.15c-0.348-0.284-0.721-0.533-1.12-0.747
				c-0.386-0.208-0.791-0.376-1.217-0.509c-0.649-0.203-1.325-0.346-2.04-0.351l-55.403-0.368c-25.976,0-47.572,19.095-51.5,43.984
				c-0.42,2.659-0.643,5.383-0.643,8.158c0,10.174,2.94,19.67,7.999,27.703C935.231,1774.455,936.494,1776.221,937.866,1777.897z"/>
		</g>
		<g>
			<path style="fill:#FFFFFF;" d="M146.342,2121.22c0.894,0.742,1.801,1.467,2.72,2.173c1.635,1.256,3.308,2.456,5.019,3.596
				c2.23,1.486,4.524,2.872,6.874,4.154c1.887,1.03,3.81,1.993,5.767,2.888c1.064,0.486,2.136,0.956,3.219,1.401v-15.465
				c-12.844-6.471-23.837-16.497-31.656-29.353c-0.225-0.371-0.487-0.702-0.766-1.014c-0.066-0.074-0.133-0.148-0.202-0.219
				c-0.286-0.295-0.586-0.57-0.912-0.806c-0.024-0.017-0.051-0.03-0.076-0.048c-0.31-0.218-0.638-0.403-0.975-0.567
				c-0.087-0.042-0.173-0.084-0.262-0.123c-0.362-0.158-0.735-0.293-1.117-0.388c-0.046-0.012-0.094-0.017-0.14-0.027
				c-0.35-0.08-0.707-0.129-1.066-0.154c-0.092-0.007-0.185-0.015-0.277-0.018c-0.402-0.013-0.805,0.002-1.207,0.059
				c-0.05,0.007-0.1,0.022-0.149,0.03c-0.355,0.059-0.708,0.15-1.056,0.264c-0.103,0.034-0.205,0.069-0.306,0.108
				c-0.391,0.15-0.778,0.323-1.149,0.549c-0.829,0.504-1.517,1.153-2.051,1.894c-1.601,2.223-1.816,5.277-0.303,7.765
				C131.75,2106.924,138.551,2114.746,146.342,2121.22z"/>
			<path style="fill:#FFFFFF;" d="M269.314,2116.636c1.066-1.031,2.103-2.098,3.123-3.184h-21.171
				c-12.336,8.971-27.173,14.194-42.957,14.791v14.074c13.795-0.442,26.985-3.887,38.833-9.896c1.024-0.519,2.039-1.054,3.042-1.611
				c0.372-0.206,0.741-0.419,1.111-0.631c1.103-0.634,2.192-1.292,3.269-1.971c5.161-3.258,10.007-7.035,14.46-11.301
				C269.12,2116.816,269.219,2116.728,269.314,2116.636z"/>
			<path style="fill:#FFFFFF;" d="M284.038,2098.198c0.497-0.735,0.855-1.571,1.045-2.469c0.005-0.028,0.012-0.057,0.018-0.085
				c0.044-0.222,0.046-0.458,0.069-0.688c0.024-0.228,0.069-0.451,0.069-0.686v-0.001c0-0.488-0.05-0.963-0.144-1.422
				c-0.084-0.407-0.213-0.795-0.364-1.172c-0.051-0.128-0.111-0.249-0.169-0.373c-0.115-0.246-0.244-0.483-0.386-0.712
				c-0.05-0.081-0.084-0.173-0.137-0.252c-0.049-0.073-0.108-0.138-0.16-0.209c-0.03-0.041-0.061-0.08-0.092-0.12
				c-0.183-0.24-0.379-0.466-0.591-0.678c-0.005-0.005-0.009-0.012-0.014-0.017c-0.003-0.002-0.006-0.005-0.009-0.007
				c-1.271-1.272-3.021-2.067-4.962-2.067h-18.278l-70.805-0.001c-0.932,0-1.845,0.185-2.69,0.535
				c-0.845,0.35-1.621,0.865-2.281,1.525c-0.659,0.659-1.174,1.436-1.524,2.28c-0.175,0.423-0.309,0.863-0.399,1.313
				c-0.09,0.45-0.136,0.911-0.136,1.378v17.72v12.864v14.611v12.506v92.344c0,3.882,3.146,7.029,7.028,7.03l38.243,0.012
				c0.001,0,0.001,0,0.002,0c1.256,0,2.465-0.361,3.532-0.984c0.516-0.301,1.009-0.644,1.439-1.074
				c0.444-0.444,0.796-0.956,1.103-1.491c0.604-1.055,0.957-2.243,0.957-3.48v-83.267c0-3.883-3.147-7.03-7.03-7.03
				c-0.376,0-0.739,0.054-1.099,0.111c-3.357,0.531-5.93,3.412-5.93,6.919v76.235l-9.671-0.003l-14.512-0.005v-83.163v-12.194
				v-14.149v-12.255v-14.226h32.821l18.106,0h17.389h13.737C280.634,2101.298,282.774,2100.068,284.038,2098.198z"/>
		</g>
		<g>
			<path style="fill:#FFFFFF;" d="M667.234,2179.077l-15.631,37.701c3.721,4.257,7.274,8.057,10.51,11.359l25.433-61.342
				l21.157-51.03h-15.22L667.234,2179.077z"/>
			<path style="fill:#FFFFFF;" d="M653.811,2237.033c-2.325-2.363-4.802-4.97-7.375-7.792h-0.001
				c-2.867-3.145-5.858-6.574-8.905-10.256c-7.219-8.722-14.749-18.897-21.71-30.321c-0.1-0.165-0.203-0.324-0.303-0.489
				c-0.84-1.387-1.672-2.792-2.494-4.215c-1.499-2.596-2.959-5.259-4.38-7.971c-0.137-0.26-0.278-0.514-0.414-0.775
				c-1.549-2.984-3.045-6.036-4.474-9.153c-1.031-2.249-2.015-4.543-2.973-6.859c-2.387-5.77-4.542-11.731-6.369-17.885
				c-3.534-11.909-5.885-24.503-6.511-37.651h13.576h12.164h7.218c0.485,0,0.959-0.05,1.417-0.143
				c1.373-0.281,2.6-0.961,3.554-1.916c0.318-0.318,0.606-0.667,0.859-1.041c0.696-1.031,1.109-2.261,1.174-3.583
				c0.006-0.116,0.026-0.228,0.026-0.346c0-0.001,0-0.001,0-0.002c0-1.941-0.787-3.699-2.059-4.971
				c-1.272-1.273-3.029-2.059-4.971-2.059h-0.001h-17.831h-22.341c-1.941,0-3.699,0.787-4.971,2.059
				c-1.272,1.272-2.059,3.029-2.059,4.971c0,23.407,5.105,45.209,12.865,64.843c1.97,4.983,4.116,9.819,6.388,14.512
				c0.001,0,0,0,0.001,0c2.483,5.13,5.12,10.081,7.865,14.841c0,0,0,0,0.001,0c2.326,4.034,4.725,7.933,7.171,11.686
				c7.744,11.882,15.916,22.31,23.532,31.059c4.155,4.774,8.14,9.052,11.794,12.785c0,0.001,0.001,0.001,0.001,0.001
				c0.169,0.173,0.346,0.358,0.514,0.529c1.375,1.4,3.193,2.1,5.011,2.1c1.035,0,2.059-0.255,3.013-0.709
				c0.647-0.308,1.26-0.704,1.807-1.221c0,0,0,0,0,0c0,0,0,0,0.001,0c0.034-0.033,0.075-0.055,0.109-0.088
				c0.054-0.053,0.09-0.117,0.142-0.171c0.001,0,0.001,0,0.001-0.001c0.19-0.198,0.357-0.41,0.519-0.625
				c0.001,0,0.001,0,0.001-0.001c0.06-0.081,0.115-0.164,0.175-0.245c0.06-0.08,0.123-0.159,0.177-0.246
				c0.03-0.047,0.049-0.098,0.078-0.146c0.156-0.269,0.303-0.545,0.425-0.839l0.131-0.315c0.266-0.723,0.419-1.477,0.439-2.239
				c0.001-0.043,0.012-0.084,0.013-0.126c0.003-0.45-0.036-0.9-0.118-1.343C655.465,2239.345,654.832,2238.071,653.811,2237.033z"/>
			<path style="fill:#FFFFFF;" d="M612.567,2115.821c-0.307,2.383-0.649,4.753-1.06,7.094c-0.897,5.094-2.032,10.086-3.372,14.968
				c-0.315,1.149-0.655,2.285-0.993,3.422c2.243,6.99,4.913,13.727,7.891,20.173c5.707-14.442,9.966-30.063,11.823-46.629
				c-1.889,0.624-3.901,0.973-5.997,0.973H612.567z"/>
			<path style="fill:#FFFFFF;" d="M583.626,2192.053c-9.345,14.77-19.534,27.344-28.513,37.191l-24.755-59.708l-27.333-65.924
				h28.339l22.806,55.007l9.073,21.883c0.139,0.335,0.301,0.654,0.483,0.955c0.186,0.307,0.392,0.596,0.617,0.865
				c0.446,0.533,0.965,0.991,1.534,1.365c1.139,0.747,2.484,1.155,3.863,1.155c0.448,0,0.9-0.043,1.351-0.132
				c0.45-0.088,0.898-0.223,1.338-0.406c2.69-1.116,4.32-3.708,4.34-6.447c0.007-0.913-0.166-1.842-0.537-2.739l-33.484-80.762
				c-0.295-0.885-0.777-1.679-1.375-2.368c-0.345-0.397-0.717-0.768-1.142-1.08c-0.581-0.426-1.23-0.765-1.927-0.997
				c-0.524-0.174-1.08-0.266-1.65-0.312c-0.19-0.016-0.376-0.046-0.57-0.046h-43.51c-0.018,0-0.036,0-0.054,0H492.5
				c-0.031,0-0.06,0.004-0.091,0.005c-0.09,0.001-0.18,0.01-0.27,0.014c-0.109,0.004-0.218,0.005-0.328,0.016
				c-0.1,0.009-0.197,0.028-0.296,0.042c-0.128,0.018-0.255,0.032-0.382,0.058c-0.163,0.032-0.323,0.075-0.483,0.119
				c-0.025,0.007-0.05,0.013-0.075,0.019c-0.036,0.009-0.073,0.017-0.108,0.028c-0.138,0.042-0.271,0.095-0.405,0.145
				c-0.081,0.03-0.164,0.054-0.242,0.086c-0.005,0.001-0.009,0.002-0.014,0.005c-0.001,0-0.001,0-0.001,0
				c-0.439,0.181-0.855,0.405-1.242,0.667c-0.081,0.055-0.156,0.115-0.233,0.174c-0.046,0.036-0.094,0.069-0.14,0.105
				c-0.055,0.043-0.113,0.082-0.167,0.126c-0.088,0.073-0.168,0.151-0.251,0.228c-0.044,0.042-0.09,0.08-0.134,0.122
				c-0.038,0.037-0.08,0.071-0.117,0.108c-0.108,0.109-0.208,0.224-0.308,0.339c-0.05,0.057-0.103,0.111-0.151,0.169
				c-0.072,0.087-0.136,0.179-0.202,0.27c-0.006,0.007-0.012,0.014-0.017,0.022c-0.064,0.087-0.131,0.172-0.191,0.261
				c-0.03,0.044-0.055,0.09-0.082,0.136c-0.017,0.028-0.034,0.056-0.051,0.084c-0.05,0.081-0.098,0.164-0.147,0.247
				c-0.024,0.042-0.051,0.082-0.074,0.126c-0.022,0.042-0.041,0.087-0.063,0.13c-0.081,0.16-0.16,0.321-0.229,0.487
				c-0.008,0.019-0.013,0.038-0.02,0.056c-0.072,0.178-0.137,0.359-0.195,0.543c-0.004,0.013-0.01,0.025-0.014,0.038
				c-0.003,0.011-0.005,0.024-0.009,0.035c-0.028,0.092-0.047,0.188-0.071,0.281c-0.03,0.112-0.063,0.223-0.086,0.338
				c-0.093,0.457-0.14,0.925-0.14,1.398c0,0.001,0,0.002,0,0.003c0,0.005,0.001,0.011,0.001,0.016c0,0.005,0.001,0.01,0.001,0.015
				c0,0.07,0.009,0.141,0.011,0.21c0.005,0.151,0.008,0.302,0.023,0.454c0.007,0.079,0.022,0.155,0.033,0.234
				c0.013,0.104,0.03,0.207,0.048,0.31c0.007,0.045,0.012,0.089,0.02,0.133c0.029,0.149,0.069,0.294,0.108,0.44
				c0.003,0.012,0.006,0.023,0.009,0.035c0.015,0.063,0.03,0.126,0.048,0.189c0.022,0.071,0.051,0.138,0.075,0.209
				c0.049,0.146,0.097,0.292,0.155,0.433c0.001,0.003,0.001,0.005,0.003,0.008c0.001,0.002,0.001,0.004,0.002,0.007l0.001,0.001
				l0.001,0.001c0.01,0.024,0.02,0.048,0.03,0.072l25.847,62.342l34.182,82.444c0.138,0.428,0.318,0.845,0.541,1.244
				c0.222,0.4,0.487,0.782,0.793,1.141c0.003,0.003,0.005,0.005,0.007,0.008c0.131,0.153,0.265,0.304,0.411,0.448
				c0.012,0.012,0.026,0.021,0.039,0.031c0.022,0.017,0.046,0.034,0.067,0.053c0.31,0.299,0.648,0.563,1.003,0.798
				c1.108,0.736,2.406,1.148,3.75,1.172c0.041,0,0.08,0.012,0.121,0.012c0.896,0,1.809-0.173,2.689-0.538
				c0.4-0.166,0.766-0.375,1.116-0.603c0.704-0.457,1.315-1.019,1.803-1.668c4.233-4.329,8.909-9.389,13.77-15.099
				c1.738-2.04,3.496-4.155,5.269-6.361c5.374-6.684,10.858-14.133,16.143-22.241c-2.713-4.442-5.347-9.064-7.871-13.846
				C585.025,2189.82,584.328,2190.943,583.626,2192.053z"/>
			<path style="fill:#FFFFFF;" d="M716.075,2096.569c-0.001-0.477-0.049-0.942-0.14-1.392c0-0.001,0-0.001,0-0.001
				c-0.028-0.134-0.076-0.262-0.119-0.39c-0.02-0.059-0.037-0.119-0.055-0.179c-0.072-0.244-0.129-0.495-0.226-0.727
				c-0.055-0.133-0.132-0.257-0.203-0.382c-0.052-0.093-0.097-0.188-0.148-0.281c-0.001-0.001-0.001-0.002-0.002-0.003
				c-0.098-0.178-0.178-0.367-0.29-0.535c-0.122-0.183-0.277-0.343-0.416-0.514c-0.001-0.001-0.001-0.001-0.001-0.001
				c-0.147-0.181-0.28-0.374-0.444-0.539c-0.09-0.091-0.196-0.165-0.295-0.245c-0.117-0.101-0.235-0.2-0.356-0.297
				c-0.135-0.106-0.253-0.229-0.395-0.326c-0.018-0.012-0.04-0.019-0.057-0.031c-0.36-0.239-0.74-0.452-1.143-0.622
				c-0.01-0.005-0.022-0.006-0.032-0.01c-0.001,0-0.001,0-0.001,0c-0.094-0.04-0.199-0.056-0.295-0.092
				c-0.018-0.007-0.038-0.011-0.057-0.017c-0.321-0.115-0.643-0.228-0.969-0.294c-0.004-0.001-0.008,0-0.012-0.001
				c-0.276-0.055-0.565-0.065-0.852-0.086c-0.055-0.004-0.107-0.013-0.162-0.016c-0.121-0.006-0.235-0.036-0.357-0.036h-0.015
				h-0.018h-0.025h-17.795H664.48c-0.394,0-0.78,0.032-1.156,0.094c-2.632,0.436-4.77,2.334-5.553,4.832l-16.241,40.354
				l-16.241,40.354c-1.053,2.616-0.405,5.48,1.4,7.414c0.059,0.063,0.103,0.137,0.164,0.198c0.648,0.644,1.432,1.172,2.332,1.534
				c0.293,0.119,0.593,0.187,0.891,0.263c0.576,0.148,1.156,0.248,1.732,0.248c2.179,0,4.255-1.031,5.589-2.788
				c0.371-0.489,0.694-1.023,0.934-1.619l30.919-76.823h16.114h13.157h0.001h10.524c0.971,0,1.896-0.197,2.737-0.553
				c1.677-0.709,3.019-2.051,3.732-3.726c0.001,0,0.001-0.001,0.001-0.001l0.012-0.031c0.001-0.001,0.001-0.001,0.001-0.002
				c0.042-0.099,0.059-0.209,0.096-0.31c0.003-0.009,0.005-0.019,0.009-0.028c0.121-0.334,0.235-0.669,0.303-1.007v0
				c0.069-0.35,0.094-0.714,0.109-1.081c0.001-0.004,0.001-0.008,0.001-0.012c0.004-0.095,0.028-0.184,0.028-0.28
				C716.076,2096.578,716.075,2096.574,716.075,2096.569z"/>
		</g>
		<g>
			<path style="fill:#FFFFFF;" d="M979.819,2135.35v-39.492c0-2.427-1.229-4.566-3.099-5.829c-1.122-0.758-2.475-1.201-3.931-1.201
				H939.89c0.464,1.17,0.83,2.394,1.061,3.673c0.652,3.612,1.662,7.081,2.967,10.387h21.841v26.222
				C970.088,2131.817,974.815,2133.929,979.819,2135.35z"/>
			<path style="fill:#FFFFFF;" d="M965.759,2238.892h-21.841c-1.306,3.306-2.316,6.775-2.968,10.388
				c-0.231,1.279-0.597,2.502-1.06,3.672h32.899c1.941,0,3.699-0.787,4.971-2.06c1.272-1.272,2.059-3.029,2.059-4.97v-39.492
				c-5.004,1.42-9.73,3.532-14.06,6.24V2238.892z"/>
			<path style="fill:#FFFFFF;" d="M1009.84,2095.858v39.497c5.004-1.419,9.73-3.53,14.06-6.236v-26.23h21.856
				c1.307-3.308,2.317-6.778,2.969-10.391c0.23-1.278,0.595-2.5,1.057-3.669h-32.911
				C1012.987,2088.828,1009.84,2091.975,1009.84,2095.858z"/>
			<path style="fill:#FFFFFF;" d="M1045.756,2238.892H1023.9v-26.23c-4.33-2.706-9.057-4.817-14.06-6.236v39.497
				c0,3.883,3.147,7.03,7.03,7.03h32.912c-0.462-1.168-0.827-2.39-1.058-3.668C1048.072,2245.67,1047.062,2242.2,1045.756,2238.892z
				"/>
			<path style="fill:#FFFFFF;" d="M1074.521,2244.628c-1.127-6.241-2.96-12.2-5.391-17.813
				c-6.855-15.825-18.54-28.856-33.076-37.442c-3.863-2.282-7.927-4.244-12.154-5.866c-4.516-1.733-9.215-3.076-14.06-3.984
				c-3.965-0.742-8.024-1.193-12.154-1.336c-0.947-0.033-1.894-0.063-2.849-0.063c-0.959,0-1.912,0.03-2.864,0.064
				c-4.13,0.144-8.189,0.595-12.154,1.339c-4.845,0.908-9.544,2.252-14.06,3.986v0.001c-4.227,1.623-8.292,3.587-12.154,5.869
				c-5.759,3.403-11.076,7.494-15.817,12.19c-7.221,7.153-13.107,15.692-17.244,25.242c-2.404,5.549-4.218,11.437-5.348,17.6
				c0,0.001,0,0.002-0.001,0.003c-0.01,0.06-0.025,0.119-0.036,0.179c0,0.001,0,0.002-0.001,0.003
				c-0.001,0.007-0.003,0.015-0.005,0.022c-0.006,0.034-0.002,0.068-0.008,0.102c-0.001,0.005,0,0.009-0.001,0.014
				c-0.001,0.003-0.001,0.007-0.001,0.01c-0.028,0.172-0.016,0.34-0.032,0.512c-0.026,0.297-0.066,0.595-0.055,0.886
				c0.007,0.184,0.052,0.359,0.073,0.54c0.032,0.272,0.048,0.549,0.111,0.812c0.044,0.183,0.123,0.352,0.18,0.53
				c0.081,0.249,0.146,0.504,0.253,0.74c0.081,0.179,0.196,0.34,0.292,0.511c0.121,0.218,0.227,0.444,0.37,0.647
				c0.119,0.169,0.27,0.314,0.404,0.472c0.153,0.181,0.291,0.375,0.463,0.541c0.17,0.164,0.369,0.295,0.556,0.442
				c0.166,0.131,0.317,0.278,0.496,0.395c0.27,0.175,0.57,0.309,0.866,0.448c0.119,0.055,0.225,0.13,0.347,0.179
				c0.429,0.171,0.882,0.302,1.355,0.387c0.366,0.066,0.729,0.092,1.089,0.099c0.057,0.001,0.115,0.016,0.173,0.016
				c0.029,0,0.056-0.007,0.085-0.008c0.144-0.001,0.282-0.027,0.425-0.037c0.296-0.022,0.591-0.049,0.878-0.108
				c0.164-0.034,0.321-0.086,0.481-0.131c0.256-0.072,0.509-0.149,0.753-0.249c0.162-0.066,0.317-0.143,0.473-0.221
				c0.228-0.113,0.45-0.235,0.665-0.373c0.149-0.096,0.294-0.196,0.436-0.302c0.202-0.152,0.394-0.317,0.579-0.49
				c0.129-0.12,0.256-0.24,0.376-0.37c0.177-0.192,0.336-0.4,0.491-0.613c0.1-0.136,0.206-0.268,0.297-0.413
				c0.152-0.244,0.278-0.506,0.402-0.771c0.063-0.135,0.138-0.261,0.192-0.401c0.158-0.405,0.283-0.828,0.365-1.27
				c0.002-0.01,0.006-0.018,0.008-0.028c0.508-2.815,1.197-5.558,2.037-8.227c1.342-4.267,3.096-8.328,5.206-12.155
				c4.385-7.951,10.318-14.863,17.372-20.372c3.757-2.934,7.83-5.47,12.154-7.553c4.447-2.143,9.155-3.81,14.06-4.933
				c3.94-0.902,8.003-1.458,12.154-1.633c0.95-0.04,1.905-0.064,2.864-0.064c0.954,0,1.903,0.024,2.849,0.063
				c4.152,0.174,8.215,0.728,12.154,1.629c4.905,1.123,9.613,2.789,14.06,4.929c4.324,2.082,8.397,4.615,12.154,7.548
				c6.756,5.274,12.487,11.833,16.814,19.361c0.195,0.339,0.384,0.681,0.573,1.024c0.626,1.134,1.231,2.282,1.792,3.457
				c0.007,0.013,0.013,0.025,0.019,0.038c1.324,2.778,2.456,5.671,3.396,8.659c0.189,0.602,0.369,1.208,0.543,1.818
				c0.323,1.14,0.628,2.29,0.892,3.457c0.222,0.978,0.423,1.964,0.603,2.959c0.439,2.434,2.091,4.328,4.214,5.219
				c0.1,0.042,0.193,0.1,0.295,0.138c0.265,0.097,0.544,0.157,0.821,0.221c0.118,0.028,0.23,0.073,0.35,0.095
				c0.402,0.071,0.813,0.109,1.23,0.109c0.414,0,0.835-0.036,1.257-0.114c1.91-0.345,3.5-1.431,4.526-2.909
				c0.382-0.551,0.656-1.17,0.869-1.811c0.16-0.483,0.268-0.981,0.32-1.498c0.019-0.198,0.058-0.391,0.06-0.594
				c0.003-0.179-0.031-0.362-0.043-0.543C1074.568,2245.17,1074.571,2244.901,1074.521,2244.628z"/>
			<path style="fill:#FFFFFF;" d="M1074.457,2094.341c-0.532-2.331-2.236-4.289-4.568-5.087c-0.334-0.114-0.679-0.204-1.037-0.269
				c-0.373-0.068-0.743-0.094-1.109-0.101c-0.055-0.001-0.111-0.015-0.165-0.015c-0.028,0-0.053,0.007-0.08,0.007
				c-0.145,0.001-0.284,0.028-0.427,0.038c-0.296,0.022-0.591,0.048-0.878,0.106c-0.166,0.034-0.326,0.087-0.488,0.133
				c-0.253,0.071-0.505,0.148-0.747,0.246c-0.163,0.067-0.32,0.146-0.478,0.224c-0.226,0.112-0.446,0.233-0.658,0.369
				c-0.15,0.096-0.297,0.198-0.439,0.306c-0.2,0.151-0.391,0.315-0.575,0.488c-0.129,0.121-0.256,0.24-0.376,0.371
				c-0.176,0.192-0.335,0.4-0.49,0.613c-0.099,0.136-0.204,0.269-0.294,0.413c-0.154,0.246-0.28,0.511-0.403,0.778
				c-0.061,0.133-0.135,0.256-0.188,0.393c-0.16,0.414-0.289,0.847-0.371,1.3c-0.508,2.818-1.198,5.563-2.038,8.234h0.001
				c-1.343,4.266-3.097,8.328-5.207,12.154c-4.381,7.943-10.307,14.849-17.35,20.355c-0.012,0.01-0.024,0.02-0.036,0.029
				c-3.757,2.933-7.83,5.467-12.154,7.549c-4.447,2.14-9.155,3.807-14.06,4.929c-3.939,0.902-8.003,1.456-12.154,1.63
				c-0.946,0.04-1.894,0.063-2.849,0.063c-0.959,0-1.914-0.024-2.864-0.064c-4.152-0.175-8.214-0.731-12.154-1.633
				c-4.905-1.123-9.613-2.791-14.06-4.933c-4.325-2.083-8.397-4.618-12.154-7.553c-7.053-5.509-12.986-12.42-17.371-20.371
				c-2.11-3.826-3.864-7.888-5.207-12.154c-0.84-2.669-1.529-5.412-2.037-8.228c-0.001-0.005-0.003-0.01-0.004-0.015
				c-0.082-0.447-0.209-0.874-0.368-1.283c-0.054-0.14-0.13-0.266-0.192-0.401c-0.123-0.265-0.248-0.526-0.401-0.77
				c-0.091-0.146-0.197-0.278-0.297-0.415c-0.155-0.211-0.313-0.418-0.489-0.61c-0.12-0.13-0.249-0.25-0.378-0.371
				c-0.185-0.172-0.375-0.336-0.576-0.488c-0.143-0.107-0.289-0.208-0.439-0.304c-0.212-0.136-0.432-0.257-0.658-0.369
				c-0.158-0.078-0.317-0.157-0.48-0.223c-0.242-0.098-0.491-0.174-0.743-0.245c-0.164-0.046-0.325-0.099-0.491-0.133
				c-0.283-0.057-0.572-0.084-0.863-0.106c-0.148-0.011-0.293-0.037-0.442-0.039c-0.03-0.001-0.058-0.008-0.088-0.008
				c-0.057,0-0.117,0.014-0.175,0.016c-0.357,0.007-0.718,0.032-1.081,0.097c-0.946,0.171-1.812,0.523-2.57,1.015
				c-0.026,0.017-0.047,0.042-0.074,0.059c-0.349,0.233-0.679,0.489-0.977,0.777c-0.1,0.097-0.176,0.214-0.27,0.316
				c-0.207,0.225-0.42,0.446-0.596,0.696c-0.152,0.216-0.266,0.456-0.393,0.687c-0.087,0.159-0.194,0.305-0.268,0.47
				c-0.139,0.309-0.235,0.638-0.33,0.966c-0.03,0.103-0.078,0.199-0.104,0.304c-0.081,0.341-0.114,0.696-0.143,1.051
				c-0.009,0.102-0.037,0.198-0.041,0.301c-0.011,0.304,0.028,0.616,0.057,0.927c0.014,0.158,0.003,0.313,0.029,0.472
				c0.001,0.003,0.001,0.007,0.001,0.01c0.001,0.005,0,0.01,0.001,0.014c0.006,0.034,0.002,0.068,0.008,0.102
				c0.001,0.008,0.003,0.015,0.005,0.022c0.001,0.001,0.001,0.002,0.001,0.003c0.011,0.06,0.026,0.119,0.036,0.179
				c0.001,0.001,0.001,0.002,0.001,0.003c1.13,6.164,2.945,12.051,5.348,17.6c5.355,12.364,13.661,23.015,23.97,31.181
				c0.847,0.672,1.709,1.326,2.584,1.963c0.744,0.543,1.496,1.073,2.258,1.591c1.387,0.941,2.802,1.843,4.249,2.697
				c3.862,2.283,7.927,4.247,12.154,5.87c4.516,1.734,9.215,3.078,14.06,3.986c3.965,0.744,8.024,1.195,12.154,1.339
				c0.952,0.034,1.905,0.064,2.864,0.064c0.954,0,1.902-0.03,2.849-0.063c4.13-0.143,8.189-0.594,12.154-1.336
				c4.845-0.907,9.544-2.251,14.06-3.984c4.227-1.622,8.292-3.585,12.154-5.866c14.536-8.586,26.221-21.616,33.076-37.442
				c2.431-5.614,4.264-11.572,5.391-17.813c0.049-0.273,0.046-0.542,0.063-0.811c0-0.001,0-0.001,0-0.001
				c0.011-0.181,0.046-0.363,0.043-0.542c-0.002-0.203-0.041-0.396-0.06-0.595
				C1074.538,2094.913,1074.521,2094.621,1074.457,2094.341z"/>
		</g>
		<g>
			<path style="fill:#FFFFFF;" d="M611.183,196.201c1.578,0,3.133,0.098,4.665,0.272c3.108-3.707,5.193-8.286,5.836-13.318
				c-3.402-0.658-6.91-1.014-10.501-1.014h-13.296c0.863,2.18,1.352,4.547,1.352,7.03v7.03H611.183z"/>
			<path style="fill:#FFFFFF;" d="M652.333,237.352c0,9.521-3.259,18.29-8.708,25.269c-7.537,9.655-19.273,15.88-32.442,15.88
				h-26.258v-34.06c0-0.1-0.026-0.193-0.03-0.292h-4.841c-3.148,0-6.113-0.776-8.736-2.125c-0.279,0.756-0.454,1.564-0.454,2.417
				v41.09c0,1.541,0.51,2.954,1.351,4.113c1.278,1.761,3.337,2.917,5.68,2.917h33.288c20.317,0,38.095-11.039,47.681-27.428
				c4.777-8.167,7.529-17.657,7.529-27.782c0-12.359-4.083-23.783-10.969-32.993c-2.047,4.947-4.688,9.587-7.844,13.825
				C650.609,223.913,652.333,230.433,652.333,237.352z"/>
			<path style="fill:#FFFFFF;" d="M540.636,292.194c3.883,0,7.03-3.147,7.03-7.03V142.092l24.082-0.16l24.244-0.161
				c7.119,0,13.784,1.968,19.49,5.382c9.483,5.674,16.304,15.351,18.111,26.682c0.313,1.962,0.48,3.97,0.48,6.018
				c0,2.386-0.231,4.717-0.652,6.982c0,0,0,0-0.001,0c-0.772,4.145-2.213,8.056-4.213,11.614c-0.286,0.508-0.583,1.009-0.891,1.503
				c0,0.001,0,0.001,0,0.001c-2.308,3.699-5.233,6.972-8.63,9.68c-5.077,4.048-11.202,6.835-17.902,7.862
				c-0.63,0.097-1.264,0.178-1.904,0.243c-1.279,0.131-2.576,0.197-3.888,0.197h-8.909v-9.579v-12.154v-7.03
				c0-2.38-1.19-4.476-2.999-5.747c-0.571-0.402-1.203-0.723-1.88-0.943c-0.574-0.187-1.184-0.283-1.812-0.313
				c-0.113-0.006-0.222-0.027-0.337-0.027h-0.001c-1.541,0-2.954,0.51-4.113,1.351c-1.761,1.277-2.917,3.337-2.917,5.679v0.003
				v17.829v17.962c0,0.315,0.053,0.615,0.092,0.919c0.317,2.4,1.824,4.408,3.928,5.411c0.915,0.436,1.928,0.701,3.01,0.701h12.411
				h3.527c7.273,0,14.2-1.501,20.495-4.203c1.231-0.528,2.434-1.11,3.615-1.728c0.557-0.291,1.106-0.594,1.651-0.905
				c3.786-2.161,7.274-4.78,10.392-7.786c2.939-2.832,5.544-6.004,7.757-9.454c2.632-4.102,4.704-8.592,6.109-13.368
				c1.265-4.299,1.987-8.826,2.093-13.504c0.009-0.398,0.03-0.793,0.03-1.194c0-15.19-6.532-28.88-16.937-38.418
				c-9.29-8.517-21.667-13.725-35.25-13.725l-44.521,0.295l-10.835,0.072c-0.309,0.002-0.604,0.056-0.903,0.096
				c-1.312,0.179-2.497,0.712-3.474,1.51c-1.579,1.29-2.607,3.228-2.607,5.424v150.057
				C533.607,289.048,536.754,292.194,540.636,292.194z"/>
		</g>
		<g>
			<path style="fill:#FFFFFF;" d="M1026.163,143.17c5.54,1.868,10.593,4.805,14.909,8.568c0.664,0.579,1.306,1.182,1.935,1.799
				c0.657,0.646,1.299,1.306,1.915,1.991c5.587,6.211,9.443,14.008,10.795,22.626l-16.503,0.343
				c0.231,2.446,0.355,4.921,0.355,7.424c0,2.344-0.443,4.58-1.216,6.658l25.074-0.522c1.128-0.024,2.174-0.337,3.11-0.83
				c2.238-1.178,3.775-3.502,3.775-6.199c0-16.052-6.53-30.607-17.072-41.149c-10.542-10.543-25.097-17.072-41.149-17.072
				c-0.98,0-1.953,0.025-2.92,0.074c4.111,2.707,7.945,5.883,11.41,9.535C1022.598,138.542,1024.45,140.806,1026.163,143.17z"/>
			<path style="fill:#FFFFFF;" d="M963.106,156.014c-4.63,8.497-7.267,18.375-7.267,29.014v73.856
				c3.712,2.652,7.874,4.521,12.146,5.815c1.178-1.257,1.914-2.936,1.914-4.795v-74.876c0-11.438,3.96-21.726,10.547-29.492
				c-2.429-0.674-5.01-1.037-7.715-1.037C969.375,154.5,966.141,155.035,963.106,156.014z"/>
			<path style="fill:#FFFFFF;" d="M987.776,293.574c17.171,0,32.172-3.705,44.737-11.031c2.255-1.315,4.422-2.76,6.519-4.308
				c0.599-0.443,1.201-0.88,1.788-1.341c0.69-0.543,1.36-1.104,2.026-1.666c1.054-0.888,2.087-1.792,3.083-2.727
				c1.203-1.129,2.35-2.303,3.467-3.5c1.108-1.186,2.188-2.395,3.211-3.647c1.379-1.688,2.682-3.436,3.907-5.242
				c1.225-1.806,2.372-3.671,3.44-5.593c3.741-6.729,6.524-14.163,8.327-22.269c0.464-2.082-0.044-4.261-1.377-5.925
				c-1.335-1.664-3.351-2.632-5.484-2.632h-42.391c-3.883,0-7.03,3.147-7.03,7.03v27.21c0,0.441,0.052,0.869,0.13,1.287
				c0.59,3.182,3.318,5.593,6.64,5.717c0.088,0.003,0.171,0.026,0.26,0.026c3.883,0,7.03-3.147,7.03-7.03v-20.181h26.075
				c0,0.001-0.001,0.001-0.001,0.001h0.001c-2.003,5.723-4.654,10.895-7.979,15.562c-2.874,4.034-6.286,7.668-10.187,10.976
				c-0.613,0.519-1.205,1.052-1.843,1.554c-11.525,9.07-26.446,13.669-44.349,13.669c-5.419,0-11.59-0.448-17.858-1.786
				c-0.934-0.199-1.871-0.426-2.807-0.667c-1.267-0.326-2.534-0.677-3.796-1.085c-1.056-0.341-2.109-0.713-3.154-1.116
				c-3.137-1.21-6.212-2.711-9.14-4.56c-0.976-0.617-1.936-1.271-2.876-1.968c-1.275-0.944-2.497-1.993-3.691-3.091
				c-1.449-1.335-2.852-2.757-4.16-4.338c-9.206-11.132-11.138-24.358-11.138-33.492v-41.489c0-9.01,2.749-17.391,7.452-24.347
				c0.075-0.109,0.156-0.214,0.231-0.324c0.537-0.779,1.103-1.538,1.689-2.28c4.278-5.418,9.81-9.796,16.158-12.697
				c5.502-2.515,11.61-3.928,18.044-3.928c0.247,0,0.489,0.014,0.735,0.018c1.586,0.028,3.144,0.143,4.671,0.342
				c4.58,0.597,8.878,1.948,12.789,3.948h0.001c2.128,1.088,4.139,2.369,6.021,3.821c1.727,1.332,3.347,2.803,4.841,4.413
				c3.79,4.084,6.778,9.022,8.77,14.578c1.804,5.033,2.795,10.569,2.795,16.455c0,0.024,0.007,0.045,0.007,0.069
				c0,0,0.001,0.001,0.001,0.001c0.002,0.243,0.045,0.474,0.071,0.71c0.001,0.009,0.002,0.018,0.003,0.027
				c0.027,0.227,0.036,0.46,0.083,0.679c0.001,0.001,0.001,0.003,0.001,0.005c0.042,0.195,0.117,0.375,0.175,0.563
				c0.001,0.003,0.002,0.006,0.003,0.009c0.078,0.253,0.145,0.512,0.25,0.751c0.001,0.003,0.003,0.005,0.005,0.007
				c0.047,0.107,0.114,0.202,0.165,0.306c0.005,0.009,0.009,0.016,0.013,0.024c0.152,0.3,0.305,0.596,0.496,0.869
				c0.002,0.003,0.004,0.005,0.006,0.007c0.001,0.001,0.001,0.002,0.002,0.003c0.003,0.005,0.008,0.009,0.012,0.014
				c0.015,0.018,0.032,0.036,0.045,0.056c0.101,0.138,0.225,0.256,0.335,0.386c0.159,0.188,0.307,0.388,0.485,0.559
				c0.007,0.007,0.016,0.011,0.023,0.018c0.969,0.931,2.198,1.588,3.577,1.84c0.013,0.003,0.028,0.001,0.042,0.004
				c0.401,0.071,0.808,0.124,1.23,0.124c0.015,0,0.03-0.005,0.045-0.005c0.009,0,0.019-0.003,0.028-0.003
				c0.35-0.004,0.689-0.05,1.025-0.104c3.357-0.531,5.931-3.412,5.931-6.919c0-2.438-0.145-4.827-0.398-7.17
				c-0.454-4.214-1.305-8.262-2.518-12.104c-1.462-4.631-3.442-8.963-5.884-12.927c-2.953-4.791-6.567-9.05-10.741-12.641
				c0-0.001,0-0.001-0.001-0.001c-0.36-0.31-0.734-0.603-1.103-0.903c-0.661-0.538-1.335-1.06-2.021-1.566
				c-0.479-0.353-0.959-0.702-1.451-1.039c-3.939-2.699-8.263-4.862-12.894-6.422c0,0,0-0.001-0.001-0.001
				c-5.501-1.854-11.43-2.863-17.673-2.863c-0.549,0-1.091,0.026-1.637,0.042c-15.24,0.428-29.022,6.783-39.098,16.859
				c-1.095,1.095-2.136,2.243-3.14,3.423c-0.407,0.477-0.805,0.962-1.197,1.453c-7.853,9.85-12.563,22.311-12.563,35.859v41.489
				c0,16.41,4.967,31.09,14.363,42.453C945.665,289.46,970.118,293.574,987.776,293.574z"/>
		</g>
		<g>
			<path style="fill:#FFFFFF;" d="M159.196,939.118c-3.298,6.052-5.592,12.801-6.631,20.034c-0.42,2.921-0.637,5.92-0.637,8.981
				v73.857c3.713,2.653,7.874,4.521,12.147,5.815c1.122-1.197,1.822-2.781,1.886-4.535c0.003-0.088,0.026-0.171,0.026-0.26v-74.877
				c0-11.439,3.961-21.726,10.548-29.492c-2.429-0.674-5.009-1.037-7.715-1.037C165.464,937.604,162.231,938.139,159.196,939.118z"
				/>
			<path style="fill:#FFFFFF;" d="M222.258,926.287c0.329,0.111,0.661,0.216,0.987,0.334c10.924,3.977,19.846,12.149,24.814,22.559
				l10.846-0.226c0.155-0.004,0.31-0.005,0.469-0.005c1.335,0,2.64,0.145,3.903,0.411c-7.83-22.916-29.562-39.448-55.097-39.448
				c-0.986,0-1.964,0.025-2.936,0.074c3.064,2.01,5.973,4.272,8.677,6.803C217.001,919.674,219.783,922.86,222.258,926.287z"/>
			<path style="fill:#FFFFFF;" d="M125.205,931.414c-0.545,0.632-1.077,1.275-1.595,1.93c-0.894,1.13-1.759,2.284-2.568,3.48
				c-6.22,9.2-9.856,20.285-9.856,32.203v41.489c0,4.944,0.459,9.727,1.346,14.313c0.218,1.122,0.452,2.237,0.721,3.335
				c0.228,0.93,0.475,1.852,0.74,2.764c2.387,8.208,6.271,15.65,11.556,22.042c2.442,2.952,5.074,5.548,7.839,7.836
				c0.225,0.187,0.452,0.371,0.678,0.553c1.61,1.293,3.261,2.489,4.949,3.583c1.818,1.178,3.675,2.245,5.559,3.21
				c13.189,6.756,27.703,8.527,39.29,8.527c18.391,0,34.288-4.253,47.371-12.648c0.073-0.047,0.15-0.09,0.224-0.137
				c1.875-1.213,3.691-2.511,5.449-3.895c10.799-8.496,18.734-19.301,23.716-32.212c1.524-3.95,2.781-8.09,3.747-12.43
				c0.116-0.521,0.171-1.047,0.168-1.57c-0.007-1.256-0.359-2.489-1.008-3.572c-0.162-0.27-0.337-0.534-0.537-0.783
				c-0.5-0.624-1.097-1.15-1.759-1.564c-1.104-0.69-2.392-1.068-3.725-1.068h-71.367c-2.427,0-4.566,1.23-5.83,3.099
				c-0.758,1.122-1.2,2.475-1.2,3.931c0,0.045,0.013,0.086,0.013,0.13c0.07,3.777,3.11,6.817,6.887,6.887
				c0.044,0.001,0.086,0.013,0.13,0.013h62.08c-3.49,9.971-8.948,18.267-16.517,25.134c-1.119,1.016-2.281,2.003-3.493,2.956
				c-11.523,9.07-26.443,13.669-44.348,13.669c-5.418,0-11.589-0.448-17.856-1.785c-7.06-1.506-14.23-4.172-20.605-8.596
				c-1.344-0.933-2.665-1.916-3.928-3.013c-0.319-0.278-0.618-0.59-0.932-0.878c-0.568-0.523-1.143-1.034-1.691-1.594
				c-0.85-0.868-1.674-1.782-2.469-2.744c-9.206-11.134-11.138-24.36-11.138-33.494v-41.489c0-1.395,0.073-2.773,0.201-4.136
				c0.028-0.291,0.062-0.58,0.095-0.868c0.498-4.339,1.635-8.485,3.316-12.344c4.299-9.865,12.144-17.834,21.918-22.3
				c5.503-2.514,11.61-3.927,18.044-3.927c0.247,0,0.49,0.015,0.735,0.018h0.001c6.343,0.11,12.245,1.623,17.461,4.29
				c0,0,0,0,0,0.001c1.093,0.558,2.159,1.162,3.189,1.819c0.019,0.012,0.038,0.026,0.057,0.038c1.317,0.843,2.574,1.773,3.78,2.768
				c1.352,1.116,2.636,2.316,3.836,3.608c7.222,7.784,11.564,18.648,11.564,31.033c0,1.242,0.357,2.434,0.965,3.49
				c0.318,0.552,0.683,1.078,1.146,1.532c0.332,0.326,0.694,0.614,1.078,0.865c0.125,0.081,0.264,0.135,0.392,0.208
				c0.269,0.153,0.535,0.31,0.82,0.425c0.165,0.067,0.342,0.102,0.512,0.156c0.264,0.084,0.526,0.176,0.799,0.228
				c0.191,0.036,0.386,0.038,0.58,0.058c0.293,0.03,0.583,0.074,0.881,0.067c0.001,0,0.002,0,0.003,0l25.055-0.522l17.843-0.371
				c0.218-0.005,0.421-0.053,0.634-0.077c0.003-0.001,0.005-0.001,0.009-0.001c0.234-0.026,0.473-0.036,0.699-0.085
				c0.001,0,0.001,0,0.001,0c0.145-0.032,0.281-0.083,0.42-0.131c0.079-0.027,0.16-0.049,0.24-0.075
				c0.219-0.07,0.444-0.127,0.653-0.218c0-0.001,0.001-0.001,0.001-0.001c0.206-0.09,0.394-0.212,0.59-0.32
				c0.002-0.001,0.005-0.003,0.007-0.004c0.197-0.109,0.403-0.207,0.587-0.335c0.001,0,0.001,0,0.001-0.001
				c0.182-0.125,0.341-0.279,0.51-0.421c0.002-0.002,0.004-0.003,0.006-0.005c0.173-0.146,0.355-0.281,0.514-0.443h0.001
				c0.152-0.156,0.278-0.334,0.415-0.502c0.001-0.003,0.003-0.005,0.005-0.007c0.144-0.178,0.299-0.347,0.426-0.539
				c0,0,0.001,0,0.001-0.001c0.042-0.063,0.073-0.134,0.109-0.201c0.07-0.128,0.14-0.256,0.209-0.385
				c0.107-0.203,0.227-0.398,0.316-0.612c0-0.001,0-0.001,0.001-0.001c0.086-0.209,0.137-0.433,0.202-0.651
				c0.002-0.005,0.003-0.01,0.005-0.015c0.065-0.216,0.144-0.427,0.187-0.651c0.001-0.001,0.001-0.001,0.001-0.002
				c0.013-0.065,0.02-0.13,0.031-0.195c0.028-0.17,0.026-0.349,0.042-0.522c0.001-0.006,0.001-0.011,0.001-0.016
				c0.014-0.163,0.026-0.326,0.039-0.489c0.007-0.081,0.021-0.16,0.02-0.243v-0.001c0-0.001,0-0.002,0-0.003
				c0-0.007,0.002-0.014,0.002-0.022c0-0.008-0.003-0.015-0.003-0.024c0-0.001,0-0.003,0-0.004v-0.001
				c-0.003-0.111-0.032-0.214-0.04-0.323c-0.124-1.732-0.853-3.287-1.998-4.443c-0.026-0.026-0.045-0.059-0.072-0.085
				c-0.061-0.059-0.135-0.103-0.198-0.16c-0.43-0.391-0.912-0.717-1.428-0.992c-0.679-0.363-1.414-0.621-2.201-0.744
				c-0.356-0.056-0.714-0.108-1.085-0.108c-0.051,0-0.1,0-0.15,0.001l-7.422,0.154l-12.308,0.257l-16.373,0.341
				c-1.003-9.31-3.954-17.803-8.435-25.064c-2.95-4.78-6.562-9.024-10.727-12.608c-5.071-4.363-10.955-7.749-17.446-9.939
				c-5.505-1.857-11.444-2.856-17.693-2.856c-0.549,0-1.091,0.026-1.636,0.042c-15.24,0.428-29.023,6.783-39.099,16.859
				C127.084,929.292,126.131,930.341,125.205,931.414z"/>
		</g>
	</g>
</g>
</svg>
