<svg id="Capa_1" data-name="Capa 1" xmlns="http://www.w3.org/2000/svg" viewBox="0 0 1163.39 146.6"><title>logo3</title><path d="M483.82,411.7" transform="translate(-332.47 -335.51)"/><path d="M481.9,411.7" transform="translate(-332.47 -335.51)"/><path d="M332.47,477.29l9.3-9.46,9.38-9.35L370,439.92l40.08-34.45,1.88-1.62,2.25,1,10.17,4.79-4.46.89L480,344.43l2.88-3.17,2.83,3.23,57,65.13-4.58-.91L549.65,403l2.06-1,1.87,1.35,49.18,35.4a130.47,130.47,0,0,1,12,9.29l11.71,9.65q11.65,9.74,23.23,19.59c-8.7-5.21-17.33-10.51-25.94-15.83l-12.87-8A131.69,131.69,0,0,1,598.26,445l-49.15-35.43,3.94.33-11.48,5.69-2.65,1.31L537,414.67l-57-65.14,5.71.05-60.07,66.15-1.9,2.09-2.56-1.2L411,411.83l4.12-.56-40.06,34.47-21.19,15.9-10.65,7.87Z" transform="translate(-332.47 -335.51)"/><polygon points="28.92 116.91 10.75 132.53 57.22 100.33 64.31 102.76 91.45 100.33 106.41 92.22 122.91 91.03 138.63 72.01 158.6 47.37 193.28 78.78 217.09 88.16 224.09 80.12 290.8 122.75 218.88 70.94 207.4 76.64 150.39 11.49 90.32 77.64 80.15 72.86 28.92 116.91"/><path d="M664.42,341.18h18.32V477.77H664.42Z" transform="translate(-332.47 -335.51)"/><path d="M822.35,467.57a80,80,0,0,1-9.25,5.1,68.44,68.44,0,0,1-13.7,4.73,76.45,76.45,0,0,1-45.72-3.78,63.81,63.81,0,0,1-21.63-14.93,66.92,66.92,0,0,1-13.7-21.82,72,72,0,0,1-4.82-26.35,77.6,77.6,0,0,1,5-28.25,67.86,67.86,0,0,1,14.07-22.48A64,64,0,0,1,754.06,345a68.35,68.35,0,0,1,27.11-5.29A70.69,70.69,0,0,1,803.46,343a77.14,77.14,0,0,1,17.19,7.84l-7.36,17a83.78,83.78,0,0,0-13.7-7.18,47.73,47.73,0,0,0-36.75.57,49,49,0,0,0-15.68,11.14,53.27,53.27,0,0,0-10.67,16.72,53.89,53.89,0,0,0-3.88,20.5,59.67,59.67,0,0,0,3.5,20.69,48.35,48.35,0,0,0,10,16.53,46.25,46.25,0,0,0,15.78,11,52.34,52.34,0,0,0,20.78,4,49.85,49.85,0,0,0,18.51-3.21,57.54,57.54,0,0,0,13.42-7.18Z" transform="translate(-332.47 -335.51)"/><path d="M853.15,341.18h88.79v17.57H871.47v41.56h62.91v17.57H871.47V460.2h73.11v17.57H853.15Z" transform="translate(-332.47 -335.51)"/><path d="M976.32,341.18h18.33v119H1064v17.57H976.32Z" transform="translate(-332.47 -335.51)"/><path d="M1080.23,477.77l59.7-142.26h1.13l59.51,142.26h-21L1135,364.23l13-8.5-49.87,122Zm35-51.76H1166l6,15.87h-62.15Z" transform="translate(-332.47 -335.51)"/><path d="M1344.53,482.12,1238.92,375l5.29,1.32.38,101.45h-18.33V337h1l104.47,107.49-4.34-.94-.38-102.4h18.14V482.12Z" transform="translate(-332.47 -335.51)"/><path d="M1384.39,477.77V341.18h37.22q20.21,0,34.48,6.24t23,16.43a66.66,66.66,0,0,1,12.75,22.58,78.61,78.61,0,0,1,4.06,24.65,68.53,68.53,0,0,1-5.38,27.78,62,62,0,0,1-14.83,21A66.72,66.72,0,0,1,1454,473.15a72.15,72.15,0,0,1-25.79,4.62Zm18.33-17.57h21.91a61.71,61.71,0,0,0,20.88-3.4,48.74,48.74,0,0,0,16.62-9.82,44.14,44.14,0,0,0,11-15.78,53.86,53.86,0,0,0,4-21.25,55.37,55.37,0,0,0-4.15-22.2,45.58,45.58,0,0,0-11.34-16,49.63,49.63,0,0,0-16.25-9.73,55.32,55.32,0,0,0-19.08-3.31h-23.61Z" transform="translate(-332.47 -335.51)"/></svg>