<?xml version="1.0" encoding="utf-8"?>
<!-- Generator: Adobe Illustrator 24.0.2, SVG Export Plug-In . SVG Version: 6.00 Build 0)  -->
<svg version="1.1" id="Capa_1" xmlns="http://www.w3.org/2000/svg" xmlns:xlink="http://www.w3.org/1999/xlink" x="0px" y="0px"
	 viewBox="0 0 1163.4 146.6" style="enable-background:new 0 0 1163.4 146.6;" xml:space="preserve">
<style type="text/css">
	.st0{fill:#FFFFFF;}
</style>
<title>logo3</title>
<path class="st0" d="M151.4,76.2"/>
<path class="st0" d="M149.4,76.2"/>
<path class="st0" d="M0,141.8l9.3-9.5l9.4-9.4l18.9-18.6L77.6,70l1.9-1.6l2.3,1l10.2,4.8L87.5,75l60.1-66.1l2.9-3.2l2.8,3.2l57,65.1
	l-4.6-0.9l11.5-5.7l2.1-1l1.9,1.4l49.2,35.4c4.2,2.9,8.2,6,12,9.3l11.7,9.6c7.8,6.5,15.5,13,23.2,19.6c-8.7-5.2-17.3-10.5-25.9-15.8
	l-12.9-8c-4.4-2.6-8.6-5.4-12.6-8.5l-49.2-35.4l3.9,0.3l-11.5,5.7l-2.7,1.3l-1.9-2.2l-57-65.1l5.7,0L93.2,80.2l-1.9,2.1l-2.6-1.2
	l-10.2-4.8l4.1-0.6l-40.1,34.5l-21.2,15.9L10.8,134L0,141.8z"/>
<polygon class="st0" points="28.9,116.9 10.8,132.5 57.2,100.3 64.3,102.8 91.4,100.3 106.4,92.2 122.9,91 138.6,72 158.6,47.4 
	193.3,78.8 217.1,88.2 224.1,80.1 290.8,122.8 218.9,70.9 207.4,76.6 150.4,11.5 90.3,77.6 80.2,72.9 "/>
<path class="st0" d="M331.9,5.7h18.3v136.6h-18.3V5.7z"/>
<path class="st0" d="M489.9,132.1c-3,1.9-6.1,3.6-9.3,5.1c-4.4,2.1-9,3.6-13.7,4.7c-15.3,3.5-31.2,2.1-45.7-3.8
	c-8.2-3.4-15.5-8.5-21.6-14.9c-5.9-6.3-10.6-13.7-13.7-21.8C382.6,93,381,84,381.1,75c-0.1-9.6,1.6-19.2,5-28.3
	c3.2-8.3,7.9-16,14.1-22.5c6.1-6.3,13.4-11.4,21.5-14.8c8.6-3.6,17.8-5.4,27.1-5.3c7.6-0.1,15.1,1,22.3,3.3c6,1.9,11.8,4.5,17.2,7.8
	l-7.4,17c-4.3-2.8-8.9-5.2-13.7-7.2c-11.8-4.7-25.1-4.5-36.8,0.6c-5.9,2.6-11.2,6.4-15.7,11.1c-4.6,4.9-8.2,10.5-10.7,16.7
	c-2.6,6.5-3.9,13.5-3.9,20.5c-0.1,7,1.1,14.1,3.5,20.7c2.2,6.1,5.6,11.7,10,16.5c4.4,4.7,9.8,8.5,15.8,11c6.6,2.7,13.7,4.1,20.8,4
	c6.3,0.1,12.6-1,18.5-3.2c4.8-1.8,9.3-4.2,13.4-7.2L489.9,132.1z"/>
<path class="st0" d="M520.7,5.7h88.8v17.6H539v41.6h62.9v17.6H539v42.3h73.1v17.6h-91.4V5.7z"/>
<path class="st0" d="M643.8,5.7h18.3v119h69.3v17.6h-87.7V5.7z"/>
<path class="st0" d="M747.8,142.3L807.5,0h1.1l59.5,142.3h-21L802.5,28.7l13-8.5l-49.9,122L747.8,142.3z M782.8,90.5h50.8l6,15.9
	h-62.2L782.8,90.5z"/>
<path class="st0" d="M1012.1,146.6L906.5,39.5l5.3,1.3l0.4,101.5h-18.3V1.5h1L999.3,109l-4.3-0.9L994.5,5.6h18.1v141H1012.1z"/>
<path class="st0" d="M1051.9,142.3V5.7h37.2c13.5,0,25,2.1,34.5,6.2c9.5,4.2,17.2,9.6,23,16.4c5.7,6.6,10,14.3,12.8,22.6
	c2.7,7.9,4,16.3,4.1,24.6c0.2,9.5-1.7,19-5.4,27.8c-3.4,8-8.5,15.1-14.8,21c-6.3,5.8-13.7,10.3-21.7,13.3c-8.2,3.1-17,4.7-25.8,4.6
	H1051.9z M1070.3,124.7h21.9c7.1,0.1,14.2-1.1,20.9-3.4c6.1-2.1,11.8-5.5,16.6-9.8c4.8-4.4,8.5-9.8,11-15.8c2.8-6.7,4.1-14,4-21.3
	c0.2-7.6-1.3-15.2-4.2-22.2c-2.6-6.1-6.4-11.6-11.3-16c-4.7-4.3-10.3-7.6-16.3-9.7c-6.1-2.2-12.6-3.3-19.1-3.3h-23.6L1070.3,124.7z"
	/>
</svg>
