<?xml version="1.0" encoding="utf-8"?>
<!-- Generator: Adobe Illustrator 24.0.2, SVG Export Plug-In . SVG Version: 6.00 Build 0)  -->
<svg version="1.1" id="Capa_1" xmlns="http://www.w3.org/2000/svg" xmlns:xlink="http://www.w3.org/1999/xlink" x="0px" y="0px"
	 viewBox="0 0 1163.4 146.6" style="enable-background:new 0 0 1163.4 146.6;" xml:space="preserve">
<style type="text/css">
	.st0{fill:#FFFFFF;}
	.st1{fill:#2E57A4;}
	.st2{fill:#E83A4A;}
	.st3{fill:#DEE2F0;}
</style>
<title>logo3</title>
<path d="M103.6,66.5"/>
<path d="M102.3,66.5"/>
<path class="st0" d="M232.3,20.4h12v89.3h-12V20.4z"/>
<path class="st0" d="M335.6,103.1c-2,1.2-4,2.4-6.1,3.3c-2.9,1.4-5.9,2.4-9,3.1c-10,2.3-20.4,1.4-29.9-2.5
	c-5.4-2.2-10.1-5.6-14.1-9.7c-3.9-4.1-6.9-9-9-14.3c-2.2-5.5-3.2-11.4-3.1-17.3c-0.1-6.3,1-12.6,3.3-18.5c2.1-5.4,5.2-10.5,9.2-14.7
	c4-4.1,8.8-7.5,14.1-9.7c5.6-2.4,11.6-3.5,17.7-3.5c5-0.1,9.9,0.7,14.6,2.2c3.9,1.2,7.7,2.9,11.2,5.1l-4.8,11.1
	c-2.8-1.8-5.8-3.4-9-4.7c-7.7-3.1-16.4-2.9-24.1,0.4c-3.9,1.7-7.3,4.2-10.3,7.3c-3,3.2-5.4,6.9-7,10.9c-1.7,4.2-2.5,8.8-2.5,13.4
	c-0.1,4.6,0.7,9.2,2.3,13.5c1.4,4,3.7,7.6,6.5,10.8c2.9,3.1,6.4,5.6,10.3,7.2c4.3,1.8,9,2.7,13.6,2.6c4.1,0.1,8.2-0.7,12.1-2.1
	c3.1-1.2,6.1-2.7,8.8-4.7L335.6,103.1z"/>
<path class="st0" d="M355.7,20.4h58.1v11.5h-46.1v27.2h41.1v11.5h-41.1v27.7h47.8v11.5h-59.8L355.7,20.4L355.7,20.4z"/>
<path class="st0" d="M436.2,20.4h12v77.8h45.3v11.5h-57.3L436.2,20.4L436.2,20.4z"/>
<path class="st0" d="M504.2,109.7l39-93h0.7l38.9,93h-13.7L540,35.5l8.5-5.6l-32.6,79.8L504.2,109.7z M527.1,75.9h33.2l3.9,10.4
	h-40.7L527.1,75.9z"/>
<path class="st0" d="M677,112.5l-69-70l3.5,0.8l0.3,66.4h-12V17.7h0.7L668.6,88l-2.8-0.6l-0.3-67h11.8v92.2H677z"/>
<path class="st0" d="M703,109.7V20.4h24.3c8.8,0,16.3,1.4,22.6,4.1c6.2,2.7,11.2,6.3,15,10.7c3.7,4.3,6.5,9.3,8.4,14.8
	c1.8,5.2,2.6,10.7,2.7,16.1c0.1,6.2-1.1,12.4-3.5,18.2c-2.2,5.2-5.6,9.9-9.7,13.7c-4.1,3.8-9,6.7-14.2,8.7c-5.4,2-11.1,3.1-16.9,3
	L703,109.7L703,109.7z M715,98.2h14.3c4.6,0.1,9.3-0.7,13.7-2.2c4-1.4,7.7-3.6,10.9-6.4c3.1-2.9,5.6-6.4,7.2-10.3
	c1.8-4.4,2.7-9.2,2.6-13.9c0.1-5-0.8-9.9-2.7-14.5c-1.7-4-4.2-7.6-7.4-10.5c-3.1-2.8-6.7-5-10.7-6.3c-4-1.4-8.2-2.2-12.5-2.2H715
	L715,98.2z"/>
<g>
	<g>
		<path class="st1" d="M77.9,140c2.4,1.6,4.6,3.7,7.1,4.7c4.6,1.8,10.1,2.4,15,1.7c5.4-0.7,9.8-3.3,14.1-6.4c4-2.9,8.5-3.9,13.2-5
			c4.5-1.1,10-2.1,12.9-6.1c2.4-3.3,3.8-6.8,7.2-9.3c2.8-2.2,5.1-4.1,7.5-6.7c2.6-2.9,5.6-3.4,9.2-4.4c3.3-0.9,5-3.3,7.7-5.2
			c2.4-1.7,5.2-2.4,7.2-4.7c0.2-0.2,0.4-0.5,0.6-0.7H77.9L77.9,140L77.9,140z"/>
		<path class="st1" d="M42.2,48.7c-0.6-1.6-1.2-0.2-2.3-0.9c-0.7-0.5-0.5-1.9-0.4-2.8c0.1-1.4,0.6-1.9-0.8-2.5c-1-0.5-2-0.3-3.1-0.4
			c-2.9-0.2-3.4-2.4-5.4-4c1.4-0.9,3.8,0.3,4.8-0.8c0.6-0.7-0.1-1.6,0.2-2.3c0.3-0.7,1.1-1,1.7-1.5c0.8-0.7,1-0.9,1.1-1.9
			c0.1-1-0.5-1.3-0.7-2.1c-0.3-1.5,0.8-3-1.6-3.1c-0.6-2.5,3.7-1.4,2.2-4.1c-1.1-2-1.5-3.4-1.6-5.7c-0.7-0.1-1.5-0.1-2.2,0
			c-3.2,0.8-2.9-2.5-4.2-4.4c-1.5-2.2-5-0.8-6-3.8c-0.3-1.1-0.2-1.9-1-2.7c-0.9-0.9-2.1-1-2.7-2.2C19.6,2,20.3,0.7,20-0.6
			c-0.4-1.6-1.9-2.3-3.3-2.8c-2.9-1-5.8-0.3-8.6-1.1C5.4-5.2,3-7.2,0.3-5.1c-3.2,2.4,0.5,3.2,2.5,3.6c2.5,0.5,2.9,3.6,5.7,3.4
			c1.5-0.1,3-1.2,4.4-0.2c1,0.7,1.6,2.5,0.5,3.3c-0.9,0.7-2.6,0.2-3.7,0.1C8.5,5,7.3,5.2,6.1,5.3C6,7.1,5.8,7.3,7.4,7.8
			c1.4,0.4,3.2,0.9,4.6,1.5c1.5,0.6,1.9,1.9,2.5,3.3c0.7,1.8,1.2,1.8,2.9,2.7c2,1,2.2,4.3,3.6,6.1c1.2,1.6,3.2,4.4,3.4,6.4
			c-4.1,1.5-3-8-7.6-7.1c-0.1,0.9-0.2,2.1,0.9,2.3c0.1,1.3,0.2,2.7-0.9,3.6c-1.2-0.6-1.8-1.5-2.6-2.5c-0.8-1-1.7-1.5-2.8-2.2
			c-2.3-1.7-3.1-6.4-5.9-7c-1-0.2-2.1,0.1-3.2-0.2c-1.2-0.4-1.7-1.2-2.7-2c-1.2-0.9-6.3-1.7-4.8,1c0.6,1.1,2.2,1.4,3.1,2.3
			c0.9,0.9,1,2.1,0.8,3.3c-1.8-1.2-7.1-6.3-7.1-1.1c0,1.6-0.4,3.1,1.2,3.9c1.4,0.7,2.5,0.7,3.1,2.5c-1.6,0.2-3.3-0.2-4.8-0.2
			c-0.1,2.2,0.5,2.1,2.3,2.8c2,0.7,1.7,1.4,2.6,3c0.5,0.9,1.1,1.2,2,1.5c0.5,0.2,2.2,0.2,2.5,0.6c1.2,1.5-1.6,1.4-2.3,1.8
			c-0.1,1.2,1.9,2.2,1.5,3c-0.4,0.7-3,0.5-3.6,0.5c-1.6-0.1-2.7-1.2-3.7-2.4c-0.9-1-1.3-2.7-2.3-3.6c-1-0.8-2.2-0.5-3.3-0.8
			c-1.2-0.3-2.6-1.1-3.4-2.1c-1-1.1-1.5-3.1-2.8-4c-1-0.7-2.8-0.4-4-0.4c-0.2,1.5,0.2,2.1,1.3,3c0.4,0.4,2.2,1.4,2.1,2.1
			c-0.3,1.6-3.2-0.6-3.7-0.9c-1.1-0.6-2.1-0.7-3.4-0.6c-0.4,1.6,2.1,2.8,2.7,4.1c0.4,0.9,1.5,3.1,2.7,3.2c-1.7,0-4,0.4-5.7-0.1
			c-1.4-0.4-2.3-3.4-3.7-2.9c-0.1,1.3,0,2.7-0.4,3.9c-0.5,1.5-1.9,2.1-2.9,3.3c-1.7,2,1.1,4.6,2.8,5.9c3.6,2.9,6.9-1,10.1-2.3
			c2.6-1.1,5.3,0.7,7.6,1.6c1.3,0.5,2.7,1,4,0.5c1.4-0.5,2.3-1.9,3.7-2.5c1.4-0.6,2.7-0.1,4.2,0c1.8,0.1,3.5-0.5,5.3-0.7
			C5,42,5.7,42.6,7.1,43.3c2,1,4.2,0.7,6.4,0.8c1.8,0,3.4,0,4.4,1.7c0.8,1.3,1.5,2.3,2.4,3.5c1.1,1.4,0.7,1.9-0.9,2.6
			c-1.6,0.6-2.8,1-4.2,2.2c-2.4,2.1-5.5,2.4-7.8,4.5c1.3,2,3.4,3.8,5.8,4.5c1.2,0.4,2.5,0.5,3.7,0.2c0.2,0,0.4-0.1,0.6-0.2
			c1.8-0.6,2.7-1.9,4-3.3c1.3-1.4,2.7-1.9,3.7,0c0.6,1.2,0.8,2.3,0.7,3.2h17.3v-9.9c-0.2,0.6-0.4,1.2-0.4,1.8
			C41.4,53.3,42.8,50.5,42.2,48.7z"/>
		<path class="st1" d="M20.2,98.8c-0.4,0.5-0.9,0.5-1.2,1.1c-0.2,0.4-0.1,1.4-0.3,1.8c1.4,0.2,2.1-0.6,3.4-0.9c1-0.2,2.1,0,3-0.2
			c2.4-0.4,4.5-0.9,6.9-0.5c0.1,2-0.3,2.2-2.2,1.9c-1.8-0.3-3.8-0.8-4.9,1.1c-0.6,1.1-0.4,2.5-1.2,3.5c-0.3,0.4-1.7,0.8-1.8,1.2
			c-0.2,0.6,0.6,0.7,0.6,1.1c-0.1,1.3-1.8,0.8-2.3,2c-0.6,1.5,1.3,1.5,0.5,2.5c-0.3,0.4-1.1,0.3-1.5,0.7c-0.4,0.3-0.5,1.1-0.8,1.4
			c-0.6,0.6-0.1,0.7-1.2,0.7c-0.8,0-1.5-0.5-2.3-0.5c-0.4-3.7-2.1-6.8-6-4.2c-2.8,1.9-3.4,5.3-4.4,8.3c-0.9,2.7-2.8,7.3,1.3,8.1
			c3.3,0.7,7.2-0.4,10.5-0.6c3.5-0.2,7-0.3,10.5-0.3c3.8,0.1,7.6-0.5,11.4-0.6c1.6,0,3.1,0.1,4.7,0.3V97.7H20.8
			C20.7,98.1,20.5,98.5,20.2,98.8z"/>
		<path class="st1" d="M82.6,24.8c0.8,2.3,0.5,4.2,1.8,6.4c1.2,1.9,0.3,3.1-1.5,4.4c-2.1,1.4-3.1,0.5-4.5-1.3
			c-0.2-0.3-0.4-0.5-0.5-0.8V63h123c-0.8-1.5-2.3-3-3.3-3.9c-1-1-3.2-1.8-3.7-3.1c-0.5-1.3,0.6-2.3,1.4-3.2c1.8-2,5.5-4.1,3.5-7.2
			c-2.1-3.3-6.4-1.4-8.2-4.7c-0.9-1.6-1.1-3.9-2.9-4.6c-1.7-0.6-3.6,0.2-5.1-1.2c-1.4-1.4-1.5-2.6-3.7-3c-2.1-0.3-4.4,0.2-6.5,0.6
			c-0.9-2,1.4-3.9,3.1-4.7c1.7-0.7,4.5-0.3,3.5-3c-0.4-1.1-1.6-1.6-2-2.5c-0.4-0.9,0.2-1.4,0.3-2.3c0.3-2.9-3.1-1.9-5-2.1
			c-0.5-1.9,0.3-4.2,1.5-5.7c1.1-1.4,3-1.9,3.7-3.7c0.7-1.8-0.5-3.3-1.4-4.8c-0.4-0.7-0.9-1.4-1-2.2c-0.2-0.8,0.2-1.8-0.4-2.5
			c-1.4-1.8-5.6-0.6-4.9,1.9c0.2,0.9,1.2,1.5,0.9,2.6c-0.3,1-1.9,1.6-2.7,2.1c-1.3,0.8-2.8,2-3.8,3.1c-1.1,1.1-1.2,3.1-3.1,3.1
			c-1.4,0-3.9-2.1-4.6-3.2c-1.1-1.6,0.9-3.8,1.1-5.6c-2.1-0.6-2.6-1-3.9-2.6c-0.5-0.7-1-0.8-1.2-1.7c-0.2-0.8,0.2-1.4,0.2-2.2
			c-1.8-0.8-3.5-1.1-4.8-2.5c-1.4-1.5-3.2-2-5.4-1.9c-1.5,0-2.3,1-3.8,1.3c-1.6,0.3-3.3,0-3.5,2.3c-0.1,1.8,1.8,2.8,2.3,4.4
			c0.6,1.9,1.6,2.9,2.5,4.7c0.7,1.4,0.9,3.3,0,4.7c-1,1.5-1.8,1.4-1.8,3.4c0,3.7-4,6.7-7.7,6.2c-0.4-1.6-1.6-3.4-3.5-2.3
			c-1.5,0.9-0.9,2.5-0.8,3.9c0.4,4-3.4,3.2-5.2,5.7c-0.9,1.3-1.6,2.5-3.2,1.1c-1.3-1.1-1.7-3.3-1.6-4.9c0.1-2.4,2.2-5.2,1.8-7.5
			c-0.3-1.9-3-2-4.6-2.3c-4.9-1.1-2.6,4.5-2,7.2c0.5,1.8-0.7,3.2-1.1,4.9c-0.5,2.3,0.6,3.4,1.3,5.4c0.7,2-0.5,3.9-1,5.8
			c-0.3,1.1,0,4.2-1.2,4.7c-1.8,0.7-3-2-3.2-3.2c-0.3-2,0.6-4.5-0.7-6.3c-1-1.4-2.6-2-3.5-3.7c-1.1-2-1.7-4.3-2.6-6.4
			c-0.9-1.9-1.1-3.8-1.8-5.7c-1-2.7-4-3.6-6.5-4.3c-2-0.5-3.6-1.1-5.1,0.5c-1.3,1.3-2,2-4,1.9c-1.5,0-2.6-0.3-3.7,0.9l0,0
			c-1.2,1.3-1.2,3.1-0.3,4.6c0.1,0.1,0.2,0.3,0.3,0.4C79.3,21.6,81.8,22.4,82.6,24.8z"/>
	</g>
	<g>
		<path class="st2" d="M186.9,71.6H69.2V15.5c-0.3-0.5-0.8-0.9-1.5-1.2c-4.1-2-5.5,3.5-4.5,6.6c0.6,1.9,2,3.3,2.2,5.4
			c0.1,2-0.7,3.2-1.6,4.9c-1.1,2.1-0.1,3.8,0.8,5.8c1,2.2,1.1,3.6-0.3,5.7c-1.2,1.7-2.8,3.3-4.6,1.4c-1.7-1.8-1.3-4.2-2.3-6.2
			c-0.7-1.4-1.9-1.4-3.4-1.4l-2.4,1v34.2h-71.3c-0.2,0.1-0.3,0.2-0.5,0.2c-2.2,1.1-4.2,1.1-6.5,1.5c-5,0.9-5.1,5.6-1.3,8.2
			c3.5,2.4,7.5-0.6,11.4,0.1c5.1,0.9,9.5-2.1,14.5-1.2c3.3,0.6,7.8-1,9.4,2.8c0.6,1.3,0.3,3.6,0.3,5.7h44v41.2
			c3.5,2.4,6,6.3,9.9,7.9c2.5,1,5,0.5,7.5,0.1V89.1h113.7c-0.1-0.3-0.2-0.6-0.3-1c1.4-1.1,3.5-0.3,4.8-1.4c0.6-0.5,0.5-1,1.4-1.4
			c0.8-0.4,2-0.2,2.7-0.8c0.8-0.7,0.3-1.1,0.5-2c0.3-1,0.6-1,1.6-1.5c1.4-0.8,2.7-2.1,3.5-3.5c-3.2-0.2-6.9-0.5-9.4-2.6
			C185.9,73.5,186,72.3,186.9,71.6z"/>
		<g>
			<path class="st3" d="M44.2,47.2c-0.3,1.4-0.3,2.5-0.5,3.9c-0.1,0.7-0.3,1.4-0.6,2V63H25.9c-0.3,2.7-3.1,4.2-6.4,3.8
				c-1.9-0.3-3.8-0.9-5.5,0.2c-1.5,0.9-2,2.2-4.1,2c-2.8-0.3-1.9-2.8-3.6-4.2c-2.6-2.1-4.4,1-4.1,3.3c-1.9-0.3-3,0.8-4.8,1.2
				c-2.4,0.6-2.5-1.5-3.9-2.7c-1.7-1.5-2.3,1.2-3.1,2.5c-1.3,2.2-2.2,2.3-4.4,1.6c-2.2-0.7-3.7-0.1-5.6,0.9h71.3V37.4l-5,2
				C43.7,39.6,44.7,45.5,44.2,47.2z"/>
			<path class="st3" d="M9.1,94.1c1,0.6,2-0.7,2.9-0.2c1.2,0.6,0.9,2.8,2,3.8c0.2,0.2,0.4,0.3,0.6,0.4c0.8,0.3,1.5,0.1,2.1-0.4
				c1-0.8,1.7-2.3,2-3.3c0.6-1.7,0.6-2.7,2.4-3.3c1-0.3,2.1-0.5,3.1-0.7c0.1,0.6,0.9,0.9,0.7,1.3c-0.2,0.4-1.3,0.5-1.6,0.7
				c-1.5,0.8-1.5,1.7-1.8,3.2c-0.1,0.7-0.4,1.4-0.7,2.1h22.3v29.2c2.9,0.5,5.6,1.5,8.1,3c0.2,0.1,0.3,0.2,0.5,0.3V89.1h-44
				C7.7,91.3,7.8,93.3,9.1,94.1z"/>
			<path class="st3" d="M200.8,63h-123V33.5c-1.1-1.7-1.7-3.5-2.7-5.3c-0.9-1.6-2.4-1.2-3.8-2.2c-3.1-2.2,0-7.6-2.2-10.5v56.1h117.7
				c0.6-0.5,1.7-0.7,2.9-0.7c0.7,0,1.3,0.3,1.9,0.7c1.7,1,3.3,2.6,5.1,1.4c0.6-0.4,0.9-0.9,1-1.4c0.2-0.7,0.3-1.4,0.5-2.1
				c0.5-1.4,1.7-2,2.5-3.2C201.6,65.3,201.4,64.1,200.8,63z"/>
			<path class="st3" d="M69.2,89.1v49.3c1.6-0.2,3.1-0.4,4.7-0.1c1.4,0.3,2.7,0.9,3.9,1.7V97.7h101.8c1.5-1.9,3.1-4.4,3.4-6.7
				c0.1-0.7,0-1.3-0.1-1.9H69.2z"/>
		</g>
	</g>
</g>
</svg>
