<svg id="Capa_1" data-name="Capa 1" xmlns="http://www.w3.org/2000/svg" viewBox="0 0 831.28 260.41"><defs><style>.cls-1,.cls-2{fill:#fff;stroke:#000;stroke-miterlimit:10;}.cls-1{stroke-width:3px;}.cls-2{stroke-width:2px;}</style></defs><title>logo</title><path class="cls-1" d="M509.14,556.59V603a11,11,0,0,0,11,11h0l38.84-.12a28.86,28.86,0,0,1-1.61-5.28A67.63,67.63,0,0,0,551.64,592l-20.57.06V567.46A69.15,69.15,0,0,0,509.14,556.59Z" transform="translate(-381.28 -356.5)"/><path class="cls-1" d="M509.14,451.67V495.5a128,128,0,0,1,21.93,5.31V451.67A10.85,10.85,0,0,0,530,447a140.13,140.13,0,0,1-20.78,4.35C509.17,451.43,509.14,451.55,509.14,451.67Z" transform="translate(-381.28 -356.5)"/><path class="cls-1" d="M572.33,402.15q1.45-1.31,2.85-2.67c.19-.17.36-.35.54-.53H539.41c-.57.32-1.17.6-1.75.91A100.15,100.15,0,0,1,495,411.52v22l1.46-.07a122.68,122.68,0,0,0,38-8A120.87,120.87,0,0,0,572.33,402.15Z" transform="translate(-381.28 -356.5)"/><path class="cls-1" d="M411,404.68A121.42,121.42,0,0,0,423.46,414a119.83,119.83,0,0,0,11.7,6.7V395.37c-.69-.45-1.35-.94-2-1.41a100.82,100.82,0,0,1-28.94-30.71,10.43,10.43,0,0,0-1.2-1.58c-.1-.12-.2-.23-.31-.34a11.32,11.32,0,0,0-1.43-1.26l-.09-.06a11.54,11.54,0,0,0-1.55-.9l-.39-.19a11.11,11.11,0,0,0-1.76-.61l-.2,0a10.47,10.47,0,0,0-1.68-.25l-.43,0a10.81,10.81,0,0,0-1.88.09l-.23,0a10.47,10.47,0,0,0-1.65.41,4.59,4.59,0,0,0-.48.17,10.82,10.82,0,0,0-1.79.85,11,11,0,0,0-3.67,15.06A124,124,0,0,0,411,404.68Z" transform="translate(-381.28 -356.5)"/><path class="cls-1" d="M465.07,614a10.95,10.95,0,0,0,10.13-6.76A10.9,10.9,0,0,0,476,603V555.4a68.47,68.47,0,0,0-21.93,8.83V592L428.79,592a67.88,67.88,0,0,0-5.74,16.65,29.68,29.68,0,0,1-1.6,5.26l43.6.11Z" transform="translate(-381.28 -356.5)"/><path class="cls-1" d="M458.39,360.4a11.1,11.1,0,0,0-1.07.88,11.22,11.22,0,0,0-1.55,2,10.9,10.9,0,0,0-1.66,5.74v36h0v23.22h0v71.07A126.24,126.24,0,0,1,476,494.89V432.78h0V380H585.6a10.58,10.58,0,0,0,2.26-.27c.25-.05.51-.09.76-.16a10,10,0,0,0,1.12-.42l.28-.1c.3-.13.57-.3.85-.45s.31-.15.45-.24l.44-.32c.25-.17.51-.34.75-.54l.14-.13a12.61,12.61,0,0,0,.92-.87l.09-.12a11.33,11.33,0,0,0,1.6-2.27h0a10.07,10.07,0,0,0,.53-1.1h0a8.78,8.78,0,0,0,.29-.91l0-.1h0a9.13,9.13,0,0,0,.26-1h0a12.09,12.09,0,0,0,.12-1.21h0c0-.24.07-.46.07-.7,0-.08,0-.15,0-.23h0c0-.11,0-.2,0-.31,0-.3,0-.6-.1-.91s-.06-.64-.13-.95h0c-.08-.35-.21-.68-.32-1h0c-.06-.17-.13-.34-.18-.52s-.1-.32-.17-.47c-.14-.32-.33-.61-.49-.92h0c-.15-.25-.26-.53-.42-.78l-.11-.12h0c-.2-.29-.44-.54-.66-.81s-.46-.56-.72-.81-.48-.4-.72-.6h0c-.25-.21-.48-.44-.74-.62-.08-.05-.17-.08-.24-.13h0c-.25-.16-.53-.3-.8-.44s-.5-.3-.78-.42l-.22-.08-.12,0c-.33-.12-.66-.21-1-.3h0c-.17,0-.34-.12-.51-.16l-.49-.1h0l-.4,0-.8-.08h0c-.24,0-.47-.07-.71-.07H465.07A10.91,10.91,0,0,0,458.39,360.4Z" transform="translate(-381.28 -356.5)"/><path class="cls-1" d="M585.93,569.41A110.73,110.73,0,0,0,531.07,521,108.65,108.65,0,0,0,495,513.12c-1.58-.07-3.18-.1-4.78-.1h0a108.5,108.5,0,0,0-36.07,6.18h0a110,110,0,0,0-17.5,7.94c-.49.27-1,.56-1.45.85a110.07,110.07,0,0,0-42.58,45A108.17,108.17,0,0,0,383,600.42a11.19,11.19,0,0,0-.22,2.21,11,11,0,0,0,8.77,10.73l.57.09.12,0h0a11.07,11.07,0,0,0,1.51.11,11,11,0,0,0,10.73-8.77c.31-1.48.66-2.95,1-4.41a86.36,86.36,0,0,1,2.68-8.49,87.37,87.37,0,0,1,27-37.39,88.4,88.4,0,0,1,18.95-11.73h0A87.14,87.14,0,0,1,476,536.12a88.29,88.29,0,0,1,14.15-1.18h0c1.61,0,3.2.06,4.78.15a86.6,86.6,0,0,1,36.08,10A88.71,88.71,0,0,1,562.37,573c.86,1.25,1.7,2.52,2.5,3.82a85.21,85.21,0,0,1,6.7,13.37c.23.57.44,1.16.65,1.74a86.29,86.29,0,0,1,3.72,12.88,10.82,10.82,0,0,0,.62,2c.09.21.2.4.3.59a10.05,10.05,0,0,0,.66,1.21c.14.21.3.41.45.61s.52.66.8,1l.57.54a11.29,11.29,0,0,0,.95.76,5.7,5.7,0,0,0,.65.44,11.46,11.46,0,0,0,1.09.59c.23.1.45.22.68.31.43.16.87.28,1.32.4.2,0,.4.12.6.16a11.36,11.36,0,0,0,2,.2h0a11.8,11.8,0,0,0,1.76-.18c.15,0,.3,0,.46,0a10.44,10.44,0,0,0,2-.63l.11,0a10.94,10.94,0,0,0,3.2-2.14,3.73,3.73,0,0,0,.3-.26c.1-.1.17-.22.26-.32a10.92,10.92,0,0,0,2.66-9.56A108.6,108.6,0,0,0,587.85,573C587.23,571.81,586.59,570.6,585.93,569.41Z" transform="translate(-381.28 -356.5)"/><path class="cls-2" d="M701.72,604.9a61,61,0,0,1-7,3.86,52.28,52.28,0,0,1-10.37,3.58,55.48,55.48,0,0,1-13,1.43,56.25,56.25,0,0,1-21.66-4.29,48.34,48.34,0,0,1-16.38-11.3A50.9,50.9,0,0,1,623,581.66a54.48,54.48,0,0,1-3.64-19.95,58.7,58.7,0,0,1,3.79-21.38,51.13,51.13,0,0,1,10.65-17A48.52,48.52,0,0,1,650,512.08a51.7,51.7,0,0,1,20.53-4,53.56,53.56,0,0,1,16.87,2.5,59.23,59.23,0,0,1,13,5.94l-5.58,12.87A63.29,63.29,0,0,0,684.49,524a36.18,36.18,0,0,0-27.82.43,37.13,37.13,0,0,0-11.87,8.44,40.24,40.24,0,0,0-8.08,12.66A40.93,40.93,0,0,0,633.79,561a45,45,0,0,0,2.65,15.66A36.48,36.48,0,0,0,644,589.17,34.84,34.84,0,0,0,656,597.46a39.57,39.57,0,0,0,15.73,3,37.74,37.74,0,0,0,14-2.44,43.93,43.93,0,0,0,10.15-5.43Z" transform="translate(-381.28 -356.5)"/><path class="cls-2" d="M725,509.22h67.22v13.3H738.91V554h47.62v13.3H738.91v32h55.34v13.3H725Z" transform="translate(-381.28 -356.5)"/><path class="cls-2" d="M818.28,509.22h13.87v90.1h52.49v13.3H818.28Z" transform="translate(-381.28 -356.5)"/><path class="cls-2" d="M896.93,612.62l45.2-107.69H943l45,107.69H972.16l-33.75-86,9.87-6.44-37.76,92.39Zm26.46-39.18h38.47l4.58,12H919.39Z" transform="translate(-381.28 -356.5)"/><path class="cls-2" d="M1097,615.91l-80-81.09,4,1,.29,76.8h-13.88V506.08h.72l79.09,81.37-3.29-.71-.29-77.52h13.73V615.91Z" transform="translate(-381.28 -356.5)"/><path class="cls-2" d="M1127.18,612.62V509.22h28.18q15.3,0,26.1,4.72a47.22,47.22,0,0,1,17.37,12.44,50.4,50.4,0,0,1,9.66,17.09,59.59,59.59,0,0,1,3.07,18.67,52,52,0,0,1-4.07,21A46.88,46.88,0,0,1,1196.26,599a50.57,50.57,0,0,1-16.38,10.08,54.35,54.35,0,0,1-19.52,3.5Zm13.88-13.3h16.59a46.92,46.92,0,0,0,15.8-2.57,37.07,37.07,0,0,0,12.58-7.44,33.46,33.46,0,0,0,8.37-11.94,40.89,40.89,0,0,0,3-16.09,41.86,41.86,0,0,0-3.14-16.8,34.4,34.4,0,0,0-8.58-12.09,37.6,37.6,0,0,0-12.3-7.36,41.83,41.83,0,0,0-14.45-2.51h-17.87Z" transform="translate(-381.28 -356.5)"/></svg>