<svg id="Capa_1" data-name="Capa 1" xmlns="http://www.w3.org/2000/svg" viewBox="0 0 686.11 291.83"><defs><style>.cls-1{fill:#fff;stroke:#000;stroke-miterlimit:10;stroke-width:3px;}</style></defs><title>logo2</title><g id="OBJECTS"><rect class="cls-1" x="19.43" y="69.09" width="48.28" height="217.8"/><circle class="cls-1" cx="545.25" cy="275.54" r="30.04" transform="translate(-317.36 525.61) rotate(-80.78)"/><path class="cls-1" d="M585.91,461.15c-13.95-43.45-63.3-94.41-63.19-148.06,0,0-33.66,24.73-8.74,80.33,30.43,67.88,57.78,110.65,57,137.47C598.9,511,593.92,486.1,585.91,461.15Z" transform="translate(-503.29 -244)"/><path class="cls-1" d="M592,452.59c-15.91-41.29-68-90.68-69.23-139.5,0,0-21.22,36.11,14.1,84.22,49.63,67.6,59.1,95,34.18,133.58C597.71,513.9,601.09,476.29,592,452.59Z" transform="translate(-503.29 -244)"/><path class="cls-1" d="M694.32,527.64c-5.46,2.73-16.36,5.45-30.34,5.45-32.38,0-56.76-20.45-56.76-58.12,0-36,24.38-60.33,60-60.33,14.32,0,23.35,3.07,27.27,5.11l-3.58,12.1a54.12,54.12,0,0,0-23.18-4.77c-26.93,0-44.83,17.21-44.83,47.38,0,28.13,16.2,46.19,44.15,46.19,9,0,18.24-1.87,24.2-4.77Z" transform="translate(-503.29 -244)"/><path class="cls-1" d="M772.38,477.53H727.72V519h49.77v12.44h-64.6V416.51h62V429H727.72v36.3h44.66Z" transform="translate(-503.29 -244)"/><path class="cls-1" d="M796.75,416.51h14.83V519h49.08v12.44H796.75Z" transform="translate(-503.29 -244)"/><path class="cls-1" d="M895.77,495.26l-11.93,36.13H868.5l39-114.88h17.9l39.2,114.88H948.78l-12.27-36.13Zm37.67-11.59L922.19,450.6c-2.56-7.5-4.26-14.32-6-21h-.34c-1.7,6.81-3.58,13.8-5.79,20.79l-11.25,33.24Z" transform="translate(-503.29 -244)"/><path class="cls-1" d="M981.5,531.39V416.51h16.19l36.82,58.12A325.3,325.3,0,0,1,1055.13,512l.34-.17c-1.36-15.34-1.7-29.32-1.7-47.21V416.51h14V531.39h-15l-36.48-58.29c-8-12.78-15.68-25.91-21.47-38.35l-.51.17c.85,14.49,1.19,28.29,1.19,47.38v49.09Z" transform="translate(-503.29 -244)"/><path class="cls-1" d="M1093.65,418.05a211.44,211.44,0,0,1,31.53-2.39c21.31,0,36.47,4.94,46.53,14.32,10.23,9.37,16.19,22.67,16.19,41.24,0,18.75-5.79,34.09-16.53,44.66-10.74,10.74-28.46,16.53-50.79,16.53a239.93,239.93,0,0,1-26.93-1.36Zm14.83,101.58a93.86,93.86,0,0,0,15,.85c31.7,0,48.91-17.72,48.91-48.74.17-27.1-15.17-44.32-46.53-44.32a83.57,83.57,0,0,0-17.38,1.54Z" transform="translate(-503.29 -244)"/></g></svg>