<?xml version="1.0" standalone="no"?>
<!DOCTYPE svg PUBLIC "-//W3C//DTD SVG 20010904//EN"
 "http://www.w3.org/TR/2001/REC-SVG-20010904/DTD/svg10.dtd">
<svg version="1.0" xmlns="http://www.w3.org/2000/svg"
 width="560.000000pt" height="560.000000pt" viewBox="0 0 560.000000 560.000000"
 preserveAspectRatio="xMidYMid meet">

<g transform="translate(0.000000,560.000000) scale(0.100000,-0.100000)"
fill="#000000" stroke="none">
<path d="M2600 5443 c-716 -56 -1375 -397 -1842 -953 -290 -345 -489 -777
-575 -1250 -25 -136 -27 -164 -27 -445 0 -281 2 -309 27 -445 81 -449 255
-841 525 -1190 89 -114 284 -314 407 -415 377 -311 817 -505 1322 -582 139
-21 555 -24 693 -5 608 86 1133 344 1552 765 934 938 1034 2421 235 3475 -454
597 -1131 972 -1882 1042 -103 9 -332 11 -435 3z m332 -354 c320 -19 574 -84
853 -218 244 -117 423 -241 609 -421 369 -356 598 -798 683 -1315 13 -82 18
-166 18 -335 0 -273 -19 -415 -87 -649 -234 -811 -919 -1442 -1748 -1610 -294
-60 -627 -60 -917 0 -427 87 -815 291 -1134 597 -376 360 -612 823 -691 1357
-17 117 -17 481 1 600 98 676 452 1239 1016 1619 322 217 763 361 1155 379 30
1 62 3 70 4 8 1 86 -3 172 -8z"/>
<path d="M1060 3818 c-11 -25 -170 -642 -170 -658 0 -6 30 -10 69 -10 l70 0
11 55 11 55 79 0 78 0 6 -37 c14 -75 11 -73 87 -73 38 0 69 3 69 6 0 12 -171
667 -176 676 -3 4 -32 8 -65 8 -52 0 -61 -3 -69 -22z m94 -303 c10 -49 20
-100 23 -112 5 -22 2 -23 -47 -23 -52 0 -52 0 -47 28 3 15 14 68 24 119 10 51
21 89 24 85 3 -4 14 -47 23 -97z"/>
<path d="M1457 3834 c-4 -4 -7 -160 -7 -346 l0 -338 70 0 70 0 1 168 1 167 34
-107 35 -108 34 0 34 0 32 103 c18 56 36 105 39 109 3 4 5 -68 5 -160 l0 -167
68 -3 67 -3 0 346 0 345 -59 0 -59 0 -57 -152 c-31 -84 -60 -159 -64 -166 -5
-9 -29 43 -69 149 l-60 164 -54 3 c-30 2 -57 0 -61 -4z"/>
<path d="M2060 3495 l0 -345 155 0 155 0 0 60 0 59 -87 3 -88 3 -3 77 -3 77
78 3 78 3 3 63 3 62 -81 0 -80 0 0 75 0 75 90 0 90 0 0 65 0 65 -155 0 -155 0
0 -345z"/>
<path d="M2470 3496 l0 -346 65 0 64 0 3 133 c3 127 4 132 25 135 15 2 23 -3
28 -20 4 -13 23 -74 42 -135 l36 -113 68 0 c38 0 69 3 69 7 0 5 -21 70 -46
146 l-46 138 20 22 c57 60 71 205 30 287 -34 68 -73 82 -230 88 l-128 5 0
-347z m231 198 c7 -9 13 -40 13 -69 0 -68 -14 -85 -70 -85 l-44 0 0 85 0 85
44 0 c28 0 48 -6 57 -16z"/>
<path d="M2967 3834 c-4 -4 -7 -160 -7 -346 l0 -338 70 0 70 0 -2 343 -3 342
-60 3 c-34 2 -64 0 -68 -4z"/>
<path d="M3315 3827 c-48 -22 -92 -79 -104 -137 -17 -79 -14 -346 4 -408 51
-171 283 -189 356 -27 10 22 19 53 19 68 l0 28 -66 -3 c-66 -3 -66 -3 -78 -38
-10 -31 -15 -35 -46 -35 -54 0 -63 30 -64 205 0 169 7 215 35 231 34 18 67 3
77 -34 8 -32 9 -32 76 -35 l69 -3 -6 35 c-9 55 -37 105 -75 134 -28 21 -47 27
-101 29 -40 2 -78 -2 -96 -10z"/>
<path d="M3817 3833 c-5 -8 -177 -669 -177 -679 0 -2 31 -4 69 -4 76 0 73 -2
87 73 l6 37 78 0 79 0 12 -55 12 -55 69 0 c45 0 68 4 68 12 0 16 -158 629
-169 654 -8 17 -19 21 -69 23 -33 1 -63 -2 -65 -6z m113 -440 c0 -9 -17 -13
-51 -13 -48 0 -51 1 -46 23 3 12 13 60 22 107 10 47 20 92 23 100 4 13 50
-180 52 -217z"/>
<path d="M4207 3834 c-4 -4 -7 -160 -7 -346 l0 -338 70 0 70 0 2 162 3 162 70
-162 70 -162 57 0 58 0 0 345 0 346 -67 -3 -68 -3 0 -158 c0 -86 -2 -157 -5
-157 -3 0 -35 71 -71 158 l-65 157 -55 3 c-30 2 -58 0 -62 -4z"/>
<path d="M2887 3046 c-78 -29 -117 -91 -117 -186 0 -109 25 -141 153 -194 76
-32 87 -46 87 -110 0 -38 -4 -48 -26 -63 -24 -15 -29 -15 -53 -2 -16 9 -27 25
-29 42 -3 27 -5 27 -74 27 l-70 0 7 -47 c15 -108 67 -148 190 -148 130 0 183
46 193 171 6 76 -12 155 -42 183 -13 12 -59 37 -102 55 -85 35 -109 61 -98
106 8 37 23 50 55 50 22 0 32 -6 39 -26 6 -14 8 -30 4 -35 -3 -5 25 -9 65 -9
l71 0 0 33 c0 47 -39 118 -77 140 -43 25 -128 31 -176 13z"/>
<path d="M3650 3045 c-46 -21 -68 -42 -94 -90 -19 -37 -21 -55 -21 -245 0
-190 2 -208 21 -245 27 -49 49 -70 97 -90 116 -48 243 23 264 149 l6 36 -72 0
c-69 0 -71 -1 -71 -25 0 -30 -40 -59 -68 -50 -37 11 -47 60 -47 225 0 167 10
214 48 224 30 8 67 -19 67 -49 0 -24 2 -25 70 -25 66 0 70 1 70 23 0 39 -48
121 -86 146 -45 31 -133 39 -184 16z"/>
<path d="M1640 2710 l0 -340 65 0 65 0 0 167 c0 92 4 163 8 158 5 -6 22 -54
38 -107 l29 -98 36 0 36 0 36 108 35 107 1 -167 1 -168 70 0 70 0 0 340 0 340
-62 0 -63 0 -59 -160 c-32 -88 -62 -160 -65 -160 -3 0 -23 49 -45 108 -21 59
-47 131 -58 160 l-19 52 -60 0 -59 0 0 -340z"/>
<path d="M2260 2793 c0 -151 5 -274 11 -296 45 -162 285 -185 358 -35 20 42
21 60 21 316 l0 272 -70 0 -70 0 0 -269 c0 -268 0 -270 -22 -285 -30 -21 -44
-20 -68 4 -19 19 -20 33 -20 285 l0 265 -70 0 -70 0 0 -257z"/>
<path d="M3270 2710 l0 -340 65 0 65 0 0 340 0 340 -65 0 -65 0 0 -340z"/>
<path d="M1380 2266 c0 -2 -38 -153 -85 -334 -47 -182 -85 -335 -85 -341 0 -7
25 -11 65 -11 71 0 77 5 89 73 l7 37 78 0 78 0 12 -55 12 -55 70 0 c38 0 69 3
69 6 0 3 -39 159 -87 345 l-86 339 -69 0 c-37 0 -68 -2 -68 -4z m93 -315 c10
-54 21 -108 24 -120 5 -19 1 -21 -47 -21 -52 0 -52 0 -47 28 3 15 13 69 23
120 10 50 20 92 24 92 3 0 13 -44 23 -99z"/>
<path d="M1690 2253 c1 -10 32 -164 69 -343 l68 -325 71 -3 71 -3 7 38 c4 21
24 128 45 238 20 110 38 198 39 195 1 -3 21 -108 44 -235 l42 -230 67 -3 c62
-3 68 -1 77 20 8 20 140 643 140 661 0 4 -34 7 -75 7 -53 0 -75 -4 -75 -12 -1
-28 -59 -440 -62 -444 -2 -2 -22 99 -44 224 l-39 227 -76 3 -76 3 -22 -128
c-13 -70 -30 -174 -39 -230 -9 -57 -19 -103 -22 -103 -3 0 -19 102 -35 228
l-30 227 -72 3 c-65 3 -73 1 -73 -15z"/>
<path d="M2582 2193 c-57 -216 -152 -592 -152 -602 0 -8 21 -11 67 -9 l68 3
14 53 14 52 77 0 78 0 6 -37 c14 -75 11 -73 87 -73 38 0 69 3 69 7 0 3 -39
158 -87 345 l-87 338 -67 0 -67 0 -20 -77z m111 -242 c10 -54 21 -108 24 -120
5 -19 1 -21 -46 -21 -28 0 -51 3 -51 8 -1 19 45 232 50 232 3 0 13 -44 23 -99z"/>
<path d="M2995 2258 c-3 -7 -4 -162 -3 -343 l3 -330 68 -3 67 -3 0 136 c0 135
0 135 23 135 22 0 28 -12 66 -135 l42 -135 70 0 c38 0 69 4 69 9 0 4 -22 72
-48 150 l-48 141 28 27 c37 35 51 91 46 179 -6 84 -28 129 -78 159 -29 17 -56
21 -167 23 -105 3 -134 1 -138 -10z m233 -130 c7 -7 12 -38 12 -70 0 -50 -3
-60 -24 -73 -14 -9 -37 -15 -53 -13 -28 3 -28 3 -31 86 l-3 82 44 0 c23 0 48
-5 55 -12z"/>
<path d="M3495 2258 c-3 -7 -4 -162 -3 -343 l3 -330 125 0 c136 1 162 8 211
62 46 49 54 92 54 288 0 169 -1 183 -24 228 -15 30 -39 58 -64 75 -38 25 -49
27 -169 31 -101 2 -129 0 -133 -11z m242 -148 c16 -31 18 -316 2 -357 -13 -35
-25 -43 -71 -43 l-38 0 0 216 0 215 47 -3 c39 -2 50 -7 60 -28z"/>
<path d="M4066 2247 c-56 -31 -86 -92 -86 -174 0 -103 24 -134 140 -183 41
-18 81 -39 88 -48 18 -23 15 -107 -4 -126 -33 -34 -94 -7 -94 42 0 21 -5 22
-71 22 l-71 0 7 -47 c16 -106 62 -146 175 -151 63 -3 82 1 119 20 74 38 86 63
86 176 0 120 -16 154 -90 189 -144 68 -140 64 -143 111 -4 49 10 72 44 72 25
0 54 -34 54 -62 0 -15 9 -18 65 -18 l65 0 0 38 c0 54 -38 122 -80 144 -51 27
-153 24 -204 -5z"/>
</g>
</svg>
