<svg xmlns="http://www.w3.org/2000/svg" viewBox="0 0 154.21 154.3"><defs><style>.cls-1{fill:#fff;}</style></defs><title>Recurso 5</title><g id="Capa_2" data-name="Capa 2"><g id="BIO"><path class="cls-1" d="M71.12.15A77.38,77.38,0,0,0,.79,64.25C.06,68.21,0,69,0,77.2s.06,9,.79,13a78.14,78.14,0,0,0,15.27,34.63,98.91,98.91,0,0,0,11.85,12.07,77.58,77.58,0,0,0,38.46,16.94,116.15,116.15,0,0,0,20.17.14c17.69-2.5,33-10,45.16-22.26A77.25,77.25,0,0,0,83.78.23,107,107,0,0,0,71.12.15Zm9.66,10.3a62.44,62.44,0,0,1,24.82,6.34A63,63,0,0,1,123.32,29,67.09,67.09,0,0,1,143.2,67.31a60.64,60.64,0,0,1,.52,9.74c0,8-.55,12.08-2.53,18.89a67.31,67.31,0,0,1-50.87,46.85,68.83,68.83,0,0,1-26.68,0,66.59,66.59,0,0,1-33-17.37A67.36,67.36,0,0,1,10.53,85.93a100.81,100.81,0,0,1,0-17.46A67.21,67.21,0,0,1,40.13,21.36a69,69,0,0,1,33.61-11c.87,0,1.8-.09,2-.12S78.28,10.3,80.78,10.45Z"/><path class="cls-1" d="M26.31,47.43c-.32.73-4.95,18.68-4.95,19.15,0,.17.87.29,2,.29h2l.32-1.6.32-1.6h4.57l.18,1.08c.4,2.18.32,2.12,2.53,2.12a6.1,6.1,0,0,0,2-.18c0-.34-5-19.4-5.13-19.67a5,5,0,0,0-1.89-.23C26.8,46.79,26.54,46.88,26.31,47.43ZM29,56.25c.29,1.42.58,2.91.67,3.26.15.64.06.67-1.37.67s-1.51,0-1.37-.82c.09-.43.41-2,.7-3.46a7.13,7.13,0,0,1,.7-2.47A16.79,16.79,0,0,1,29,56.25Z"/><path class="cls-1" d="M37.86,47c-.12.11-.21,4.65-.21,10.06v9.84h4.08l0-4.89,0-4.86,1,3.11,1,3.15h2l.93-3c.53-1.63,1-3.05,1.14-3.17A33.16,33.16,0,0,1,48,61.86v4.86l2,.09,1.95.09V46.79H48.48l-1.66,4.42c-.9,2.45-1.75,4.63-1.86,4.83s-.85-1.25-2-4.33L41.2,46.94l-1.57-.09A4.14,4.14,0,0,0,37.86,47Z"/><path class="cls-1" d="M55.4,56.83v10h9V63.41l-2.53-.09-2.56-.09L59.25,61l-.09-2.24,2.27-.09,2.27-.08.08-1.84.09-1.8H59.19V50.57h5.23V46.79h-9Z"/><path class="cls-1" d="M67.33,56.8V66.87h3.76L71.18,63c.08-3.7.11-3.84.72-3.93.44-.06.67.09.82.58s.67,2.16,1.22,3.93l1,3.29h2a5.2,5.2,0,0,0,2-.2c0-.15-.61-2-1.33-4.25l-1.34-4,.58-.64c1.66-1.74,2.07-6,.87-8.35-1-2-2.12-2.39-6.69-2.56l-3.73-.15ZM74.06,51a4.47,4.47,0,0,1,.37,2c0,2-.4,2.47-2,2.47H71.12v-5H72.4A2.33,2.33,0,0,1,74.06,51Z"/><path class="cls-1" d="M81.8,47c-.12.11-.21,4.65-.21,10.06v9.84h4.08l-.06-10-.09-10-1.74-.09A5.08,5.08,0,0,0,81.8,47Z"/><path class="cls-1" d="M91.92,47.17a6,6,0,0,0-3,4c-.5,2.29-.41,10.06.11,11.87a5.53,5.53,0,0,0,10.36.78,6.29,6.29,0,0,0,.56-2V61L98,61.11c-1.92.09-1.92.09-2.26,1.1s-.44,1-1.34,1c-1.57,0-1.84-.87-1.87-6,0-4.92.21-6.26,1-6.73a1.48,1.48,0,0,1,2.24,1c.24.94.27.94,2.21,1l2,.09-.17-1a6.25,6.25,0,0,0-2.18-3.9,4.3,4.3,0,0,0-2.94-.84A7.33,7.33,0,0,0,91.92,47.17Z"/><path class="cls-1" d="M106.53,47c-.14.24-5.15,19.47-5.15,19.76a8.94,8.94,0,0,0,2,.12c2.21,0,2.12.06,2.53-2.12l.17-1.08h4.57l.35,1.6.35,1.6h2c1.31,0,2-.12,2-.35,0-.47-4.6-18.3-4.92-19-.23-.5-.55-.61-2-.67A4.84,4.84,0,0,0,106.53,47Zm3.29,12.81c0,.26-.5.38-1.49.38-1.39,0-1.48,0-1.33-.67.08-.35.37-1.75.64-3.12s.58-2.67.67-2.91S109.76,58.72,109.82,59.8Z"/><path class="cls-1" d="M117.88,47c-.12.11-.2,4.65-.2,10.06v9.84h4.07l.06-4.71.08-4.72,2,4.72,2,4.71h3.35V46.76l-1.95.09-2,.09v4.59a33.66,33.66,0,0,1-.15,4.57,41.85,41.85,0,0,1-2.06-4.59l-1.9-4.57-1.6-.09A4.34,4.34,0,0,0,117.88,47Z"/><path class="cls-1" d="M79.47,69.9q-3.41,1.26-3.41,5.41c0,3.17.73,4.1,4.46,5.64,2.21.93,2.53,1.34,2.53,3.2,0,1.11-.12,1.4-.76,1.84s-.84.43-1.54.06a1.64,1.64,0,0,1-.84-1.23c-.09-.78-.15-.78-2.16-.78h-2l.2,1.37c.44,3.14,2,4.3,5.53,4.3,3.78,0,5.32-1.34,5.61-5,.18-2.22-.35-4.51-1.22-5.33a14,14,0,0,0-3-1.6C80.4,76.79,79.7,76,80,74.73c.23-1.08.67-1.46,1.6-1.46a1,1,0,0,1,1.14.76c.17.41.23.87.11,1s.73.26,1.89.26h2.07v-1a5.7,5.7,0,0,0-2.24-4.08A7.22,7.22,0,0,0,79.47,69.9Z"/><path class="cls-1" d="M101.67,69.92a5.13,5.13,0,0,0-2.73,2.62c-.56,1.08-.62,1.6-.62,7.13s.06,6.06.62,7.13a4.92,4.92,0,0,0,2.82,2.62,5.58,5.58,0,0,0,7.68-4.33l.18-1h-2.1c-2,0-2.07,0-2.07.73a1.7,1.7,0,0,1-2,1.45c-1.08-.32-1.37-1.75-1.37-6.55s.29-6.22,1.39-6.52a1.65,1.65,0,0,1,2,1.43c0,.7.06.73,2,.73s2,0,2-.67a7.22,7.22,0,0,0-2.5-4.25A6.44,6.44,0,0,0,101.67,69.92Z"/><path class="cls-1" d="M43.18,79.67v9.9H47V84.71a21.44,21.44,0,0,1,.23-4.6,21.05,21.05,0,0,1,1.1,3.11l.85,2.85h2.09l1-3.14,1-3.11,0,4.86,0,4.89h4.07V69.78H53.8l-1.71,4.66a39.93,39.93,0,0,1-1.89,4.65A21.06,21.06,0,0,1,48.89,76c-.62-1.72-1.37-3.81-1.69-4.66l-.55-1.51H43.18Z"/><path class="cls-1" d="M61.22,77.26a71.62,71.62,0,0,0,.32,8.61c1.31,4.71,8.3,5.38,10.42,1,.58-1.22.61-1.75.61-9.2V69.78H68.5v7.83c0,7.8,0,7.85-.64,8.29-.87.61-1.28.58-2-.12-.55-.55-.58-1-.58-8.29V69.78H61.22Z"/><path class="cls-1" d="M90.61,79.67v9.9H94.4V69.78H90.61Z"/><path class="cls-1" d="M35.62,92.59c0,.06-1.11,4.45-2.48,9.72s-2.47,9.75-2.47,9.92.73.32,1.89.32c2.07,0,2.24-.14,2.59-2.12l.21-1.08h4.53l.35,1.6.35,1.6h2a6.22,6.22,0,0,0,2-.17c0-.09-1.14-4.63-2.53-10L39.6,92.48h-2A9.16,9.16,0,0,0,35.62,92.59Zm2.7,9.17c.29,1.57.61,3.14.7,3.49.15.55,0,.61-1.37.61s-1.51,0-1.36-.81c.08-.44.37-2,.67-3.49a11.4,11.4,0,0,1,.69-2.68A14.54,14.54,0,0,1,38.32,101.76Z"/><path class="cls-1" d="M44.64,93c0,.29.93,4.77,2,10l2,9.46,2.07.09,2.07.08.2-1.1c.12-.61.7-3.73,1.31-6.93s1.11-5.76,1.13-5.67.62,3.14,1.28,6.84l1.23,6.69,2,.09c1.8.08,2,0,2.24-.59s4.07-18.71,4.07-19.23a5.93,5.93,0,0,0-2.18-.2c-1.54,0-2.18.11-2.18.35,0,.81-1.72,12.8-1.81,12.92s-.64-2.89-1.28-6.52l-1.13-6.61-2.21-.09-2.22-.08-.64,3.72c-.37,2-.87,5.07-1.13,6.69a14.6,14.6,0,0,1-.64,3c-.09,0-.55-3-1-6.63l-.87-6.61-2.1-.09C44.87,92.45,44.64,92.51,44.64,93Z"/><path class="cls-1" d="M70.59,94.72c-1.65,6.28-4.42,17.22-4.42,17.51s.61.32,2,.27l2-.09.41-1.54.4-1.52h4.51l.18,1.08c.41,2.18.32,2.12,2.53,2.12a5,5,0,0,0,2-.2c0-.09-1.14-4.6-2.53-10l-2.54-9.83H71.18Zm3.23,7c.29,1.57.61,3.14.7,3.49.15.55,0,.61-1.34.61-.81,0-1.48-.09-1.48-.23a56.28,56.28,0,0,1,1.45-6.75A14.54,14.54,0,0,1,73.82,101.76Z"/><path class="cls-1" d="M82.61,92.83c-.09.2-.11,4.71-.09,10l.09,9.6,2,.09,2,.08v-4c0-3.93,0-3.93.67-3.93s.81.35,1.92,3.93l1.22,3.92h2c1.1,0,2-.11,2-.26s-.64-2.09-1.4-4.36l-1.4-4.11.82-.78c1.07-1,1.48-2.65,1.34-5.21s-.82-3.75-2.27-4.63c-.85-.49-1.63-.61-4.86-.67C83.57,92.45,82.73,92.51,82.61,92.83Zm6.78,3.78a4.1,4.1,0,0,1,.35,2c0,1.45-.09,1.74-.7,2.12a2.64,2.64,0,0,1-1.54.38c-.81-.09-.81-.09-.9-2.5l-.09-2.39h1.28A2.88,2.88,0,0,1,89.39,96.61Z"/><path class="cls-1" d="M97.16,92.83c-.09.2-.12,4.71-.09,10l.09,9.6h3.64c4,0,4.71-.23,6.14-1.81,1.34-1.42,1.57-2.67,1.57-8.38,0-4.91,0-5.32-.7-6.63A5.94,5.94,0,0,0,106,93.41c-1.11-.73-1.43-.79-4.92-.9C98.09,92.45,97.28,92.51,97.16,92.83Zm7,4.3c.47.9.53,9.2.06,10.39-.38,1-.73,1.25-2.06,1.25h-1.11V96.23l1.37.09C103.59,96.38,103.91,96.52,104.2,97.13Z"/><path class="cls-1" d="M113.78,93.15c-1.63.9-2.51,2.67-2.51,5.06,0,3,.7,3.9,4.08,5.32a11.43,11.43,0,0,1,2.56,1.4,4.39,4.39,0,0,1-.12,3.67,1.64,1.64,0,0,1-2.73-1.23c0-.61-.15-.64-2.07-.64h-2.07l.21,1.37c.46,3.09,1.8,4.25,5.09,4.4a5.46,5.46,0,0,0,3.46-.59c2.16-1.1,2.51-1.83,2.51-5.12,0-3.49-.47-4.48-2.62-5.5-4.19-2-4.08-1.86-4.16-3.23S115.7,96,116.69,96a2,2,0,0,1,1.57,1.8c0,.44.26.53,1.89.53H122V97.19A5.33,5.33,0,0,0,119.71,93,7.46,7.46,0,0,0,113.78,93.15Z"/></g></g></svg>