<svg xmlns="http://www.w3.org/2000/svg" viewBox="0 0 112.77 106.06"><defs><style>.cls-1{fill:#f2f2f2;}</style></defs><title>Recurso 7</title><g id="Capa_2" data-name="Capa 2"><g id="BIO"><path class="cls-1" d="M10.8,44.32C6.26,68.94,1.71,92.8.58,97.35c-1.52,7.2-.38,8.71,7.57,8.71,8.33,0,10.23-2.27,12.5-13.26,2.27-12.12,3.41-13.25,14.77-13.25,11.75,0,12.88,1.13,14,12.12.76,9.47,3,12.88,9.85,13.64,10.6,1.51,10.6,0,.76-56.07C55.88,25.38,52.47,4.55,52.47,2.65,52.47,1.14,44.89,0,35.8,0H19.14ZM36.18,59.85c-3.79.76-7.57.76-8.33,0s.76-11.36,3-23.86l4.17-22.73L39.21,36C43,56.82,42.62,58.71,36.18,59.85Z"/><path class="cls-1" d="M87.7,3.79c-18.94,7.57-21.21,28.41-4.55,47,13.26,15.53,13.64,28.79.76,34.47-5.3,2.27-8.71,6.82-8.71,12.12,0,10.61,5.68,11,21.59,1.14C117.24,86.37,118,64,99.44,42.05,90,30.68,89.21,18.94,97.93,18.94c1.89,0,3.78-4.17,3.78-9.47C101.71-.76,100.58-1.14,87.7,3.79Z"/><path class="cls-1" d="M72.55,64.77c-6.06,6.06-1.9,14.78,6.44,14.78,9.47,0,13.25-6.82,7.57-13.26C80.88,59.47,78.23,59.09,72.55,64.77Z"/></g></g></svg>