<svg xmlns="http://www.w3.org/2000/svg" viewBox="0 0 271.42 135.1"><defs><style>.cls-1{fill:#fff;}</style></defs><title>Recurso 6</title><g id="Capa_2" data-name="Capa 2"><g id="BIO"><path class="cls-1" d="M68.2.16c37.19.17,98.23.17,135.5,0S210.46,0,135.91,0,30.93.08,68.2.16Z"/><path class="cls-1" d="M43.54,9.77c-6.35,6.26,2.6,15.62,9.69,10.09,1.7-1.3,2.11-2.36,2.11-5.21s-.41-3.91-2.11-5.21A7.3,7.3,0,0,0,43.54,9.77Z"/><path class="cls-1" d="M.41,10.34C.16,10.91.08,23,.16,37L.41,62.67l5.94.24c5.45.24,5.86.08,5.86-1.46,0-2,.08-2,3.74.16S26,64,29.71,62.1C40.29,56.48,43.7,42.24,37,32c-4.15-6.26-14.41-9.6-20.92-6.91l-3,1.3-.24-8.3-.25-8.3L6.67,9.52C2.44,9.36.65,9.6.41,10.34ZM25.8,38.82c2.6,2.44,2.6,7.81.08,10.25-2.69,2.45-5.7,2.93-8.71,1.47A6.89,6.89,0,0,1,13,43.78C13,37.19,20.83,34.18,25.8,38.82Z"/><path class="cls-1" d="M57.78,36.22V63.07H70V9.36H57.78Z"/><path class="cls-1" d="M72.84,10.42C72.59,11,72.51,23,72.59,37l.25,25.64,6.35.24,6.26.24V9.36h-6.1C75.12,9.36,73.08,9.68,72.84,10.42Z"/><path class="cls-1" d="M88.71,36.22V63.15l5.94-.24c5-.24,5.86-.41,5.62-1.71-.33-1.79-.09-1.79,3.58.41A15.25,15.25,0,0,0,119,61.2c3.58-2,7.33-6.59,8.39-10.17.65-2.2,2-2.36,2-.25s6.1,8.79,9.69,10.58c7.81,3.91,15.95,2.45,22.21-4.07,2.12-2.11,4.07-4.88,4.4-6,.65-2.68,1.71-2.6,2.36.25.65,3.17,4.8,8,8.38,9.84,4.72,2.36,9,2.77,13.59,1.22,2.77-.89,4.07-1,4.32-.4s2.6.89,6.34.89h6V24.82h-6.11c-4.88,0-6.1.25-6.1,1.22,0,1.55.16,1.55-3.66-.4-8.06-4.07-18.32.32-22.55,9.76l-1.71,3.66-.65-2.44c-1.06-3.66-5.29-8.38-9.76-10.58-9.69-5-22.14-.4-26.45,9.77l-1.39,3.25-1.14-2.84c-4-9.61-14.73-14.65-23.44-11.07l-2.84,1.22v-17H88.71ZM113.86,39c3.82,3.83,1.62,10.91-3.75,12.29a7.47,7.47,0,0,1-8-3.74c-1.47-2.77-1.47-4.64-.08-7.16C104.5,36,110.11,35.32,113.86,39Zm38.49-1.14c2.61,2,3.26,5.29,1.87,8.71-2.44,5.86-10.09,5.94-13.1.16C137.54,39.72,146.17,32.88,152.35,37.84Zm37.44-.73a8.64,8.64,0,0,1,2.77,3.66c3.25,7.74-6.84,14-12.21,7.57-2.85-3.33-2.77-6.75.24-9.76A7.68,7.68,0,0,1,189.79,37.11Z"/><path class="cls-1" d="M259.37,9.85c-.32.32-.57,4.15-.57,8.54v8l-3-1.3c-6.51-2.69-16,.32-20.26,6.34-6,8.71-5.29,19.62,1.95,27,5.13,5.21,12.7,6.43,18.72,2.93,3.33-2,3.42-2,3.42.09,0,1.54.4,1.7,5.94,1.46l5.86-.24V9.77l-5.7-.25C262.55,9.44,259.7,9.52,259.37,9.85Zm-2.93,28.73c3.91,3.9,3.09,9.44-1.79,11.88s-10.5-1.14-10.5-6.76c0-3.66,3.75-7.48,7.33-7.48A6.78,6.78,0,0,1,256.44,38.58Z"/><path class="cls-1" d="M227.06,24.9A14.54,14.54,0,0,0,223.64,27c-1.38,1.22-1.46,1.22-1.46-.41s-.41-1.79-6.1-1.79H210V63.07h12.21V52.9c0-5.62.41-11,.89-12a7.5,7.5,0,0,1,6-3.82c1,0,1.22-1.38,1.22-6.51,0-3.58-.25-6.51-.57-6.43A14.56,14.56,0,0,0,227.06,24.9Z"/><path class="cls-1" d="M42.32,44V63.07H54.53V24.82H42.32Z"/><path class="cls-1" d="M.81,77.56c0,.65,269.47.32,270.12-.33.16-.16-60.47-.32-134.86-.32S.81,77.23.81,77.56Z"/><path class="cls-1" d="M.57,92.05c-.33.32-.57,6-.57,12.69v12.05H4.8L5.05,110l.24-6.67,3,4.64c3.91,6,5.29,6.1,8.87.24,2.36-3.91,4.15-5.7,3.91-3.91-.08.41-.08,3.34,0,6.52.08,5.77.16,5.94,2.11,5.94h2V104.17c0-11.8-.08-12.61-1.55-12.61-1.06,0-2.85,2.28-5.86,7.32-2.44,4-4.72,7.16-5.12,7.08a49.65,49.65,0,0,1-4.89-7.08C3.91,92.45,2,90.66.57,92.05Z"/><path class="cls-1" d="M31.09,101.73c.24,9.77.32,10.25,2.44,12.29,2.77,2.85,9.6,3.66,13.51,1.63,4.15-2.12,5.05-4.89,5.05-15.14v-9H47.2v9.19c0,10.58-.73,12-5.94,12a5,5,0,0,1-4.56-2.12C35.24,108.73,35,107.26,35,100V91.56H30.76Z"/><path class="cls-1" d="M59.82,92.45c-3.5,2.12-4.64,5.62-2.85,9,.49.82,3.09,2.69,5.78,4.07,4.39,2.2,4.88,2.69,4.64,4.64s-.65,2.28-3,2.44a9,9,0,0,1-4.63-.73c-1.55-.81-2.12-.73-3.18.08a3.39,3.39,0,0,0-1.22,1.71c0,1.39,4.88,3.18,8.55,3.18,3.09,0,4.23-.41,6.18-2.36,4.23-4.24,2.69-8.63-4.07-12.05-3.74-1.87-4.55-2.68-4.55-4.31,0-2,.24-2,4.23-2C68.77,96.2,70,96,70.4,95a2.21,2.21,0,0,0-.33-2C68.85,91.72,61.61,91.39,59.82,92.45Z"/><path class="cls-1" d="M77.32,104.17v12.62h4.06V91.56H77.32Z"/><path class="cls-1" d="M93.59,93c-8.46,4.23-8.87,17.09-.65,22.14,3.17,2,9.2,2.11,13.19.49,3.49-1.47,4.23-2.77,2.68-4.4-1.14-1.14-1.46-1.14-3.34.08-3.17,2.12-8.79,1.79-11.31-.57a8.58,8.58,0,0,1-1.87-10.09c2.44-4.8,7.32-6.35,12-3.9,1.55.81,2.36.89,3,.24,1.62-1.63,1-3.09-2-4.31A14.51,14.51,0,0,0,93.59,93Z"/><path class="cls-1" d="M132.66,95.79c-1.06,2.36-3.42,8.06-5.37,12.61l-3.5,8.39h2.36c2,0,2.6-.49,3.66-2.85L131,111l5.12.24c4.89.25,5.21.33,6.27,2.85,1,2.12,1.71,2.69,3.5,2.69,1.22,0,2.28-.08,2.28-.25s-4.72-11.39-6.92-16.44c-.57-1.38-1.63-3.82-2.36-5.53C137.05,90.09,134.94,90.5,132.66,95.79Zm6.18,11a8.87,8.87,0,0,1-3.25.08l-2.85-.25,1.63-3.66L136,99.29l1.63,3.58C138.52,104.82,139,106.61,138.84,106.78Z"/><path class="cls-1" d="M146.49,92.53c.08.57,1.87,6.19,4,12.46,3.17,9.27,4.23,11.47,5.62,11.63s2-.81,4.23-7.57c1.46-4.31,2.85-7.56,3.09-7.32s1.63,3.66,3,7.57c1.95,5.37,2.93,7.16,4.15,7.32,1.39.17,2.12-1.3,5.45-11.39,2.12-6.43,3.83-12.13,3.83-12.7s-.81-1-1.87-1c-1.87,0-2.85,2.11-6.84,14.65-.49,1.71-1.06.48-3.91-8-2-5.86-2.52-6.75-4-6.51s-2.2,1.71-4.15,7.32a60.93,60.93,0,0,1-2.93,7.49c-.25.33-1.55-2.85-2.85-7-2.2-6.91-2.61-7.57-4.64-7.81C147.31,91.56,146.49,91.8,146.49,92.53Z"/><path class="cls-1" d="M184.74,101.49c-2.36,5.53-4.8,11.23-5.37,12.61-1.14,2.69-1.14,2.69,1.14,2.69,1.79,0,2.6-.57,3.66-2.85,1.39-2.85,1.39-2.85,6.59-2.85H196l1,2.85c.81,2.36,1.3,2.85,3.34,2.85,1.3,0,2.36-.17,2.36-.41s-2.36-5.78-5.21-12.37C190.6,88.3,190.44,88.22,184.74,101.49Zm7.73,2c.65,1.63,1.06,3.09.9,3.26a8.54,8.54,0,0,1-3.17.08l-2.85-.25,1.22-3.09c.65-1.63,1.54-3,2-3S191.82,101.81,192.47,103.52Z"/><path class="cls-1" d="M206.55,92.05c-.4.32-.65,6-.65,12.69v12.05h2.44c2.36,0,2.36,0,2.61-5.46.16-3,.65-5.53,1.14-5.69s2.85,2.28,5.21,5.45c3.9,5,4.72,5.7,7.08,5.7,1.46,0,2.68-.25,2.68-.49s-1.79-2.61-4.07-5.21a48.57,48.57,0,0,1-4.07-5.13,8.62,8.62,0,0,1,2-2.52c2.6-2.6,2.68-6.19.08-9.2-1.71-2-2.6-2.28-7.89-2.52C209.81,91.56,206.88,91.72,206.55,92.05Zm11.07,4.88c2.2,2.11.33,4.39-3.58,4.39-3,0-3.25-.16-3.25-2.28,0-1.3.24-2.6.57-2.84C212.33,95.14,216.4,95.63,217.62,96.93Z"/><path class="cls-1" d="M231,92.05c-.41.32-.65,6-.65,12.69v12.05h5.86c7.89,0,12.12-2,14.57-7,2.84-6,1.3-11.88-4.32-16C244.32,92.13,232.11,90.74,231,92.05Zm11.39,4.47c3.26,1.14,5,4,5,8.06,0,4.88-3.34,8.14-8.47,8.14H235.2v-8c0-4.39.24-8.3.57-8.54C236.58,95.38,239.51,95.55,242.36,96.52Z"/><path class="cls-1" d="M260.84,92.13c-2.85.73-5.29,3.58-5.29,6.26,0,3.58,1,4.64,6.26,7.41,3.83,2,4.72,2.85,4.72,4.48,0,2.93-3.33,3.9-7,2.11-2.36-1.14-2.84-1.22-3.9-.16-1.63,1.71,0,3.5,4.15,4.64,6.27,1.63,11.56-1.55,11.56-6.92,0-3.58-1.39-5.21-6.6-7.49-4.64-2-5.37-2.85-4.64-4.72s3.83-2.44,6-1.3c1.3.73,2,.73,2.93-.08,1.95-1.63,1.3-3.09-1.88-3.91S263.44,91.48,260.84,92.13Z"/><path class="cls-1" d="M.33,127.69a12.85,12.85,0,0,0-.17,4.23l.25,3.18h271V127l-135.35-.24C20.83,126.55.73,126.72.33,127.69Z"/></g></g></svg>