<?xml version="1.0" standalone="no"?>
<!DOCTYPE svg PUBLIC "-//W3C//DTD SVG 20010904//EN"
 "http://www.w3.org/TR/2001/REC-SVG-20010904/DTD/svg10.dtd">
<svg version="1.0" xmlns="http://www.w3.org/2000/svg"
 width="388.000000pt" height="257.000000pt" viewBox="0 0 388.000000 257.000000"
 preserveAspectRatio="xMidYMid meet">

<g transform="translate(0.000000,257.000000) scale(0.100000,-0.100000)"
fill="#000000" stroke="none">
<path d="M1108 2163 c457 -2 1207 -2 1665 0 457 1 83 2 -833 2 -916 0 -1290
-1 -832 -2z"/>
<path d="M805 2045 c-78 -77 32 -192 119 -124 21 16 26 29 26 64 0 35 -5 48
-26 64 -37 29 -89 27 -119 -4z"/>
<path d="M275 2038 c-3 -7 -4 -155 -3 -328 l3 -315 73 -3 c67 -3 72 -1 72 18
0 25 1 25 46 -2 46 -27 124 -29 169 -6 130 69 172 244 90 370 -51 77 -177 118
-257 85 l-37 -16 -3 102 -3 102 -73 3 c-52 2 -74 -1 -77 -10z m312 -350 c32
-30 32 -96 1 -126 -33 -30 -70 -36 -107 -18 -36 19 -51 44 -51 83 0 81 96 118
157 61z"/>
<path d="M980 1720 l0 -330 75 0 75 0 0 330 0 330 -75 0 -75 0 0 -330z"/>
<path d="M1165 2037 c-3 -7 -4 -154 -3 -327 l3 -315 78 -3 77 -3 0 331 0 330
-75 0 c-52 0 -77 -4 -80 -13z"/>
<path d="M1360 1720 l0 -331 73 3 c62 3 72 5 69 21 -4 22 -1 22 44 -5 53 -31
128 -30 186 5 44 25 90 81 103 125 8 27 25 29 25 3 0 -26 75 -108 119 -130 96
-48 196 -30 273 50 26 26 50 60 54 74 8 33 21 32 29 -3 8 -39 59 -99 103 -121
58 -29 111 -34 167 -15 34 11 50 13 53 5 2 -7 32 -11 78 -11 l74 0 0 235 0
235 -75 0 c-60 0 -75 -3 -75 -15 0 -19 2 -19 -45 5 -99 50 -225 -4 -277 -120
l-21 -45 -8 30 c-13 45 -65 103 -120 130 -119 61 -272 5 -325 -120 l-17 -40
-14 35 c-49 118 -181 180 -288 136 l-35 -15 0 105 0 104 -75 0 -75 0 0 -330z
m309 -34 c47 -47 20 -134 -46 -151 -36 -9 -81 12 -98 46 -18 34 -18 57 -1 88
30 54 99 62 145 17z m473 14 c32 -24 40 -65 23 -107 -30 -72 -124 -73 -161 -2
-44 86 62 170 138 109z m460 9 c11 -6 26 -26 34 -45 40 -95 -84 -172 -150 -93
-35 41 -34 83 3 120 31 31 75 38 113 18z"/>
<path d="M3457 2044 c-4 -4 -7 -51 -7 -105 l0 -98 -37 16 c-80 33 -197 -4
-249 -78 -74 -107 -65 -241 24 -332 63 -64 156 -79 230 -36 41 24 42 24 42 -1
0 -19 5 -21 73 -18 l72 3 0 325 0 325 -70 3 c-39 1 -74 0 -78 -4z m-36 -353
c48 -48 38 -116 -22 -146 -59 -31 -129 14 -129 83 0 45 46 92 90 92 22 0 41
-9 61 -29z"/>
<path d="M3060 1859 c-13 -6 -33 -17 -42 -26 -17 -15 -18 -15 -18 5 0 21 -5
22 -75 22 l-75 0 0 -235 0 -235 75 0 75 0 0 125 c0 69 5 135 11 148 11 25 47
47 74 47 12 0 15 17 15 80 0 44 -3 80 -7 79 -5 0 -19 -5 -33 -10z"/>
<path d="M790 1625 l0 -235 75 0 75 0 0 235 0 235 -75 0 -75 0 0 -235z"/>
<path d="M280 1212 c0 -8 3311 -4 3319 4 2 2 -743 4 -1657 4 -914 0 -1662 -4
-1662 -8z"/>
<path d="M277 1034 c-4 -4 -7 -74 -7 -156 l0 -148 30 0 29 0 3 83 3 82 37 -57
c48 -74 65 -75 109 -3 29 48 51 70 48 48 -1 -5 -1 -41 0 -80 1 -71 2 -73 26
-73 l25 0 0 155 c0 145 -1 155 -19 155 -13 0 -35 -28 -72 -90 -30 -49 -58 -88
-63 -87 -4 2 -32 41 -60 87 -48 79 -72 101 -89 84z"/>
<path d="M652 915 c3 -120 4 -126 30 -151 34 -35 118 -45 166 -20 51 26 62 60
62 186 l0 110 -30 0 -30 0 0 -113 c0 -130 -9 -147 -73 -147 -27 0 -41 7 -56
26 -18 23 -21 41 -21 130 l0 104 -26 0 -26 0 4 -125z"/>
<path d="M1005 1029 c-43 -26 -57 -69 -35 -110 6 -10 38 -33 71 -50 54 -27 60
-33 57 -57 -3 -23 -8 -28 -37 -30 -19 -2 -45 2 -57 9 -19 10 -26 9 -39 -1 -8
-7 -15 -16 -15 -21 0 -17 60 -39 105 -39 38 0 52 5 76 29 52 52 33 106 -50
148 -46 23 -56 33 -56 53 0 24 3 25 52 24 38 -1 53 2 58 14 3 8 1 20 -4 25
-15 15 -104 19 -126 6z"/>
<path d="M1220 885 l0 -155 25 0 25 0 0 155 0 155 -25 0 -25 0 0 -155z"/>
<path d="M1420 1022 c-104 -52 -109 -210 -8 -272 39 -24 113 -26 162 -6 43 18
52 34 33 54 -14 14 -18 14 -41 -1 -39 -26 -108 -22 -139 7 -34 31 -44 84 -23
124 30 59 90 78 148 48 19 -10 29 -11 37 -3 20 20 12 38 -24 53 -46 19 -102
18 -145 -4z"/>
<path d="M1900 988 c-13 -29 -42 -99 -66 -155 l-43 -103 29 0 c25 0 32 6 45
35 l14 36 63 -3 c60 -3 64 -4 77 -35 12 -26 21 -33 43 -33 15 0 28 1 28 3 0 3
-58 140 -85 202 -7 17 -20 47 -29 68 -22 55 -48 50 -76 -15z m76 -135 c-2 -2
-20 -3 -40 -1 l-35 3 20 45 20 45 20 -44 c11 -24 17 -46 15 -48z"/>
<path d="M2070 1028 c1 -7 23 -76 49 -153 39 -114 52 -141 69 -143 17 -3 24
10 52 93 18 53 35 93 38 90 4 -3 20 -45 37 -93 24 -66 36 -88 51 -90 17 -2 26
16 67 140 26 79 47 149 47 156 0 6 -10 12 -23 12 -23 0 -35 -26 -84 -180 -6
-21 -13 -6 -48 98 -24 72 -31 83 -49 80 -17 -2 -27 -21 -51 -90 -16 -47 -33
-89 -36 -92 -3 -4 -19 35 -35 86 -27 85 -32 93 -57 96 -17 2 -27 -1 -27 -10z"/>
<path d="M2540 918 c-29 -68 -59 -138 -66 -155 -14 -33 -14 -33 14 -33 22 0
32 7 45 35 17 35 17 35 81 35 l64 0 12 -35 c10 -29 16 -35 41 -35 16 0 29 2
29 5 0 2 -29 71 -64 152 -84 193 -86 194 -156 31z m95 -25 c8 -20 13 -38 11
-40 -2 -2 -20 -3 -39 -1 l-35 3 15 38 c8 20 19 37 24 37 5 0 16 -16 24 -37z"/>
<path d="M2808 1034 c-5 -4 -8 -74 -8 -156 l0 -148 30 0 c29 0 29 0 32 67 2
37 8 68 14 70 6 2 35 -28 64 -67 48 -62 58 -70 87 -70 18 0 33 3 33 6 0 4 -22
32 -50 64 -27 32 -50 60 -50 63 0 4 11 17 25 31 32 32 33 76 1 113 -21 25 -32
28 -97 31 -41 2 -77 0 -81 -4z m136 -60 c27 -26 4 -54 -44 -54 -37 0 -40 2
-40 28 0 16 3 32 7 35 12 13 62 7 77 -9z"/>
<path d="M3108 1034 c-5 -4 -8 -74 -8 -156 l0 -148 72 0 c97 0 149 25 179 86
35 74 16 146 -53 197 -26 20 -176 37 -190 21z m140 -55 c40 -14 62 -49 62 -99
0 -60 -41 -100 -104 -100 l-46 0 0 98 c0 54 3 102 7 105 10 10 46 8 81 -4z"/>
<path d="M3475 1033 c-35 -9 -65 -44 -65 -77 0 -44 12 -57 77 -91 47 -24 58
-35 58 -55 0 -36 -41 -48 -86 -26 -29 14 -35 15 -48 2 -20 -21 0 -43 51 -57
77 -20 142 19 142 85 0 44 -17 64 -81 92 -57 25 -66 35 -57 58 8 22 47 30 74
16 16 -9 25 -9 36 1 24 20 16 38 -23 48 -40 11 -46 12 -78 4z"/>
<path d="M274 596 c-3 -8 -4 -31 -2 -52 l3 -39 1665 0 1665 0 0 50 0 50 -1663
3 c-1416 2 -1663 0 -1668 -12z"/>
</g>
</svg>
