<svg xmlns="http://www.w3.org/2000/svg" viewBox="0 0 127.93 154.34"><defs><style>.cls-1{fill:#fff;}</style></defs><title>Recurso 4</title><g id="Capa_2" data-name="Capa 2"><g id="BIO"><path class="cls-1" d="M59.42,0a59.43,59.43,0,1,0,59.43,59.43A59.42,59.42,0,0,0,59.42,0Zm0,115.08a55.65,55.65,0,1,1,55.65-55.65A55.65,55.65,0,0,1,59.42,115.08ZM52.19,6.73a.26.26,0,0,1,.18.27c-.25,3-.57,12,3.52,16.27,5,5.17,37.09,38.47,40.27,41.65,3.5,3.5,5,8.54,2.8,13.33-1.48,3.19-4.33,5.29-7.11,5.47-2,.13-10.28,0-10.28,0l0-6s2.89,0,5.47.08c5.6.22,7.37-7.51.88-10.31-6.13-2.65-42.19-13.71-46.36-14.9S28,50.06,20.87,57.24c-.4.41-.59.45-.78.34s-.12-.27,0-.54L51.91,6.86A.24.24,0,0,1,52.19,6.73ZM79,86.57H38.66V72.19H79ZM83,90l9.63,10.94H25.07L34.84,90m0,0H83M25.09,134.79a8,8,0,0,1-5.89,2.33,8.19,8.19,0,0,1-3.41-.7,8.5,8.5,0,0,1-2.81-2,7.84,7.84,0,0,1-1.59-2.58,8.82,8.82,0,0,1-.53-3.1,7.88,7.88,0,0,1,.65-3.19,8.39,8.39,0,0,1,1.92-2.72A7.85,7.85,0,0,1,16.1,121a8.88,8.88,0,0,1,3.29-.58,8.37,8.37,0,0,1,4.37,1.13,7.15,7.15,0,0,1,1.53,1.25l-1.79,1.79a5.2,5.2,0,0,0-1.78-1.32,6.1,6.1,0,0,0-2.52-.51,5.57,5.57,0,0,0-2.22.44,5.49,5.49,0,0,0-1.86,1.23,6.07,6.07,0,0,0-1.33,2,5.94,5.94,0,0,0-.47,2.29,6.42,6.42,0,0,0,.43,2.36A5.32,5.32,0,0,0,15,133a6,6,0,0,0,1.95,1.34,5.79,5.79,0,0,0,2.26.47,5.69,5.69,0,0,0,3.31-1,6.47,6.47,0,0,0,1.15-1l-.07-2.75-4.34,0L21,127.75H26l.06,5.8A8.55,8.55,0,0,1,25.09,134.79Zm14.43-4.39,5,6.45H41.27L35,128.6h2.06c3.38,0,3.64-1.9,3.64-3s-.35-2.8-3.76-2.8H34.65v14H32.2v-16.2h5.4c1.92-.07,5.26.86,5.42,4.84C43.16,128.74,41.4,130,39.52,130.4Zm16.66-9.71-1.92,0-6.59,16.22h2.49L51.72,133h6.82L60,136.84h2.54ZM52.52,131l2.64-6.81L57.75,131Zm17,5.9h-2.4V120.63l2.38.07,6.18,11.54L82,120.63h2.49v16.25H81.91l0-10.92-6.28,11.49L69.58,126Zm23.31,0h-2.4V120.63l2.38.07L99,132.24l6.27-11.61h2.49v16.25h-2.56l0-10.92L99,137.45,92.89,126Zm18.85-16.29h2.76l4,7.1,3.94-7.1h2.82l-5.53,9.8v6.53h-2.46v-6.59Zm-49,29.18L61,154.05H58.76l5.73-14.68h2.07l5.74,14.68H70l-1.62-4.28Zm4.93-2.06-2.07-5.57-2.11,5.57Zm11.21-1.17-2.28,7.51H75.39L71.57,143h2.11L76,150.29,78.23,143h1.21l2.24,7.33L84,143h2.1l-3.85,11.09H81.09Zm17.5,7.51v-1.38a5.13,5.13,0,0,1-1.71,1.22,5,5,0,0,1-2,.41,5.62,5.62,0,0,1-4.15-1.67,5.72,5.72,0,0,1-1.65-4.17,6.12,6.12,0,0,1,.41-2.22,5.63,5.63,0,0,1,1.18-1.84,5.46,5.46,0,0,1,1.83-1.3,5.73,5.73,0,0,1,2.26-.42,5.35,5.35,0,0,1,2.1.41,5.06,5.06,0,0,1,1.74,1.22V143h2v11.09Zm-7.45-5.62A3.85,3.85,0,0,0,90,151.24a3.68,3.68,0,0,0,2.73,1.14,3.53,3.53,0,0,0,2.59-1.14,3.69,3.69,0,0,0,1.12-2.67,3.88,3.88,0,0,0-1.11-2.79,3.51,3.51,0,0,0-2.64-1.16,3.79,3.79,0,0,0-3.8,3.81Zm13.82,5.62h-2V143h1.89v1.28a3.37,3.37,0,0,1,1.13-1.1,3.21,3.21,0,0,1,1.48-.37v2.1a2.6,2.6,0,0,0-1.91.79,3.39,3.39,0,0,0-.58,2.22Zm12.9,0v-1.38a5.13,5.13,0,0,1-1.71,1.22,5.05,5.05,0,0,1-2,.41,5.62,5.62,0,0,1-4.15-1.67,5.72,5.72,0,0,1-1.65-4.17,6.12,6.12,0,0,1,.41-2.22,5.63,5.63,0,0,1,1.18-1.84,5.46,5.46,0,0,1,1.83-1.3,5.73,5.73,0,0,1,2.26-.42,5.34,5.34,0,0,1,2.09.41,5.41,5.41,0,0,1,1.77,1.22v-4.94h2v14.68Zm-7.45-5.62a3.85,3.85,0,0,0,1.11,2.81,3.66,3.66,0,0,0,2.73,1.14,3.55,3.55,0,0,0,2.59-1.14,3.69,3.69,0,0,0,1.12-2.67,3.88,3.88,0,0,0-1.11-2.79,3.54,3.54,0,0,0-2.64-1.16,3.79,3.79,0,0,0-3.8,3.81Zm11,2H121a2.12,2.12,0,0,0,.5,1.45,1.54,1.54,0,0,0,1.23.57,1.58,1.58,0,0,0,1.15-.43,1.43,1.43,0,0,0,.45-1.09,1.62,1.62,0,0,0-.32-1,2.48,2.48,0,0,0-1-.68l-.69-.27a6.62,6.62,0,0,1-1.51-.7,3,3,0,0,1-.88-1.07,3.38,3.38,0,0,1-.28-1.39,3.23,3.23,0,0,1,3.25-3.25,3.07,3.07,0,0,1,2.27.84,3.39,3.39,0,0,1,.91,2.33h-1.91a1.46,1.46,0,0,0-.4-.95,1.31,1.31,0,0,0-1-.35,1.19,1.19,0,0,0-.9.37,1.26,1.26,0,0,0-.36.91q0,.93,1.62,1.53l.72.27a4,4,0,0,1,1.81,1.28,3.56,3.56,0,0,1,.54,2.05,3.36,3.36,0,0,1-1,2.49,3.51,3.51,0,0,1-2.54,1,3.18,3.18,0,0,1-2.49-1A4.44,4.44,0,0,1,119.14,150.45Zm7.64-29.88a1.15,1.15,0,1,0,1.15,1.14A1.15,1.15,0,0,0,126.78,120.57Zm0,2.07a.93.93,0,1,1,.93-.93A.93.93,0,0,1,126.78,122.64Zm.44-.93a.46.46,0,0,0,0-.2.36.36,0,0,0-.09-.24.32.32,0,0,0-.24-.09h-.55v1.07h.24v-.38h.18l.19.38h.27l-.2-.41A.37.37,0,0,0,127.22,121.71Zm-.23-.09a.15.15,0,0,1-.11,0h-.25v-.27h.25a.2.2,0,0,1,.11,0,.18.18,0,0,1,0,.2Z"/></g></g></svg>