<svg xmlns="http://www.w3.org/2000/svg" viewBox="0 0 129.02 130.26"><defs><style>.cls-1{fill:#f2f2f2;}</style></defs><title>Recurso 8</title><g id="Capa_2" data-name="Capa 2"><g id="BIO"><path class="cls-1" d="M52,1.28C39.26,3.88,29.67,9,20.09,18.12a65,65,0,0,0-17,26.16C-.25,53.69-1,69.81,1.36,80.2c2.15,9.86,8.24,21.24,15.23,28.85A64.74,64.74,0,0,0,123.73,91.67c3.68-8.15,5.29-16,5.29-26.87a62,62,0,0,0-17.11-43.72C96.14,4.24,73.84-3.2,52,1.28ZM81.72,18.66c16.48,5.2,28,21.68,29.92,42.55.63,7.26-.09,9.5-3.31,9.5-3,0-4.12-2.33-4.66-9.59-.9-12.63-6.54-24.19-14.78-30.28-4.39-3.22-13.71-6.72-18.1-6.72H68.37l-.54,10c-.35,5.55-.62,18.54-.62,28.75V81.64L70.07,88c2.42,5.46,2.87,7.52,2.87,13.62.09,5.82-.36,8-2.06,11.46-2.24,4.66-5.29,7.26-7.53,6.36-2.5-.89-2.5-3.22-.08-6.81C65.86,109,67.12,101.7,66,97.05c-.8-3.23-2.15-1.8-3.58,3.76-1.17,4.57-3,5.91-5.47,3.94-2.77-2.33-.89-10.21,3.41-14.15,2.15-2,2.15-2.24,1.07-6-1-3-1.07-10.21-.71-32.16l.53-28.31H58.61c-11.47.09-24.1,8-29.66,18.55-3.58,6.72-4.83,10.75-6,19.44-1.16,7.7-2.69,9.94-5.64,8.06C13.64,67.84,15.52,52.79,21,41.5A40.92,40.92,0,0,1,40.69,21.44a70.75,70.75,0,0,1,11.74-4.39C59.5,15.61,74.73,16.51,81.72,18.66ZM56.37,49.84c0,28.57-.54,32.42-5.65,42.91-4.92,10.21-5.1,12.63-1.34,15.94,5.28,4.75,1.25,9.14-4.57,5a12.68,12.68,0,0,1-5.37-10c0-1.62,2-7.08,4.74-12.82L48.84,81l.45-20.6c.27-11.38.36-20.79.27-21-.36-.53-5.56,3.5-7.71,6.18-2.68,3.14-6,11.56-6,15.14,0,3.23-2,4.93-4.92,4.21-2-.53-2.24-1-2.24-5,0-8.33,5.19-18.46,12.54-24.37,3-2.33,11.46-6,14.15-6.09C56.19,29.5,56.46,34.16,56.37,49.84ZM81.09,32.19c7.53,3.22,13.35,10.12,16.58,19.71,2.15,6.45,2.06,11.46-.18,12.9-2.69,1.61-4.57-.45-6.1-6.72-1.88-7.62-4.56-12.54-8.68-15.95a16.65,16.65,0,0,0-3.5-2.51c-.09.09-.45,8.78-.81,19.17l-.62,19.09L82.71,83C88.89,89.52,89.6,91,89.6,96.87c-.09,6.63-2.68,12.36-5.82,12.36s-3.67-2.06-1.88-7.08c2.24-6.36,1.88-7.79-3.41-13.35a61.84,61.84,0,0,1-5.82-7.07c-1.07-2.06-1.43-50.53-.45-51.6C73,29.41,76.52,30.22,81.09,32.19Z"/></g></g></svg>