<?xml version="1.0" encoding="utf-8"?>
<!-- Generator: Adobe Illustrator 24.0.1, SVG Export Plug-In . SVG Version: 6.00 Build 0)  -->
<svg version="1.1" id="Capa_1" xmlns="http://www.w3.org/2000/svg" xmlns:xlink="http://www.w3.org/1999/xlink" x="0px" y="0px"
	 viewBox="0 0 425.2 350.4" style="enable-background:new 0 0 425.2 350.4;" xml:space="preserve">
<title>PRIMAVERA_SOUND_logo_negro_web</title>
<g>
	<path d="M61.2,232.4c-5.6,0-10.1,4.5-10.1,10.1v24.4c-0.2,5.6,4.2,10.2,9.8,10.4c5.6,0.2,10.2-4.2,10.4-9.8c0-0.2,0-0.4,0-0.6
		v-24.4C71.3,236.9,66.8,232.4,61.2,232.4z M65.4,266.9c0.1,2.3-1.7,4.3-4,4.4c-2.3,0.1-4.3-1.7-4.4-4c0-0.1,0-0.3,0-0.4v-24.4
		c-0.1-2.3,1.7-4.3,4-4.4c2.3-0.1,4.3,1.7,4.4,4c0,0.1,0,0.3,0,0.4V266.9z"/>
	<path d="M61.2,224c-10.2,0-18.5,8.3-18.5,18.5v24.4c0,10.2,8.3,18.5,18.5,18.5l0,0c10.2,0,18.5-8.3,18.5-18.5v-24.4
		C79.7,232.3,71.4,224,61.2,224z M73.9,266.9c0.2,7-5.3,12.8-12.3,13c-7,0.2-12.8-5.3-13-12.3c0-0.2,0-0.5,0-0.7v-24.4
		c-0.2-7,5.3-12.8,12.3-13c7-0.2,12.8,5.3,13,12.3c0,0.2,0,0.5,0,0.7V266.9z"/>
	<path d="M122.9,225h-11.7c-0.7,0-1.3,0.6-1.3,1.3c0,0,0,0.1,0,0.1v40.5c-0.1,2.3-2.1,4.1-4.4,4c-2.2-0.1-3.9-1.8-4-4v-40.6
		c0-0.7-0.6-1.3-1.3-1.3H88.5c-0.7,0-1.3,0.6-1.3,1.3c0,0,0,0,0,0v40.6c0,10.2,8.3,18.4,18.5,18.5l0,0c10.2,0,18.5-8.2,18.5-18.5
		v-40.6C124.1,225.6,123.6,225.1,122.9,225z M118.4,267c-0.2,7-6,12.5-13,12.3c-6.7-0.2-12.1-5.6-12.3-12.3v-34.8
		c0-0.7,0.6-1.3,1.3-1.3c0.7,0,1.3,0.6,1.3,1.3V267c0.2,5.6,4.8,9.9,10.4,9.8c5.3-0.2,9.6-4.4,9.8-9.8v-34.8c0-0.7,0.6-1.3,1.3-1.3
		c0.7,0,1.3,0.6,1.3,1.3V267z"/>
	<path d="M175.1,224.9h-11.6c-0.7,0-1.3,0.6-1.3,1.3c0,0,0,0,0,0V253l-17.6-27.5c-0.2-0.4-0.6-0.6-1.1-0.6h-9
		c-0.7,0-1.3,0.5-1.3,1.3c0,0,0,0,0,0V283c0,0.7,0.6,1.3,1.3,1.3H146c0.7,0,1.3-0.6,1.3-1.3v-26.8l17.6,27.5
		c0.2,0.4,0.6,0.6,1.1,0.6h9c0.7,0,1.3-0.6,1.3-1.3v-56.8C176.3,225.5,175.8,225,175.1,224.9z M170.5,277.2L170.5,277.2L170.5,277.2
		c0,0.1,0,0.1,0,0.1l0,0c0,0,0,0,0,0.1l0,0c0,0,0,0.1,0,0.1l0,0v0.1l0,0v0.1l-0.1,0.1l0,0l-0.1,0.1l0,0l-0.1,0.1l0,0l-0.2,0.3l0,0
		h-0.1H170l0,0l-0.1,0.1l0,0l-0.1,0.1l0,0h-0.1h-0.4h-0.1l0,0H169l0,0h-0.1l0,0l-0.1-0.1l0,0l-0.1-0.1h-0.1l-0.1-0.1l0,0l-0.1-0.1
		l0,0l-27-41.5v40.8c0,0.7-0.6,1.3-1.3,1.3c-0.7,0-1.3-0.6-1.3-1.3v-45.1l0,0c0,0,0-0.1,0-0.1l0,0c0,0,0,0,0-0.1s0,0,0-0.1l0,0
		c0,0,0-0.1,0-0.1l0,0c0,0,0-0.1,0-0.1l0,0c0,0,0,0,0-0.1v-0.1l0,0l0.1-0.1l0,0l0.1-0.1l0,0h0.1l0,0l0,0h0.1l0,0l0,0h0.1l0,0h0.1
		h0.1h0.1h0.1h0.6h0.1l0,0h0.1l0,0h0.1h0.1l0,0l0.1,0.1l0,0l0.1,0.1l0,0l0,0l0,0l0,0v0.1l0,0l26.6,41.4v-40.9c0-0.7,0.6-1.3,1.3-1.3
		c0.7,0,1.3,0.6,1.3,1.3L170.5,277.2z"/>
	<path d="M203.8,233.4h-10.7V276h10.7c6,0,10.9-4.9,10.9-10.9v-20.7C214.7,238.3,209.8,233.5,203.8,233.4z M209,265
		c0,2.8-2.3,5.1-5.1,5.1l0,0H199v-31h4.9c2.8,0,5.1,2.3,5.1,5.1l0,0V265z"/>
	<path d="M203.8,225h-17.8c-0.7,0-1.3,0.6-1.3,1.3v56.8c0,0.7,0.6,1.3,1.3,1.3h17.8c10.7,0,19.3-8.7,19.3-19.3v-20.7
		C223.1,233.7,214.5,225.1,203.8,225z M217.3,265c0,7.5-6,13.5-13.5,13.5h-12c-0.7,0-1.3-0.6-1.3-1.3v-45.1c0-0.7,0.6-1.3,1.3-1.3
		h12c7.5,0,13.5,6.1,13.5,13.5V265z"/>
	<path d="M27.6,275.8c-2.3,2.3-5.4,3.6-8.7,3.6c-5.7,0-11-3.2-12.5-7.7c-0.3-0.7,0-1.4,0.7-1.7s1.4,0,1.7,0.7c0,0,0,0.1,0,0.1
		c1.2,3.4,5.5,6,10.1,6c2.6,0,5-1,6.8-2.9c1.9-1.9,2.9-4.6,2.8-7.3c-0.1-8-5-9.8-10.8-11.9c-5.6-2-11.9-4.3-11.9-13.4
		c0-6.8,4.9-11.5,12.1-11.7l0,0c5.8,0,10.7,3.2,12.3,7.9c0.2,0.7-0.1,1.4-0.8,1.6s-1.4-0.1-1.7-0.8c-1.2-3.7-5.2-6.2-9.8-6.2
		c-5.8,0.2-9.6,3.8-9.6,9.1c0,7.3,4.7,9,10.1,10.9c5.8,2.1,12.4,4.5,12.5,14.3C31.2,270.1,29.9,273.4,27.6,275.8 M32.5,253.8
		c-2.5-2.7-6.1-4.8-11.7-6.8c-5.1-1.7-6.2-2.7-6.2-5.5c0-1.5,1-3.2,3.9-3.2c2,0,3.8,0.9,4.1,2.1l0,0c0.2,0.9,0.3,1.8,0.3,2.7
		c0,0.2,0,0.3,0,0.5c0,0.7,0.6,1.3,1.3,1.3l0,0h11.6c0.7,0,1.3-0.6,1.3-1.3l0,0c0.1-2.6-0.2-5.2-0.8-7.7c-2.7-8.2-11.2-12-17.9-12
		c-10.4,0-18,7.4-18,17.6c0,12,8.4,16.4,15.7,18.9c5.7,1.9,6.8,3,6.8,6.4c0.2,2.2-1.5,4-3.6,4.2c-0.1,0-0.3,0-0.4,0
		c-1.5,0-3.7-1-4.3-2.3c-0.3-0.6-0.3-1-0.3-2.8c0-0.7-0.6-1.3-1.3-1.3h0H1.3c-0.7,0-1.3,0.6-1.3,1.3l0,0c-0.1,2.6,0.2,5.2,1,7.7
		c2.4,6.8,10.1,11.7,18.2,11.7c4.8,0,9.5-1.9,12.9-5.4c3.5-3.6,5.3-8.4,5.2-13.3C37.1,261.2,35.6,257,32.5,253.8"/>
	<path d="M30.6,88.1c-3.2-3.3-7.7-5.1-12.3-5.1H2.2C1.5,83,1,83.6,1,84.2c0,0,0,0,0,0v53.5c0,0.7,0.5,1.2,1.2,1.2c0,0,0,0,0,0h10.9
		c0.7,0,1.2-0.6,1.2-1.2v-20.1h3.9c9.6,0,17.3-7.8,17.3-17.3C35.6,95.7,33.8,91.3,30.6,88.1L30.6,88.1z M18.6,88.2L18.6,88.2
		c0.9,0,1.6,0.7,1.6,1.5s-0.7,1.5-1.5,1.5l0,0h-0.1c-0.8,0-1.5-0.7-1.5-1.5C17.1,88.8,17.8,88.2,18.6,88.2L18.6,88.2z M6.2,95
		c0-0.8,0.7-1.5,1.5-1.5c0.8,0,1.5,0.7,1.5,1.5l0,0c0,0.8-0.7,1.5-1.5,1.5S6.2,95.8,6.2,95L6.2,95z M6.2,100.3
		c0-0.8,0.7-1.5,1.5-1.5c0.8,0,1.5,0.7,1.5,1.5l0,0c0,0.8-0.7,1.5-1.5,1.5C6.8,101.8,6.2,101.2,6.2,100.3z M6.2,105.6
		c0-0.8,0.7-1.5,1.5-1.5c0.8,0,1.5,0.7,1.5,1.5l0,0c0,0.8-0.7,1.5-1.5,1.5C6.8,107.2,6.2,106.5,6.2,105.6z M7.7,133.8
		c-0.8,0-1.5-0.7-1.5-1.5c0,0,0,0,0,0l0,0c0-0.8,0.7-1.5,1.5-1.5c0.8,0,1.5,0.7,1.5,1.5C9.2,133.1,8.6,133.8,7.7,133.8
		C7.7,133.8,7.7,133.8,7.7,133.8z M9.2,126.9c0,0.8-0.7,1.5-1.5,1.5c-0.8,0-1.5-0.7-1.5-1.5l0,0c0-0.8,0.7-1.5,1.5-1.5
		C8.6,125.4,9.2,126.1,9.2,126.9z M9.2,121.6c0,0.8-0.7,1.5-1.5,1.5c-0.8,0-1.5-0.7-1.5-1.5l0,0l0,0c0-0.8,0.7-1.5,1.5-1.5
		C8.6,120.1,9.2,120.8,9.2,121.6z M9.2,116.3c0,0.8-0.7,1.5-1.5,1.5c-0.8,0-1.5-0.7-1.5-1.5l0,0c0-0.8,0.7-1.5,1.5-1.5
		C8.6,114.8,9.2,115.5,9.2,116.3z M9,111.8c-0.5,0.7-1.4,0.9-2.1,0.4c-0.4-0.3-0.7-0.8-0.7-1.3l0,0c0-0.8,0.7-1.5,1.5-1.5
		c0.6,0,1.2,0.4,1.4,0.9c0.1,0.2,0.1,0.4,0.1,0.6C9.2,111.3,9.1,111.6,9,111.8L9,111.8z M8.3,91.1c-0.2,0.1-0.4,0.1-0.6,0.1
		c-0.8,0-1.5-0.7-1.5-1.5l0,0c0-0.8,0.6-1.5,1.4-1.5h0.1c0.8,0,1.5,0.7,1.5,1.6C9.2,90.3,8.9,90.9,8.3,91.1L8.3,91.1z M13.2,88.2
		L13.2,88.2c0.8,0.1,1.5,0.8,1.4,1.6c-0.1,0.7-0.7,1.3-1.4,1.4l0,0c-0.8-0.1-1.5-0.8-1.4-1.6C11.8,88.8,12.4,88.2,13.2,88.2z
		 M13.2,112.5L13.2,112.5c-0.8,0-1.5-0.7-1.5-1.5s0.7-1.5,1.5-1.5l0,0c0.8,0,1.5,0.7,1.5,1.5S14.1,112.5,13.2,112.5z M18.7,112.5
		L18.7,112.5c-0.9-0.1-1.5-0.8-1.5-1.6c0.1-0.7,0.7-1.3,1.4-1.4l0,0c0.8-0.1,1.6,0.5,1.7,1.4c0.1,0.8-0.5,1.6-1.4,1.7
		C18.9,112.5,18.8,112.5,18.7,112.5L18.7,112.5z M21.2,103.1c-0.7,0.7-1.8,1.2-2.8,1.2h-4v-7.9h4c2.2,0,3.9,1.8,3.9,4
		C22.2,101.4,21.8,102.4,21.2,103.1L21.2,103.1z M22.5,90.4c0.4-0.7,1.4-1,2.1-0.5l0,0c0.7,0.4,1,1.4,0.5,2.1
		c-0.3,0.5-0.8,0.8-1.3,0.8c-0.3,0-0.5-0.1-0.8-0.2l0,0C22.3,92.1,22.1,91.2,22.5,90.4C22.5,90.4,22.5,90.4,22.5,90.4L22.5,90.4z
		 M24.7,110.7L24.7,110.7c-0.3,0.1-0.5,0.2-0.8,0.2c-0.8,0-1.5-0.7-1.5-1.5s0.7-1.5,1.5-1.5c0.8,0,1.5,0.7,1.5,1.5
		C25.4,109.9,25.1,110.4,24.7,110.7L24.7,110.7z M26.9,93.8c0.7-0.4,1.6-0.2,2.1,0.6l0,0c0.4,0.7,0.2,1.7-0.6,2.1
		c-0.2,0.1-0.5,0.2-0.7,0.2c-0.5,0-1.1-0.3-1.3-0.8l0,0C25.9,95.1,26.1,94.2,26.9,93.8L26.9,93.8z M29,106.3L29,106.3
		c-0.4,0.7-1.3,1-2.1,0.6c0,0,0,0,0,0c-0.7-0.4-1-1.3-0.6-2l0,0c0.5-0.7,1.4-0.9,2.1-0.4C29,104.8,29.2,105.7,29,106.3L29,106.3z
		 M30.5,100.3c0,0.8-0.7,1.5-1.5,1.5s-1.5-0.7-1.5-1.5l0,0c0-0.8,0.7-1.5,1.5-1.5S30.5,99.5,30.5,100.3z"/>
	<path d="M120.4,96.4c0.7,0,1.2-0.5,1.2-1.2V84.2c0-0.7-0.5-1.2-1.2-1.2H88.2c-0.7,0-1.2,0.5-1.2,1.2c0,0,0,0,0,0l0,0v10.9
		c0,0.7,0.5,1.2,1.2,1.2c0,0,0,0,0,0h9.4v29.2h-9.4c-0.7,0-1.2,0.5-1.2,1.2c0,0,0,0,0,0v10.9c0,0.7,0.5,1.2,1.2,1.2l0,0h32.2
		c0.7,0,1.2-0.5,1.2-1.2c0,0,0,0,0,0v-10.9c0-0.7-0.6-1.2-1.2-1.2h-9.4V96.4H120.4z M114.9,88.2L114.9,88.2c0.8,0,1.5,0.7,1.5,1.5
		c0,0.8-0.7,1.5-1.5,1.5s-1.5-0.7-1.5-1.5C113.4,88.9,114.1,88.2,114.9,88.2C114.9,88.2,114.9,88.2,114.9,88.2L114.9,88.2z
		 M93.6,91.2c-0.8-0.1-1.5-0.8-1.4-1.6c0.1-0.7,0.7-1.3,1.4-1.4l0,0c0.8-0.1,1.6,0.6,1.6,1.4c0.1,0.8-0.6,1.6-1.4,1.6
		C93.8,91.2,93.7,91.2,93.6,91.2z M93.6,133.8c-0.8,0-1.5-0.7-1.5-1.5c0-0.8,0.7-1.5,1.5-1.5l0,0c0.8,0,1.5,0.7,1.5,1.5
		C95.2,133.1,94.5,133.8,93.6,133.8z M99,133.8L99,133.8c-0.8,0-1.5-0.7-1.5-1.5c0-0.8,0.7-1.5,1.5-1.5l0,0c0.8,0,1.5,0.7,1.5,1.5
		C100.5,133.1,99.8,133.8,99,133.8z M99,91.2L99,91.2c-0.8-0.1-1.5-0.8-1.4-1.6c0.1-0.7,0.7-1.3,1.4-1.4l0,0
		c0.8,0.1,1.5,0.8,1.4,1.6C100.3,90.6,99.7,91.2,99,91.2z M104.3,133.8L104.3,133.8c-0.8,0-1.5-0.7-1.5-1.5c0-0.4,0.2-0.8,0.5-1.1
		c0.3-0.3,0.7-0.4,1.1-0.5c0.4,0,0.8,0.2,1.1,0.5c0.6,0.6,0.6,1.5,0,2.1C105.1,133.6,104.7,133.8,104.3,133.8L104.3,133.8z
		 M104.3,98.8c0.8,0,1.5,0.7,1.5,1.5l0,0c-0.1,0.8-0.8,1.5-1.6,1.4c-0.7-0.1-1.3-0.7-1.4-1.4l0,0C102.7,99.5,103.4,98.8,104.3,98.8
		C104.2,98.8,104.3,98.8,104.3,98.8L104.3,98.8z M102.8,95L102.8,95c0.1-0.8,0.8-1.5,1.6-1.4c0.7,0.1,1.3,0.7,1.4,1.4l0,0
		c-0.1,0.8-0.8,1.5-1.6,1.4C103.4,96.4,102.8,95.8,102.8,95z M104.3,104.1c0.8,0,1.5,0.7,1.5,1.5l0,0c-0.1,0.8-0.8,1.5-1.6,1.4
		c-0.7-0.1-1.3-0.7-1.4-1.4l0,0C102.7,104.8,103.4,104.1,104.3,104.1C104.2,104.1,104.3,104.1,104.3,104.1L104.3,104.1z
		 M104.3,109.4c0.8,0,1.5,0.7,1.5,1.5l0,0c0.1,0.8-0.6,1.6-1.4,1.6s-1.6-0.6-1.6-1.4c0-0.1,0-0.2,0-0.2l0,0
		C102.7,110.1,103.4,109.4,104.3,109.4C104.2,109.4,104.3,109.4,104.3,109.4L104.3,109.4z M104.3,114.7c0.8,0,1.5,0.7,1.5,1.5l0,0
		c-0.1,0.8-0.8,1.5-1.6,1.4c-0.7-0.1-1.3-0.7-1.4-1.4l0,0C102.7,115.4,103.4,114.8,104.3,114.7C104.2,114.8,104.3,114.8,104.3,114.7
		L104.3,114.7z M104.3,120.1c0.8,0,1.5,0.7,1.5,1.5l0,0c-0.1,0.8-0.8,1.5-1.6,1.4c-0.7-0.1-1.3-0.7-1.4-1.4l0,0
		C102.7,120.8,103.4,120.1,104.3,120.1C104.3,120.1,104.3,120.1,104.3,120.1L104.3,120.1z M104.3,125.4c0.8,0,1.5,0.7,1.5,1.5l0,0
		c-0.1,0.8-0.8,1.5-1.6,1.4c-0.7-0.1-1.3-0.7-1.4-1.4l0,0C102.7,126.1,103.4,125.4,104.3,125.4C104.2,125.4,104.3,125.4,104.3,125.4
		L104.3,125.4z M104.9,91.1c-0.2,0.1-0.4,0.1-0.6,0.1c-0.3,0-0.6-0.1-0.9-0.3c-0.7-0.4-0.9-1.4-0.5-2.1c0.3-0.5,0.8-0.7,1.4-0.7l0,0
		c0.8,0,1.5,0.7,1.5,1.6c0,0,0,0,0,0C105.8,90.3,105.4,90.9,104.9,91.1L104.9,91.1z M114.9,130.7L114.9,130.7c0.8,0,1.5,0.7,1.5,1.5
		c0,0.8-0.7,1.5-1.5,1.5c-0.8,0-1.5-0.7-1.5-1.5C113.4,131.4,114.1,130.7,114.9,130.7L114.9,130.7z M111.1,132.2
		c0,0.8-0.7,1.5-1.5,1.5l0,0l0,0c-0.8,0-1.5-0.7-1.5-1.5c0-0.8,0.7-1.5,1.5-1.5l0,0C110.5,130.7,111.1,131.4,111.1,132.2
		C111.1,132.3,111.1,132.3,111.1,132.2L111.1,132.2z M109.6,91.2L109.6,91.2c-0.8-0.1-1.5-0.8-1.4-1.6c0.1-0.7,0.7-1.3,1.4-1.4l0,0
		c0.8,0.1,1.5,0.8,1.4,1.6C111,90.5,110.4,91.1,109.6,91.2z"/>
	<path d="M170.2,83h-8.5c-0.4,0-0.8,0.2-1,0.6L151,98.6l-9.6-15.1c-0.2-0.4-0.6-0.6-1-0.6h-8.5c-0.7,0-1.2,0.5-1.2,1.2v53.5
		c0,0.7,0.5,1.2,1.2,1.2h11c0.7,0,1.2-0.5,1.2-1.2v-25.3l5.9,9.3c0.2,0.3,0.6,0.6,1,0.6l0,0c0.4,0,0.8-0.2,1-0.6l6-9.4v25.3
		c0,0.7,0.5,1.2,1.2,1.2h10.9c0.7,0,1.2-0.5,1.2-1.2V84.2C171.4,83.6,170.8,83,170.2,83z M137.3,133.8c-0.8,0-1.5-0.7-1.5-1.5
		c0,0,0,0,0,0l0,0c0.1-0.8,0.8-1.5,1.6-1.4c0.7,0.1,1.3,0.7,1.4,1.4C138.8,133.1,138.2,133.8,137.3,133.8z M138.9,126.9
		c0.1,0.8-0.6,1.6-1.4,1.6c-0.8,0.1-1.6-0.6-1.6-1.4c0-0.1,0-0.2,0-0.2l0,0c0.1-0.8,0.8-1.5,1.6-1.4
		C138.2,125.6,138.8,126.2,138.9,126.9z M138.9,121.6c-0.1,0.8-0.8,1.5-1.6,1.4c-0.7-0.1-1.3-0.7-1.4-1.4l0,0
		c0.1-0.8,0.8-1.5,1.6-1.4C138.2,120.3,138.8,120.9,138.9,121.6z M138.9,116.3c-0.1,0.8-0.8,1.5-1.6,1.4c-0.7-0.1-1.3-0.7-1.4-1.4
		l0,0c0.1-0.8,0.8-1.5,1.6-1.4C138.2,115,138.8,115.6,138.9,116.3z M138.9,111c-0.1,0.8-0.8,1.5-1.6,1.4c-0.7-0.1-1.3-0.7-1.4-1.4
		l0,0c0.1-0.8,0.8-1.5,1.6-1.4C138.2,109.7,138.8,110.3,138.9,111z M138.9,105.7c-0.1,0.8-0.8,1.5-1.6,1.4c-0.7-0.1-1.3-0.7-1.4-1.4
		l0,0c0.1-0.8,0.8-1.5,1.6-1.4C138.2,104.3,138.8,104.9,138.9,105.7z M138.9,100.4c-0.1,0.8-0.8,1.5-1.6,1.4
		c-0.7-0.1-1.3-0.7-1.4-1.4l0,0c-0.1-0.8,0.6-1.6,1.4-1.6c0.8-0.1,1.6,0.6,1.6,1.4C138.9,100.2,138.9,100.3,138.9,100.4z M138.9,95
		c-0.1,0.8-0.8,1.5-1.6,1.4c-0.7-0.1-1.3-0.7-1.4-1.4l0,0c0.1-0.8,0.8-1.5,1.6-1.4C138.2,93.7,138.8,94.3,138.9,95z M137.3,91.3
		c-0.8,0-1.5-0.7-1.5-1.5l0,0l0,0c0-0.8,0.7-1.5,1.5-1.5c0.8,0,1.5,0.7,1.5,1.5C138.9,90.6,138.2,91.3,137.3,91.3
		C137.3,91.3,137.3,91.3,137.3,91.3L137.3,91.3z M143.3,99.1c-0.7,0.5-1.6,0.3-2.1-0.4c0,0,0,0,0,0c-0.5-0.7-0.3-1.6,0.5-2.1
		c0.7-0.5,1.6-0.3,2.1,0.5l0,0C144.2,97.7,144,98.6,143.3,99.1L143.3,99.1z M146.2,103.5c-0.2,0.2-0.5,0.2-0.8,0.2
		c-0.5,0-1-0.3-1.3-0.7l0,0c-0.5-0.7-0.2-1.6,0.5-2.1c0.7-0.5,1.6-0.2,2.1,0.5l0,0C147,102.1,146.8,103,146.2,103.5L146.2,103.5z
		 M149,107.9c-0.2,0.2-0.5,0.2-0.8,0.2c-0.5,0-1-0.3-1.3-0.7l0,0c-0.5-0.7-0.2-1.6,0.5-2.1s1.6-0.2,2.1,0.5l0,0
		C149.9,106.5,149.7,107.4,149,107.9L149,107.9z M152.3,111.8L152.3,111.8c-0.1,0.2-0.3,0.3-0.5,0.5h-0.1h-0.1
		c-0.2,0.1-0.4,0.2-0.6,0.2c-0.3,0-0.6-0.1-0.8-0.2l0,0l0,0c-0.2-0.1-0.3-0.2-0.4-0.4l0,0l0,0c0-0.1-0.1-0.1-0.1-0.2l0,0
		c0-0.1-0.1-0.2-0.1-0.2l0,0c0-0.1,0-0.1,0-0.2v-0.1c0-0.1,0-0.1,0-0.2c0,0,0-0.1,0-0.1c0-0.1,0-0.2,0.1-0.2l0,0
		c0.1-0.3,0.3-0.5,0.5-0.7h0.1l0,0h0.1l0.2-0.1h0.1l0.2-0.1h0c0.8-0.1,1.6,0.4,1.7,1.3c0,0.2,0,0.4,0,0.6l0,0c0,0.1,0,0.2-0.1,0.3
		c0,0,0,0.1,0,0.1C152.4,111.9,152.3,111.8,152.3,111.8L152.3,111.8z M155.1,107.4L155.1,107.4c-0.3,0.4-0.8,0.7-1.3,0.7
		c-0.3,0-0.6-0.1-0.8-0.2c-0.7-0.5-0.9-1.4-0.5-2.1l0,0c0.5-0.7,1.4-0.9,2.1-0.5C155.4,105.8,155.6,106.7,155.1,107.4z M157.9,103
		L157.9,103c-0.5,0.7-1.4,0.9-2.1,0.5c-0.7-0.5-0.9-1.4-0.5-2.1l0,0c0.4-0.7,1.4-0.9,2.1-0.5C158.2,101.3,158.4,102.3,157.9,103
		L157.9,103z M160.8,98.6c-0.4,0.7-1.4,0.9-2.1,0.5c0,0,0,0,0,0c-0.7-0.5-0.9-1.4-0.5-2.1l0,0c0.5-0.7,1.4-0.9,2.1-0.5
		C161,97,161.2,97.9,160.8,98.6L160.8,98.6z M166.2,132.3c0,0.8-0.7,1.5-1.5,1.5c-0.8,0-1.5-0.7-1.5-1.5c0-0.8,0.7-1.5,1.5-1.5l0,0
		C165.5,130.8,166.2,131.4,166.2,132.3C166.2,132.3,166.2,132.3,166.2,132.3z M166.2,127c0.1,0.8-0.6,1.6-1.4,1.6
		c-0.8,0.1-1.6-0.6-1.6-1.4c0-0.1,0-0.2,0-0.2l0,0c0.1-0.8,0.8-1.5,1.6-1.4C165.5,125.6,166.1,126.2,166.2,127z M166.2,121.7
		c-0.1,0.8-0.8,1.5-1.6,1.4c-0.7-0.1-1.3-0.7-1.4-1.4l0,0c0.1-0.8,0.8-1.5,1.6-1.4C165.5,120.3,166.1,120.9,166.2,121.7z
		 M166.2,116.4c-0.1,0.8-0.8,1.5-1.6,1.4c-0.7-0.1-1.3-0.7-1.4-1.4l0,0c0.1-0.8,0.8-1.5,1.6-1.4C165.5,115,166.1,115.6,166.2,116.4z
		 M166.2,111c-0.1,0.8-0.8,1.5-1.6,1.4c-0.7-0.1-1.3-0.7-1.4-1.4l0,0c0.1-0.8,0.8-1.5,1.6-1.4C165.5,109.7,166.1,110.3,166.2,111z
		 M166.2,105.7c-0.1,0.8-0.8,1.5-1.6,1.4c-0.7-0.1-1.3-0.7-1.4-1.4l0,0c0.1-0.8,0.8-1.5,1.6-1.4C165.5,104.4,166.1,105,166.2,105.7z
		 M166.2,100.4c-0.1,0.8-0.8,1.5-1.6,1.4c-0.7-0.1-1.3-0.7-1.4-1.4l0,0c-0.1-0.8,0.6-1.6,1.4-1.6c0.8-0.1,1.6,0.6,1.6,1.4
		C166.2,100.2,166.2,100.3,166.2,100.4z M166.2,95.1c-0.1,0.8-0.8,1.5-1.6,1.4c-0.7-0.1-1.3-0.7-1.4-1.4l0,0
		c0.1-0.8,0.8-1.5,1.6-1.4C165.5,93.7,166.1,94.3,166.2,95.1z M166.2,89.8c0,0.8-0.7,1.5-1.5,1.5c-0.8,0-1.5-0.7-1.5-1.5
		s0.7-1.5,1.5-1.5l0,0C165.5,88.2,166.2,88.9,166.2,89.8z"/>
	<path d="M164,214.5L150.3,187c9.9-6.4,12.7-19.6,6.3-29.5c-3.9-6-10.6-9.7-17.9-9.7h-19.9c-0.8,0-1.5,0.7-1.5,1.5c0,0,0,0,0,0v65.8
		c0,0.8,0.7,1.5,1.5,1.5l0,0h13.5c0.8,0,1.5-0.7,1.5-1.5c0,0,0,0,0,0v-24.3l12.5,24.9c0.2,0.5,0.8,0.8,1.3,0.8h15.1
		c0.5,0,1-0.3,1.3-0.7C164.2,215.5,164.2,214.9,164,214.5z M151.7,176.5L151.7,176.5c-0.3,0.6-1,0.9-1.6,1c-1,0-1.9-0.8-1.9-1.9
		c0-0.3,0.1-0.6,0.2-0.9l0,0c0.5-0.9,1.6-1.2,2.5-0.7C151.9,174.4,152.2,175.6,151.7,176.5L151.7,176.5z M153.6,169.1L153.6,169.1
		c0,1-0.8,1.9-1.9,1.9c-1,0-1.9-0.8-1.9-1.9l0,0c0-1,0.8-1.9,1.9-1.9C152.8,167.2,153.6,168.1,153.6,169.1L153.6,169.1z M149.1,161
		c0.9-0.5,2-0.2,2.5,0.7c0,0,0,0,0,0l0,0c0.5,0.9,0.2,2-0.7,2.5c-0.3,0.2-0.6,0.2-0.9,0.2c-0.7,0-1.3-0.4-1.6-1l0,0
		C147.9,162.7,148.3,161.6,149.1,161z M143.8,156.9c0.5-0.9,1.7-1.2,2.6-0.6l0,0c0.9,0.5,1.2,1.7,0.7,2.6c-0.3,0.6-1,0.9-1.6,0.9
		c-0.3,0-0.7-0.1-1-0.3l0,0C143.6,159,143.3,157.8,143.8,156.9C143.8,157,143.8,156.9,143.8,156.9z M146.5,181.9L146.5,181.9
		c-1,0.5-2.1,0.2-2.6-0.7c-0.5-0.9-0.2-2,0.7-2.6c0.9-0.5,2-0.2,2.6,0.7C147.6,180.2,147.3,181.3,146.5,181.9L146.5,181.9z
		 M143.6,169.1c0,2.7-2.2,4.9-4.8,4.9c0,0,0,0,0,0h-4.9v-9.7h4.9C141.4,164.3,143.6,166.5,143.6,169.1z M139.1,154.2L139.1,154.2
		c1,0,1.9,0.8,1.9,1.9c0,1-0.8,1.9-1.9,1.9H139c-1,0-1.8-0.9-1.8-1.9C137.2,155,138,154.2,139.1,154.2L139.1,154.2z M125.6,210.3
		c-1,0-1.9-0.8-1.9-1.9c0,0,0,0,0,0l0,0c0-1,0.8-1.9,1.9-1.9c1,0,1.9,0.8,1.9,1.9S126.6,210.3,125.6,210.3L125.6,210.3L125.6,210.3z
		 M127.5,201.9c-0.1,1-1,1.8-2,1.7c-0.9-0.1-1.7-0.8-1.7-1.7l0,0c0.1-1,1-1.8,2-1.7C126.7,200.2,127.4,201,127.5,201.9z
		 M127.5,195.3c-0.1,1-1,1.8-2,1.7c-0.9-0.1-1.7-0.8-1.7-1.7l0,0c-0.1-1,0.7-1.9,1.7-2c1-0.1,1.9,0.7,2,1.7
		C127.5,195.1,127.5,195.2,127.5,195.3z M127.5,188.8c-0.1,1-1,1.8-2,1.7c-0.9-0.1-1.7-0.8-1.7-1.7l0,0c0.1-1,1-1.8,2-1.7
		C126.7,187.1,127.4,187.9,127.5,188.8z M127.5,182.2c0.1,1-0.7,1.9-1.7,2c-1,0.1-1.9-0.7-2-1.7c0-0.1,0-0.2,0-0.3l0,0
		c0.1-1,1-1.8,2-1.7C126.7,180.6,127.4,181.3,127.5,182.2z M127.5,175.7c-0.1,1-1,1.8-2,1.7c-0.9-0.1-1.7-0.8-1.7-1.7l0,0
		c0.1-1,1-1.8,2-1.7C126.7,174,127.4,174.8,127.5,175.7z M127.5,169.2c-0.1,1-1,1.8-2,1.7c-0.9-0.1-1.7-0.8-1.7-1.7l0,0
		c-0.1-1,0.7-1.9,1.7-2c1-0.1,1.9,0.7,2,1.7C127.5,169,127.5,169.1,127.5,169.2z M127.5,162.6c-0.1,1-1,1.8-2,1.7
		c-0.9-0.1-1.7-0.8-1.7-1.7l0,0c0.1-1,1-1.8,2-1.7C126.7,161,127.4,161.7,127.5,162.6z M125.6,158c-1,0-1.9-0.8-1.9-1.9l0,0
		c0-1,0.8-1.9,1.9-1.9c1,0,1.9,0.8,1.9,1.9S126.6,158,125.6,158L125.6,158L125.6,158z M132.3,154.2L132.3,154.2c1,0.1,1.8,1,1.7,2
		c-0.1,0.9-0.8,1.7-1.7,1.7l0,0c-1-0.1-1.8-1-1.7-2C130.6,155,131.4,154.3,132.3,154.2z M132.4,184.1L132.4,184.1
		c-1,0-1.9-0.8-1.9-1.9s0.8-1.9,1.9-1.9l0,0c1,0,1.9,0.8,1.9,1.9S133.4,184.1,132.4,184.1L132.4,184.1z M139.1,184.1L139.1,184.1
		c-1.1-0.1-1.9-1-1.8-2c0.1-0.9,0.8-1.7,1.7-1.8l0,0c1,0,1.9,0.8,1.9,1.8C141,183.2,140.2,184.1,139.1,184.1
		C139.1,184.1,139.1,184.1,139.1,184.1L139.1,184.1z M142,190.7c-0.7,0-1.4-0.4-1.7-1l0,0c-0.5-0.9-0.1-2,0.8-2.5
		c0.9-0.5,2-0.1,2.5,0.8l0,0c0.5,0.9,0.1,2-0.8,2.5C142.5,190.6,142.3,190.6,142,190.7L142,190.7z M146.1,197.1
		c-0.3,0.1-0.5,0.2-0.8,0.2c-0.7,0-1.4-0.4-1.7-1l0,0c-0.5-0.9-0.2-2.1,0.8-2.6c0.9-0.5,2.1-0.2,2.6,0.8l0,0c0.5,0.9,0.2,2-0.7,2.5
		C146.2,197,146.1,197,146.1,197.1L146.1,197.1z M148.5,203.8c-0.7,0-1.4-0.4-1.7-1l0,0c-0.5-0.9-0.1-2.1,0.8-2.5
		c0.9-0.5,2.1-0.1,2.5,0.8l0,0l0,0c0.5,0.9,0.1,2-0.8,2.5c0,0,0,0,0,0C149.1,203.7,148.8,203.8,148.5,203.8L148.5,203.8z
		 M152.6,210.1c-0.3,0.1-0.5,0.2-0.8,0.2c-0.7,0-1.4-0.4-1.7-1c-0.5-0.9-0.1-2,0.8-2.5c0.9-0.5,2-0.1,2.5,0.8l0,0
		C153.9,208.5,153.5,209.6,152.6,210.1L152.6,210.1z"/>
	<path d="M104.9,164.3c0.8,0,1.5-0.7,1.5-1.5c0,0,0,0,0,0v-13.5c0-0.8-0.7-1.5-1.5-1.5l0,0H65.2c-0.8,0-1.5,0.7-1.5,1.5c0,0,0,0,0,0
		v65.8c0,0.8,0.7,1.5,1.5,1.5l0,0h39.6c0.8,0,1.5-0.7,1.5-1.5c0,0,0,0,0,0v-13.5c0-0.8-0.7-1.5-1.5-1.4H80.2v-9.8h11.6
		c0.8,0,1.5-0.7,1.5-1.5c0,0,0,0,0,0v-13.5c0-0.8-0.7-1.5-1.5-1.5c0,0,0,0,0,0H80.2v-9.7H104.9z M98.1,154.2L98.1,154.2
		c1,0,1.9,0.8,1.9,1.9s-0.8,1.9-1.9,1.9c-1,0-1.9-0.8-1.9-1.9c0,0,0,0,0,0C96.2,155,97.1,154.2,98.1,154.2
		C98.1,154.2,98.1,154.2,98.1,154.2L98.1,154.2z M91.6,154.2L91.6,154.2c1,0.1,1.8,1,1.7,2c-0.1,0.9-0.8,1.7-1.7,1.7l0,0
		c-1,0.1-1.9-0.7-2-1.7c-0.1-1,0.7-1.9,1.7-2C91.4,154.2,91.5,154.2,91.6,154.2z M85,154.2L85,154.2c1,0.1,1.8,1,1.7,2
		c-0.1,0.9-0.8,1.7-1.7,1.7l0,0c-1-0.1-1.8-1-1.7-2C83.4,155,84.1,154.2,85,154.2z M70.1,162.6c0.1-1,1-1.8,2-1.7
		c0.9,0.1,1.7,0.8,1.7,1.7l0,0c-0.1,1-1,1.8-2,1.7C70.9,164.2,70.1,163.5,70.1,162.6z M70.1,169.1c-0.1-1,0.7-1.9,1.7-2
		c1-0.1,1.9,0.7,2,1.7c0,0.1,0,0.2,0,0.3l0,0c-0.1,1-1,1.8-2,1.7C70.9,170.8,70.1,170,70.1,169.1z M70.1,175.7c0.1-1,1-1.8,2-1.7
		c0.9,0.1,1.7,0.8,1.7,1.7l0,0c-0.1,1-1,1.8-2,1.7C70.9,177.3,70.1,176.6,70.1,175.7z M70.1,188.7c0.1-1,1-1.8,2-1.7
		c0.9,0.1,1.7,0.8,1.7,1.7l0,0c-0.1,1-1,1.8-2,1.7C70.9,190.4,70.1,189.7,70.1,188.7z M70.1,195.3c-0.1-1,0.7-1.9,1.7-2
		c1-0.1,1.9,0.7,2,1.7c0,0.1,0,0.2,0,0.3l0,0c-0.1,1-1,1.8-2,1.7C70.9,196.9,70.1,196.2,70.1,195.3z M70.1,201.8c0.1-1,1-1.8,2-1.7
		c0.9,0.1,1.7,0.8,1.7,1.7l0,0c-0.1,1-1,1.8-2,1.7C70.9,203.5,70.1,202.8,70.1,201.8z M72,210.3c-0.3,0-0.5-0.1-0.7-0.2
		c-0.7-0.3-1.2-1-1.2-1.7l0,0c0-1,0.8-1.9,1.9-1.9c0,0,0,0,0,0c1,0,1.9,0.9,1.9,1.9C73.8,209.4,73,210.3,72,210.3L72,210.3z
		 M73.3,183.6c-0.7,0.7-1.9,0.7-2.6,0c-0.4-0.4-0.6-0.8-0.6-1.3l0,0c0-1,0.8-1.9,1.9-1.9c0,0,0,0,0,0c1,0,1.9,0.9,1.9,1.9
		C73.8,182.8,73.6,183.2,73.3,183.6L73.3,183.6z M72.7,157.8c-0.2,0.1-0.5,0.2-0.7,0.2c-1,0-1.9-0.8-1.9-1.9c0,0,0,0,0,0l0,0
		c0-1,0.8-1.9,1.9-1.9l0,0c1,0,1.9,0.8,1.9,1.9C73.8,156.8,73.4,157.5,72.7,157.8L72.7,157.8z M98.1,206.6L98.1,206.6
		c1,0,1.9,0.8,1.9,1.9s-0.8,1.9-1.9,1.9c-1,0-1.9-0.8-1.9-1.9C96.2,207.4,97,206.6,98.1,206.6C98.1,206.5,98.1,206.5,98.1,206.6
		L98.1,206.6z M91.6,206.6L91.6,206.6c1,0,1.9,0.8,1.9,1.9c0,1-0.8,1.9-1.9,1.9l0,0c-1,0-1.9-0.8-1.9-1.9
		C89.7,207.4,90.5,206.6,91.6,206.6z M85,206.6L85,206.6c1,0,1.9,0.8,1.9,1.9c0,1-0.8,1.9-1.9,1.9l0,0c-1,0-1.9-0.8-1.9-1.9
		C83.1,207.4,84,206.6,85,206.6z M80.4,208.4c0,1-0.8,1.9-1.9,1.9l0,0c-1,0-1.9-0.8-1.9-1.9c0-1,0.8-1.9,1.9-1.9l0,0
		C79.5,206.6,80.4,207.4,80.4,208.4L80.4,208.4z M85,180.4L85,180.4c1,0,1.9,0.8,1.9,1.9s-0.8,1.9-1.9,1.9c-1,0-1.9-0.8-1.9-1.9
		C83.1,181.2,83.9,180.4,85,180.4C85,180.4,85,180.4,85,180.4L85,180.4z M80.4,182.3c0,1-0.8,1.9-1.9,1.9l0,0c-1,0-1.9-0.8-1.9-1.9
		c0-1,0.8-1.9,1.9-1.9l0,0C79.5,180.4,80.4,181.2,80.4,182.3L80.4,182.3z M78.5,157.9L78.5,157.9c-1-0.1-1.8-1-1.7-2
		c0.1-0.9,0.8-1.7,1.7-1.7l0,0c1-0.1,1.9,0.7,2,1.7s-0.7,1.9-1.7,2C78.7,157.9,78.6,157.9,78.5,157.9z"/>
	<path d="M215.3,133.7c-0.2,0.1-0.3,0.1-0.5,0.1c-0.6,0-1.2-0.4-1.4-1l0,0c-0.3-0.8,0.1-1.7,0.9-1.9s1.7,0.1,1.9,0.9
		C216.5,132.5,216.1,133.4,215.3,133.7C215.3,133.7,215.3,133.7,215.3,133.7 M211.6,127.5L211.6,127.5c-0.3-0.8,0.1-1.7,0.9-1.9
		c0.8-0.3,1.7,0.1,1.9,0.9c0,0,0,0,0,0.1l0,0c0.2,0.8-0.2,1.6-0.9,1.9c-0.2,0.1-0.3,0.1-0.5,0.1
		C212.4,128.5,211.8,128.1,211.6,127.5 M210.1,122.7L210.1,122.7l-0.1-0.1c-0.2-0.3-0.3-0.6-0.3-0.9c0-0.1,0-0.2,0-0.2c0,0,0,0,0,0
		c0,0,0,0,0-0.1c0,0,0-0.1,0-0.1l0,0c0.3-0.8,1.1-1.2,1.9-1c0.4,0.1,0.7,0.4,0.9,0.8v0.1c0,0,0,0,0,0l0,0c0,0,0,0.1,0,0.1l0,0
		c0,0,0,0.1,0,0.1c0,0,0,0.1,0,0.1l0,0v0.1l0,0v0.3c0,0,0,0.1,0,0.1l0,0c0,0,0,0.1,0,0.1l0,0c-0.1,0.5-0.5,0.8-0.9,1
		c-0.2,0.1-0.3,0.1-0.5,0.1C210.7,123.1,210.3,123,210.1,122.7 M208.1,117.2L208.1,117.2c-0.4-0.7-0.2-1.7,0.6-2.1s1.7-0.2,2.1,0.6
		c0.1,0.2,0.2,0.4,0.2,0.5l0,0c0.2,0.8-0.2,1.6-0.9,1.9c-0.2,0.1-0.3,0.1-0.5,0.1C208.9,118.2,208.3,117.8,208.1,117.2 M206.4,112.3
		L206.4,112.3c-0.3-0.8,0-1.7,0.8-2s1.7,0,2,0.8c0,0.1,0.1,0.2,0.1,0.2l0,0c0.2,0.8-0.2,1.6-0.9,1.9c-0.2,0.1-0.3,0.1-0.5,0.1
		C207.2,113.3,206.6,112.9,206.4,112.3 M205.8,123.1L205.8,123.1c-0.8-0.1-1.5-0.8-1.4-1.6c0.1-0.7,0.7-1.3,1.4-1.4l0,0
		c0.8,0.1,1.5,0.8,1.4,1.6C207.2,122.5,206.6,123.1,205.8,123.1 M200.4,123.1L200.4,123.1c-0.8-0.1-1.5-0.8-1.4-1.6
		c0.1-0.7,0.7-1.3,1.4-1.4l0,0c0.8-0.1,1.6,0.6,1.6,1.4c0.1,0.8-0.6,1.6-1.4,1.6C200.6,123.1,200.5,123.1,200.4,123.1 M195.1,123.1
		L195.1,123.1c-0.8,0.1-1.6-0.6-1.6-1.4c-0.1-0.8,0.6-1.6,1.4-1.6c0.1,0,0.2,0,0.2,0l0,0c0.8,0.1,1.5,0.8,1.4,1.6
		C196.4,122.5,195.8,123.1,195.1,123.1 M192.9,112.4c-0.8-0.3-1.2-1.1-0.9-1.9l0,0c0.1-0.8,0.9-1.4,1.7-1.3c0.8,0.1,1.4,0.9,1.3,1.7
		c0,0.2-0.1,0.4-0.2,0.5l0,0c-0.2,0.6-0.8,1-1.4,1C193.2,112.5,193,112.5,192.9,112.4 M193,116.7L193,116.7c-0.2,0.6-0.8,1-1.4,1
		c-0.2,0-0.3,0-0.5-0.1c-0.8-0.3-1.2-1.1-0.9-1.9l0,0c0.3-0.8,1.1-1.2,1.9-0.9C192.9,115.2,193.3,116,193,116.7 M190.7,122.9
		L190.7,122.9l-0.1,0.1c-0.2,0.1-0.5,0.2-0.7,0.2c-0.2,0-0.3,0-0.5-0.1c-0.8-0.3-1.2-1.1-0.9-1.9l0,0c0.3-0.8,1.1-1.2,1.9-0.9
		c0.3,0.1,0.5,0.3,0.7,0.5l0,0l0.1,0.1c0.2,0.3,0.3,0.6,0.3,0.9c0,0.5-0.2,1-0.7,1.3 M189.5,127.5L189.5,127.5
		c-0.2,0.6-0.8,0.9-1.4,0.9c-0.2,0-0.3,0-0.5-0.1c-0.8-0.3-1.2-1.1-0.9-1.9l0,0c0.2-0.8,1.1-1.3,1.9-1c0.8,0.2,1.3,1.1,1,1.9
		C189.5,127.4,189.5,127.4,189.5,127.5 M187.7,132.7L187.7,132.7c-0.2,0.6-0.8,1-1.4,1c-0.2,0-0.3,0-0.5-0.1c-0.8-0.2-1.3-1.1-1-1.9
		c0.2-0.8,1.1-1.3,1.9-1C187.5,131,188,131.9,187.7,132.7C187.7,132.7,187.7,132.7,187.7,132.7 M193.7,105.2L193.7,105.2
		c0.3-0.8,1.1-1.2,1.9-0.9c0.8,0.3,1.2,1.1,1,1.9l0,0c-0.2,0.6-0.8,1-1.4,1c-0.2,0-0.3,0-0.5-0.1C193.9,106.9,193.5,106,193.7,105.2
		 M195.5,99.9L195.5,99.9c0.3-0.8,1.1-1.2,1.9-0.9c0.8,0.3,1.2,1.1,1,1.9l0,0c-0.3,0.8-1.1,1.2-1.9,0.9
		C195.7,101.5,195.3,100.7,195.5,99.9 M197.3,94.6L197.3,94.6c0.3-0.8,1.2-1.1,2-0.8c0.7,0.3,1.1,1,0.9,1.8l0,0
		c-0.2,0.6-0.8,1-1.4,1c-0.2,0-0.3,0-0.5-0.1C197.5,96.2,197.1,95.4,197.3,94.6 M199.1,89.2c0.3-0.8,1.1-1.2,1.9-0.9
		c0.8,0.3,1.2,1.1,0.9,1.9l0,0c-0.2,0.6-0.8,1-1.4,1c-0.2,0-0.3,0-0.5-0.1C199.2,90.9,198.8,90,199.1,89.2 M204.5,96.7
		c0.3,0.8-0.2,1.7-0.9,1.9c-0.2,0.1-0.3,0.1-0.5,0.1c-0.6,0-1.2-0.4-1.4-1l0,0c-0.3-0.8,0.1-1.7,0.9-1.9
		C203.3,95.5,204.2,95.9,204.5,96.7C204.5,96.7,204.5,96.7,204.5,96.7 M204.5,116.8h-7.9l4-11.8L204.5,116.8z M206.1,101.6
		L206.1,101.6c0.2,0.8-0.2,1.6-0.9,1.9c-0.2,0.1-0.3,0.1-0.5,0.1c-0.7,0-1.2-0.4-1.4-1l0,0c-0.1-0.8,0.5-1.6,1.3-1.7
		C205.2,100.8,205.8,101.1,206.1,101.6 M207.7,106.5L207.7,106.5c0.2,0.8-0.2,1.6-0.9,1.9c-0.2,0-0.3,0.1-0.5,0.1
		c-0.7,0-1.2-0.4-1.4-1l0,0c-0.3-0.8,0-1.7,0.8-2c0.8-0.3,1.7,0,2,0.8C207.7,106.3,207.7,106.4,207.7,106.5 M223.6,137.2l-17.9-53.4
		c-0.2-0.5-0.6-0.8-1.2-0.8h-7.9c-0.5,0-1,0.3-1.2,0.8l-17.9,53.5c-0.2,0.6,0.1,1.3,0.7,1.5c0.1,0,0.3,0.1,0.4,0.1h11.5
		c0.5,0,1-0.3,1.2-0.8l3.3-9.8h11.8l3.3,9.8c0.2,0.5,0.6,0.8,1.2,0.8h11.5c0.7,0,1.2-0.5,1.2-1.2
		C223.8,137.6,223.7,137.4,223.6,137.2"/>
	<path d="M214.6,210.2c-0.2,0.1-0.4,0.1-0.6,0.1c-0.8,0-1.5-0.5-1.8-1.3l0,0c-0.3-1,0.2-2,1.1-2.4c1-0.3,2,0.2,2.4,1.1
		C216.1,208.7,215.6,209.8,214.6,210.2C214.6,210.1,214.6,210.2,214.6,210.2 M210.1,202.5L210.1,202.5c-0.4-1,0-2,1-2.4
		c1-0.4,2,0,2.4,1c0,0.1,0.1,0.2,0.1,0.3l0,0c0.3,1-0.2,2-1.2,2.3c-0.2,0.1-0.4,0.1-0.6,0.1C211,203.8,210.3,203.3,210.1,202.5
		 M208.2,196.6L208.2,196.6l-0.1-0.1c-0.3-0.3-0.4-0.7-0.4-1.2c0-0.1,0-0.2,0-0.3V195c0,0,0-0.1,0-0.1c0,0,0-0.1,0-0.1l0,0
		c0.3-1,1.4-1.5,2.4-1.2c0.5,0.2,0.9,0.5,1.1,1v0.1c0,0,0,0,0,0.1l0,0v0.1l0,0c0,0,0,0.1,0,0.1c0,0,0,0.1,0,0.1l0,0c0,0,0,0.1,0,0.1
		l0,0l0,0c0,0,0,0.1,0,0.2l0,0c0,0.1,0,0.1,0,0.2l0,0v0.2l0,0c-0.2,0.6-0.6,1-1.2,1.2c-0.2,0.1-0.4,0.1-0.6,0.1
		c-0.5,0-1-0.2-1.4-0.6 M205.7,189.7L205.7,189.7c-0.3-1,0.2-2,1.1-2.4c1-0.3,2,0.2,2.4,1.1c0,0,0,0.1,0,0.1l0,0
		c0.3,1-0.2,2-1.2,2.3c-0.2,0.1-0.4,0.1-0.6,0.1C206.7,190.9,206,190.4,205.7,189.7 M203.7,183.6L203.7,183.6c-0.3-1,0.3-2,1.2-2.3
		c1-0.3,2,0.2,2.3,1.2l0,0c0.3,1-0.2,2-1.2,2.3c-0.2,0.1-0.4,0.1-0.6,0.1C204.7,184.9,204,184.4,203.7,183.6 M203,196.9L203,196.9
		c-1,0.1-1.9-0.7-2-1.7c-0.1-1,0.7-1.9,1.7-2c0.1,0,0.2,0,0.3,0l0,0c1,0.1,1.8,1,1.7,2C204.6,196.1,203.9,196.8,203,196.9
		 M196.4,196.9L196.4,196.9c-1-0.1-1.8-1-1.7-2c0.1-0.9,0.8-1.7,1.7-1.7l0,0c1,0.1,1.8,1,1.7,2C198.1,196.1,197.3,196.8,196.4,196.9
		 M189.8,196.9L189.8,196.9c-1-0.1-1.8-1-1.7-2c0.1-0.9,0.8-1.7,1.7-1.7l0,0c1,0.1,1.8,1,1.7,2C191.5,196.1,190.7,196.8,189.8,196.9
		 M187,184c-0.9-0.3-1.5-1.4-1.2-2.3l0,0c0.2-1,1.3-1.6,2.3-1.4c1,0.2,1.6,1.3,1.4,2.3c0,0.1-0.1,0.2-0.1,0.3l0,0
		c-0.3,0.8-1,1.3-1.8,1.3C187.5,184.1,187.3,184.1,187,184 M187.2,189.3L187.2,189.3c-0.3,1-1.4,1.5-2.4,1.1
		c-0.9-0.3-1.5-1.3-1.2-2.3l0,0c0.3-1,1.4-1.5,2.4-1.1C187,187.4,187.5,188.4,187.2,189.3 M184.4,196.8L184.4,196.8l-0.2,0.1
		c-0.3,0.2-0.6,0.2-0.9,0.2c-0.2,0-0.4,0-0.6-0.1c-0.9-0.3-1.5-1.4-1.2-2.3l0,0c0.3-1,1.4-1.5,2.4-1.2c0.3,0.1,0.6,0.3,0.8,0.6l0,0
		l0.1,0.1c0.2,0.3,0.4,0.7,0.4,1.2c0,0.6-0.3,1.2-0.8,1.5 M182.9,202.6L182.9,202.6c-0.3,0.7-1,1.2-1.8,1.1c-0.2,0-0.4,0-0.6-0.1
		c-0.9-0.3-1.5-1.4-1.2-2.3l0,0c0.2-1,1.3-1.6,2.3-1.4c1,0.2,1.6,1.3,1.4,2.3c0,0.1-0.1,0.2-0.1,0.3 M180.6,209L180.6,209
		c-0.3,0.8-1,1.3-1.8,1.3c-0.2,0-0.4,0-0.6-0.1c-1-0.3-1.5-1.4-1.2-2.4c0.3-1,1.4-1.5,2.4-1.2C180.5,206.9,181,208,180.6,209
		C180.7,209,180.7,209,180.6,209 M188.1,175.1L188.1,175.1c0.3-1,1.4-1.5,2.4-1.1c0.9,0.3,1.5,1.3,1.2,2.3l0,0
		c-0.3,0.8-1,1.3-1.8,1.3c-0.2,0-0.4,0-0.6-0.1C188.3,177.1,187.8,176.1,188.1,175.1 M190.3,168.6L190.3,168.6
		c0.2-1,1.3-1.6,2.3-1.4c1,0.2,1.6,1.3,1.4,2.3c0,0.1-0.1,0.2-0.1,0.3l0,0c-0.3,0.8-1,1.3-1.8,1.3c-0.2,0-0.4,0-0.6-0.1
		C190.5,170.6,190,169.6,190.3,168.6 M192.5,162.1L192.5,162.1c0.3-1,1.4-1.5,2.4-1.1c0.9,0.3,1.5,1.3,1.2,2.3l0,0
		c-0.3,0.8-1,1.3-1.8,1.3c-0.2,0-0.4,0-0.6-0.1C192.7,164.1,192.2,163,192.5,162.1 M194.6,155.5c0.4-1,1.5-1.4,2.5-1
		c0.8,0.4,1.3,1.3,1.1,2.2l0,0c-0.3,0.8-1,1.3-1.8,1.3c-0.2,0-0.4,0-0.6-0.1C194.9,157.5,194.4,156.5,194.6,155.5 M201.3,164.7
		c0.3,1-0.2,2-1.2,2.4c-0.2,0.1-0.4,0.1-0.6,0.1c-0.8,0-1.5-0.5-1.8-1.3l0,0c-0.3-1,0.3-2,1.2-2.3C200,163.3,201,163.8,201.3,164.7
		 M201.4,189.4h-9.7l4.9-14.5L201.4,189.4z M203.4,170.7L203.4,170.7c0.3,1-0.2,2-1.2,2.3c-0.2,0.1-0.4,0.1-0.6,0.1
		c-0.8,0-1.5-0.5-1.8-1.3l0,0c-0.2-1,0.4-2,1.4-2.3C202.1,169.4,203,169.9,203.4,170.7 M205.4,176.7L205.4,176.7
		c0.3,1-0.2,2-1.2,2.3c-0.2,0.1-0.4,0.1-0.6,0.1c-0.8,0-1.5-0.5-1.8-1.3l0,0c-0.3-1,0.2-2,1.1-2.4
		C204,175.1,205.1,175.6,205.4,176.7C205.4,176.6,205.4,176.7,205.4,176.7 M224.8,214.5l-22-65.7c-0.2-0.6-0.8-1-1.4-1h-9.7
		c-0.6,0-1.2,0.4-1.4,1l-22,65.8c-0.3,0.8,0.2,1.6,0.9,1.9c0.2,0.1,0.3,0.1,0.5,0.1h14.2c0.6,0,1.2-0.4,1.4-1l4-12.1h14.5l4.1,12.1
		c0.2,0.6,0.8,1,1.4,1h14.2c0.8,0,1.5-0.7,1.5-1.5c0,0,0,0,0,0C225,214.9,225,214.7,224.8,214.5"/>
	<path d="M47.6,156.6c0,0,0,0.1,0,0.1c-0.3,0.7-1,1.2-1.8,1.2c-0.2,0-0.4,0-0.6-0.1c-0.9-0.3-1.5-1.4-1.2-2.3c0.3-1,1.4-1.5,2.4-1.1
		C47.3,154.7,47.8,155.7,47.6,156.6 M45.5,162.8L45.5,162.8c-0.3,0.8-1,1.3-1.8,1.3c-0.2,0-0.4,0-0.6-0.1c-0.9-0.3-1.5-1.4-1.2-2.3
		l0,0c0.2-1,1.3-1.6,2.3-1.4c1,0.2,1.6,1.3,1.4,2.3C45.6,162.7,45.5,162.8,45.5,162.8 M43.4,168.9L43.4,168.9
		c-0.3,0.8-1,1.3-1.8,1.3c-0.2,0-0.4,0-0.6-0.1c-1-0.4-1.5-1.4-1.1-2.4c0.4-1,1.4-1.5,2.4-1.1C43.3,166.9,43.8,168,43.4,168.9
		 M41.4,175.1L41.4,175.1c-0.3,0.8-1,1.3-1.8,1.3c-0.2,0-0.4,0-0.6-0.1c-1-0.3-1.5-1.4-1.2-2.4l0,0c0.3-1,1.4-1.5,2.4-1.1
		C41.2,173.1,41.7,174.1,41.4,175.1 M39.3,181.3L39.3,181.3c-0.3,0.8-1,1.3-1.8,1.3c-0.2,0-0.4,0-0.6-0.1c-0.9-0.3-1.5-1.4-1.2-2.3
		l0,0c0.2-1,1.3-1.6,2.3-1.4c1,0.2,1.6,1.3,1.4,2.3C39.4,181.1,39.4,181.2,39.3,181.3 M37.2,187.5L37.2,187.5
		c-0.3,0.8-1,1.3-1.8,1.3c-0.2,0-0.4,0-0.6-0.1c-0.9-0.3-1.5-1.4-1.2-2.3l0,0c0.3-1,1.3-1.5,2.3-1.2C37,185.4,37.6,186.4,37.2,187.5
		C37.2,187.4,37.2,187.5,37.2,187.5 M35.2,193.7L35.2,193.7c-0.3,0.8-1,1.3-1.8,1.3c-0.2,0-0.4,0-0.6-0.1c-0.9-0.3-1.5-1.4-1.2-2.3
		l0,0c0.3-1,1.3-1.5,2.3-1.2C35,191.6,35.5,192.6,35.2,193.7C35.2,193.6,35.2,193.7,35.2,193.7 M33.1,199.8L33.1,199.8
		c-0.3,0.8-1,1.3-1.8,1.3c-0.2,0-0.4,0-0.6-0.1c-1-0.3-1.5-1.4-1.1-2.4c0.3-0.9,1.3-1.5,2.3-1.2C32.9,197.8,33.4,198.8,33.1,199.8
		 M28.8,210.2c-0.2,0.1-0.4,0.1-0.6,0.1c-0.8,0-1.5-0.6-1.7-1.3l0,0c-0.3-1,0.2-2,1.1-2.4c1-0.3,2,0.2,2.4,1.1
		C30.3,208.7,29.8,209.8,28.8,210.2C28.8,210.1,28.8,210.1,28.8,210.2 M24.2,202.5L24.2,202.5c-0.3-1,0.2-2,1.1-2.4
		c1-0.3,2,0.2,2.4,1.1c0,0,0,0.1,0,0.1l0,0c0.3,1-0.2,2-1.2,2.3c-0.2,0.1-0.4,0.1-0.6,0.1C25.2,203.7,24.5,203.2,24.2,202.5
		 M22,195.9L22,195.9c-0.4-1,0-2,1-2.4c1-0.4,2,0,2.4,1c0,0.1,0.1,0.2,0.1,0.3l0,0c0.3,1-0.2,2-1.2,2.4c-0.2,0.1-0.4,0.1-0.6,0.1
		C23,197.2,22.3,196.7,22,195.9 M19.9,189.4L19.9,189.4c-0.3-1,0.3-2,1.2-2.3c1-0.3,2,0.2,2.3,1.2l0,0c0.3,1-0.2,2-1.2,2.3
		c-0.2,0.1-0.4,0.1-0.6,0.1C20.8,190.6,20.1,190.1,19.9,189.4 M17.6,182.8L17.6,182.8c-0.5-0.9-0.2-2,0.7-2.5c0.9-0.5,2-0.2,2.5,0.7
		c0.1,0.2,0.2,0.4,0.2,0.7l0,0c0.3,1-0.2,2-1.2,2.3c-0.2,0.1-0.4,0.1-0.6,0.1C18.6,184.1,17.9,183.6,17.6,182.8 M15.4,176.3
		L15.4,176.3c-0.3-1,0.3-2,1.2-2.3c1-0.3,2,0.2,2.3,1.2l0,0c0.3,1-0.2,2-1.2,2.3c-0.2,0.1-0.4,0.1-0.6,0.1
		C16.4,177.5,15.7,177,15.4,176.3 M13.2,169.7L13.2,169.7c-0.5-0.9-0.2-2,0.7-2.5c0.9-0.5,2-0.2,2.5,0.7c0.1,0.2,0.2,0.4,0.2,0.7
		l0,0c0.3,1-0.2,2-1.2,2.3c-0.2,0.1-0.4,0.1-0.6,0.1C14.1,171,13.4,170.4,13.2,169.7 M11,163.1L11,163.1c-0.3-1,0.2-2,1.1-2.4
		c1-0.3,2,0.2,2.4,1.1c0,0,0,0.1,0,0.1l0,0c0.3,1-0.2,2-1.2,2.3c-0.2,0.1-0.4,0.1-0.6,0.1C11.9,164.4,11.2,163.9,11,163.1
		 M8.8,156.6L8.8,156.6c-0.3-1,0.2-2,1.2-2.4s2,0.2,2.4,1.2c0.3,1-0.2,2-1.2,2.4c-0.2,0.1-0.4,0.1-0.6,0.1
		C9.8,157.8,9,157.3,8.8,156.6 M56.3,148.3c-0.3-0.4-0.7-0.6-1.2-0.6H40.9c-0.6,0-1.2,0.4-1.4,1l-11.3,33.7l-11.3-33.6
		c-0.2-0.6-0.8-1-1.4-1H1.3c-0.5,0-0.9,0.2-1.2,0.6c-0.3,0.4-0.4,0.9-0.2,1.3l22.1,65.8c0.2,0.6,0.8,1,1.4,1H33c0.6,0,1.2-0.4,1.4-1
		l22.2-65.8c0.1-0.5,0.1-1-0.2-1.3"/>
	<path d="M80.9,137.2l-11.1-22.3c8-5.2,10.3-15.9,5.1-24C71.6,86,66.2,83,60.3,83H44.2c-0.7,0-1.2,0.5-1.2,1.2v53.5
		c0,0.7,0.5,1.2,1.2,1.2l0,0h10.9c0.7,0,1.2-0.5,1.2-1.2l0,0V118l10.1,20.3c0.2,0.4,0.6,0.7,1.1,0.7h12.3c0.7,0,1.2-0.5,1.2-1.2
		C81,137.5,81,137.4,80.9,137.2L80.9,137.2z M70.9,106.3L70.9,106.3c-0.5,0.7-1.5,0.8-2.1,0.3c-0.5-0.4-0.7-1.1-0.5-1.7l0,0
		c0.3-0.8,1.2-1.2,1.9-0.9c0.8,0.3,1.2,1.2,0.9,1.9C71,106,71,106.2,70.9,106.3z M72.4,100.3L72.4,100.3c0.1,0.8-0.6,1.6-1.4,1.6
		c-0.8,0.1-1.6-0.6-1.6-1.4c0-0.1,0-0.2,0-0.2l0,0c0.1-0.8,0.8-1.5,1.6-1.4C71.8,99,72.4,99.6,72.4,100.3z M68.8,93.8
		c0.7-0.4,1.7-0.2,2.1,0.6c0,0,0,0,0,0l0,0c0.4,0.7,0.2,1.7-0.6,2.1c-0.7,0.4-1.7,0.2-2.1-0.6l0,0C67.8,95.1,68.1,94.2,68.8,93.8z
		 M64.5,90.4c0.4-0.7,1.4-1,2.1-0.5c0,0,0,0,0,0l0,0c0.7,0.4,1,1.4,0.5,2.1c-0.3,0.5-0.8,0.8-1.3,0.8c-0.3,0-0.5-0.1-0.8-0.2l0,0
		C64.3,92.1,64,91.2,64.5,90.4C64.5,90.4,64.5,90.4,64.5,90.4z M66.6,110.7L66.6,110.7c-0.3,0.1-0.6,0.2-0.8,0.2
		c-0.8,0-1.5-0.7-1.5-1.5c0-0.8,0.7-1.5,1.5-1.5s1.5,0.7,1.5,1.5C67.3,109.9,67.1,110.4,66.6,110.7L66.6,110.7z M64.3,100.3
		c0,2.2-1.7,3.9-3.9,3.9c0,0,0,0,0,0h-4v-7.9h4C62.5,96.4,64.3,98.2,64.3,100.3z M60.6,88.2L60.6,88.2c0.8,0,1.5,0.7,1.5,1.5
		s-0.7,1.5-1.5,1.5h-0.1c-0.8,0-1.5-0.7-1.5-1.6C59.1,88.8,59.8,88.2,60.6,88.2L60.6,88.2z M49.7,133.8c-0.8,0-1.5-0.7-1.5-1.5
		c0,0,0,0,0,0l0,0c0-0.8,0.7-1.5,1.5-1.5c0.8,0,1.5,0.7,1.5,1.5C51.2,133.1,50.5,133.8,49.7,133.8C49.7,133.8,49.7,133.8,49.7,133.8
		L49.7,133.8z M51.2,126.9c-0.1,0.8-0.8,1.5-1.6,1.4c-0.7-0.1-1.3-0.7-1.4-1.4l0,0c0.1-0.8,0.8-1.5,1.6-1.4
		C50.5,125.6,51.1,126.2,51.2,126.9z M51.2,121.6c-0.1,0.8-0.8,1.5-1.6,1.4c-0.7-0.1-1.3-0.7-1.4-1.4l0,0c-0.1-0.8,0.6-1.6,1.4-1.6
		c0.8-0.1,1.6,0.6,1.6,1.4C51.2,121.5,51.2,121.6,51.2,121.6z M51.2,116.3c-0.1,0.8-0.8,1.5-1.6,1.4c-0.7-0.1-1.3-0.7-1.4-1.4l0,0
		c0.1-0.8,0.8-1.5,1.6-1.4C50.5,115,51.1,115.6,51.2,116.3z M51.2,111c0.1,0.8-0.6,1.6-1.4,1.6c-0.8,0.1-1.6-0.6-1.6-1.4
		c0-0.1,0-0.2,0-0.2l0,0c0.1-0.8,0.8-1.5,1.6-1.4C50.5,109.6,51.1,110.2,51.2,111z M51.2,105.7c-0.1,0.8-0.8,1.5-1.6,1.4
		c-0.7-0.1-1.3-0.7-1.4-1.4l0,0c0.1-0.8,0.8-1.5,1.6-1.4C50.5,104.3,51.1,104.9,51.2,105.7z M51.2,100.4c-0.1,0.8-0.8,1.5-1.6,1.4
		c-0.7-0.1-1.3-0.7-1.4-1.4l0,0c-0.1-0.8,0.6-1.6,1.4-1.6c0.8-0.1,1.6,0.6,1.6,1.4C51.2,100.2,51.2,100.3,51.2,100.4z M51.2,95
		c-0.1,0.8-0.8,1.5-1.6,1.4c-0.7-0.1-1.3-0.7-1.4-1.4l0,0c0.1-0.8,0.8-1.5,1.6-1.4C50.5,93.7,51.1,94.3,51.2,95z M49.7,91.3
		c-0.8,0-1.5-0.7-1.5-1.5l0,0l0,0c0-0.8,0.7-1.5,1.5-1.5s1.5,0.7,1.5,1.5C51.2,90.6,50.5,91.3,49.7,91.3
		C49.7,91.3,49.7,91.3,49.7,91.3L49.7,91.3z M55.1,88.2L55.1,88.2c0.8-0.1,1.6,0.6,1.6,1.4c0.1,0.8-0.6,1.6-1.4,1.6
		c-0.1,0-0.2,0-0.2,0l0,0c-0.8-0.1-1.5-0.8-1.4-1.6C53.8,88.9,54.4,88.3,55.1,88.2z M55.2,112.5L55.2,112.5c-0.8,0-1.5-0.7-1.5-1.5
		s0.7-1.5,1.5-1.5l0,0c0.8,0,1.5,0.7,1.5,1.5S56,112.5,55.2,112.5L55.2,112.5z M60.7,112.5L60.7,112.5c-0.8-0.1-1.5-0.8-1.4-1.6
		c0.1-0.7,0.7-1.3,1.4-1.4l0,0c0.8,0,1.5,0.6,1.6,1.5c0,0.8-0.6,1.5-1.4,1.6C60.8,112.5,60.8,112.5,60.7,112.5L60.7,112.5z
		 M63,117.9c-0.6,0-1.1-0.3-1.4-0.8l0,0c-0.4-0.8-0.1-1.7,0.7-2c0.8-0.4,1.7-0.1,2,0.7l0,0c0.4,0.7,0.1,1.7-0.7,2
		C63.5,117.8,63.2,117.8,63,117.9L63,117.9z M66.3,123c-0.2,0.1-0.4,0.2-0.7,0.2c-0.6,0-1.1-0.3-1.4-0.9l0,0
		c-0.4-0.7-0.1-1.7,0.6-2.1c0.7-0.4,1.7-0.1,2.1,0.6l0,0C67.4,121.6,67.1,122.5,66.3,123C66.4,123,66.4,123,66.3,123L66.3,123z
		 M68.3,128.5c-0.6,0-1.1-0.3-1.4-0.8l0,0c-0.4-0.8-0.1-1.7,0.7-2c0.7-0.4,1.6-0.1,2,0.7l0,0c0.4,0.7,0.1,1.6-0.7,2
		C68.8,128.4,68.5,128.5,68.3,128.5L68.3,128.5z M71.6,133.7c-0.2,0.1-0.4,0.2-0.7,0.2c-0.6,0-1.1-0.3-1.4-0.8
		c-0.4-0.7-0.1-1.7,0.7-2c0.7-0.4,1.7-0.1,2,0.7l0,0C72.7,132.3,72.4,133.2,71.6,133.7L71.6,133.7z"/>
</g>
</svg>
