<svg xmlns="http://www.w3.org/2000/svg" viewBox="0 0 117.53 105.62"><defs><style>.cls-1{fill:#f2f2f2;}</style></defs><title>Recurso 9</title><g id="Capa_2" data-name="Capa 2"><g id="BIO"><path class="cls-1" d="M32.07,78a5.26,5.26,0,0,0-5.26,5.26V96a5.26,5.26,0,0,0,10.51.33v-13A5.26,5.26,0,0,0,32.07,78Zm2.2,18a2.21,2.21,0,1,1-4.41.21.74.74,0,0,1,0-.21V83.23A2.21,2.21,0,1,1,34.27,83V96Z"/><path class="cls-1" d="M32.07,73.56a9.68,9.68,0,0,0-9.67,9.67V96a9.68,9.68,0,0,0,9.67,9.67h0A9.69,9.69,0,0,0,41.73,96V83.23A9.69,9.69,0,0,0,32.07,73.56ZM38.68,96a6.62,6.62,0,1,1-13.23.37,2.29,2.29,0,0,1,0-.37V83.23a6.62,6.62,0,1,1,13.23-.37V96Z"/><path class="cls-1" d="M64.26,74.11h-6.1a.68.68,0,0,0-.68.69V96a2.21,2.21,0,0,1-4.41,0V74.78a.68.68,0,0,0-.68-.67H46.28a.68.68,0,0,0-.69.66h0V96a9.67,9.67,0,0,0,9.65,9.64h0A9.67,9.67,0,0,0,64.91,96V74.78A.68.68,0,0,0,64.26,74.11ZM61.89,96a6.62,6.62,0,0,1-13.23,0V77.85a.68.68,0,1,1,1.36,0V96a5.26,5.26,0,0,0,10.51,0V77.85a.68.68,0,0,1,1.36,0Z"/><path class="cls-1" d="M91.47,74.07H85.41a.66.66,0,0,0-.68.66h0v14L75.54,74.38a.66.66,0,0,0-.56-.31h-4.7a.67.67,0,0,0-.69.66h0v29.62a.68.68,0,0,0,.68.67h6.06a.67.67,0,0,0,.67-.67v-14l9.19,14.35a.68.68,0,0,0,.57.31h4.69a.67.67,0,0,0,.68-.67V74.74A.67.67,0,0,0,91.47,74.07Zm-2.36,27.26h0v.07h0v0h0v0h0v0h0v0l0,0h0l0,0h0l0,0h0l-.12.17h-.06l-.06,0h0l-.08,0h-.45l-.06,0h0l0,0h0l0,0h0l0-.06h0L74,80.06v21.27a.68.68,0,0,1-1.35,0V77.77h0v0h0v-.07h0v0h0v-.05h0V77.5h0l0,0h0l0,0h.7l.05,0h0l0,0h0v0h0l13.9,21.63V77.77a.67.67,0,0,1,1.34,0Z"/><path class="cls-1" d="M106.48,78.48H100.9V100.7h5.57A5.75,5.75,0,0,0,112.18,95V84.19A5.75,5.75,0,0,0,106.48,78.48ZM109.16,95a2.67,2.67,0,0,1-2.68,2.67h-2.54V81.5h2.54a2.68,2.68,0,0,1,2.68,2.68h0Z"/><path class="cls-1" d="M106.48,74.11H97.21a.67.67,0,0,0-.67.67V104.4a.67.67,0,0,0,.67.67h9.27A10.1,10.1,0,0,0,116.56,95V84.19A10.1,10.1,0,0,0,106.48,74.11Zm7,20.87a7.06,7.06,0,0,1-7,7.06h-6.26a.67.67,0,0,1-.67-.68V77.81a.67.67,0,0,1,.67-.67h6.26a7,7,0,0,1,7,7Z"/><path class="cls-1" d="M14.52,100.58a6.34,6.34,0,0,1-4.54,1.9c-3,0-5.74-1.69-6.54-4a.68.68,0,1,1,1.25-.52l0,.07c.62,1.77,2.89,3.13,5.26,3.13a5,5,0,0,0,3.58-1.49A5.21,5.21,0,0,0,15,95.87c0-4.17-2.61-5.11-5.62-6.19s-6.19-2.23-6.19-7c0-3.53,2.55-6,6.33-6.12h0A6.58,6.58,0,0,1,16,80.73a.68.68,0,0,1-1.29.43A5.21,5.21,0,0,0,9.56,78c-3,.1-5,2-5,4.75,0,3.79,2.45,4.7,5.3,5.7,3,1.09,6.45,2.32,6.51,7.45a6.52,6.52,0,0,1-1.87,4.75m2.61-11.48A14.89,14.89,0,0,0,11,85.59c-2.65-.91-3.23-1.41-3.23-2.86,0-.77.53-1.67,2-1.67a2.12,2.12,0,0,1,2.15,1.11h0a4,4,0,0,1,.15,1.38v.27a.67.67,0,0,0,.68.68h6a.67.67,0,0,0,.68-.68h0a13.25,13.25,0,0,0-.44-4c-1.39-4.3-5.82-6.26-9.36-6.26C4.25,73.55.3,77.4.3,82.71c0,6.26,4.36,8.57,8.17,9.88,3,1,3.58,1.56,3.58,3.33a2,2,0,0,1-1.9,2.19H9.92A2.85,2.85,0,0,1,7.66,96.9a3,3,0,0,1-.16-1.45.69.69,0,0,0-.68-.68H.8a.69.69,0,0,0-.68.68h0a12.22,12.22,0,0,0,.53,4c1.26,3.55,5.25,6.12,9.47,6.12a9.3,9.3,0,0,0,6.72-2.81,10.38,10.38,0,0,0,.31-13.68"/><path class="cls-1" d="M16.07,2.65A9,9,0,0,0,9.68,0H1.27A.63.63,0,0,0,.64.63h0V28.55a.64.64,0,0,0,.63.64H7a.63.63,0,0,0,.62-.64V18.08H9.66A9,9,0,0,0,16.05,2.65ZM9.83,2.7h0a.79.79,0,0,1,0,1.58h0A.78.78,0,0,1,9,3.48a.79.79,0,0,1,.8-.78ZM3.34,6.26a.79.79,0,0,1,1.58,0h0a.79.79,0,0,1-1.58,0ZM3.34,9A.79.79,0,1,1,4.92,9h0A.79.79,0,1,1,3.34,9Zm0,2.77a.79.79,0,1,1,1.58,0h0a.79.79,0,0,1-1.58,0Zm.81,14.68a.79.79,0,0,1-.79-.79h0a.8.8,0,1,1,.8.79ZM5,22.93a.8.8,0,0,1-1.59,0h0a.8.8,0,0,1,1.59,0Zm0-2.78a.8.8,0,1,1-1.59,0h0a.8.8,0,0,1,1.59,0Zm0-2.77a.8.8,0,0,1-1.59,0h0a.8.8,0,0,1,1.59,0ZM4.81,15a.78.78,0,0,1-1.1.22.77.77,0,0,1-.35-.65h0a.79.79,0,0,1,.79-.8.81.81,0,0,1,.74.49.87.87,0,0,1,.06.32.8.8,0,0,1-.16.42ZM4.46,4.22a.81.81,0,0,1-.31.06.79.79,0,0,1-.79-.79h0a.79.79,0,0,1,.75-.79h0a.8.8,0,0,1,.3,1.53ZM7,2.69H7a.8.8,0,0,1,.73.86A.79.79,0,0,1,7,4.28H7A.8.8,0,0,1,7,2.69ZM7,15.38H7A.79.79,0,1,1,7,13.8H7a.79.79,0,1,1,0,1.58Zm2.87,0h0a.8.8,0,0,1,0-1.59h0A.8.8,0,0,1,10,15.38H9.9Zm1.26-4.88a2,2,0,0,1-1.47.6H7.6V7H9.67A2.06,2.06,0,0,1,11.73,9a2.1,2.1,0,0,1-.61,1.46Zm.72-6.63A.79.79,0,0,1,13,3.6h0a.79.79,0,0,1-.41,1.47A.84.84,0,0,1,12.15,5h0a.8.8,0,0,1-.3-1.08h0ZM13,14.46h0a.81.81,0,0,1-.41.11.8.8,0,0,1-.8-.8.81.81,0,0,1,.81-.8.8.8,0,0,1,.8.8.79.79,0,0,1-.38.68Zm1.14-8.85a.8.8,0,0,1,1.08.29h0A.79.79,0,0,1,14.92,7a.76.76,0,0,1-.39.1.79.79,0,0,1-.69-.4h0a.79.79,0,0,1,.28-1.07Zm1.1,6.54h0a.8.8,0,0,1-1.08.3h0a.81.81,0,0,1-.34-1h0a.8.8,0,0,1,1.39.78ZM16.05,9a.8.8,0,0,1-1.59,0h0a.8.8,0,1,1,1.59,0Z"/><path class="cls-1" d="M62.94,7a.64.64,0,0,0,.63-.64V.63A.63.63,0,0,0,62.94,0H46.12a.62.62,0,0,0-.64.62h0V6.34a.64.64,0,0,0,.64.64H51V22.23H46.12a.63.63,0,0,0-.65.61h0v5.7a.64.64,0,0,0,.64.64H62.94a.63.63,0,0,0,.63-.63h0v-5.7a.62.62,0,0,0-.63-.62H58V7ZM60.08,2.69h0a.79.79,0,0,1,.79.8.79.79,0,0,1-.79.79.79.79,0,1,1,0-1.58h0ZM49,4.28a.8.8,0,0,1,0-1.59h0a.8.8,0,0,1,.12,1.59Zm0,22.21a.8.8,0,0,1,0-1.59h0a.8.8,0,0,1,0,1.59Zm2.78,0h0a.8.8,0,1,1,0-1.59h0a.8.8,0,0,1,0,1.59Zm0-22.21h0a.8.8,0,0,1,0-1.59h0a.8.8,0,0,1,.73.86A.79.79,0,0,1,51.77,4.28Zm2.77,22.21h0a.8.8,0,1,1,.57-1.36.8.8,0,0,1-.55,1.36Zm0-18.25a.78.78,0,0,1,.77.8h0a.79.79,0,0,1-.85.73A.81.81,0,0,1,53.72,9h0a.79.79,0,0,1,.79-.8h0Zm-.79-2h0a.8.8,0,0,1,1.59,0h0a.8.8,0,0,1-.86.73A.79.79,0,0,1,53.75,6.27ZM54.54,11a.79.79,0,0,1,.77.8h0a.78.78,0,0,1-.85.73.81.81,0,0,1-.74-.73h0a.79.79,0,0,1,.8-.79h0Zm0,2.77a.8.8,0,0,1,.77.81h0a.79.79,0,0,1-.73.85.8.8,0,0,1-.86-.73v-.12h0a.8.8,0,0,1,.8-.8h0Zm0,2.78a.79.79,0,0,1,.77.8h0a.78.78,0,0,1-.85.73.81.81,0,0,1-.74-.73h0a.79.79,0,0,1,.8-.79h0Zm0,2.77a.81.81,0,0,1,.77.81h0a.78.78,0,0,1-.85.73.81.81,0,0,1-.74-.73h0a.8.8,0,0,1,.8-.8h0Zm0,2.78a.8.8,0,0,1,.77.8h0a.8.8,0,0,1-.85.74.82.82,0,0,1-.74-.74h0a.8.8,0,0,1,.8-.79h0Zm.32-17.9a.71.71,0,0,1-.32.07.82.82,0,0,1-.45-.14.79.79,0,0,1,.45-1.47h0a.79.79,0,0,1,.77.81h0a.78.78,0,0,1-.46.73ZM60.09,24.9h0a.79.79,0,1,1-.8.79.78.78,0,0,1,.8-.78Zm-2,.79a.79.79,0,0,1-.79.79h0a.79.79,0,1,1,0-1.58h0a.79.79,0,0,1,.78.8h0ZM57.33,4.28h0a.81.81,0,0,1-.74-.86.79.79,0,0,1,.74-.73h0a.79.79,0,0,1,.73.85A.81.81,0,0,1,57.33,4.28Z"/><path class="cls-1" d="M88.92,0H84.49A.64.64,0,0,0,84,.29L78.9,8.16,73.88.3a.6.6,0,0,0-.53-.3H68.93a.63.63,0,0,0-.64.63V28.55a.64.64,0,0,0,.64.64h5.72a.64.64,0,0,0,.63-.64V15.37l3.09,4.85a.65.65,0,0,0,.54.29h0a.62.62,0,0,0,.53-.29l3.14-4.88V28.55a.64.64,0,0,0,.63.64h5.71a.64.64,0,0,0,.64-.64V.63A.64.64,0,0,0,88.92,0ZM71.79,26.49A.79.79,0,0,1,71,25.7h0a.78.78,0,0,1,.85-.73.81.81,0,0,1,.74.73A.82.82,0,0,1,71.79,26.49Zm.8-3.56a.81.81,0,0,1-.74.86.8.8,0,0,1-.85-.74.24.24,0,0,1,0-.12h0a.78.78,0,0,1,.85-.73A.81.81,0,0,1,72.59,22.93Zm0-2.78a.81.81,0,0,1-.86.74.79.79,0,0,1-.73-.74h0a.79.79,0,0,1,.85-.73A.81.81,0,0,1,72.59,20.15Zm0-2.77a.8.8,0,0,1-1.59,0h0a.78.78,0,0,1,.85-.73A.81.81,0,0,1,72.59,17.38Zm0-2.77a.81.81,0,0,1-.86.73.79.79,0,0,1-.73-.73h0a.8.8,0,0,1,.85-.74A.81.81,0,0,1,72.59,14.61Zm0-2.78a.81.81,0,0,1-.86.73.79.79,0,0,1-.73-.73h0a.8.8,0,0,1,.85-.74A.82.82,0,0,1,72.59,11.83Zm0-2.78a.8.8,0,0,1-1.59,0h0a.8.8,0,0,1,.73-.86.81.81,0,0,1,.86.74Zm0-2.77a.8.8,0,0,1-.86.73A.79.79,0,0,1,71,6.28h0a.78.78,0,0,1,.85-.73A.81.81,0,0,1,72.59,6.28Zm-.8-2A.79.79,0,0,1,71,3.52h0a.79.79,0,0,1,.79-.8.8.8,0,0,1,.8.8.79.79,0,0,1-.8.79Zm3.13,4.08a.79.79,0,0,1-1.09-.23h0a.79.79,0,0,1,.24-1.1.78.78,0,0,1,1.09.24h0a.79.79,0,0,1-.23,1.08Zm1.47,2.3a.8.8,0,0,1-.43.12.77.77,0,0,1-.66-.36h0a.79.79,0,1,1,1.33-.86h0a.79.79,0,0,1-.24,1.08ZM77.87,13a.8.8,0,0,1-1.09-.24h0A.79.79,0,0,1,77,11.66a.8.8,0,0,1,1.1.23h0A.81.81,0,0,1,77.87,13Zm1.72,2h0a.82.82,0,0,1-.25.24h-.09a.63.63,0,0,1-.33.09.86.86,0,0,1-.42-.12h0a1,1,0,0,1-.21-.21h0a.47.47,0,0,1-.05-.1h0a.65.65,0,0,1,0-.13h0v-.3l0-.13h0A.79.79,0,0,1,78.5,14h.09l.08,0h0l.11,0h0a.78.78,0,0,1,.9.65,1,1,0,0,1,0,.3h0a.5.5,0,0,1,0,.13.14.14,0,0,1,0,.06.27.27,0,0,1-.08-.07Zm1.47-2.29h0a.79.79,0,0,1-.66.36A.84.84,0,0,1,80,13a.79.79,0,0,1-.23-1.09h0a.78.78,0,0,1,1.09-.24A.79.79,0,0,1,81.06,12.74Zm1.48-2.31h0a.79.79,0,0,1-1.1.24.78.78,0,0,1-.24-1.09h0a.8.8,0,0,1,1.1-.26.8.8,0,0,1,.25,1.1ZM84,8.14a.79.79,0,0,1-1.09.25h0a.79.79,0,0,1-.24-1.09h0a.8.8,0,0,1,1.1-.24A.79.79,0,0,1,84,8.15Zm2.84,17.58a.8.8,0,1,1-.8-.8h0a.8.8,0,0,1,.8.79Zm0-2.77a.81.81,0,0,1-.74.86.8.8,0,0,1-.85-.74.24.24,0,0,1,0-.12h0a.79.79,0,0,1,.85-.73A.8.8,0,0,1,86.85,23Zm0-2.78a.8.8,0,0,1-1.59,0h0a.8.8,0,0,1,1.59,0Zm0-2.77a.8.8,0,0,1-1.59,0h0a.79.79,0,0,1,.85-.73A.8.8,0,0,1,86.85,17.4Zm0-2.77a.81.81,0,0,1-.86.73.79.79,0,0,1-.73-.73h0a.8.8,0,0,1,1.59,0Zm0-2.78a.81.81,0,0,1-.86.73.79.79,0,0,1-.73-.73h0a.8.8,0,0,1,.85-.74A.81.81,0,0,1,86.85,11.85Zm0-2.78a.8.8,0,0,1-1.59,0h0A.8.8,0,0,1,86,8.21a.81.81,0,0,1,.86.74Zm0-2.77A.8.8,0,0,1,86,7a.79.79,0,0,1-.73-.73h0a.8.8,0,0,1,.85-.74A.82.82,0,0,1,86.85,6.3Zm0-2.78a.8.8,0,0,1-1.6,0,.8.8,0,0,1,.8-.8h0A.8.8,0,0,1,86.85,3.52Z"/><path class="cls-1" d="M85.7,68.6,78.56,54.27a11.12,11.12,0,0,0-6-20.45H62.14a.78.78,0,0,0-.78.78h0V69a.78.78,0,0,0,.78.78h7A.78.78,0,0,0,70,69h0V56.28l6.5,13a.78.78,0,0,0,.7.43H85a.77.77,0,0,0,.66-.37A.76.76,0,0,0,85.7,68.6ZM79.3,48.77h0a1,1,0,0,1-.86.49,1,1,0,0,1-1-1,1,1,0,0,1,.13-.48h0a1,1,0,0,1,1.7,1Zm1-3.85h0a1,1,0,1,1-2,0h0a1,1,0,0,1,2,0ZM78,40.72a1,1,0,0,1,1.33.36h0a1,1,0,0,1-.37,1.32,1,1,0,0,1-.48.13,1,1,0,0,1-.85-.5h0A1,1,0,0,1,78,40.72Zm-2.78-2.14a1,1,0,0,1,1.34-.33h0a1,1,0,0,1-.5,1.81.91.91,0,0,1-.51-.14h0a1,1,0,0,1-.33-1.33Zm1.38,13h0a1,1,0,1,1,.36-1.35,1,1,0,0,1-.36,1.35Zm-1.49-6.68a2.54,2.54,0,0,1-2.52,2.54H70V42.4h2.56A2.54,2.54,0,0,1,75.06,44.94Zm-2.36-7.8h0a1,1,0,1,1,0,2h-.06a1,1,0,0,1,0-2Zm-7,29.26a1,1,0,0,1-1-1h0a1,1,0,1,1,1,1h0Zm1-4.37a1,1,0,0,1-2,0h0a1,1,0,0,1,2,0Zm0-3.42a1,1,0,0,1-1.06.91,1,1,0,0,1-.9-.91h0a1,1,0,0,1,.9-1,1,1,0,0,1,1.06.9Zm0-3.41a1,1,0,0,1-2,0h0a1,1,0,0,1,2,0Zm0-3.42a1,1,0,1,1-2,.15v-.15h0a1,1,0,0,1,2,0Zm0-3.41a1,1,0,0,1-2,0h0a1,1,0,0,1,2,0Zm0-3.42a1,1,0,0,1-2,0h0a1,1,0,0,1,.9-1.05,1,1,0,0,1,1.06.9Zm0-3.41a1,1,0,0,1-2,0h0a1,1,0,0,1,2,0Zm-1-2.42a1,1,0,0,1-1-1h0a1,1,0,1,1,1,1Zm3.5-2h0a1,1,0,0,1,0,2h0a1,1,0,0,1,0-2Zm0,15.61h0a1,1,0,1,1,0-2h0a1,1,0,0,1,0,2Zm3.52,0h0a1,1,0,0,1,0-2h0a1,1,0,0,1,1,1,1,1,0,0,1-.93,1h0Zm1.49,3.43a1,1,0,0,1-.87-.54h0a1,1,0,0,1,1.72-.92h0a1,1,0,0,1-.44,1.31,1.16,1.16,0,0,1-.41.13Zm2.14,3.31a.92.92,0,0,1-.44.1,1,1,0,0,1-.87-.54h0a1,1,0,0,1,1.74-.93h0a1,1,0,0,1-.37,1.32l-.06,0ZM77.62,63a1,1,0,0,1-.87-.54h0a1,1,0,1,1,1.75-.87h0a1,1,0,0,1-.43,1.31h0a1,1,0,0,1-.44.08Zm2.14,3.3a1,1,0,0,1-.44.11,1,1,0,0,1-.87-.54A1,1,0,0,1,80.19,65h0a1,1,0,0,1-.43,1.3Z"/><path class="cls-1" d="M54.84,42.4a.78.78,0,0,0,.79-.78h0v-7a.78.78,0,0,0-.79-.78H34.16a.78.78,0,0,0-.79.78h0V69a.78.78,0,0,0,.79.78H54.84a.78.78,0,0,0,.79-.78h0v-7a.79.79,0,0,0-.79-.76H42V56.07H48a.78.78,0,0,0,.77-.78h0v-7a.77.77,0,0,0-.77-.78H42V42.4Zm-3.52-5.27h0a1,1,0,1,1-1,1h0a1,1,0,0,1,1-1h0Zm-3.41,0h0a1,1,0,0,1,0,1.95h0a1,1,0,0,1-1.06-.9,1,1,0,0,1,.9-1A.43.43,0,0,1,47.91,37.13Zm-3.42,0h0a1,1,0,0,1,0,1.95h0a1,1,0,0,1,0-1.95Zm-7.8,4.38a1,1,0,0,1,2,0h0a1,1,0,0,1-2,0Zm0,3.42a1,1,0,1,1,2-.15v.15h0a1,1,0,0,1-2,0Zm0,3.41a1,1,0,0,1,2,0h0a1,1,0,0,1-2,0Zm0,6.83a1,1,0,0,1,2,0h0a1,1,0,0,1-2,0Zm0,3.42a1,1,0,0,1,2-.15v.15h0a1,1,0,0,1-2,0Zm0,3.41a1,1,0,0,1,2,0h0a1,1,0,0,1-1.06.9A1,1,0,0,1,36.69,62Zm1,4.4a1,1,0,0,1-.39-.07,1,1,0,0,1-.6-.9h0a1,1,0,0,1,1-1h0a1,1,0,0,1,1,1,1,1,0,0,1-1,1Zm.68-13.92a1,1,0,0,1-1.38,0,1,1,0,0,1-.29-.71h0a1,1,0,0,1,1-1h0a1,1,0,0,1,1,1,.93.93,0,0,1-.29.66ZM38.05,39a.85.85,0,0,1-.38.09,1,1,0,0,1-1-1h0a1,1,0,0,1,1-1h0a1,1,0,0,1,1,1,1,1,0,0,1-.6.88ZM51.32,64.47h0a1,1,0,0,1,1,1,1,1,0,0,1-1.95,0,1,1,0,0,1,1-1h0Zm-3.41,0h0a1,1,0,0,1,0,2h0a1,1,0,1,1,0-2Zm-3.42,0h0a1,1,0,0,1,0,2h0a1,1,0,1,1,0-2Zm-2.42,1a1,1,0,0,1-1,1h0a1,1,0,1,1,0-2h0a1,1,0,0,1,1,1Zm2.42-14.64h0a1,1,0,1,1-1,1,1,1,0,0,1,1-1h0Zm-2.42,1a1,1,0,0,1-1,1h0a1,1,0,1,1,0-1.95h0a1,1,0,0,1,1,1Zm-1-12.71h0a1,1,0,0,1,0-2h0a1,1,0,0,1,1,.9,1,1,0,0,1-.9,1.06Z"/><path class="cls-1" d="M112.49,26.45a1.17,1.17,0,0,1-.26,0,.81.81,0,0,1-.75-.54h0a.8.8,0,1,1,1,.48h0m-1.92-3.23h0a.8.8,0,0,1,1.5-.53v0h0a.8.8,0,0,1-.49,1,.78.78,0,0,1-.26,0,.81.81,0,0,1-.76-.53m-.77-2.51,0,0v0a.78.78,0,0,1-.16-.49v-.23h0a.8.8,0,0,1,1-.51.82.82,0,0,1,.48.43v.06h0V20h0V20h0v.05h0v.23h0v.07h0a.77.77,0,0,1-.75.55.83.83,0,0,1-.59-.26m-1-2.83h0a.79.79,0,0,1,.3-1.08.8.8,0,0,1,1.08.31.66.66,0,0,1,.09.28h0a.78.78,0,0,1-.49,1,.69.69,0,0,1-.25,0,.76.76,0,0,1-.75-.54m-.86-2.55h0a.79.79,0,0,1,1.46-.61.56.56,0,0,1,0,.12h0a.8.8,0,0,1-.49,1,.75.75,0,0,1-.26,0,.77.77,0,0,1-.74-.54m-.33,5.64h0a.8.8,0,0,1-.73-.86.79.79,0,0,1,.73-.73h0a.8.8,0,0,1,0,1.59m-2.8,0h0a.8.8,0,0,1-.73-.86.79.79,0,0,1,.73-.73h0a.79.79,0,0,1,.86.73.8.8,0,0,1-.73.86h-.13m-2.79,0h0a.81.81,0,0,1-.86-.74.79.79,0,0,1,.73-.85.29.29,0,0,1,.13,0h0a.8.8,0,0,1,0,1.59m-1.13-5.59a.79.79,0,0,1-.49-1h0a.79.79,0,0,1,.88-.68.8.8,0,0,1,.69.89,1,1,0,0,1-.1.29h0a.8.8,0,0,1-.75.54.7.7,0,0,1-.25-.05m.08,2.27h0a.82.82,0,0,1-.76.54.74.74,0,0,1-.25,0,.78.78,0,0,1-.49-1h0a.79.79,0,0,1,1.5.49m-1.23,3.18h0l-.07.05a.87.87,0,0,1-.39.1,1.09,1.09,0,0,1-.25,0,.81.81,0,0,1-.49-1h0a.8.8,0,0,1,1-.49.76.76,0,0,1,.36.25h0l0,0a.88.88,0,0,1,.15.49.81.81,0,0,1-.34.66M99,23.22h0a.79.79,0,0,1-.75.48.73.73,0,0,1-.25,0,.79.79,0,0,1-.49-1h0a.79.79,0,0,1,1-.53.8.8,0,0,1,.53,1v0m-.94,2.77h0a.79.79,0,0,1-.75.55l-.25,0a.8.8,0,1,1,1-.53v0m3.16-14.36h0a.79.79,0,0,1,1-.49.81.81,0,0,1,.5,1h0a.8.8,0,0,1-.75.54.69.69,0,0,1-.25,0,.79.79,0,0,1-.5-1m.93-2.78h0a.79.79,0,0,1,1.51.49h0a.79.79,0,0,1-1.51-.49M103.09,6h0a.79.79,0,0,1,1.5.49h0a.8.8,0,0,1-.75.54.69.69,0,0,1-.25,0,.79.79,0,0,1-.5-1m.92-2.8a.81.81,0,0,1,1-.5.8.8,0,0,1,.49,1h0a.8.8,0,0,1-.75.54.69.69,0,0,1-.25,0,.79.79,0,0,1-.5-1m2.82,3.89a.8.8,0,0,1-.49,1,1.09,1.09,0,0,1-.25,0,.81.81,0,0,1-.75-.54h0a.79.79,0,1,1,1.49-.52v0m0,10.47H102.7l2.06-6.14Zm.85-7.93h0a.78.78,0,0,1-.49,1,.74.74,0,0,1-.25.05.8.8,0,0,1-.75-.54h0a.79.79,0,0,1,.68-.89.77.77,0,0,1,.79.4m.86,2.55h0a.78.78,0,0,1-.49,1,.75.75,0,0,1-.26,0,.8.8,0,0,1-.75-.54h0a.8.8,0,1,1,1.47-.61s0,.08,0,.12M116.8,28.3,107.46.43a.63.63,0,0,0-.6-.43h-4.11a.65.65,0,0,0-.6.43L92.8,28.35a.63.63,0,0,0,.39.8.78.78,0,0,0,.21,0h6a.65.65,0,0,0,.61-.44l1.72-5.11h6.16l1.72,5.11a.63.63,0,0,0,.6.44h6a.64.64,0,0,0,.63-.64.74.74,0,0,0,0-.25"/><path class="cls-1" d="M112.11,66.36a.8.8,0,0,1-.31,0,1,1,0,0,1-.92-.65h0a1,1,0,1,1,1.25.59h0m-2.35-4h0a1,1,0,0,1,1.8-.75.83.83,0,0,1,0,.15h0A1,1,0,0,1,111,63a1.13,1.13,0,0,1-.32.05,1,1,0,0,1-.92-.66m-1-3.08v0l0,0a.92.92,0,0,1-.19-.6.38.38,0,0,1,0-.15v-.14h0a1,1,0,0,1,1.81-.09v.07h0v.07h0v.1h0v.07h0v.07h0v.08h0v.08h0a.94.94,0,0,1-.6.64,1.13,1.13,0,0,1-.32.05,1,1,0,0,1-.72-.33m-1.25-3.48h0a1,1,0,1,1,1.84-.64v0h0a1,1,0,0,1-.6,1.21,1.12,1.12,0,0,1-.31.05,1,1,0,0,1-.93-.67m-1-3.13h0a1,1,0,0,1,1.85-.61h0a1,1,0,0,1-.6,1.21.85.85,0,0,1-.31.06,1,1,0,0,1-.93-.67m-.4,6.94h0a1,1,0,0,1-1-.9,1,1,0,0,1,.9-1.06h.15a1,1,0,0,1,0,2m-3.44,0h0a1,1,0,0,1,0-2h0a1,1,0,0,1,.9,1.06,1,1,0,0,1-.9.9m-3.44,0h0a1,1,0,0,1,0-2h0a1,1,0,0,1,0,2m-1.44-6.75a1,1,0,0,1-.61-1.21h0a1,1,0,1,1,1.9.46.58.58,0,0,1,0,.14h0a1,1,0,0,1-.92.67.81.81,0,0,1-.31-.06m.09,2.79h0a1,1,0,0,1-1.24.6A1,1,0,0,1,96,54.87h0a1,1,0,0,1,1.85.61m-1.5,3.92h0l-.1.05a.93.93,0,0,1-.46.12,1.19,1.19,0,0,1-.32,0,1,1,0,0,1-.6-1.21h0a1,1,0,0,1,1.25-.6.94.94,0,0,1,.43.3h0l0,0a1,1,0,0,1,.19.61,1,1,0,0,1-.42.8m-.79,2.92h0a1,1,0,0,1-.94.6,1.12,1.12,0,0,1-.31,0,1,1,0,0,1-.6-1.21h0a1,1,0,1,1,1.89.46.88.88,0,0,1,0,.15m-1.14,3.41h0a1,1,0,0,1-.93.66,1.1,1.1,0,0,1-.31,0,1,1,0,0,1-.61-1.25,1,1,0,0,1,1.86.63h0m3.88-17.67h0a1,1,0,0,1,1.85.6h0a1,1,0,0,1-.93.67,1,1,0,0,1-.3-.05,1,1,0,0,1-.61-1.21m1.15-3.43h0a1,1,0,1,1,1.89.46.83.83,0,0,1,0,.15h0a1,1,0,0,1-.93.66.84.84,0,0,1-.31,0,1,1,0,0,1-.6-1.21m1.14-3.42h0a1,1,0,0,1,1.85.61h0a1,1,0,0,1-.92.67.87.87,0,0,1-.32-.06,1,1,0,0,1-.6-1.21m1.1-3.45a1,1,0,0,1,1.86.61h0a1,1,0,0,1-.92.66.81.81,0,0,1-.31,0,1,1,0,0,1-.61-1.21m3.47,4.79a1,1,0,0,1-.6,1.24.84.84,0,0,1-.31,0,1,1,0,0,1-.92-.66h0a1,1,0,0,1,1.85-.61m0,12.89h-5.07L102.66,48Zm1-9.76h0a1,1,0,0,1-.61,1.21.81.81,0,0,1-.31.06,1,1,0,0,1-.92-.67h0a1,1,0,0,1,.71-1.17,1,1,0,0,1,1.13.57m1.06,3.14h0a1,1,0,0,1-.6,1.21,1.12,1.12,0,0,1-.31,0,1,1,0,0,1-.93-.67h0a1,1,0,0,1,1.84-.64v0m10.11,19.75-11.5-34.29a.78.78,0,0,0-.74-.53h-5.06a.78.78,0,0,0-.74.53L87.89,68.7a.79.79,0,0,0,.5,1,1,1,0,0,0,.24,0h7.42a.8.8,0,0,0,.74-.53l2.11-6.3h7.58l2.12,6.3a.79.79,0,0,0,.74.53h7.41a.77.77,0,0,0,.78-.78h0a.81.81,0,0,0-.06-.31"/><path class="cls-1" d="M24.94,38.39v.06a1,1,0,0,1-.92.64,1,1,0,0,1-.33-.06,1,1,0,1,1,.64-1.8,1,1,0,0,1,.61,1.2m-1.09,3.23h0a1,1,0,0,1-.92.67,1.54,1.54,0,0,1-.31,0A1,1,0,0,1,22,41.07h0a1,1,0,0,1,1.9.45.66.66,0,0,1-.05.15m-1.08,3.15v0a1,1,0,0,1-.91.64.88.88,0,0,1-.33,0,1,1,0,1,1,1.26-.61m-1.08,3.22h0a1,1,0,0,1-.93.67,1.12,1.12,0,0,1-.31,0,1,1,0,0,1-.6-1.24h0a1,1,0,0,1,1.24-.6,1,1,0,0,1,.61,1.21m-1.08,3.22h0a1,1,0,0,1-.92.66,1.13,1.13,0,0,1-.32,0,1,1,0,0,1-.6-1.21h0A1,1,0,0,1,20,50a1,1,0,0,1,.72,1.17.66.66,0,0,1-.05.15M19.54,54.5h0a1,1,0,0,1-.93.67.84.84,0,0,1-.31-.05,1,1,0,0,1-.6-1.21h0a1,1,0,1,1,1.86.57v0m-1.08,3.22h0a1,1,0,0,1-.92.66.81.81,0,0,1-.31,0,1,1,0,0,1-.61-1.21h0a1,1,0,0,1,1.87.57l0,0M17.4,61h0a1,1,0,0,1-.93.67.8.8,0,0,1-.3-.06,1,1,0,1,1,1.21-.64m-2.23,5.45a1.13,1.13,0,0,1-.32.05,1,1,0,0,1-.9-.69h0a1,1,0,1,1,1.24.59h0m-2.38-4h0a1,1,0,1,1,1.84-.64v0h0a1,1,0,0,1-.6,1.21.83.83,0,0,1-.31,0,1,1,0,0,1-.93-.65m-1.14-3.42h0a1,1,0,1,1,1.79-.76.88.88,0,0,1,.05.15h0a1,1,0,0,1-.6,1.24,1.13,1.13,0,0,1-.32.05,1,1,0,0,1-.92-.67m-1.15-3.41h0a1,1,0,0,1,.65-1.22,1,1,0,0,1,1.2.61h0a1,1,0,0,1-.6,1.21.81.81,0,0,1-.31.06,1,1,0,0,1-.93-.67M9.33,52.08h0a1,1,0,0,1,1.7-.95,1.12,1.12,0,0,1,.12.35h0a1,1,0,0,1-.61,1.21,1.06,1.06,0,0,1-.31.05,1,1,0,0,1-.92-.66M8.16,48.66h0A1,1,0,0,1,10,48.05h0a1,1,0,0,1-.6,1.21.89.89,0,0,1-.32.05,1,1,0,0,1-.93-.66M7,45.23H7a1,1,0,1,1,1.7-.95,1,1,0,0,1,.12.35h0a1,1,0,0,1-.61,1.21,1.06,1.06,0,0,1-.31,0A1,1,0,0,1,7,45.23M5.85,41.81h0a1,1,0,1,1,1.84-.64v0h0a1,1,0,0,1-.61,1.21,1.06,1.06,0,0,1-.31,0,1,1,0,0,1-.93-.66M4.71,38.39h0A1,1,0,1,1,6,39a.87.87,0,0,1-.32.06,1,1,0,0,1-.92-.67M29.5,34.09a.79.79,0,0,0-.6-.32H21.49a.77.77,0,0,0-.74.53L14.84,51.9,8.93,34.34a.79.79,0,0,0-.74-.53H.78a.78.78,0,0,0-.74,1L11.57,69.19a.78.78,0,0,0,.74.53h5a.77.77,0,0,0,.74-.53L29.66,34.84a.79.79,0,0,0-.1-.7"/><path class="cls-1" d="M42.33,28.27,36.52,16.62A9,9,0,0,0,31.6,0H23.19a.64.64,0,0,0-.64.63V28.55a.64.64,0,0,0,.64.64H28.9a.64.64,0,0,0,.63-.64h0V18.26l5.28,10.58a.65.65,0,0,0,.57.35h6.4a.64.64,0,0,0,.63-.64.71.71,0,0,0-.06-.28ZM37.11,12.15h0a.79.79,0,0,1-1.38-.75h0a.79.79,0,1,1,1.49.55A.56.56,0,0,1,37.11,12.15ZM37.92,9h0a.78.78,0,0,1-.73.85.8.8,0,0,1-.86-.73V9h0a.8.8,0,0,1,1.59,0ZM36,5.61a.8.8,0,0,1,1.08.3h0a.79.79,0,0,1-1.38.78h0A.8.8,0,0,1,36,5.61ZM33.77,3.87a.8.8,0,0,1,1.09-.27h0a.8.8,0,0,1-.41,1.48A.78.78,0,0,1,34,5h0a.78.78,0,0,1-.27-1.08Zm1.12,10.6h0a.79.79,0,1,1,.41-.68.8.8,0,0,1-.41.68ZM33.67,9a2.05,2.05,0,0,1-2,2.06h-2.1V7h2.08A2.06,2.06,0,0,1,33.67,9ZM31.76,2.7h0a.79.79,0,1,1,0,1.58H31.7a.79.79,0,0,1-.77-.81.8.8,0,0,1,.82-.77ZM26,26.49a.79.79,0,0,1-.79-.79h0a.79.79,0,0,1,.79-.8.8.8,0,0,1,0,1.6h0Zm.8-3.56a.8.8,0,0,1-1.59,0h0a.79.79,0,0,1,.85-.73A.8.8,0,0,1,26.84,22.93Zm0-2.78a.81.81,0,0,1-.86.74.79.79,0,0,1-.73-.74h0A.79.79,0,0,1,26,19.3a.8.8,0,0,1,.86.73Zm0-2.77a.8.8,0,0,1-1.59,0h0a.79.79,0,0,1,.85-.73A.8.8,0,0,1,26.84,17.38Zm0-2.78a.81.81,0,0,1-.74.86.8.8,0,0,1-.85-.73.28.28,0,0,1,0-.13h0a.79.79,0,0,1,.85-.73A.8.8,0,0,1,26.84,14.6Zm0-2.77a.81.81,0,0,1-.86.73.79.79,0,0,1-.73-.73h0a.8.8,0,0,1,.85-.74A.81.81,0,0,1,26.84,11.83Zm0-2.78a.8.8,0,0,1-1.59,0h0A.8.8,0,0,1,26,8.19a.81.81,0,0,1,.86.74Zm0-2.77A.8.8,0,0,1,26,7a.79.79,0,0,1-.73-.73h0a.79.79,0,0,1,.85-.73A.8.8,0,0,1,26.84,6.28Zm-.8-2a.79.79,0,0,1-.79-.79h0a.79.79,0,0,1,.79-.8.8.8,0,0,1,.8.8.79.79,0,0,1-.8.79Zm2.85-1.59h0A.79.79,0,1,1,29,4.3h-.12a.78.78,0,0,1-.73-.85A.79.79,0,0,1,28.89,2.72Zm0,12.69h0a.8.8,0,1,1,0-1.59h0a.8.8,0,0,1,0,1.59Zm2.85,0h0a.81.81,0,0,1-.73-.86.79.79,0,0,1,.73-.73h0a.79.79,0,0,1,.82.77.78.78,0,0,1-.75.81h-.07ZM33,18.19a.8.8,0,0,1-.71-.44h0a.8.8,0,0,1,.36-1.06.78.78,0,0,1,1.06.36h0a.79.79,0,0,1-.35,1.06.74.74,0,0,1-.36.06Zm1.74,2.69a.73.73,0,0,1-.35.09.8.8,0,0,1-.71-.46h0A.8.8,0,0,1,34,19.43a.81.81,0,0,1,1.08.34h0a.79.79,0,0,1-.3,1.07l-.05,0Zm1,2.87a.83.83,0,0,1-.71-.45h0a.79.79,0,0,1,1.42-.71h0a.79.79,0,0,1-.71,1.14Zm1.74,2.68a.85.85,0,0,1-.35.08.79.79,0,1,1,.7-1.16h0a.8.8,0,0,1-.35,1.06Z"/></g></g></svg>