<svg xmlns="http://www.w3.org/2000/svg" viewBox="0 0 80.64 80.64"><defs><style>.cls-1{fill:#fff;}</style></defs><title>Recurso 2</title><g id="Capa_2" data-name="Capa 2"><g id="Capa_1-2" data-name="Capa 1"><circle class="cls-1" cx="40.32" cy="40.32" r="40.32"/><path d="M65,27.84a6.46,6.46,0,0,0-4.55-4.58c-4-1.08-20.13-1.08-20.13-1.08s-16.11,0-20.12,1.08a6.46,6.46,0,0,0-4.56,4.58c-1.07,4.05-1.07,12.48-1.07,12.48s0,8.44,1.07,12.48a6.49,6.49,0,0,0,4.56,4.59c4,1.08,20.12,1.08,20.12,1.08s16.11,0,20.13-1.08A6.49,6.49,0,0,0,65,52.8c1.08-4,1.08-12.48,1.08-12.48S66.08,31.89,65,27.84Z"/><polygon class="cls-1" points="33.59 47.98 33.59 32.66 47.05 40.32 33.59 47.98"/></g></g></svg>